<svg width="72px" height="26px" viewBox="0 0 72 26" version="1.1" xmlns="http://www.w3.org/2000/svg" xmlns:xlink="http://www.w3.org/1999/xlink"><g id="amazon-m" stroke="none" stroke-width="1" fill="none" fill-rule="evenodd"><g id="icon"><rect id="Rectangle" stroke="#F2C861" fill="#F2C861" x="0.367346939" y="0.371428571" width="71.2653061" height="25.2571429" rx="4"></rect><path d="M12.9903337,15.6756879 C12.9209051,15.7393879 12.8199765,15.7432879 12.741548,15.7010379 C12.390548,15.4059379 12.327548,15.2700879 12.1366194,14.9892879 C11.5567622,15.5859879 11.1466194,15.7653879 10.3964051,15.7653879 C9.50733367,15.7653879 8.81626224,15.2109379 8.81626224,14.1020379 C8.81626224,13.2355879 9.2804051,12.6466879 9.9419051,12.3574379 C10.5146908,12.1032879 11.3144051,12.0571379 11.9264051,11.9882379 L11.9264051,11.8491379 C11.9264051,11.5949879 11.9463337,11.2946879 11.7984765,11.0756379 C11.6699051,10.8793379 11.423048,10.7980879 11.2057622,10.7980879 C10.8033337,10.7980879 10.4452622,11.0067379 10.3578337,11.4389879 C10.3391908,11.5351879 10.2697622,11.6300879 10.1739765,11.6352879 L9.15119082,11.5228379 C9.0644051,11.5033379 8.96861939,11.4331379 8.99369082,11.2998879 C9.22511939,10.0622879 10.3186194,9.67683786 11.3118337,9.66643786 L11.3902622,9.66643786 C11.8987622,9.67293786 12.548048,9.81333786 12.9434051,10.1974879 C13.457048,10.6823879 13.407548,11.3291379 13.407548,12.0343879 L13.407548,13.6964379 C13.407548,14.1969379 13.6132622,14.4159879 13.8061194,14.6857379 C13.8729765,14.7832379 13.8884051,14.8982879 13.8022622,14.9697879 C13.5869051,15.1524379 13.2037622,15.4884879 12.9929051,15.6782879 L12.9903337,15.6756879 Z M11.9264051,13.0737379 L11.9264051,12.8429879 C11.1633337,12.8429879 10.356548,13.0080879 10.356548,13.9167879 C10.356548,14.3789379 10.5937622,14.6909379 10.9981194,14.6909379 C11.2944765,14.6909379 11.5612622,14.5063379 11.729048,14.2060379 C11.9366908,13.8361879 11.9264051,13.4897379 11.9264051,13.0737379 Z M26.8268694,15.6756879 C26.7574408,15.7393879 26.6565122,15.7432879 26.5780837,15.7010379 C26.2270837,15.4059379 26.1647265,15.2700879 25.9725122,14.9892879 C25.393298,15.5859879 24.9831551,15.7653879 24.232298,15.7653879 C23.3438694,15.7653879 22.652798,15.2109379 22.652798,14.1020379 C22.652798,13.2355879 23.1169408,12.6466879 23.7784408,12.3574379 C24.3505837,12.1032879 25.1509408,12.0571379 25.7629408,11.9882379 L25.7629408,11.8491379 C25.7629408,11.5949879 25.7828694,11.2946879 25.6343694,11.0756379 C25.5064408,10.8793379 25.2595837,10.7980879 25.042298,10.7980879 C24.6392265,10.7980879 24.281798,11.0067379 24.1937265,11.4389879 C24.1750837,11.5351879 24.106298,11.6300879 24.0105122,11.6352879 L22.9877265,11.5228379 C22.9009408,11.5033379 22.8051551,11.4331379 22.8302265,11.2998879 C23.0616551,10.0622879 24.1551551,9.67683786 25.1483694,9.66643786 L25.226798,9.66643786 C25.735298,9.67293786 26.3845837,9.81333786 26.7799408,10.1974879 C27.2935837,10.6823879 27.2440837,11.3291379 27.2440837,12.0343879 L27.2440837,13.6964379 C27.2440837,14.1969379 27.449798,14.4159879 27.6420122,14.6857379 C27.7101551,14.7832379 27.7249408,14.8982879 27.638798,14.9697879 C27.4234408,15.1524379 27.040298,15.4884879 26.8294408,15.6782879 L26.8268694,15.6756879 Z M25.7629408,13.0737379 L25.7629408,12.8429879 C24.9998694,12.8429879 24.1930837,13.0080879 24.1930837,13.9167879 C24.1930837,14.3789379 24.430298,14.6909379 24.8346551,14.6909379 C25.1310122,14.6909379 25.397798,14.5063379 25.5655837,14.2060379 C25.7725837,13.8361879 25.7629408,13.4897379 25.7629408,13.0737379 Z M29.9732051,17.7922829 C27.9912765,19.2710329 25.1189908,20.0568829 22.6452765,20.0568829 C19.178348,20.0568829 16.0566337,18.7614329 13.6941337,16.6047329 C13.5089908,16.4350829 13.6742051,16.2036829 13.8972765,16.3349829 C16.4462051,17.8345329 19.5981337,18.7380329 22.8535622,18.7380329 C25.0495622,18.7380329 27.4634908,18.2771829 29.6852051,17.3242829 C30.0201337,17.1806329 30.3010622,17.5478829 29.9732051,17.7922829 Z M30.7974765,16.8404229 C30.5441908,16.5128229 29.1221908,16.6850729 28.4831908,16.7624229 C28.2903337,16.7858229 28.2601194,16.6148729 28.4343337,16.4913729 C29.5689765,15.6860229 31.4268337,15.9187229 31.6428337,16.1884729 C31.8607622,16.4601729 31.5862622,18.3438729 30.5229765,19.2428229 C30.3596908,19.3812729 30.2041194,19.3071729 30.2767622,19.1251729 C30.5159051,18.5206729 31.0514051,17.1686729 30.7974765,16.8404229 Z M28.5286408,10.8009479 L28.5286408,10.0183479 C28.5292837,9.89874786 28.617998,9.82009786 28.7247122,9.82009786 L32.1942122,9.82009786 C32.3054265,9.82009786 32.3941408,9.90134786 32.3941408,10.0170479 L32.3941408,10.6884979 C32.393498,10.8009479 32.2996408,10.9478479 32.1331408,11.1811979 L30.3363551,13.7759979 C31.002998,13.7597479 31.7088551,13.8611479 32.3150694,14.2056479 C32.4513551,14.2829979 32.487998,14.3980479 32.4989265,14.5111479 L32.4989265,15.3457479 C32.4989265,15.4607979 32.3742122,15.5940479 32.2430694,15.5251479 C31.1759265,14.9589979 29.7584265,14.8978979 28.577498,15.5316479 C28.4566408,15.5966479 28.3306408,15.4653479 28.3306408,15.3502979 L28.3306408,14.5566479 C28.3306408,14.4292479 28.3332122,14.2121479 28.4598551,14.0184479 L30.5420694,10.9985479 L28.7292122,10.9978979 C28.6186408,10.9978979 28.5292837,10.9179479 28.5286408,10.8009479 Z M15.8733551,15.6895979 L14.8177837,15.6895979 C14.717498,15.6830979 14.6371408,15.6063979 14.6287837,15.5088979 L14.6294265,10.0313479 C14.6294265,9.92214786 14.7207122,9.83439786 14.8332122,9.83439786 L15.8167837,9.83439786 C15.918998,9.83959786 16.0019265,9.91824786 16.0083551,10.0183479 L16.0083551,10.7333479 L16.0282837,10.7333479 C16.2841408,10.0417479 16.7669265,9.71869786 17.4168551,9.71869786 C18.0770694,9.71869786 18.4910694,10.0417479 18.7867837,10.7333479 C19.0432837,10.0417479 19.6244265,9.71869786 20.2447837,9.71869786 C20.6883551,9.71869786 21.1711408,9.90329786 21.4668551,10.3179979 C21.8017837,10.7794979 21.732998,11.4476979 21.732998,12.0359479 L21.7317122,15.4926479 C21.7317122,15.6018479 21.6410694,15.6895979 21.5279265,15.6895979 L20.4742837,15.6895979 C20.3682122,15.6824479 20.2846408,15.5979479 20.2846408,15.4926479 L20.2846408,12.5884479 C20.2846408,12.3583479 20.3039265,11.7824479 20.2544265,11.5633979 C20.175998,11.1941979 19.9394265,11.0901979 19.6340694,11.0901979 C19.3782122,11.0901979 19.1120694,11.2630979 19.0034265,11.5399979 C18.8954265,11.8168979 18.9050694,12.2777479 18.9050694,12.5884479 L18.9050694,15.4926479 C18.9050694,15.6018479 18.8137837,15.6895979 18.7012837,15.6895979 L17.646998,15.6895979 C17.5409265,15.6824479 17.4573551,15.5979479 17.4573551,15.4926479 L17.4567122,12.5884479 C17.4567122,11.9780979 17.5550694,11.0791479 16.8061408,11.0791479 C16.0475694,11.0791479 16.0771408,11.9546979 16.0771408,12.5884479 L16.0771408,15.4926479 C16.0771408,15.6018479 15.9858551,15.6895979 15.8733551,15.6895979 Z M35.3809837,9.71902286 C36.9476265,9.71902286 37.7949122,11.0794729 37.7949122,12.8078229 C37.7949122,14.4789729 36.8589122,15.8049729 35.3809837,15.8049729 C33.8439122,15.8049729 33.0062694,14.4445229 33.0062694,12.7506229 C33.0062694,11.0443729 33.854198,9.71902286 35.3809837,9.71902286 Z M35.3906265,10.8370229 C34.6121265,10.8370229 34.5632694,11.9088729 34.5632694,12.5770729 C34.5632694,13.2459229 34.5529837,14.6752729 35.3809837,14.6752729 C36.198698,14.6752729 36.2379122,13.5228229 36.2379122,12.8201729 C36.2379122,12.3586729 36.2186265,11.8048729 36.0804122,11.3674229 C35.9621265,10.9871729 35.7255551,10.8370229 35.3906265,10.8370229 Z M39.8263408,15.6895979 L38.7746265,15.6895979 C38.669198,15.6824479 38.5849837,15.5979479 38.5849837,15.4926479 L38.583698,10.0137979 C38.592698,9.91304786 38.6801265,9.83439786 38.786198,9.83439786 L39.7652694,9.83439786 C39.8578408,9.83959786 39.933698,9.90264786 39.9529837,9.98779786 L39.9529837,10.8256479 L39.9729122,10.8256479 C40.2686265,10.0761979 40.6819837,9.71869786 41.4109837,9.71869786 C41.8841265,9.71869786 42.3469837,9.89159786 42.642698,10.3647979 C42.9184837,10.8022479 42.9184837,11.5399979 42.9184837,12.0703979 L42.9184837,15.5166979 C42.9069122,15.6141979 42.8207694,15.6895979 42.7166265,15.6895979 L41.6584837,15.6895979 C41.5607694,15.6830979 41.481698,15.6102979 41.4707694,15.5166979 L41.4707694,12.5429479 C41.4707694,11.9436479 41.5395551,11.0674479 40.8105551,11.0674479 C40.5540551,11.0674479 40.3174837,11.2403479 40.1998408,11.5055479 C40.0519837,11.8396479 40.0320551,12.1737479 40.0320551,12.5429479 L40.0320551,15.4926479 C40.0301265,15.6018479 39.9388408,15.6895979 39.8263408,15.6895979 Z" id="Combined-Shape" fill="#000000" fill-rule="nonzero"></path><path d="M57.3470265,17.6542229 L57.3470265,17.2518729 C57.3470265,17.1374729 57.4023122,17.0581729 57.520598,17.0653229 C57.741098,17.0971729 58.0535265,17.1283729 58.2740265,17.0828729 C58.5639551,17.0217729 58.7709551,16.8144229 58.8937408,16.5303729 C59.0666694,16.1306229 59.1817408,15.8082229 59.2537408,15.5963229 L57.0577408,10.0966729 C57.0204551,10.0030729 57.0101694,9.83017286 57.1946694,9.83017286 L57.961598,9.83017286 C58.1081694,9.83017286 58.1673122,9.92377286 58.200098,10.0160729 L59.7924551,14.4835229 L61.3121694,10.0160729 C61.3430265,9.92442286 61.4047408,9.83017286 61.5506694,9.83017286 L62.2738837,9.83017286 C62.457098,9.83017286 62.4474551,10.0030729 62.4108122,10.0966729 L60.2321694,15.7679229 C59.950598,16.5232229 59.5751694,17.7257229 58.7291694,17.9343729 C58.3055265,18.0468229 57.7706694,18.0058729 57.4569551,17.8726229 C57.3772408,17.8329729 57.3470265,17.7250729 57.3470265,17.6542229 Z M55.2828765,14.2594679 L55.2828765,13.1284679 C54.9196622,13.0277179 54.317948,12.9867679 54.0858765,12.9867679 C53.7175194,12.9867679 53.3150908,13.0738679 53.1055194,13.3033179 C52.9480194,13.4710179 52.8773051,13.7115179 52.8773051,13.9442179 C52.8773051,14.2451679 52.9801622,14.5474179 53.2205908,14.6962679 C53.5002337,14.8880179 53.9335194,14.8652679 54.3410908,14.7476179 C54.7325908,14.6358179 55.1003051,14.4369179 55.2828765,14.2594679 Z M56.3230194,15.3540679 C56.3230194,15.4567679 56.239448,15.5406179 56.1385194,15.5406179 L55.5972337,15.5406179 C55.4802337,15.5406179 55.4005194,15.4548179 55.3850908,15.3540679 L55.3310908,14.9816179 C55.0823051,15.1941679 54.776948,15.3813679 54.4452337,15.5120179 C53.809448,15.7622679 53.0753051,15.8032179 52.4536622,15.4171179 C52.0030194,15.1376179 51.7645194,14.5922679 51.7645194,14.0293679 C51.7645194,13.5938679 51.8975908,13.1622679 52.1913765,12.8483179 C52.5848051,12.4199679 53.1530908,12.2093679 53.8415908,12.2093679 C54.2562337,12.2093679 54.8502337,12.2587679 55.2828765,12.4017679 L55.2828765,11.6523179 C55.2828765,10.8898679 54.9653051,10.5596679 54.1283051,10.5596679 C53.4886622,10.5596679 52.9988051,10.6571679 52.3186622,10.8716679 C52.2093765,10.8749179 52.1457337,10.7917179 52.1457337,10.6890179 L52.1457337,10.2619679 C52.1457337,10.1592679 52.2325194,10.0598179 52.3257337,10.0299179 C52.8123765,9.81541786 53.5015194,9.68216786 54.2337337,9.65681786 C55.1883765,9.65681786 56.3230194,9.87456786 56.3230194,11.3598179 L56.3230194,15.3540679 Z M46.7135265,17.8506529 L45.9883837,17.8506529 C45.8874551,17.8506529 45.8045265,17.7668029 45.8045265,17.6641029 L45.8045265,10.0259529 C45.8045265,9.92390286 45.8874551,9.84005286 45.9883837,9.84005286 L46.5431694,9.84005286 C46.6601694,9.84005286 46.7398837,9.92520286 46.7546694,10.0259529 L46.8131694,10.4263529 C47.3332408,9.95965286 48.0024551,9.66065286 48.6395265,9.66065286 C50.4253837,9.66065286 51.0123122,11.1478529 51.0123122,12.6948529 C51.0123122,14.3504029 50.1142408,15.6803029 48.5958122,15.6803029 C47.9561694,15.6803029 47.3576694,15.4411029 46.8973837,15.0264029 L46.8973837,17.6641029 C46.8973837,17.7668029 46.8144551,17.8506529 46.7135265,17.8506529 Z M48.3418837,10.5765029 C47.881598,10.5765029 47.3306694,10.7578529 46.8973837,11.0939029 L46.8973837,14.2204029 C47.3133122,14.5311029 47.8693837,14.7534029 48.2923837,14.7534029 C48.7668122,14.7534029 49.083098,14.6773529 49.3653122,14.3952529 C49.7433122,14.0189029 49.8770265,13.3617529 49.8699551,12.6246529 C49.8699551,11.5313529 49.5427408,10.5765029 48.3418837,10.5765029 Z" id="Fill-24" fill="#000000" fill-rule="nonzero"></path></g></g></svg>