<?xml version="1.0" encoding="UTF-8"?>
<svg width="98px" height="36px" viewBox="0 0 98 36" version="1.1" xmlns="http://www.w3.org/2000/svg" xmlns:xlink="http://www.w3.org/1999/xlink">
    <!-- Generator: Sketch 52.6 (67491) - http://www.bohemiancoding.com/sketch -->
    <title>amazon-d</title>
    <desc>Created with Sketch.</desc>
    <g id="amazon-d" stroke="none" stroke-width="1" fill="none" fill-rule="evenodd">
        <g id="icon">
            <rect id="Rectangle" stroke="#F2C861" fill="#F2C861" x="0.5" y="0.514285714" width="97" height="34.9714286" rx="4"></rect>
            <path d="M17.6812875,21.7047986 C17.5867875,21.7929986 17.4494125,21.7983986 17.3426625,21.7398986 C16.8649125,21.3312986 16.7791625,21.1431986 16.5192875,20.7543986 C15.7300375,21.5805986 15.1717875,21.8289986 14.1506625,21.8289986 C12.9405375,21.8289986 11.9999125,21.0612986 11.9999125,19.5258986 C11.9999125,18.3261986 12.6316625,17.5107986 13.5320375,17.1102986 C14.3116625,16.7583986 15.4001625,16.6944986 16.2331625,16.5990986 L16.2331625,16.4064986 C16.2331625,16.0545986 16.2602875,15.6387986 16.0590375,15.3354986 C15.8840375,15.0636986 15.5480375,14.9511986 15.2522875,14.9511986 C14.7045375,14.9511986 14.2171625,15.2400986 14.0981625,15.8385986 C14.0727875,15.9717986 13.9782875,16.1031986 13.8479125,16.1103986 L12.4557875,15.9546986 C12.3376625,15.9276986 12.2072875,15.8304986 12.2414125,15.6459986 C12.5564125,13.9323986 14.0447875,13.3986986 15.3966625,13.3842986 L15.5034125,13.3842986 C16.1955375,13.3932986 17.0792875,13.5876986 17.6174125,14.1195986 C18.3165375,14.7909986 18.2491625,15.6864986 18.2491625,16.6629986 L18.2491625,18.9642986 C18.2491625,19.6572986 18.5291625,19.9605986 18.7916625,20.3340986 C18.8826625,20.4690986 18.9036625,20.6283986 18.7864125,20.7273986 C18.4932875,20.9802986 17.9717875,21.4455986 17.6847875,21.7083986 L17.6812875,21.7047986 Z M16.2331625,18.1020986 L16.2331625,17.7825986 C15.1945375,17.7825986 14.0964125,18.0111986 14.0964125,19.2693986 C14.0964125,19.9092986 14.4192875,20.3412986 14.9696625,20.3412986 C15.3730375,20.3412986 15.7361625,20.0856986 15.9645375,19.6698986 C16.2471625,19.1577986 16.2331625,18.6780986 16.2331625,18.1020986 Z M36.51435,21.7047986 C36.41985,21.7929986 36.282475,21.7983986 36.175725,21.7398986 C35.697975,21.3312986 35.6131,21.1431986 35.351475,20.7543986 C34.5631,21.5805986 34.00485,21.8289986 32.98285,21.8289986 C31.7736,21.8289986 30.832975,21.0612986 30.832975,19.5258986 C30.832975,18.3261986 31.464725,17.5107986 32.3651,17.1102986 C33.14385,16.7583986 34.233225,16.6944986 35.066225,16.5990986 L35.066225,16.4064986 C35.066225,16.0545986 35.09335,15.6387986 34.891225,15.3354986 C34.7171,15.0636986 34.3811,14.9511986 34.08535,14.9511986 C33.536725,14.9511986 33.050225,15.2400986 32.93035,15.8385986 C32.904975,15.9717986 32.81135,16.1031986 32.680975,16.1103986 L31.28885,15.9546986 C31.170725,15.9276986 31.04035,15.8304986 31.074475,15.6459986 C31.389475,13.9323986 32.87785,13.3986986 34.229725,13.3842986 L34.336475,13.3842986 C35.0286,13.3932986 35.91235,13.5876986 36.450475,14.1195986 C37.1496,14.7909986 37.082225,15.6864986 37.082225,16.6629986 L37.082225,18.9642986 C37.082225,19.6572986 37.362225,19.9605986 37.62385,20.3340986 C37.7166,20.4690986 37.736725,20.6283986 37.619475,20.7273986 C37.32635,20.9802986 36.80485,21.4455986 36.51785,21.7083986 L36.51435,21.7047986 Z M35.066225,18.1020986 L35.066225,17.7825986 C34.0276,17.7825986 32.929475,18.0111986 32.929475,19.2693986 C32.929475,19.9092986 33.25235,20.3412986 33.802725,20.3412986 C34.2061,20.3412986 34.569225,20.0856986 34.7976,19.6698986 C35.07935,19.1577986 35.066225,18.6780986 35.066225,18.1020986 Z M40.7968625,24.6354686 C38.0992375,26.6829686 34.1897375,27.7710686 30.8227375,27.7710686 C26.1038625,27.7710686 21.8548625,25.9773686 18.6392375,22.9911686 C18.3872375,22.7562686 18.6121125,22.4358686 18.9157375,22.6176686 C22.3851125,24.6939686 26.6752375,25.9449686 31.1062375,25.9449686 C34.0952375,25.9449686 37.3808625,25.3068686 40.4048625,23.9874686 C40.8607375,23.7885686 41.2431125,24.2970686 40.7968625,24.6354686 Z M41.9187875,23.3175086 C41.5740375,22.8639086 39.6385375,23.1024086 38.7687875,23.2095086 C38.5062875,23.2419086 38.4651625,23.0052086 38.7022875,22.8342086 C40.2466625,21.7191086 42.7754125,22.0413086 43.0694125,22.4148086 C43.3660375,22.7910086 42.9924125,25.3992086 41.5451625,26.6439086 C41.3229125,26.8356086 41.1111625,26.7330086 41.2100375,26.4810086 C41.5355375,25.6440086 42.2644125,23.7720086 41.9187875,23.3175086 Z M38.83065,14.9551586 L38.83065,13.8715586 C38.831525,13.7059586 38.952275,13.5970586 39.097525,13.5970586 L43.8199,13.5970586 C43.971275,13.5970586 44.092025,13.7095586 44.092025,13.8697586 L44.092025,14.7994586 C44.09115,14.9551586 43.9634,15.1585586 43.736775,15.4816586 L41.29115,19.0744586 C42.198525,19.0519586 43.159275,19.1923586 43.9844,19.6693586 C44.1699,19.7764586 44.219775,19.9357586 44.23465,20.0923586 L44.23465,21.2479586 C44.23465,21.4072586 44.0649,21.5917586 43.8864,21.4963586 C42.4339,20.7124586 40.504525,20.6278586 38.89715,21.5053586 C38.73265,21.5953586 38.56115,21.4135586 38.56115,21.2542586 L38.56115,20.1553586 C38.56115,19.9789586 38.56465,19.6783586 38.737025,19.4101586 L41.57115,15.2287586 L39.10365,15.2278586 C38.95315,15.2278586 38.831525,15.1171586 38.83065,14.9551586 Z M21.6054,21.7240586 L20.16865,21.7240586 C20.03215,21.7150586 19.922775,21.6088586 19.9114,21.4738586 L19.912275,13.8895586 C19.912275,13.7383586 20.036525,13.6168586 20.18965,13.6168586 L21.5284,13.6168586 C21.667525,13.6240586 21.7804,13.7329586 21.78915,13.8715586 L21.78915,14.8615586 L21.816275,14.8615586 C22.164525,13.9039586 22.82165,13.4566586 23.706275,13.4566586 C24.6049,13.4566586 25.1684,13.9039586 25.5709,14.8615586 C25.920025,13.9039586 26.711025,13.4566586 27.5554,13.4566586 C28.15915,13.4566586 28.816275,13.7122586 29.218775,14.2864586 C29.67465,14.9254586 29.581025,15.8506586 29.581025,16.6651586 L29.579275,21.4513586 C29.579275,21.6025586 29.4559,21.7240586 29.3019,21.7240586 L27.867775,21.7240586 C27.7234,21.7141586 27.60965,21.5971586 27.60965,21.4513586 L27.60965,17.4301586 C27.60965,17.1115586 27.6359,16.3141586 27.568525,16.0108586 C27.461775,15.4996586 27.139775,15.3556586 26.72415,15.3556586 C26.3759,15.3556586 26.01365,15.5950586 25.865775,15.9784586 C25.718775,16.3618586 25.7319,16.9999586 25.7319,17.4301586 L25.7319,21.4513586 C25.7319,21.6025586 25.60765,21.7240586 25.454525,21.7240586 L24.019525,21.7240586 C23.87515,21.7141586 23.7614,21.5971586 23.7614,21.4513586 L23.760525,17.4301586 C23.760525,16.5850586 23.8944,15.3403586 22.875025,15.3403586 C21.842525,15.3403586 21.882775,16.5526586 21.882775,17.4301586 L21.882775,21.4513586 C21.882775,21.6025586 21.758525,21.7240586 21.6054,21.7240586 Z M48.15745,13.4571086 C50.289825,13.4571086 51.443075,15.3408086 51.443075,17.7339086 C51.443075,20.0478086 50.169075,21.8838086 48.15745,21.8838086 C46.065325,21.8838086 44.9252,20.0001086 44.9252,17.6547086 C44.9252,15.2922086 46.079325,13.4571086 48.15745,13.4571086 Z M48.170575,15.0051086 C47.11095,15.0051086 47.04445,16.4892086 47.04445,17.4144086 C47.04445,18.3405086 47.03045,20.3196086 48.15745,20.3196086 C49.27045,20.3196086 49.323825,18.7239086 49.323825,17.7510086 C49.323825,17.1120086 49.297575,16.3452086 49.10945,15.7395086 C48.94845,15.2130086 48.62645,15.0051086 48.170575,15.0051086 Z M54.208075,21.7240586 L52.776575,21.7240586 C52.633075,21.7141586 52.51845,21.5971586 52.51845,21.4513586 L52.5167,13.8652586 C52.52895,13.7257586 52.64795,13.6168586 52.792325,13.6168586 L54.12495,13.6168586 C54.25095,13.6240586 54.3542,13.7113586 54.38045,13.8292586 L54.38045,14.9893586 L54.407575,14.9893586 C54.810075,13.9516586 55.3727,13.4566586 56.36495,13.4566586 C57.00895,13.4566586 57.63895,13.6960586 58.04145,14.3512586 C58.416825,14.9569586 58.416825,15.9784586 58.416825,16.7128586 L58.416825,21.4846586 C58.401075,21.6196586 58.283825,21.7240586 58.142075,21.7240586 L56.701825,21.7240586 C56.568825,21.7150586 56.4612,21.6142586 56.446325,21.4846586 L56.446325,17.3671586 C56.446325,16.5373586 56.53995,15.3241586 55.5477,15.3241586 C55.198575,15.3241586 54.876575,15.5635586 54.71645,15.9307586 C54.5152,16.3933586 54.488075,16.8559586 54.488075,17.3671586 L54.488075,21.4513586 C54.48545,21.6025586 54.3612,21.7240586 54.208075,21.7240586 Z" id="Combined-Shape" fill="#000000" fill-rule="nonzero"></path>
            <path d="M78.055675,24.4443086 L78.055675,23.8872086 C78.055675,23.7288086 78.130925,23.6190086 78.291925,23.6289086 C78.59205,23.6730086 79.0173,23.7162086 79.317425,23.6532086 C79.71205,23.5686086 79.9938,23.2815086 80.160925,22.8882086 C80.3963,22.3347086 80.552925,21.8883086 80.650925,21.5949086 L77.661925,13.9800086 C77.611175,13.8504086 77.597175,13.6110086 77.8483,13.6110086 L78.892175,13.6110086 C79.091675,13.6110086 79.172175,13.7406086 79.2168,13.8684086 L81.384175,20.0541086 L83.452675,13.8684086 C83.494675,13.7415086 83.578675,13.6110086 83.7773,13.6110086 L84.761675,13.6110086 C85.01105,13.6110086 84.997925,13.8504086 84.94805,13.9800086 L81.982675,21.8325086 C81.599425,22.8783086 81.088425,24.5433086 79.936925,24.8322086 C79.3603,24.9879086 78.6323,24.9312086 78.2053,24.7467086 C78.0968,24.6918086 78.055675,24.5424086 78.055675,24.4443086 Z M75.2461375,19.7438786 L75.2461375,18.1778786 C74.7517625,18.0383786 73.9327625,17.9816786 73.6168875,17.9816786 C73.1155125,17.9816786 72.5677625,18.1022786 72.2825125,18.4199786 C72.0681375,18.6521786 71.9718875,18.9851786 71.9718875,19.3073786 C71.9718875,19.7240786 72.1118875,20.1425786 72.4391375,20.3486786 C72.8197625,20.6141786 73.4095125,20.5826786 73.9642625,20.4197786 C74.4971375,20.2649786 74.9976375,19.9895786 75.2461375,19.7438786 Z M76.6618875,21.2594786 C76.6618875,21.4016786 76.5481375,21.5177786 76.4107625,21.5177786 L75.6740125,21.5177786 C75.5147625,21.5177786 75.4062625,21.3989786 75.3852625,21.2594786 L75.3117625,20.7437786 C74.9731375,21.0380786 74.5575125,21.2972786 74.1060125,21.4781786 C73.2406375,21.8246786 72.2413875,21.8813786 71.3952625,21.3467786 C70.7818875,20.9597786 70.4572625,20.2046786 70.4572625,19.4252786 C70.4572625,18.8222786 70.6383875,18.2246786 71.0382625,17.7899786 C71.5737625,17.1968786 72.3472625,16.9052786 73.2843875,16.9052786 C73.8487625,16.9052786 74.6572625,16.9736786 75.2461375,17.1716786 L75.2461375,16.1339786 C75.2461375,15.0782786 74.8138875,14.6210786 73.6746375,14.6210786 C72.8040125,14.6210786 72.1372625,14.7560786 71.2115125,15.0530786 C71.0627625,15.0575786 70.9761375,14.9423786 70.9761375,14.8001786 L70.9761375,14.2088786 C70.9761375,14.0666786 71.0942625,13.9289786 71.2211375,13.8875786 C71.8835125,13.5905786 72.8215125,13.4060786 73.8181375,13.3709786 C75.1175125,13.3709786 76.6618875,13.6724786 76.6618875,15.7289786 L76.6618875,21.2594786 Z M63.5823,24.7162886 L62.5953,24.7162886 C62.457925,24.7162886 62.34505,24.6001886 62.34505,24.4579886 L62.34505,13.8820886 C62.34505,13.7407886 62.457925,13.6246886 62.5953,13.6246886 L63.350425,13.6246886 C63.509675,13.6246886 63.618175,13.7425886 63.6383,13.8820886 L63.717925,14.4364886 C64.4258,13.7902886 65.336675,13.3762886 66.2038,13.3762886 C68.63455,13.3762886 69.433425,15.4354886 69.433425,17.5774886 C69.433425,19.8697886 68.21105,21.7111886 66.1443,21.7111886 C65.273675,21.7111886 64.45905,21.3799886 63.83255,20.8057886 L63.83255,24.4579886 C63.83255,24.6001886 63.719675,24.7162886 63.5823,24.7162886 Z M65.798675,14.6443886 C65.172175,14.6443886 64.4223,14.8954886 63.83255,15.3607886 L63.83255,19.6897886 C64.398675,20.1199886 65.15555,20.4277886 65.7313,20.4277886 C66.37705,20.4277886 66.80755,20.3224886 67.191675,19.9318886 C67.706175,19.4107886 67.888175,18.5008886 67.87855,17.4802886 C67.87855,15.9664886 67.433175,14.6443886 65.798675,14.6443886 Z" id="Fill-24" fill="#000000" fill-rule="nonzero"></path>
        </g>
    </g>
</svg>