<?xml version="1.0" encoding="UTF-8"?>
<svg width="98px" height="36px" viewBox="0 0 98 36" version="1.1" xmlns="http://www.w3.org/2000/svg" xmlns:xlink="http://www.w3.org/1999/xlink">
    <!-- Generator: Sketch 52.6 (67491) - http://www.bohemiancoding.com/sketch -->
    <title>apple-d</title>
    <desc>Created with Sketch.</desc>
    <g id="apple-d" stroke="none" stroke-width="1" fill="none" fill-rule="evenodd">
        <g id="icon">
            <rect id="Rectangle" stroke="#000000" x="0.5" y="0.514285714" width="97" height="34.9714286" rx="4"></rect>
            <path d="M47.7228007,10.5572481 C50.0625931,10.5572481 51.6920247,12.2765863 51.6920247,14.779819 C51.6920247,17.2919966 50.0292226,19.0203482 47.6642898,19.0203482 L45.0736722,19.0203482 L45.0736722,23.411981 L43.2018062,23.411981 L43.2018062,10.5572481 L47.7228007,10.5572481 Z M45.0736722,17.3454261 L47.2213431,17.3454261 C48.8509355,17.3454261 49.7783973,16.4101538 49.7783973,14.7887639 C49.7783973,13.1675453 48.8509355,12.2410124 47.2297018,12.2410124 L45.0736722,12.2410124 L45.0736722,17.3454261 Z" id="XMLID_41_" fill="#000000" fill-rule="nonzero"></path>
            <path d="M52.1564147,20.748597 C52.1564147,19.1004067 53.3347017,18.156121 55.5073201,18.0136882 L57.8387538,17.8621049 L57.8387538,17.1495295 C57.8387538,16.107227 57.1952948,15.5370845 56.050539,15.5370845 C55.1061348,15.5370845 54.4209145,16.0537633 54.2789131,16.8466028 L52.5908098,16.8466028 C52.6410905,15.180694 54.1117713,13.9692954 56.1006591,13.9692954 C58.2399391,13.9692954 59.635488,15.1630099 59.635488,17.015836 L59.635488,23.411981 L57.9056234,23.411981 L57.9056234,21.8709923 L57.8638942,21.8709923 C57.3708275,22.8775837 56.2844218,23.5099292 55.1061348,23.5099292 C53.3680401,23.5099292 52.1564147,22.4053894 52.1564147,20.748597 Z M57.8387538,19.9200465 L57.8387538,19.198355 L55.7579846,19.3409591 C54.5880884,19.4210519 53.9781607,19.8843013 53.9781607,20.6949962 C53.9781607,21.4788908 54.6132288,21.9868303 55.6075924,21.9868303 C56.8777286,21.9868303 57.8387538,21.1225003 57.8387538,19.9200465 Z" id="XMLID_38_" fill="#000000" fill-rule="nonzero"></path>
            <path d="M61.2257624,26.8506573 L61.2257624,25.3096685 C61.3427842,25.3272157 61.6268191,25.3450712 61.7771793,25.3450712 C62.6045617,25.3450712 63.0724881,24.9711679 63.3566838,24.0089239 L63.5238256,23.4387814 L60.3566507,14.0850992 L62.3120073,14.0850992 L64.5181891,21.6747873 L64.5599183,21.6747873 L66.7661001,14.0850992 L68.6714974,14.0850992 L65.3873008,23.9109756 C64.6352109,26.164711 63.7744579,26.9042581 61.9527119,26.9042581 C61.8107105,26.9042581 61.3510143,26.8864026 61.2257624,26.8506573 Z" id="XMLID_36_" fill="#000000"></path>
            <path d="M36.3346208,12.0085532 C36.7724192,11.4043525 37.0695056,10.5930366 36.9911624,9.76399065 C36.3502832,9.79917544 35.5682552,10.2305162 35.1154808,10.8352333 C34.7089448,11.3530557 34.3491152,12.198317 34.4429024,12.9926258 C35.162312,13.0614806 35.8810664,12.5958501 36.3346208,12.0085532" id="XMLID_46_" fill="#000000"></path>
            <path d="M36.982988,13.1477212 C35.9382248,13.0790385 35.0499608,13.8019793 34.5510104,13.8019793 C34.0518416,13.8019793 33.287816,13.1823207 32.461484,13.199018 C31.3859576,13.2164383 30.3879944,13.8874625 29.8421816,14.9546772 C28.7196056,17.0896919 29.5459376,20.2566332 30.6375944,21.9954573 C31.1677448,22.855729 31.8066272,23.8029298 32.6484968,23.7688811 C33.4439096,23.7344537 33.75566,23.2005882 34.7225168,23.2005882 C35.688656,23.2005882 35.9694872,23.7688811 36.8114816,23.7516674 C37.6846448,23.7344537 38.23052,22.8909826 38.7606704,22.0299192 C39.3688208,21.0492549 39.6177656,20.102364 39.633428,20.0503786 C39.6177656,20.0331649 37.9497512,19.3270591 37.934276,17.209809 C37.91852,15.437005 39.2438648,14.5937749 39.3062336,14.5414797 C38.557808,13.3200303 37.3884008,13.1823207 36.982988,13.1477212" id="XMLID_45_" fill="#000000"></path>
        </g>
    </g>
</svg>