<svg width="72px" height="26px" viewBox="0 0 72 26" version="1.1" xmlns="http://www.w3.org/2000/svg" xmlns:xlink="http://www.w3.org/1999/xlink"><g id="apple-m" stroke="none" stroke-width="1" fill="none" fill-rule="evenodd"><g id="icon"><rect id="Rectangle" stroke="#000000" x="0.367346939" y="0.371428571" width="71.2653061" height="25.2571429" rx="4"></rect><path d="M35.0616495,7.62467919 C36.7806806,7.62467919 37.9778141,8.86642343 37.9778141,10.6743137 C37.9778141,12.4886642 36.7561635,13.7369182 35.0186619,13.7369182 L33.115351,13.7369182 L33.115351,16.9086529 L31.7401025,16.9086529 L31.7401025,7.62467919 L35.0616495,7.62467919 Z M33.115351,12.5272521 L34.6932317,12.5272521 C35.8904833,12.5272521 36.5718838,11.8517777 36.5718838,10.6807739 C36.5718838,9.50989386 35.8904833,8.84073114 34.6993728,8.84073114 L33.115351,8.84073114 L33.115351,12.5272521 Z" id="XMLID_41_" fill="#000000" fill-rule="nonzero"></path><path d="M38.3189985,14.9850978 C38.3189985,13.7947382 39.1846788,13.1127541 40.7808882,13.0098859 L42.4937783,12.9004091 L42.4937783,12.3857713 C42.4937783,11.6329973 42.0210329,11.2212277 41.1799878,11.2212277 C40.4861399,11.2212277 39.9827127,11.5943846 39.8783851,12.1669909 L38.638146,12.1669909 C38.6750869,10.9638346 39.7555871,10.0889356 41.2168108,10.0889356 C42.7885267,10.0889356 43.8138279,10.9510627 43.8138279,12.2892149 L43.8138279,16.9086529 L42.542907,16.9086529 L42.542907,15.7957166 L42.5122488,15.7957166 C42.1499957,16.5226994 41.3518201,16.9793933 40.4861399,16.9793933 C39.2091723,16.9793933 38.3189985,16.1816701 38.3189985,14.9850978 Z M42.4937783,14.3867003 L42.4937783,13.8654786 L40.9650499,13.9684705 C40.1055343,14.0263152 39.6574242,14.3608842 39.6574242,14.9463861 C39.6574242,15.5125322 40.1240048,15.8793774 40.8545577,15.8793774 C41.787719,15.8793774 42.4937783,15.2551391 42.4937783,14.3867003 Z" id="XMLID_38_" fill="#000000" fill-rule="nonzero"></path><path d="M44.9821928,19.3921414 L44.9821928,18.2792051 C45.068168,18.291878 45.2768467,18.3047736 45.3873154,18.3047736 C45.9951882,18.3047736 46.3389708,18.0347323 46.5477677,17.3397783 L46.6705657,16.9280088 L44.3436617,10.1725716 L45.7802503,10.1725716 L47.4011185,15.6540131 L47.4317767,15.6540131 L49.052645,10.1725716 L50.4525287,10.1725716 L48.0396496,17.2690379 C47.4870937,18.8967357 46.8547038,19.4308531 45.5162781,19.4308531 C45.4119506,19.4308531 45.0742146,19.4179574 44.9821928,19.3921414 Z" id="XMLID_36_" fill="#000000"></path><path d="M26.6948234,8.67284401 C27.0164712,8.23647683 27.2347388,7.65052647 27.1771805,7.05177102 C26.7063305,7.07718226 26.1317793,7.38870616 25.7991288,7.8254463 C25.5004492,8.19942914 25.2360846,8.80989563 25.3049895,9.38356306 C25.8335353,9.43329152 26.3615998,9.09700285 26.6948234,8.67284401" id="XMLID_46_" fill="#000000"></path><path d="M27.1711749,9.49557641 C26.4035937,9.44597228 25.7509916,9.96809617 25.3844158,9.96809617 C25.0176795,9.96809617 24.4563546,9.52056495 23.8492536,9.5326241 C23.0590709,9.54520541 22.3258734,10.029834 21.9248681,10.8006002 C21.1001184,12.3425552 21.7072195,14.6297906 22.509253,15.8856081 C22.8987513,16.5069154 23.3681343,17.1910049 23.9866507,17.1664141 C24.5710356,17.1415499 24.8000767,16.7559804 25.5104205,16.7559804 C26.2202371,16.7559804 26.426562,17.1664141 27.0451702,17.153982 C27.6866778,17.1415499 28.087729,16.5323763 28.4772272,15.9104972 C28.9240316,15.2022397 29.1069298,14.518374 29.1184369,14.480829 C29.1069298,14.4683969 27.8814499,13.9584316 27.8700803,12.4293065 C27.8585045,11.148948 28.8322272,10.5399485 28.8780492,10.5021798 C28.3281855,9.62002186 27.4690292,9.52056495 27.1711749,9.49557641" id="XMLID_45_" fill="#000000"></path></g></g></svg>