<?xml version="1.0" encoding="utf-8"?>
<!-- Generator: Adobe Illustrator 23.0.4, SVG Export Plug-In . SVG Version: 6.00 Build 0)  -->
<svg version="1.1" id="Layer_1" xmlns="http://www.w3.org/2000/svg" xmlns:xlink="http://www.w3.org/1999/xlink" x="0px" y="0px"
	 viewBox="0 0 451 488" style="enable-background:new 0 0 451 488;" xml:space="preserve">
<style type="text/css">
	.st0{clip-path:url(#SVGID_2_);}
	.st1{clip-path:url(#SVGID_4_);}
	.st2{clip-path:url(#SVGID_6_);}
	.st3{clip-path:url(#SVGID_8_);}
	.st4{clip-path:url(#SVGID_10_);}
	.st5{clip-path:url(#SVGID_12_);}
	.st6{clip-path:url(#SVGID_14_);}
</style>
<g>
	<g>
		<g>
			<g>
				<defs>
					<rect id="SVGID_1_" y="-16.5" width="573.3" height="527"/>
				</defs>
				<clipPath id="SVGID_2_">
					<use xlink:href="#SVGID_1_"  style="overflow:visible;"/>
				</clipPath>
				<g class="st0">
					<path d="M134.3,452.8c-7.1,0-14.4-1.2-22.1-3.7c-5.1-1.6-10.2-3.5-15.2-5.4c-3.7-1.4-7.6-2.9-11.5-4.2c-5.6-2-12-2.9-20.1-3
						c-5-0.1-10.2-0.1-15.1-0.2c-4.9,0-10.1-0.1-15.1-0.2c-14.8-0.3-29-2-44.7-4c-12.4-1.5-23.5-3-33.7-4.6
						c-5.7-0.9-11.5-1.9-17-2.9c-6.4-1.1-13.1-2.3-19.7-3.3l0.3-2.3c6.6,1,13.3,2.2,19.7,3.3c5.6,1,11.3,2,17,2.9
						c10.2,1.6,21.3,3.1,33.7,4.6c15.7,2,29.8,3.7,44.5,4c5,0.1,10.1,0.1,15.1,0.2c4.9,0,10.1,0.1,15.1,0.2c8.4,0.1,15,1.1,20.9,3.2
						c3.9,1.3,7.8,2.8,11.5,4.2c4.9,1.8,10,3.7,15,5.3c11.4,3.6,22,4.5,32.1,2.6c11-2.1,22-6.7,34.7-14.3
						c10.1-6,19.2-11.6,27.7-17.1c13.2-8.6,24.7-20.8,35.1-37.3l2.2-3.5c5-7.9,10.1-16.1,15.8-23.8c5-6.6,11.3-11.9,18.7-15.7
						c10-5.2,20.5-8.1,33.3-10.9c9.4-2.1,19.3-4.5,28.6-8.4c8.3-3.6,16.4-8.6,26.4-16.4c11.6-8.9,21.8-20.3,30.2-34
						c3.9-6.4,6.6-13.6,7.9-21.5c2.1-11.4,2.3-22,0.6-32.4c-0.7-4.2-1.5-8.4-2.3-12.5s-1.6-8.4-2.3-12.6
						c-1.9-11.2-3.6-23.2-0.9-35.3c1.2-5.5,2.7-11,4.2-16.4c0.8-2.8,1.7-5.5,2.5-8.2c1.4-4.6,2.9-9.3,4.2-14
						c1.8-7,3.4-13.3,4.5-19.6c1.5-8.6,1-16.6-1.5-23.8c-1.6-4.8-3.1-8.7-7.1-11.3c-1.3-0.9-2.3-1.7-3.3-2.5
						c-0.7-0.5-1.3-1.1-2.1-1.7c-5.6-4.1-12.2-5.2-17.9-5.7c-0.5,0-0.8,0-1.1,0c-0.6,0-1.1,0-2-0.2c-3.2-0.4-5.4-0.5-8.4-0.3
						c-14.7,1.1-24.2,5.8-31,15.2c-4.9,6.8-8.8,14.7-12.6,25.5c-2.7,7.7-4.7,14.6-6.3,21c-3.7,15.3-8,28.3-13.2,39.9
						c-3.7,8.2-8.7,15.5-14.9,21.8c-12,12.3-24.9,23.6-38.2,33.5c-5.6,4.2-11.6,7.1-17.6,8.5c-4.2,1.1-8.6,0.9-12.9-0.4
						c-12-3.8-19.1-12.8-25-21.9c-3.4-5.3-6.7-10.9-9.9-16.3c-2.2-3.7-4.4-7.5-6.7-11.2c-5.6-9-12.7-16.7-21.3-22.9
						c-8.1-5.9-17.4-8-28.5-6.3c-8.6,1.3-16.8,4.2-25.3,7.3c-4.4,1.6-9,3.2-13.4,4.6c-3.5,1.2-7,2.3-10.5,3.6
						c-12.5,4.2-24.1,10.3-35.6,18.7c-10.9,8-21,17.6-30,28.6c-8.1,9.9-16.1,20.2-24.4,31.5l-1.4,1.8c-5.7,7.7-11.7,15.6-18.9,22.2
						c-6.6,6.1-14.5,10.7-23.2,13.5c-8.5,2.7-17.6,3.1-25.4,3.2v-2.3c7.7-0.1,16.5-0.4,24.8-3c8.4-2.7,16-7.1,22.4-13.1
						c7.1-6.5,12.7-14,18.6-21.9l1.4-1.8C2,218.2,10,207.8,18.1,197.9c9.1-11.1,19.4-20.9,30.4-29c11.7-8.5,23.6-14.8,36.2-19.1
						c3.5-1.2,7.1-2.4,10.5-3.6c4.4-1.5,9-3,13.4-4.6c8.5-3.2,16.9-6.2,25.7-7.5c11.7-1.8,21.6,0.4,30.1,6.7
						c8.8,6.3,16.2,14.2,21.9,23.5c2.3,3.7,4.6,7.6,6.7,11.3c3.2,5.4,6.4,10.9,9.9,16.2c5.6,8.8,12.4,17.3,23.8,20.9
						c3.9,1.2,7.8,1.3,11.7,0.4c5.8-1.4,11.4-4.1,16.8-8.1c13.3-9.8,26-21,38-33.3c6.1-6.1,10.9-13.3,14.5-21.2
						c5.1-11.4,9.4-24.4,13-39.5c1.6-6.5,3.6-13.4,6.3-21.2c2.6-7.4,6.5-17.1,13-26.1c7.1-9.8,17.5-15,32.7-16.2
						c3.2-0.2,5.5-0.1,8.9,0.3h0.1c0.7,0.2,1,0.2,1.5,0.1c0.4,0,0.8,0,1.3,0c6,0.5,13,1.7,19.1,6.1c0.8,0.6,1.5,1.2,2.2,1.8
						c1,0.8,1.9,1.6,3.1,2.4c4.6,3,6.3,7.3,8.1,12.5c2.6,7.6,3.1,16,1.5,25c-1.1,6.4-2.7,12.8-4.5,19.8c-1.3,4.8-2.8,9.5-4.2,14.1
						c-0.9,2.7-1.7,5.4-2.5,8.2c-1.5,5.3-3,10.7-4.2,16.2c-2.6,11.8-1,23.5,0.9,34.5c0.7,4.2,1.5,8.4,2.3,12.5s1.6,8.4,2.3,12.6
						c1.7,10.6,1.5,21.5-0.6,33.2c-1.4,8.1-4.2,15.6-8.2,22.3c-8.6,13.9-19,25.6-30.8,34.6c-10.2,7.8-18.5,13-26.9,16.6
						c-9.5,4-19.5,6.4-29,8.6c-12.6,2.8-23,5.6-32.7,10.7c-7.1,3.7-13.2,8.7-17.9,15.1c-5.6,7.6-10.8,15.8-15.7,23.7l-2.2,3.5
						c-10.6,16.8-22.3,29.3-35.7,38c-8.5,5.5-17.6,11.1-27.7,17.1c-12.9,7.7-24.2,12.3-35.5,14.5C141.7,452.4,138,452.8,134.3,452.8
						z"/>
				</g>
			</g>
		</g>
	</g>
	<g>
		<g>
			<g>
				<defs>
					<rect id="SVGID_3_" y="-16.5" width="573.3" height="527"/>
				</defs>
				<clipPath id="SVGID_4_">
					<use xlink:href="#SVGID_3_"  style="overflow:visible;"/>
				</clipPath>
				<g class="st1">
					<path d="M139.3,439.2c-8.2,0-16.3-1.6-24.3-4.8c-1.7-0.7-3.3-1.4-5-2.2c-1.9-0.9-3.8-1.7-5.7-2.4c-3.7-1.4-7.4-2.5-10.5-3.5
						c-5.9-1.9-11.2-2.8-16.4-2.8c-3.7,0-7.5,0.2-11.2,0.4c-5.3,0.2-10.7,0.5-16,0.3h-2c-9.1-0.2-18.5-0.4-27.5-1.8
						c-10.3-1.6-20.5-4.3-30.4-6.8c-1.7-0.4-3.4-0.9-5.1-1.3c-9.2-2.3-18.5-3.4-26.3-4.1c-7.5-0.6-15.1-1.2-22.5-1.8
						s-15.1-1.1-22.6-1.8l0.2-2.3c7.5,0.6,15.1,1.2,22.5,1.8s15.1,1.2,22.6,1.8c7.9,0.7,17.3,1.8,26.7,4.1c1.7,0.4,3.4,0.9,5.1,1.3
						c9.9,2.5,20.1,5.2,30.2,6.8c8.9,1.4,18.2,1.6,27.2,1.7h2c5.2,0.1,10.6-0.1,15.9-0.3c3.7-0.2,7.5-0.3,11.3-0.4
						c5.4,0,11,0.9,17.1,2.9c3.2,1,7,2.1,10.7,3.5c2,0.7,4,1.6,5.9,2.5c1.6,0.7,3.2,1.5,4.8,2.1c15.5,6.2,31.4,6.2,47.2,0
						c17.1-6.6,33.1-16.1,48.9-28.9c8.1-6.7,15.3-15.1,23.4-27.1c3.1-4.6,6.1-9.5,9-14.1c3.2-5.2,6.6-10.6,10-15.8
						c7.5-11.1,17.8-18.5,30.7-22c8.2-2.2,16.3-3.8,26.1-5.6c22.7-4.2,41-12.5,56-25.5c8.3-7.3,15.7-15.8,22-25.3
						c6.3-9.6,9.9-20.8,10.7-33.4c0.6-10.3-0.4-20.9-3.2-32.5c-2.3-9.9-4.5-20.5-5.3-31.7c-0.5-7.7,0.1-14.8,2-21.8
						c1-3.8,2.1-7.6,3.2-11.3c0.8-2.6,1.5-5.2,2.3-7.8c0.6-2.2,1.2-4.4,1.9-6.6c2.3-7.9,4.6-16,5.3-24.4c0.5-6.9,0.5-12.6-1.7-18
						c-4.3-10.3-12.1-15.9-23.4-16.8c-13-0.9-23.1,3.3-30.7,12.8c-3.3,4.2-7,9.1-9.3,14.8c-0.6,1.3-1.2,2.6-1.8,3.8
						c-1,2-1.9,3.9-2.5,5.8c-1.4,4.1-2.6,8.4-3.7,12.5c-0.6,2.2-1.3,4.5-1.9,6.7c-1.5,4.9-3,10-4.6,15c-1.3,4.1-2.6,8.4-4.2,12.5
						c-5,12.5-12.4,23.3-22,32.1l-2.1,2c-10.8,10-21.9,20.4-32.8,30.6c-5.3,5-10.7,10.1-17.2,13.9c-6.4,3.7-11.7,5.3-17.2,5.2
						c-4.4-0.2-8.9-1.6-13.6-4.2c-12.1-6.7-19.6-17.7-26.9-28.4c-1.7-2.6-3.5-5.1-5.2-7.7c-4.4-6.6-9-13.5-13.8-20.1
						c-4.3-6-10.2-10.9-17.2-14.1c-6.6-3.2-14.6-3.9-23.1-2.2c-17.4,3.5-34.6,7.6-50.7,11.5c-7.5,1.8-14.9,5.2-22,10.2l-2.4,1.7
						c-6,4.2-12.2,8.6-17.7,13.5c-8.2,7.2-16.1,16-24.8,27.7c-3.8,4.9-7.5,10-11.1,14.8c-5.7,7.6-11.5,15.5-17.5,23.1
						c-9.5,12-21.1,19.6-34.3,22.6l-0.5-2.2c12.7-2.9,23.9-10.3,33.1-21.8c6-7.5,11.8-15.4,17.5-23c3.6-4.9,7.4-9.9,11.1-14.9
						c8.9-11.8,16.9-20.7,25.2-28.1c5.6-5,11.9-9.4,17.9-13.7l2.4-1.7c7.4-5.2,15-8.8,22.8-10.6c16-3.9,33.3-8,50.7-11.5
						c9-1.8,17.5-1,24.5,2.4c7.3,3.4,13.6,8.6,18,14.9c4.8,6.6,9.4,13.5,13.8,20.1c1.7,2.6,3.4,5.1,5.2,7.7
						c7.1,10.4,14.4,21.2,26.1,27.6c4.4,2.5,8.6,3.8,12.6,4c5.1,0.2,10-1.3,16-4.8c6.3-3.6,11.6-8.7,16.8-13.5
						c10.9-10.3,22-20.6,32.8-30.7l2.1-2c9.3-8.6,16.5-19.1,21.4-31.3c1.6-4,2.9-8.2,4.2-12.3c1.6-5,3.1-10.1,4.6-15
						c0.7-2.2,1.3-4.5,1.9-6.7c1.2-4.1,2.4-8.4,3.8-12.6c0.7-2.1,1.7-4.1,2.6-6.1c0.6-1.2,1.2-2.4,1.7-3.7c2.5-6,6.3-11.1,9.7-15.4
						c8-10,19-14.6,32.7-13.6c12,0.9,20.8,7.2,25.4,18.2c2.4,5.8,2.5,11.8,1.9,19c-0.7,8.6-3.1,16.9-5.4,24.9
						c-0.6,2.2-1.3,4.4-1.8,6.5c-0.7,2.6-1.5,5.3-2.3,7.9c-1.1,3.7-2.2,7.5-3.2,11.2c-1.8,6.7-2.5,13.6-2,21c0.8,11,3,21.6,5.3,31.3
						c2.8,11.8,3.9,22.6,3.2,33.1c-0.8,13-4.6,24.6-11.1,34.6c-6.4,9.7-13.9,18.3-22.4,25.7c-15.3,13.3-33.9,21.8-57,26.1
						c-9.7,1.8-17.8,3.4-25.9,5.6c-12.3,3.3-22.2,10.4-29.3,21c-3.5,5.1-6.8,10.5-10,15.7c-2.9,4.7-5.9,9.5-9,14.2
						c-8.1,12.3-15.5,20.8-23.8,27.7c-16,13-32.2,22.6-49.5,29.3C155.6,437.6,147.4,439.2,139.3,439.2z"/>
				</g>
			</g>
		</g>
	</g>
	<g>
		<g>
			<g>
				<defs>
					<rect id="SVGID_5_" y="-16.5" width="573.3" height="527"/>
				</defs>
				<clipPath id="SVGID_6_">
					<use xlink:href="#SVGID_5_"  style="overflow:visible;"/>
				</clipPath>
				<g class="st2">
					<path d="M142.9,429.2c-7.5,0-14.8-1.4-22-4.1c-4.2-1.6-8.5-3.3-12.6-5c-2.9-1.2-5.9-2.4-8.9-3.5c-1.4-0.6-2.9-0.9-4.4-1.2
						c-0.8-0.2-1.6-0.3-2.4-0.5c-6.5-1.6-13.2-1.1-19.8-0.7l-1.6,0.1c-3,0.2-6.1,0.4-9.1,0.7c-6.4,0.5-13.1,1.1-19.7,1
						c-11.5-0.2-23.1-2.1-35.5-5.7c-4.3-1.3-8.6-2.8-12.8-4.3c-4.6-1.6-9.3-3.3-14-4.6c-5.8-1.8-11.5-2.9-17.1-3.4
						c-4.5-0.3-9.1-0.3-13.6-0.3c-3.7,0-7.5,0-11.3-0.2l0.1-2.3c3.7,0.2,7.5,0.2,11.1,0.2c4.5,0,9.2,0,13.8,0.3
						c5.8,0.5,11.7,1.7,17.6,3.4c4.7,1.4,9.5,3,14.1,4.7c4.2,1.5,8.4,3,12.7,4.2c12.2,3.6,23.6,5.5,34.9,5.7
						c6.5,0.1,13.1-0.5,19.5-1c3-0.2,6.1-0.5,9.1-0.7l1.6-0.1c6.7-0.5,13.7-1,20.5,0.7c0.8,0.2,1.5,0.4,2.3,0.5
						c1.6,0.3,3.2,0.7,4.8,1.3c3,1.1,5.9,2.3,8.9,3.5c4.1,1.7,8.4,3.4,12.6,5c13,4.9,26,5.3,39.9,1.1c9.9-2.9,19.8-7.8,31.3-15.3
						c7-4.6,12.8-8.5,18-13.5c7.8-7.5,14.3-15.4,19.9-24.3c2.8-4.4,5.6-9,8.3-13.4c4.2-7,8.6-14.1,13.2-21
						c4.4-6.6,10.4-11.7,18.3-15.5c10-4.9,20.9-6.3,30.6-7.5c13.7-1.8,24-4.1,33.5-7.3c9.9-3.4,18-9.2,26.2-15.3
						c9.5-7.1,16.5-16.4,22.1-24.5c6.2-9,9.7-19.2,10.7-31.3c1.2-14.3-2.1-28.3-5.4-40.4c-2.6-9.5-5.3-20.9-5-32.7
						c0.1-5.5,1.3-11,2.5-16.3l0.4-2c0.9-4,2.1-8.1,3.2-11.9c0.5-1.9,1.1-3.7,1.6-5.6c0.4-1.5,0.9-3,1.3-4.6c0.7-2.4,1.5-5,2.1-7.5
						c2.1-8.7,3.5-18-0.1-27c-2.7-6.9-8.1-11.1-15.1-11.8c-9.1-0.9-16.8,2.1-22.8,8.9c-5.2,5.8-9.1,11.8-12.1,18.6
						c-3.1,7.2-5.2,14.9-7,21.6c-3.4,12.8-6.8,22.2-10.8,30.7c-3.8,8.1-9.3,15.5-17,22.6c-8.9,8.2-18.3,17-27.5,26.1
						c-3.5,3.4-6.9,7-10.1,10.4c-3.6,3.8-7.4,7.8-11.3,11.5c-0.6,0.6-1.2,1.2-1.8,1.8c-5.5,5.4-11.1,10.9-19,13.4
						c-5,1.6-9.5,1.8-14,0.6c-9.1-2.3-17.2-7.3-25.4-15.9c-7.7-7.9-14.1-17-20.4-25.7c-1.5-2.1-2.9-4.1-4.4-6.2
						c-5.3-7.2-10.2-12.7-15.6-17.3c-7.4-6.5-16.4-9.4-28.2-9.3c-18.8,0.2-37.8,3.2-56.6,8.9c-9,2.7-16.8,7.8-24,12.8
						c-10.8,7.5-20.6,17.2-31.9,31.6c-8.5,11.1-16.6,22.4-25.5,35c-6.6,9.5-14.3,17.5-22.7,24c-8,6.1-16.6,9.5-25.3,9.9l-0.1-2.3
						c8.3-0.4,16.4-3.6,24.1-9.5c8.3-6.3,15.8-14.2,22.3-23.4c8.9-12.6,17-23.9,25.5-35C29,204.5,39,194.6,50,187.1
						c7.3-5.1,15.3-10.4,24.6-13.2c19-5.7,38.2-8.8,57.2-8.9c12.4-0.1,21.9,3,29.8,9.9c5.5,4.7,10.6,10.3,16,17.7
						c1.5,2.1,3,4.1,4.4,6.2c6.2,8.7,12.6,17.7,20.2,25.5c7.9,8.3,15.7,13.1,24.4,15.3c4.1,1.1,8.2,0.9,12.8-0.6
						c7.4-2.3,12.6-7.4,18.1-12.8c0.6-0.6,1.2-1.2,1.8-1.8c3.8-3.7,7.6-7.6,11.2-11.4c3.3-3.5,6.7-7,10.2-10.4
						c9.2-9.1,18.7-17.9,27.5-26.1c7.4-7,12.8-14.1,16.4-21.9c4-8.3,7.2-17.7,10.6-30.3c1.9-6.9,4-14.6,7.2-22
						c3.1-7,7.2-13.3,12.5-19.2c6.5-7.4,14.9-10.6,24.8-9.7c8,0.8,14,5.5,17.1,13.2c3.8,9.6,2.3,19.3,0.1,28.4
						c-0.6,2.6-1.4,5.1-2.1,7.6c-0.4,1.5-0.9,3-1.3,4.5c-0.5,1.9-1.1,3.8-1.6,5.6c-1.1,3.9-2.3,7.8-3.2,11.8l-0.4,2
						c-1.2,5.2-2.3,10.5-2.4,15.8c-0.2,11.5,2.4,22.7,5,32.1c3.3,12.3,6.7,26.6,5.4,41.2c-1.1,12.5-4.7,23.2-11.1,32.5
						c-5.7,8.3-12.9,17.8-22.7,25.1c-8.3,6.3-16.6,12.2-26.8,15.7c-9.6,3.3-20.1,5.6-33.9,7.5c-9.4,1.2-20.1,2.5-29.8,7.3
						c-7.5,3.7-13.2,8.5-17.3,14.7c-4.6,6.8-8.9,14-13.1,20.9c-2.7,4.4-5.5,9-8.3,13.5c-5.7,9-12.3,17.1-20.3,24.7
						c-5.4,5.1-11.2,9.1-18.4,13.7c-11.7,7.6-21.8,12.6-31.9,15.5C155.7,428.3,149.3,429.2,142.9,429.2z"/>
				</g>
			</g>
		</g>
	</g>
	<g>
		<g>
			<g>
				<defs>
					<rect id="SVGID_7_" y="-16.5" width="573.3" height="527"/>
				</defs>
				<clipPath id="SVGID_8_">
					<use xlink:href="#SVGID_7_"  style="overflow:visible;"/>
				</clipPath>
				<g class="st3">
					<path d="M146.7,420c-8,0-15.8-1.6-23.5-4.7c-2.3-0.9-4.6-1.9-6.8-2.9c-3.8-1.6-7.7-3.3-11.6-4.7c-4.3-1.5-9.3-3-13.9-3
						c-8.3,0.1-17,0.8-26.6,2.1c-10.9,1.6-21.5,1.9-31.6,0.9c-8-0.7-15.6-2.6-22.6-5.6c-3.9-1.7-7.9-3.4-11.7-5.1
						c-3.8-1.7-7.7-3.4-11.6-5c-1.7-0.7-3.6-1.3-5.5-1.8c-1.5-0.4-3-0.9-4.5-1.4c-6.8-2.6-14.2-3.7-23.4-3.4
						c-11.5,0.3-21.5,0.4-30.7,0.1l0.1-2.3c9.1,0.3,19.1,0.2,30.5-0.1c9.5-0.2,17.2,0.9,24.2,3.6c1.4,0.5,2.9,1,4.3,1.4
						c1.9,0.6,3.8,1.2,5.7,1.9c3.9,1.7,7.9,3.4,11.7,5.1c3.8,1.7,7.7,3.4,11.6,5c6.8,2.9,14.2,4.7,22,5.4c9.9,1,20.3,0.7,31-0.9
						c9.7-1.3,18.5-2,27-2.1c4.9,0,10.2,1.6,14.7,3.2c4,1.4,8,3.1,11.8,4.7c2.2,1,4.5,2,6.8,2.9c14.9,6,30.1,6,46.6,0
						c13-4.7,25.3-12.3,37.7-23.4c6.4-5.7,12.3-13,18-22.2c3.5-5.6,6.8-11.4,10-17.1c1.6-2.9,3.3-5.8,4.9-8.7l0.9-1.6
						c2.8-5,5.8-10.1,9.2-14.9c3.3-4.4,7.6-8.1,13.2-11c8.7-4.6,18.1-5.2,27.2-5.7l2.3-0.1c11.9-0.7,23.4-2.5,34.2-5.3
						c9.4-2.4,17.3-7.2,24.5-12c9-5.9,16.9-13.9,24.2-24.7c3.6-5.3,6.1-10.1,7.7-14.6c2.6-7.5,3.8-16.1,3.4-26.3
						c-0.2-9.8-3-19.3-5.7-28.6c-0.6-2.1-1.2-4.2-1.8-6.3c-0.3-1.1-0.7-2.3-1-3.5c-1.9-6.5-3.8-13.2-4.9-19.9
						c-1.4-8-0.9-15.7,1.4-22.8c1.8-5.6,3.6-11.7,5.6-19.2c2.1-8.1,4.3-16.6,2-25.1c-1.1-4-3.2-6.8-6.2-8.1
						c-3.2-1.4-7.1-0.9-11.2,1.2c-5.7,3-9.1,8.3-12.5,14c-1.8,3.3-3.4,7-4.7,10.8c-1.3,3.7-2.4,7.7-3.4,11.5l-0.7,2.6
						c-2.6,9.1-5.3,16.4-8.5,22.9c-5.7,11.5-15,20-24,28.2c-0.9,0.9-1.9,1.7-2.8,2.6c-1.8,1.6-3.6,3.3-5.3,4.9
						c-7.5,6.9-15.2,14-22.4,21.4c-4.6,4.7-8.9,9.9-13.1,15c-2.4,2.9-4.8,5.8-7.3,8.7l-0.8,0.9c-5.6,6.3-11.3,12.9-19.9,16.2
						c-5.3,1.9-10.5,2-16.2,0.1c-15-4.8-25.4-15.4-33.7-25.1c-3.5-4.2-7-8.5-10.4-12.6c-5.1-6.2-10.4-12.7-15.7-18.8
						c-4.3-4.8-9.9-9.1-17.1-13.3c-5.8-3.3-12-4.1-17.8-4.7c-17.6-1.7-35.4-0.2-53,4.5c-10.7,2.9-19.8,9-27.3,14.5
						c-11.8,8.6-22.4,19.8-33.3,35.1C12.7,238,9,243.2,5.2,248.5s-7.6,10.6-11.4,15.9c-8.1,11.4-15.9,19.5-24.5,25.5
						c-9.4,6.4-19.9,9.6-31.4,9.4V297c11,0.2,21.1-2.8,30-9c8.3-5.8,15.9-13.8,23.9-24.9c3.8-5.3,7.6-10.6,11.4-15.9
						s7.5-10.6,11.3-15.9c11.1-15.6,21.9-26.9,33.9-35.7c7.7-5.7,17-11.9,28.1-14.9c17.8-4.8,35.9-6.3,53.8-4.5
						c6.1,0.6,12.6,1.4,18.8,4.9c7.4,4.2,13.2,8.7,17.7,13.7c5.4,6.1,10.7,12.6,15.8,18.8c3.4,4.2,6.9,8.4,10.4,12.6
						c8.1,9.5,18.3,19.8,32.7,24.4c5.2,1.7,9.8,1.7,14.7-0.1c8-3.1,13.6-9.4,19-15.5l0.8-0.9c2.5-2.8,4.9-5.8,7.3-8.6
						c4.2-5.1,8.5-10.3,13.2-15.1c7.2-7.5,15-14.6,22.5-21.5c1.8-1.6,3.6-3.3,5.3-4.9c0.9-0.9,1.9-1.7,2.8-2.6
						c9.2-8.4,17.9-16.4,23.4-27.5c3.2-6.4,5.8-13.5,8.3-22.5l0.7-2.6c1-3.9,2.1-7.9,3.4-11.7c1.3-3.9,3-7.7,4.9-11.2
						c3.5-6,7.2-11.6,13.4-14.9c4.7-2.5,9.3-3,13.2-1.3c3.6,1.6,6.2,4.9,7.5,9.6c2.5,9.1,0.2,17.9-2,26.3c-2,7.5-3.8,13.7-5.6,19.4
						c-2.2,6.8-2.7,14.1-1.4,21.7c1.1,6.6,3,13.2,4.9,19.6c0.3,1.2,0.7,2.3,1,3.5c0.6,2.1,1.2,4.2,1.8,6.3
						c2.7,9.4,5.5,19.1,5.8,29.1c0.3,10.5-0.8,19.3-3.6,27.1c-1.6,4.7-4.2,9.6-7.9,15.2c-7.5,11-15.6,19.3-24.8,25.3
						c-7.4,4.9-15.5,9.8-25.2,12.4c-11,2.8-22.6,4.6-34.6,5.3l-2.3,0.1c-9.2,0.5-18,1-26.2,5.4c-5.2,2.8-9.3,6.2-12.4,10.4
						c-3.4,4.6-6.3,9.7-9.1,14.7l-0.9,1.6c-1.7,2.9-3.3,5.8-4.9,8.6c-3.2,5.7-6.5,11.6-10.1,17.2c-5.8,9.4-11.9,16.8-18.4,22.7
						c-12.6,11.3-25.2,19.1-38.5,23.8C162.9,418.5,154.7,420,146.7,420z"/>
				</g>
			</g>
		</g>
	</g>
	<g>
		<g>
			<g>
				<defs>
					<rect id="SVGID_9_" y="-16.5" width="573.3" height="527"/>
				</defs>
				<clipPath id="SVGID_10_">
					<use xlink:href="#SVGID_9_"  style="overflow:visible;"/>
				</clipPath>
				<g class="st4">
					<path d="M131.5,462.7c-7.1,0-14.5-1.1-22-3.4c-5-1.5-10-3.4-14.9-5.2c-2.6-1-5.4-2-8-2.9c-0.6-0.2-1.3-0.4-1.9-0.7
						c-2-0.7-4-1.4-6.1-1.8c-8.8-1.7-16.2-2.8-23.9-2.8c-3.7,0-7.3,0-11,0c-10.7,0-21.8,0-32.7-0.1c-10-0.2-20.7-0.5-31.4-1.3
						c-10.2-0.8-20.2-3.2-30-5.6c-3.2-0.8-6.6-1.6-9.9-2.4l0.5-2.2c3.3,0.8,6.7,1.6,10,2.4c9.6,2.4,19.6,4.8,29.6,5.6
						c10.6,0.8,21.3,1.1,31.2,1.3c10.9,0.2,22,0.1,32.7,0.1c3.7,0,7.3,0,11,0c7.9,0,15.4,1.1,24.3,2.8c2.2,0.4,4.3,1.1,6.4,1.9
						c0.6,0.2,1.3,0.5,1.9,0.7c2.7,1,5.5,2,8.1,3c4.8,1.8,9.8,3.7,14.8,5.1c14.4,4.3,27.7,4.4,40.8,0.3c10.6-3.3,20.2-8.7,30-14.4
						c11.4-6.7,22.6-14,33.5-21c11.9-7.6,21.8-18.1,32.2-34.3c1.9-3,3.8-6,5.6-9c4.2-6.9,8.6-14,14-20.4c8.2-9.5,17.7-15.8,29-19.3
						c6.5-1.9,12.9-3.9,19.4-5.9c6.6-2,13.2-4,19.7-5.9c7.4-2.2,14.8-5.8,23.8-11.5c8.9-5.6,16.3-11.2,22.6-17.1
						c9-8.4,16.5-17.6,22.5-27.2c2.9-4.6,5.2-9.7,6.8-14.6c1.6-5.4,2.8-11.4,3.6-18.4c1.5-13.9-0.8-27.8-3.6-40.7
						c-2.3-10.9-4.4-22.6-3.6-34.7c0.4-6.8,1.5-13.1,3.4-19.3c1.1-3.5,2.2-7,3.3-10.4c1.8-5.4,3.6-11,5.2-16.5
						c0.4-1.3,0.8-2.7,1.2-4c2.2-7.5,4.5-15.3,5.2-23.2c0.7-7.5,1.4-14.6-0.9-21.7l-1-3.7c-2.4-7.6-7.4-13.5-15.9-18.7
						c-5.7-3.6-12-4.2-18.6-4.9l-0.6-0.1c-9.4-1-20.9-0.3-27,0.2c-4.6,0-11.2,1.8-15.4,4.3c-6.8,3.9-11.8,9.9-14.8,17.7
						c-2.5,6.3-4.7,12.3-6.4,18c-1.7,5.4-3.1,10.9-4.5,16.3c-0.7,2.8-1.4,5.5-2.1,8.2c-2.2,7.9-4.2,14.4-6.1,20.4
						c-2.5,7.8-5,14.8-7.6,21.3c-3.6,8.9-9.4,17.4-17.2,25.2c-8.9,8.9-16.7,15.5-24.5,20.8c-6.8,4.6-14.8,9.6-24.6,10.7
						c-5.2,0.6-10.4-0.8-15.9-4.3c-8.2-5.1-13.5-12.8-18-20.5l-0.8-1.3c-6.3-10.7-12.8-21.8-20.8-31.6c-5.2-6.5-11.8-12.2-20.1-17.4
						c-10.1-6.2-21.5-7.7-34-4.3c-5,1.3-10,3.4-14.7,5.4c-0.9,0.4-1.8,0.8-2.7,1.1c-9.9,4.1-20.5,8.6-33.4,14.3
						c-12.4,5.6-24,13-35.5,22.7C29.5,178.1,18,190.6,4.4,208.4c-2,2.6-4,5.3-6,7.9c-5.4,7.1-11,14.5-16.8,21.5
						c-11.2,13.7-23.9,21.6-38.9,24.2l-0.4-2.3c14.4-2.5,26.7-10.2,37.5-23.4c5.8-7,11.4-14.4,16.8-21.5c2-2.6,4-5.3,6-7.9
						c13.7-18,25.3-30.6,37.7-41c11.7-9.8,23.5-17.4,36.1-23.1c12.9-5.7,23.6-10.3,33.4-14.3c0.9-0.4,1.8-0.8,2.7-1.1
						c4.9-2,9.9-4.1,15-5.5c13.1-3.6,25.2-2,35.8,4.5c8.6,5.3,15.3,11.2,20.7,17.9c8.1,10,14.7,21.1,21,31.9l0.8,1.3
						c5,8.5,9.9,15.2,17.2,19.7c5.1,3.1,9.8,4.4,14.5,3.9c9.3-1,17-5.8,23.6-10.3c7.7-5.2,15.3-11.8,24.1-20.6
						c7.5-7.5,13.1-15.8,16.6-24.4c2.6-6.4,5.1-13.4,7.6-21.1c2-6,3.9-12.4,6.1-20.3c0.7-2.7,1.4-5.5,2.1-8.2
						c1.4-5.4,2.8-11,4.5-16.4c1.7-5.8,3.9-11.9,6.4-18.2c3.2-8.3,8.5-14.7,15.8-18.9c4.5-2.6,11.6-4.6,16.5-4.6
						c6-0.5,17.8-1.2,27.3-0.2l0.6,0.1c6.6,0.7,13.4,1.4,19.6,5.2c8.9,5.4,14.4,12,16.9,20l1,3.7c2.4,7.5,1.6,15.1,0.9,22.5
						c-0.7,8.1-3,16-5.3,23.6c-0.4,1.3-0.8,2.6-1.2,4c-1.6,5.6-3.4,11.2-5.2,16.6c-1.1,3.4-2.2,6.9-3.3,10.3
						c-1.8,6-2.9,12.2-3.4,18.7c-0.7,11.8,1.3,23.4,3.6,34.1c2.8,13.1,5.2,27.2,3.6,41.5c-0.8,7.1-2,13.3-3.6,18.8
						c-1.6,5.2-4,10.4-7,15.2c-6.1,9.7-13.8,19-22.9,27.6c-6.5,6-14,11.7-23,17.3c-9.2,5.8-16.8,9.4-24.4,11.7
						c-6.5,2-13.1,4-19.7,5.9c-6.5,2-12.9,3.9-19.4,5.9c-10.9,3.3-20,9.4-28,18.6c-5.3,6.2-9.6,13.2-13.8,20.1c-1.8,3-3.7,6-5.6,9
						c-10.6,16.4-20.7,27.2-32.8,34.9c-10.9,7.1-22.2,14.4-33.6,21.1c-9.9,5.8-19.6,11.2-30.4,14.6
						C145,461.6,138.3,462.7,131.5,462.7z"/>
				</g>
			</g>
		</g>
	</g>
	<g>
		<g>
			<g>
				<defs>
					<rect id="SVGID_11_" y="-16.5" width="573.3" height="527"/>
				</defs>
				<clipPath id="SVGID_12_">
					<use xlink:href="#SVGID_11_"  style="overflow:visible;"/>
				</clipPath>
				<g class="st5">
					<path d="M129,472.3c-2.9,0-5.9-0.2-8.8-0.6c-9.7-1.2-18.9-4.3-27.8-7.3l-2.6-0.9c-7.7-2.5-14.2-4.3-20.3-5.7
						c-11-2.3-22.1-2-32.4-1.4c-11.9,0.7-21.6,1.6-30.3,2.7c-8.2,1.1-16.9,1.1-27.5,0.2c-8-0.7-15.7-3-23.1-5.3
						c-2.5-0.8-5-1.5-7.5-2.2l0.6-2.2c2.5,0.7,5.1,1.5,7.5,2.2c7.3,2.2,14.9,4.6,22.7,5.2c10.5,0.9,19.1,0.9,27.1-0.2
						c8.8-1.1,18.5-2,30.5-2.7c10.5-0.7,21.7-1,33,1.4c6.2,1.3,12.7,3.2,20.5,5.7l2.6,0.9c8.8,3,17.9,6,27.4,7.2
						c11.2,1.4,22.2,0.1,33.8-4.1c10.6-3.9,20.4-9.9,29.8-15.7l1.1-0.6c11.1-6.7,22.7-13.8,35.6-21.8c10.3-6.3,19.2-15.2,27.1-27.3
						c4-5.9,7.8-12.2,11.5-18.2c1-1.7,2.1-3.4,3.1-5.1c6.7-11,13.7-18.6,22.1-24c7.5-4.8,15.7-8,25.7-11.2c3.7-1.2,7.6-2.4,11.3-3.5
						c6.7-2,13.6-4.1,20.2-6.6c13.2-4.8,24.6-13.1,35-21c11.1-8.5,21-18.7,30.1-31.2c5-6.7,8.4-13.2,10.3-19.8
						c2.8-9.1,4.2-19.2,4.2-30.9c0-9.5-1.9-19-3.7-28.1c-0.5-2.5-1-4.9-1.5-7.4c-1.7-9.2-3.5-19.8-2.9-30.4c0.4-5.6,1.4-11.5,3.2-18
						c1.5-5.6,3.4-11.1,5.2-16.5c1.4-4.1,2.8-8.3,4-12.5c2.5-8.1,5.1-16.8,6.8-25.6c0.9-4.6,1.1-9.4,1.2-14.1
						c0.1-1.9,0.1-3.9,0.2-5.8v-1.4c-0.9-15.4-7-26.3-18.6-33.1c-5.3-3-11.5-4-17.5-4.5c-15.4-1.4-30.4-1.5-43.1-1.4
						c-5.1,0.1-10.6,0.8-17.4,2.2l-3.8,1.7c-4.7,3.1-7.6,6.5-8.9,10.4c-1.7,5.1-2.9,10.6-4.1,15.9c-0.7,3.2-1.3,6.5-1.8,9.8
						c-0.8,4.5-1.6,9.1-2.7,13.5c-2.3,10.2-5,20.2-7,27.7c-2.7,9.4-5.1,16.9-7.4,23.8c-1.7,4.6-3.7,10-6.5,15
						c-3.7,6.9-8.4,13.1-14.3,18.8c-11.7,11.3-22.7,18.3-34.7,22.1c-6.4,1.9-13.1,0.9-20-3c-6.2-3.5-10.4-8.9-14-14.2
						c-4.1-6-8.2-12.1-12.2-18c-2-3-4-6-6.1-9c-7.1-10.4-16.5-19.5-28.7-27.6c-3.8-2.5-8.9-5.6-14.6-6.9c-11-2.8-22.4-1.7-32.9,3.1
						c-13.5,6.3-28.1,13.5-44.6,22.2c-12.4,6.5-23.8,14.4-33.9,23.4c-5.2,4.7-10.1,9.9-14.8,15c-1.5,1.6-2.9,3.1-4.4,4.7
						c-9.3,9.8-17.6,20.7-25.6,31.3l-3.5,4.6c-6.6,8.5-13.3,17.2-21.6,24.5c-7.6,6.7-16.7,11.3-28,14.1l-0.5-2.2
						c10.9-2.6,19.7-7.1,27-13.5c8.1-7.2,14.8-15.8,21.3-24.2l3.5-4.5c8.1-10.6,16.4-21.5,25.8-31.5c1.5-1.5,2.9-3.1,4.4-4.6
						c4.8-5.1,9.7-10.3,15-15.1c10.2-9.1,21.8-17.1,34.3-23.8c16.5-8.7,31.2-15.9,44.8-22.2c11-5,22.9-6.1,34.4-3.3
						c6.1,1.5,11.4,4.6,15.4,7.3c12.4,8.3,22,17.5,29.3,28.2c2,3,4.1,6,6.1,9c4,5.9,8.1,12,12.2,18c3.5,5,7.5,10.2,13.2,13.5
						c6.4,3.6,12.4,4.5,18.2,2.8c11.6-3.6,22.3-10.5,33.7-21.5c5.7-5.5,10.3-11.5,13.9-18.2c2.7-4.8,4.7-10.1,6.3-14.6
						c2.3-6.8,4.7-14.3,7.4-23.6c2-7.5,4.7-17.5,7-27.6c1-4.4,1.9-9,2.6-13.4c0.6-3.2,1.2-6.6,1.9-9.9c1.2-5.3,2.4-10.9,4.1-16.1
						c1.5-4.4,4.7-8.2,9.9-11.6l0.2-0.1l4.2-1.9c6.9-1.4,12.6-2.1,17.9-2.2c12.8-0.1,27.9,0,43.3,1.4c6.2,0.6,12.8,1.6,18.5,4.8
						c12.2,7.1,18.9,18.9,19.8,35v1.6c-0.1,2-0.2,3.9-0.2,5.8c-0.2,4.8-0.3,9.7-1.3,14.4c-1.7,8.9-4.3,17.6-6.8,25.8
						c-1.3,4.2-2.7,8.5-4,12.6c-1.8,5.3-3.6,10.9-5.1,16.4c-1.8,6.4-2.8,12.1-3.2,17.6c-0.6,10.3,1.2,20.8,2.9,29.8
						c0.5,2.5,1,4.9,1.4,7.4c1.9,9.2,3.8,18.8,3.8,28.5c0,11.9-1.4,22.2-4.3,31.5c-2,6.8-5.5,13.5-10.7,20.4
						c-9.2,12.6-19.2,23-30.5,31.6c-10.6,8.1-22.1,16.4-35.6,21.4c-6.7,2.5-13.6,4.6-20.4,6.6c-3.7,1.1-7.5,2.3-11.2,3.5
						c-9.8,3.2-17.8,6.3-25.1,11c-8,5.2-14.8,12.6-21.3,23.2c-1,1.7-2.1,3.4-3.1,5.1c-3.7,6-7.5,12.3-11.5,18.3
						c-8.2,12.3-17.3,21.4-27.9,27.9c-12.9,8-24.5,15.1-35.6,21.8l-1,0.6c-9.6,5.8-19.4,11.9-30.2,15.9
						C146.1,470.7,137.5,472.3,129,472.3z"/>
				</g>
			</g>
		</g>
	</g>
	<g>
		<g>
			<g>
				<defs>
					<rect id="SVGID_13_" y="-16.5" width="573.3" height="527"/>
				</defs>
				<clipPath id="SVGID_14_">
					<use xlink:href="#SVGID_13_"  style="overflow:visible;"/>
				</clipPath>
				<g class="st6">
					<path d="M126.4,484.9c-12.5,0-24.7-3.4-36.5-6.8l-1-0.3c-1.9-0.5-3.9-1.1-5.8-1.7c-3.8-1.1-7.7-2.3-11.6-3.1
						c-9.2-2-18.8-2.6-28.6-1.7c-10,0.9-19.9,3.2-28.2,5.4c-6.6,1.7-14,3.6-21.5,4.3c-11.8,1-23.1-2.3-33.7-5.9
						c-4.2-1.4-8.5-3-12.7-4.4c-2.9-1.1-5.9-2.1-8.9-3.2l0.8-2.2c3,1,5.9,2.1,8.9,3.2c4.1,1.5,8.4,3,12.6,4.4
						c10.4,3.5,21.4,6.7,32.7,5.7c7.3-0.7,14.6-2.6,21.1-4.3c8.4-2.2,18.4-4.5,28.6-5.4c10.1-0.9,20-0.4,29.4,1.7
						c4,0.9,7.9,2,11.7,3.2c1.9,0.6,3.8,1.1,5.7,1.7l1,0.3c13.6,3.8,27.7,7.8,42,6.4c6.5-0.6,13.5-2.1,20.8-4.4
						c8.6-2.7,16.4-7.4,23.9-11.9c2-1.2,4.1-2.5,6.1-3.7c8.8-5.1,17.8-10,26.6-14.8c2.2-1.2,4.3-2.4,6.5-3.6l1-0.6
						c8.2-4.6,16.8-9.3,24-15.6c5.7-5,10.6-11.1,15.1-18.5c2-3.3,4-6.7,5.9-10.1c3.8-6.5,7.8-13.3,11.9-19.8
						c6.2-9.8,14.6-17.2,25-22c11.4-5.4,23.6-9.3,34-12.5c15.7-4.7,30.8-12.8,46.2-24.6c5.9-4.5,12.1-9.3,18-14.5
						c10-8.8,17.9-18,24.1-27.9c3.6-5.9,6.3-12.8,8.1-21.2c2-10.1,2.7-20.2,2.1-29.9c-0.4-6-1.5-12.1-2.5-18
						c-0.2-1.2-0.4-2.5-0.6-3.7c-0.7-3.8-1.4-7.7-2.1-11.5c-1.2-6.5-2.5-13.2-3.4-19.9c-1.2-8.5-0.6-17.1,1.7-25.5
						c1.8-6.7,3.8-13.5,6-20.1c0.8-2.5,1.7-5.1,2.6-7.5c1.2-3.2,2.4-6.5,3.4-9.9c0.5-1.7,1.1-3.4,1.6-5.1c3.1-9.8,6.2-19.9,7.3-30.3
						l0.2-2c1.7-14,0.3-26.5-4.3-38.3c-3-7.5-7.9-13.1-14.7-16.7c-5.5-3-11.7-3-17.7-3h-1.1c-5.1,0-10.3,0.2-15.3,0.4
						c-4.3,0.2-8.8,0.3-13.2,0.4c-11.2,0.2-22.3-1-33.1-3.6c-3.3-0.8-6.6-1.7-9.9-2.6c-3.2-0.9-6.5-1.7-9.8-2.5l-2-0.5
						c-5.5-1.3-11.2-2.7-16.9-2.8c-4.1-0.1-7,1.3-8.6,4.2c-0.7,1.1-0.8,2.6-0.8,4.2c0,0.8-0.1,1.7-0.2,2.6l0.1,3.4
						c0.4,1.8,0.8,3.6,1.2,5.4c0.8,3.8,1.7,7.7,2.7,11.4c3.1,11.7,4.5,23.6,4.1,35.3c-0.3,10.3-2,20.9-5,31.7
						c-0.8,2.8-1.6,5.7-2.5,8.5c-1.6,5.6-3.2,11.3-5.1,17c-0.7,2.5-2,4.8-3.1,7.1c-0.3,0.6-0.6,1.1-0.8,1.7
						c-0.6,1.2-1.2,2.4-1.8,3.6c-1.7,3.4-3.5,6.9-5.7,10.1c-7.5,10.6-17.2,18-28.8,22.1c-9.8,3.5-19.2,1.5-27.1-5.8
						c-4.6-4.4-8.7-9.5-12.7-14.4c-1.2-1.4-2.3-2.9-3.5-4.3c-2-2.4-3.9-4.9-5.8-7.2c-3.3-4.2-6.7-8.6-10.5-12.5
						c-5.5-5.8-11.9-11.5-19.2-17.2C167.2,105,159,99.1,149,96.9c-7.6-1.6-13.8-2-19.7-1.1c-9.4,1.4-18.7,4.9-28.6,10.8
						c-4.6,2.8-9.3,5.5-13.9,8.1c-7.2,4.1-14.6,8.4-21.6,12.9c-15.1,9.6-28.5,21.1-40.1,34.1c-3,3.4-6.1,6.8-9.1,10.1
						c-5,5.5-10.1,11.1-15,16.8c-3.7,4.4-7.3,9-10.7,13.5c-6.5,8.4-13.2,17-20.9,24.8c-8.9,8.9-19.5,14.8-31.5,17.5l-0.5-2.2
						c11.7-2.6,21.6-8.2,30.3-16.9c7.6-7.6,14.3-16.2,20.7-24.6c3.5-4.5,7.1-9.1,10.8-13.6c4.9-5.8,10.1-11.4,15-16.9
						c3-3.3,6.1-6.7,9.1-10c11.7-13.1,25.3-24.8,40.5-34.5c7-4.5,14.5-8.8,21.6-12.9c4.6-2.6,9.3-5.3,13.9-8.1
						c10.1-6,19.7-9.6,29.4-11.1c6.2-0.9,12.7-0.6,20.5,1.1c10.5,2.3,19,8.3,26.8,14.3c7.3,5.7,13.9,11.6,19.4,17.4
						c3.8,4,7.3,8.4,10.6,12.7c1.9,2.4,3.8,4.8,5.8,7.2c1.2,1.4,2.4,2.9,3.5,4.3c3.9,4.9,8,9.9,12.5,14.2c7.2,6.7,15.8,8.6,24.7,5.4
						c11.1-4,20.4-11.1,27.7-21.3c2.1-3,3.7-6.3,5.5-9.8c0.6-1.2,1.2-2.4,1.8-3.6c0.3-0.5,0.6-1.1,0.9-1.7c1.1-2.2,2.3-4.4,3-6.7
						c1.8-5.7,3.4-11.4,5-17c0.8-2.8,1.6-5.7,2.5-8.5c3-10.6,4.7-21,5-31.1c0.4-11.6-1-23.2-4.1-34.7c-1-3.8-1.9-7.7-2.7-11.5
						c-0.4-1.8-0.8-3.7-1.2-5.5v-0.2l-0.1-3.7v-0.1c0.1-0.8,0.2-1.6,0.2-2.4c0.1-1.8,0.2-3.7,1.1-5.3c2-3.6,5.7-5.5,10.6-5.4
						c6,0.1,11.8,1.5,17.4,2.8l2,0.5c3.3,0.8,6.7,1.7,9.9,2.6c3.2,0.9,6.5,1.7,9.8,2.5c10.6,2.6,21.5,3.8,32.5,3.6
						c4.4,0,8.8-0.2,13.1-0.4c5-0.2,10.3-0.4,15.4-0.4h1.1c6.3,0,12.8,0,18.8,3.2c7.2,3.8,12.6,10,15.7,17.9
						c4.7,12.1,6.2,25,4.5,39.4l-0.2,2c-1,10.6-4.2,20.8-7.4,30.7c-0.5,1.7-1.1,3.4-1.6,5.1c-1,3.4-2.2,6.7-3.4,10
						c-0.9,2.4-1.8,5-2.6,7.5c-2.2,6.7-4.2,13.4-6,20c-2.3,8.1-2.8,16.4-1.7,24.5c0.9,6.6,2.2,13.3,3.4,19.8
						c0.7,3.8,1.4,7.7,2.1,11.6c0.2,1.2,0.4,2.5,0.6,3.7c1,6,2.1,12.1,2.5,18.2c0.7,9.9,0,20.2-2.1,30.5c-1.8,8.7-4.6,15.9-8.4,22
						c-6.3,10.2-14.4,19.5-24.5,28.5c-6,5.2-12.2,10.1-18.2,14.6c-15.7,12-31,20.2-47,25c-10.3,3.1-22.3,7-33.6,12.3
						c-10,4.7-18.1,11.8-24,21.2c-4.1,6.5-8,13.2-11.8,19.7c-2,3.4-4,6.8-6,10.1c-4.6,7.6-9.7,13.9-15.5,19.1
						c-7.4,6.4-16,11.2-24.4,15.9l-1,0.6c-2.2,1.2-4.4,2.4-6.5,3.6c-8.8,4.8-17.8,9.8-26.6,14.8c-2,1.2-4.1,2.4-6.1,3.6
						c-7.7,4.6-15.6,9.4-24.5,12.2c-7.4,2.3-14.6,3.8-21.2,4.4C130.7,484.8,128.5,484.9,126.4,484.9z"/>
				</g>
			</g>
		</g>
	</g>
</g>
</svg>
