<?xml version="1.0" encoding="utf-8"?>
<!-- Generator: Adobe Illustrator 23.0.4, SVG Export Plug-In . SVG Version: 6.00 Build 0)  -->
<svg version="1.1" id="Layer_1" xmlns="http://www.w3.org/2000/svg" xmlns:xlink="http://www.w3.org/1999/xlink" x="0px" y="0px"
	 viewBox="0 0 163 625" style="enable-background:new 0 0 163 625;" xml:space="preserve">
<style type="text/css">
	.st0{clip-path:url(#SVGID_2_);}
	.st1{clip-path:url(#SVGID_4_);}
	.st2{clip-path:url(#SVGID_6_);}
	.st3{clip-path:url(#SVGID_8_);}
	.st4{clip-path:url(#SVGID_10_);}
</style>
<g>
	<g>
		<g>
			<g>
				<defs>
					<rect id="SVGID_1_" y="-8.1" width="288.7" height="698.3"/>
				</defs>
				<clipPath id="SVGID_2_">
					<use xlink:href="#SVGID_1_"  style="overflow:visible;"/>
				</clipPath>
				<g class="st0">
					<path d="M105.8,622.7c-15,0-29.7-2.5-44.8-5.2c-11.5-2.1-23.3-4.1-34.7-6c-8.6-1.5-17.6-3-26.3-4.5c-2.4-0.4-4.8-0.8-7.2-1.2
						c-7.3-1.2-14.8-2.5-22.1-4.1c-6.7-1.5-13.4-3.1-19.8-4.8c-6.5-1.6-13.1-3.3-19.8-4.7l0.5-2.2c6.7,1.5,13.4,3.1,19.8,4.8
						c6.5,1.6,13.1,3.3,19.8,4.7c7.3,1.6,14.8,2.8,22,4.1c2.4,0.4,4.8,0.8,7.2,1.2c8.8,1.6,17.7,3.1,26.3,4.5
						c11.4,1.9,23.1,3.9,34.7,6.1c15.5,2.8,29.6,5.2,44.4,5.2c9.9,0,19.2-2.1,27.5-6.3c6.4-3.1,10.4-7.2,12.3-12.6
						c0.3-0.6,0.5-1.3,0.5-2.1c0.4-5.6-1.1-10.9-4.4-15.3c-2.4-3.2-4.9-6.4-7.4-9.6c-3.6-4.6-7.3-9.3-10.7-14.2
						c-4.3-6.3-7.7-12.8-9.8-18.9c-2.1-5.7-2.4-12.2-2.4-17.2c-0.1-7,0.7-14,1.5-20.8c0.2-1.8,0.4-3.7,0.7-5.5
						c0.8-6.4,1.6-12.5,0.8-18.7c-0.9-7-2.7-12.5-5.6-17.1c-4.4-6.9-10-13.1-15.4-19l-1.4-1.5c-6.2-6.8-12.6-13.8-18.2-21.5
						c-6.9-9.4-11.5-18.7-14.3-28.5c-4.2-15-3.9-30.2,0.9-45.2c2.1-6.8,4.1-11.7,6.5-16.1c2.3-4.2,5-8.1,7.6-11.9
						c1.3-1.9,2.7-3.9,4-5.9c2.3-3.5,4.6-7,6.8-10.6c2.8-4.7,5.2-9,7.4-13.1c3.3-6.4,5.2-13.5,5.6-21.7c0.5-10.4-0.9-21-4.8-34.4
						c-1.7-6-3.5-12.1-5.3-18c-2.1-7.1-4.4-14.5-6.3-21.9c-2.9-10.4-4-19-3.5-27.2c0.5-8.6,2.2-16.1,5.2-23.1
						c3.6-8.3,9.3-15,14.4-20.6c7.8-8.6,17.2-15.4,26.2-21.9c2.5-1.8,5.1-3.7,7.7-5.6c4.4-3.3,9-6.8,13.1-10.4
						c5.8-5,9.8-11,12.4-18.3c1.8-5.2,1.9-10.5,0.4-17.2c-2.8-12.1-8.8-23.2-18.9-34.9c-6.8-7.9-14.3-11-22.3-9.3
						c-7.8,1.7-14.9,4.9-21.2,9.3c-2.4,1.7-4.8,3.4-7.2,5.2c-5.7,4.1-11.5,8.3-17.5,12.1c-7.5,4.8-14.8,9.3-22.6,12.4
						c-9,3.6-19.1,4.2-30.1,2.1c-7.1-1.4-13-3.6-17.9-7c-4.5-3.1-8.6-6.5-12.2-10.3l1.7-1.6c3.4,3.6,7.4,7,11.8,9.9
						c4.7,3.2,10.3,5.3,17.1,6.6c10.5,2.1,20.2,1.4,28.8-1.9c7.6-3,14.8-7.5,22.2-12.2c6-3.8,11.8-8,17.4-12.1
						c2.4-1.7,4.8-3.5,7.2-5.2c6.5-4.6,13.9-7.9,22-9.7c8.9-1.9,17.2,1.5,24.5,10.1c10.3,12,16.4,23.5,19.3,35.9
						c1.6,7,1.5,12.9-0.4,18.4c-2.7,7.7-6.9,14-13,19.3c-4.2,3.7-8.8,7.2-13.3,10.5c-2.5,1.9-5.2,3.8-7.7,5.6
						c-8.9,6.5-18.2,13.2-25.9,21.6c-4.9,5.5-10.5,12-14,20c-2.8,6.7-4.5,14-5,22.3c-0.4,7.9,0.7,16.3,3.5,26.4
						c2,7.3,4.2,14.7,6.3,21.8c1.8,5.9,3.6,12,5.3,18.1c3.9,13.7,5.4,24.5,4.8,35.2c-0.4,8.6-2.3,16-5.8,22.7
						c-2.1,4.2-4.6,8.5-7.4,13.3c-2.2,3.6-4.5,7.2-6.8,10.6c-1.3,2-2.7,4.1-4,6c-2.6,3.8-5.2,7.7-7.5,11.8
						c-2.3,4.2-4.2,9.1-6.3,15.7c-4.6,14.5-4.9,29.2-0.9,43.8c2.7,9.5,7.2,18.5,13.9,27.7c5.5,7.5,11.8,14.5,18,21.3l1.4,1.5
						c5.5,6,11.2,12.2,15.6,19.3c3.1,5,5,10.7,6,18.1c0.9,6.5,0,13-0.8,19.3c-0.2,1.8-0.5,3.6-0.7,5.5c-0.8,6.8-1.6,13.7-1.5,20.6
						c0,4.8,0.3,11,2.2,16.4c2.1,5.9,5.4,12.2,9.6,18.3c3.3,4.8,7,9.5,10.6,14.1c2.5,3.1,5,6.3,7.4,9.6c3.6,4.8,5.2,10.7,4.8,16.9
						c-0.1,1-0.4,1.9-0.7,2.7c-2.1,5.8-6.5,10.4-13.5,13.8C125.7,620.5,116.1,622.7,105.8,622.7z"/>
				</g>
			</g>
		</g>
	</g>
	<g>
		<g>
			<g>
				<defs>
					<rect id="SVGID_3_" y="-8.1" width="288.7" height="698.3"/>
				</defs>
				<clipPath id="SVGID_4_">
					<use xlink:href="#SVGID_3_"  style="overflow:visible;"/>
				</clipPath>
				<g class="st1">
					<path d="M70,606.4c-9.2,0-18.2-0.9-25.9-1.7c-6-0.6-12-1.3-17.8-2s-11.8-1.4-17.8-2c-15.6-1.6-29.3-3.7-41.6-6.6
						c-5.9-1.3-11.8-2.8-17.5-4.3c-6.6-1.7-13.4-3.4-20.1-4.9l0.5-2.2c6.8,1.5,13.6,3.2,20.2,4.9c5.7,1.4,11.6,2.9,17.4,4.3
						c12.5,2.9,25.6,5,41.4,6.6c6,0.6,12,1.3,17.8,2s11.9,1.4,17.8,2c14.4,1.4,26.5,2.4,39,0.9c7.3-0.9,13.2-2.9,18.1-6.2
						c2.8-1.9,5.9-8.5,4.4-12.5c-1.3-3.3-2.5-6.7-3.7-9.9c-1.5-4.2-3.1-8.5-4.7-12.6c-5.8-14.3-7.6-28.4-5.3-43.2
						c0.3-2.2,0.7-4.4,1-6.6c1.4-8.9,2.9-18,3-27.1c0.1-6.1-1.9-11.8-4-17.1c-2.8-6.9-7.6-12.9-12.2-18.7l-1.6-2
						c-10-12.6-21.2-28.1-28.6-46.6c-3.2-8.1-5-17.4-5.5-28.6c-0.5-9.5,1.1-19.5,4.8-30.7c2.3-7.2,5.9-14.3,10.8-21.1
						c5.1-7.2,9.9-14.6,13.6-20.2c3.3-5.3,6.8-10.7,9.6-16.4c3-6,4.7-12.4,5.1-19.4c0.4-9.2-0.8-18.6-4-29.6
						c-4-13.6-9-26.8-15.4-42.3c-4.4-10.6-6.5-21.2-6-31.5c0.5-8.5,2.5-16.9,5.8-25c6.2-15,17.3-26.2,27.3-35.2
						c4.2-3.8,8.8-7.2,13.2-10.5c2.1-1.6,4.2-3.2,6.3-4.8l0.4-0.3c4.5-3.6,9.2-7.3,12.4-12.2c3.8-5.8,7.3-12.8,4.3-21.2
						c-0.2-0.7-0.5-1.4-0.7-2.1c-1.2-3.5-2.3-6.7-4.6-9.5c-1.7-2.1-3.7-3.7-6.4-5.1c-4-2.2-8-4.4-12.7-3.3c-0.6,0.2-1.3,0.3-1.9,0.5
						c-3.6,0.8-7,1.6-10,3.2c-9.2,4.9-18.8,10.3-30.1,17c-10.2,6-21.5,9-33.5,9c-8,0-16.1-1.4-24.2-4.3L7,56.5
						c-2.6-0.8-5.2-1.7-7.6-3c-3.4-1.9-6.6-4.3-9.6-6.6l1.4-1.9l0,0c3,2.2,6.1,4.6,9.4,6.4c2.2,1.2,4.8,2,7.2,2.8l1.5,0.5
						c7.8,2.8,15.7,4.1,23.4,4.1C44.3,58.9,55.2,56,65,50.2c11.4-6.7,21-12.1,30.2-17c3.3-1.7,7-2.5,10.6-3.4
						c0.6-0.1,1.3-0.3,1.9-0.4c5.5-1.3,10.2,1.2,14.3,3.5c2.9,1.6,5.1,3.4,7,5.7c2.6,3.1,3.8,6.7,5,10.2c0.2,0.7,0.5,1.4,0.7,2
						c3.4,9.3-0.6,17.3-4.5,23.2c-3.4,5.2-8.2,9-12.9,12.7l-0.4,0.3c-2.1,1.6-4.2,3.3-6.3,4.8c-4.4,3.3-8.9,6.7-13,10.4
						c-10.3,9.3-20.7,19.9-26.7,34.4c-3.2,7.8-5.1,16-5.6,24.2c-0.5,9.9,1.5,20.2,5.8,30.5c6.4,15.6,11.5,28.8,15.4,42.5
						c3.2,11.3,4.5,20.9,4,30.4c-0.4,7.4-2.2,14-5.3,20.4c-2.9,5.8-6.4,11.3-9.7,16.6c-3.7,5.6-8.5,13-13.6,20.3
						c-4.7,6.7-8.2,13.5-10.4,20.5c-3.6,10.9-5.1,20.7-4.6,29.9c0.5,10.9,2.2,20,5.3,27.8c7.3,18.2,18.3,33.5,28.2,46l1.6,2
						c4.7,5.9,9.6,12,12.5,19.3c2.2,5.5,4.3,11.5,4.2,18c-0.1,9.3-1.6,18.5-3,27.5c-0.3,2.2-0.7,4.4-1,6.6
						c-2.2,14.4-0.6,28.1,5.1,42c1.7,4.2,3.3,8.5,4.8,12.7c1.2,3.3,2.4,6.6,3.6,9.9c2,5.3-1.7,12.8-5.2,15.3
						c-5.2,3.5-11.4,5.7-19.1,6.6C79.1,606.2,74.5,606.4,70,606.4z"/>
				</g>
			</g>
		</g>
	</g>
	<g>
		<g>
			<g>
				<defs>
					<rect id="SVGID_5_" y="-8.1" width="288.7" height="698.3"/>
				</defs>
				<clipPath id="SVGID_6_">
					<use xlink:href="#SVGID_5_"  style="overflow:visible;"/>
				</clipPath>
				<g class="st2">
					<path d="M9.2,587.8c-2.6,0-5.1,0-7.7-0.1c-14.8-0.1-30.3-2.3-48.8-6.9l0.6-2.2c18.3,4.6,33.6,6.8,48.2,6.9
						c13.5,0.2,27.4,0.4,40.9-5c6.2-2.5,10.5-7.9,11.4-14.7c0.9-6.2,0.4-12.6,0-18.8l-0.2-2.2c-0.4-5.1-0.8-10.3-0.5-15.5
						c0.4-8.1,1.9-16.8,4.8-27.2c4-14.3,3.8-26.7-0.7-38.1c-3.9-9.9-8.4-19.3-12.7-28.1c-6.2-12.8-13.3-27.4-16.4-43.2
						c-1.8-8.8-3.6-20.4-2.4-32.1c1.3-12,3.6-26,11.6-38.3l1.7-2.6c3.9-5.9,7.8-12.1,12.2-17.9c5.1-6.9,10.5-14.3,14.7-22.3
						c4.7-9,6.5-18.3,5.4-28.5c-1.2-10.3-4.4-20.7-9.8-32c-2.8-5.9-6.1-11.7-9.2-17.4c-2.4-4.3-4.9-8.7-7.1-13.1
						c-3-5.8-5.8-11.5-7-18C35.7,157,38,144.2,42.1,129c0.3-1,0.5-1.9,0.8-2.9c1.8-6.4,3.7-13.1,3.4-20c-0.2-7-3.1-11.8-8.8-14.8
						c-2.6-1.3-5.1-2.4-7.8-3.6L28.2,87c-3.5-1.5-7.1-3-10.5-4.5l-3.1-1.3c-2-0.8-4-1.6-6-2.4C4.4,77.1,0.1,75.4-4,73.4
						c-3.6-1.8-7.2-4.1-11.5-7.3l1.4-1.8c4.2,3.1,7.7,5.4,11.1,7.1c4,1.9,8.3,3.7,12.4,5.3c2,0.8,4,1.6,6,2.4l3.1,1.3
						c3.5,1.5,7.1,3,10.5,4.5l1.5,0.7c2.7,1.2,5.3,2.3,7.9,3.7c6.5,3.4,9.8,8.9,10,16.8c0.3,7.2-1.7,14.1-3.5,20.7
						c-0.3,1-0.5,1.9-0.8,2.9c-4.1,14.9-6.3,27.5-3.9,40.5c1.2,6.2,3.9,11.7,6.8,17.4c2.3,4.4,4.7,8.8,7.1,13
						c3.2,5.7,6.4,11.5,9.3,17.5c5.5,11.5,8.8,22.2,10,32.8c1.2,10.7-0.7,20.5-5.6,29.9c-4.3,8.2-9.7,15.7-14.9,22.7
						c-4.3,5.7-8.2,11.8-12.1,17.7l-1.7,2.6c-7.7,11.9-10,25.6-11.2,37.3c-1.2,11.4,0.7,22.8,2.4,31.5c3,15.5,10,29.9,16.2,42.6
						c4.3,8.9,8.8,18.3,12.7,28.3c4.7,11.8,4.9,24.8,0.7,39.5c-2.9,10.3-4.4,18.8-4.8,26.7c-0.3,5.1,0.1,10.3,0.5,15.3l0.2,2.2
						c0.5,6.3,0.9,12.8,0,19.3c-1,7.6-5.8,13.8-12.8,16.5C32,587.1,20.5,587.8,9.2,587.8z"/>
				</g>
			</g>
		</g>
	</g>
	<g>
		<g>
			<g>
				<defs>
					<rect id="SVGID_7_" y="-8.1" width="288.7" height="698.3"/>
				</defs>
				<clipPath id="SVGID_8_">
					<use xlink:href="#SVGID_7_"  style="overflow:visible;"/>
				</clipPath>
				<g class="st3">
					<path d="M-17.5,574.4c-12.9,0-25.3-2.4-36.8-5l0.5-2.2c11.4,2.6,23.6,5,36.3,5c0.3,0,0.5,0,0.8,0c7.3,0,14.2-1.1,21.2-3.2
						c10.1-3.2,14.8-12.5,15.1-20.2c0.2-8.9,0.2-16.7-0.2-23.8c-0.5-11.8,1.1-23.8,4.9-36.8c3.7-12.1,4.8-22.2,3.6-31.6
						c-1-7.5-3-15.2-4.8-22c-1-3.9-2.1-7.8-3.3-11.6c-1.8-6.1-3.7-12.5-5-18.9c-3.3-16-6.4-35.1-3.5-54.5c1.1-7.3,2.7-16,6.2-24.1
						c4.1-9.5,10.1-17.8,15.6-24.7c6.9-8.8,14-18.4,19.5-29.5c3.7-7.4,4.9-15.2,3.6-23.3c-2-12.4-6.6-23.5-13.7-32.9
						c-6.7-9.1-13.6-18.4-20.1-27.8c-7.6-11.1-10.5-23.6-8.7-37.3c1-7.2,2.2-16.6,2.6-26.2c0.5-9.2-3-17.1-10.3-23.6
						c-5.3-4.7-11.4-8.7-17.3-12.5c-3.6-2.3-7.3-4.7-10.8-7.3l1.4-1.9c3.5,2.5,7.2,4.9,10.7,7.2c6,3.9,12.1,7.9,17.6,12.7
						c7.9,7,11.6,15.5,11.1,25.4c-0.4,9.7-1.6,19.2-2.6,26.4c-1.8,13.1,1,25.1,8.3,35.7c6.5,9.4,13.4,18.7,20.1,27.8
						c7.3,9.7,12,21.1,14.1,33.9c1.4,8.6,0.1,16.9-3.8,24.7c-5.5,11.3-12.8,21-19.7,29.9c-5.3,6.7-11.3,14.9-15.2,24.1
						c-3.4,7.9-5,16.3-6,23.5c-2.8,19.1,0.2,37.8,3.5,53.7c1.3,6.3,3.1,12.6,4.9,18.7c1.1,3.8,2.3,7.8,3.3,11.7
						c1.8,6.8,3.8,14.6,4.8,22.2c1.3,9.8,0.1,20.2-3.6,32.6c-3.7,12.7-5.3,24.5-4.9,36c0.4,7.1,0.4,15,0.2,24
						c-0.3,8.6-5.6,18.8-16.7,22.4c-7.2,2.3-14.3,3.4-21.9,3.4C-17,574.4-17.2,574.4-17.5,574.4z"/>
				</g>
			</g>
		</g>
	</g>
	<g>
		<g>
			<g>
				<defs>
					<rect id="SVGID_9_" y="-8.1" width="288.7" height="698.3"/>
				</defs>
				<clipPath id="SVGID_10_">
					<use xlink:href="#SVGID_9_"  style="overflow:visible;"/>
				</clipPath>
				<g class="st4">
					<path d="M-42.3,557c-3,0-6.2-0.2-9.5-0.6l0.3-2.3c10,1.1,18.1,0.6,25.7-1.9c8-2.5,11-8.9,12.9-14.7c1.1-3.4,1.2-7.2,1.4-10.9
						c0-0.6,0-1.2,0.1-1.8c0.5-10,0.7-18.4,0.8-26.3c0.1-8.6,1.3-17.5,4-29c3.4-14.3,4.8-28.2,4.1-42.5c-0.4-7.9-1.2-16-1.9-23.8
						c-0.5-4.9-1-10-1.4-15c-1.1-13-1.9-26.8-0.3-40.8c1.4-12.9,3.9-26.4,11.7-38.5c0.7-1.1,1.4-2.2,2.1-3.3
						c2.7-4.2,5.5-8.6,8.7-12.7c8.1-10.1,13.5-18.4,17.6-26.9c2.9-6.2,3.7-12.7,2.4-19.5c-2.2-11.8-8.6-22.3-20.1-33.2
						c-2.7-2.6-5.6-5.2-8.3-7.8c-3.9-3.6-7.9-7.3-11.7-11c-9.5-9.3-13.1-21.1-11.1-36.1c0.3-2.1,0.6-4.2,0.9-6.3
						c1-6.7,2-13.5,2.1-20.3c0.2-11.1-4.1-20.6-13-29.2l1.6-1.7c9.4,9,13.9,19.1,13.8,30.9c-0.1,6.9-1.1,13.9-2.1,20.6
						c-0.3,2.1-0.6,4.2-0.9,6.3c-1.9,14.2,1.5,25.4,10.5,34.1c3.8,3.7,7.8,7.4,11.6,11c2.8,2.5,5.6,5.2,8.4,7.8
						c11.8,11.2,18.4,22.2,20.7,34.4c1.4,7.3,0.5,14.3-2.6,20.9c-4.2,8.7-9.7,17.1-17.8,27.3c-3.1,3.9-5.9,8.3-8.6,12.5
						c-0.7,1.1-1.4,2.2-2.1,3.3c-7.6,11.7-9.9,24.9-11.3,37.5c-1.6,13.8-0.7,27.5,0.3,40.4c0.4,5,0.9,10.1,1.4,15
						c0.8,7.8,1.6,15.9,1.9,23.9c0.7,14.5-0.6,28.6-4.1,43.1c-2.7,11.4-3.9,20.2-4,28.5c-0.1,7.9-0.3,16.3-0.8,26.3
						c0,0.6,0,1.2-0.1,1.8c-0.2,3.8-0.3,7.8-1.5,11.5c-2,6.5-5.3,13.4-14.4,16.2C-30.5,556.2-36.1,557-42.3,557z"/>
				</g>
			</g>
		</g>
	</g>
</g>
</svg>
