<?xml version="1.0" encoding="utf-8"?>
<!-- Generator: Adobe Illustrator 23.0.4, SVG Export Plug-In . SVG Version: 6.00 Build 0)  -->
<svg version="1.1" id="Layer_1" xmlns="http://www.w3.org/2000/svg" xmlns:xlink="http://www.w3.org/1999/xlink" x="0px" y="0px"
	 viewBox="0 0 337 432" style="enable-background:new 0 0 337 432;" xml:space="preserve">
<style type="text/css">
	.st0{clip-path:url(#SVGID_2_);}
	.st1{clip-path:url(#SVGID_4_);}
	.st2{clip-path:url(#SVGID_6_);}
	.st3{clip-path:url(#SVGID_8_);}
	.st4{clip-path:url(#SVGID_10_);}
	.st5{clip-path:url(#SVGID_12_);}
</style>
<g>
	<g>
		<g>
			<g>
				<defs>
					<rect id="SVGID_1_" x="-50.1" y="-118.3" width="387.1" height="602.6"/>
				</defs>
				<clipPath id="SVGID_2_">
					<use xlink:href="#SVGID_1_"  style="overflow:visible;"/>
				</clipPath>
				<g class="st0">
					<path d="M52.1,430.1c-13.3,0-24.4-7.7-29.7-20.6c-1.7-4-2.9-8.3-4.1-12.5c-0.6-2-1.2-4.2-1.9-6.2c-0.7-2.2-1.4-4.4-2-6.6
						c-1.4-4.3-2.8-8.8-4-13.2c-1.4-5.1-2.6-10.3-3.8-15.3c-0.5-1.9-0.9-3.9-1.4-5.8c-0.2-0.8-0.4-1.7-0.6-2.5
						c-0.4-1.7-0.9-3.4-1.2-5.1c-0.3-2.7-0.5-5.5-0.7-8.2c-0.1-1.4-0.2-2.8-0.3-4.2c-0.3-10.2,1.4-19.8,5.1-27.9
						c4.9-10.9,12-20,21.1-26.8c11.6-8.8,24.5-16.3,35.9-23c5.7-3.3,11.5-6.4,17.2-9.5c2.4-1.3,4.8-2.6,7.2-3.8
						c9.7-5.3,20.5-10.1,34.2-14.9c3.2-1.2,6.6-1.9,9.9-2.7c1.2-0.3,2.5-0.6,3.7-0.9l2.5-0.6c4-0.9,8.2-1.9,12.3-2.5
						c3.5-0.5,7.1-0.7,10.6-1c4.2-0.3,8.5-0.7,12.7-1.3c4.2-0.7,9.1-1.9,12.9-5.1c3.1-2.5,5-6.2,5.6-11.2c0.3-2.6,0.5-5.3,0.8-8
						c0.5-5.2,1-10.7,1.9-15.9c1.1-6.4,2.6-12.8,4-19c0.9-3.8,1.8-7.8,2.6-11.7c2.4-11.8,3.9-21.7,3.2-32c-0.1-1.2-0.1-2.4-0.1-3.5
						c0-2.2,0-4.5-0.5-6.6c-1.2-5.7-2.6-11.8-4.8-17.5c-3-7.7-6.2-15.4-9.3-22.9c-1.9-4.5-3.7-8.9-5.5-13.4
						c-4.1-10.1-6.4-18.1-7.4-26c-1.3-9.5,5.2-18.7,14.1-20.1c8.8-1.5,17,0.2,25.9,5.4c9.9,5.9,18.5,13.7,26.8,21.2
						c1.2,1.1,2.5,2.2,3.7,3.3c7,6.3,14.6,12.9,23.3,20.4c2.1,1.8,4.2,3.5,6.3,5.2c2,1.6,4,3.2,6,4.9l2.7,2.4l0.6,0.5
						c9.5,7.2,19.3,14.6,30.4,19c12.2,5,22.4,3.6,31.1-4c12.2-10.8,20.4-22,25.3-34.2c3.6-9.2,4.1-18.1,1.5-26.5
						c-2.4-7.6-6.2-14.8-10-21.7c-0.9-1.7-1.9-3.5-2.8-5.2c-1.2-2.4-2.5-4.8-3.8-7.2c-3.1-6-6.4-12.2-9.5-18.4
						c-2.5-5-4.5-10.8-6.6-18.2c-2.3-8.9-3.1-15.8-2.4-22.6c1.2-11.2,8.1-19.1,13.2-24.1c3.8-3.7,7.9-7.2,11.9-10.6
						c2.8-2.4,5.7-4.9,8.5-7.4c8.2-7.4,11.6-17.3,11-32.2c-0.3-5.7-1.6-11.9-3.9-18.4c-2.4-6.5-5.8-14.9-11.2-22
						c-7.9-10.3-16.4-17.8-25.8-23c-16.9-8.9-35.5-17.7-56.5-20c-10-1.2-20.9-0.8-33.1,1.1c-3.7,0.6-7.5,1.4-11.1,2.3
						c-2,0.5-4,0.9-6,1.3l-0.5,0.1c-1.1,0.2-2.2,0.5-3.4,0.8c-2.1,0.5-4.3,1-6.5,1.3c-2.1,0.3-4.2,0.7-6.3,1
						c-8,1.3-16.3,2.6-24.6,3.4c-4.7,0.5-10,0-15.8-1.2c-8-1.7-15.6-5.6-24-12.1c-9.5-7.4-20.8-13.2-34.3-17.5c-1-0.3-2-0.6-2.9-0.9
						c-10.2-3.2-20.7-6.6-29.3-14.3c-4.4-4-6.8-7.8-7.8-12.1c-1.4-6.6-2.2-12.8-2.4-18.6c-0.2-5.3-0.1-10.7,0-15.9
						c0.1-3.9,0.1-7.9,0.1-11.9c-0.1-8.2-0.3-15.1-1.1-22c-0.6-5.8-2-11.8-3.4-17.5c-1.1-4.6-2.3-9.6-4.1-14.3
						c-4.2-11.2-9.5-22.9-16.1-35.7c-9.1-17.6-17.1-34.2-24.2-51l2.1-0.9c7.1,16.7,15,33.3,24.2,50.8c6.7,12.9,12,24.6,16.3,35.9
						c1.9,4.9,3.1,9.8,4.1,14.5c1.4,5.8,2.8,11.9,3.4,17.8c0.8,6.9,1,13.9,1.1,22.2c0,4,0,8-0.1,12c-0.1,5.2-0.2,10.5,0,15.8
						c0.2,5.6,1,11.8,2.4,18.2c0.8,3.8,3.1,7.2,7.1,10.9c8.2,7.4,18.5,10.7,28.4,13.8c1,0.3,2,0.6,2.9,0.9
						c13.9,4.4,25.3,10.3,35.1,17.9c8.1,6.3,15.4,10,23,11.7c5.5,1.2,10.6,1.6,15,1.2c8.2-0.8,16.5-2.1,24.5-3.4
						c2.1-0.3,4.2-0.7,6.4-1c2.1-0.3,4.2-0.8,6.3-1.3c1.1-0.3,2.3-0.5,3.4-0.8l0.5-0.1c2-0.4,4-0.9,6-1.3c3.7-0.8,7.5-1.7,11.3-2.3
						c12.4-1.9,23.5-2.3,33.7-1.1c21.4,2.3,40.2,11.2,57.3,20.5c9.7,5.4,18.4,13.1,26.6,23.6c5.6,7.3,9.1,15.9,11.6,22.6
						c2.4,6.7,3.8,13.1,4.1,19c0.4,9.7-0.4,23.8-11.8,34c-2.8,2.5-5.7,5-8.6,7.5c-4,3.4-8,6.9-11.8,10.5
						c-7.7,7.5-11.7,14.7-12.6,22.7c-0.6,6.5,0.1,13.2,2.4,21.8c2,7.4,4,12.9,6.4,17.8c3.1,6.2,6.3,12.4,9.4,18.4
						c1.3,2.4,2.5,4.8,3.8,7.2c0.9,1.7,1.8,3.4,2.7,5.2c3.8,7,7.7,14.3,10.1,22.1c2.8,9,2.3,18.4-1.5,28.1c-5,12.5-13.5,24-25.9,35
						c-9.4,8.3-20.4,9.7-33.5,4.4c-11.5-4.5-21.4-12.1-31-19.3l-0.7-0.5l-2.8-2.5c-1.9-1.6-3.9-3.3-5.9-4.8
						c-2.1-1.7-4.3-3.4-6.4-5.2c-8.7-7.5-16.3-14.1-23.3-20.4c-1.2-1.1-2.5-2.2-3.7-3.3c-8.2-7.4-16.8-15.2-26.4-20.9
						c-8.4-4.9-16.1-6.6-24.3-5.2c-7.7,1.2-13.3,9.2-12.2,17.5c0.9,7.7,3.2,15.5,7.2,25.4c1.8,4.5,3.7,8.9,5.5,13.4
						c3.1,7.5,6.3,15.2,9.3,23c2.3,5.9,3.7,12.1,5,17.9c0.5,2.3,0.5,4.7,0.5,7.1c0,1.1,0,2.3,0.1,3.4c0.8,10.5-0.7,20.6-3.2,32.6
						c-0.8,3.9-1.7,7.9-2.6,11.7c-1.4,6.2-2.8,12.5-3.9,18.9c-0.9,5.1-1.4,10.5-1.9,15.7c-0.2,2.6-0.5,5.4-0.8,8
						c-0.7,5.6-2.8,9.7-6.4,12.7c-4.3,3.5-9.8,4.8-14,5.5c-4.3,0.7-8.7,1-12.9,1.3c-3.4,0.3-7,0.5-10.4,1c-4,0.6-8.1,1.5-12.1,2.4
						l-2.5,0.6c-1.2,0.3-2.5,0.6-3.8,0.9c-3.2,0.7-6.5,1.5-9.6,2.6c-13.5,4.8-24.3,9.5-33.8,14.7c-2.4,1.3-4.8,2.6-7.2,3.9
						c-5.6,3-11.5,6.1-17.1,9.4c-11.4,6.6-24.2,14.1-35.7,22.8c-8.7,6.6-15.6,15.4-20.3,26c-3.5,7.8-5.2,17-4.9,26.8
						c0.1,1.3,0.2,2.7,0.3,4.2c0.2,2.7,0.3,5.4,0.6,8c0.3,1.6,0.7,3.2,1.1,4.8c0.2,0.8,0.4,1.7,0.7,2.5c0.5,1.9,0.9,3.9,1.4,5.8
						c1.2,5,2.4,10.2,3.8,15.2c1.2,4.4,2.6,8.8,3.9,13.2c0.7,2.2,1.4,4.4,2,6.6c0.7,2.1,1.3,4.2,1.9,6.3c1.2,4.1,2.4,8.3,4.1,12.2
						c5,12.3,15.6,19.5,28.3,19.2c4.8-0.1,9.7-1.1,14.4-2.1c1.3-0.3,2.5-0.5,3.8-0.8c7.7-1.5,15.2-4.4,22.5-7.2c2.5-1,5.2-2,7.8-2.9
						c9.9-3.7,20.6-7.3,32-8.3c7.8-0.7,14.7-0.5,21,0.6c4.8,0.8,9.7,1.7,14.5,2.6c7.2,1.3,14.7,2.7,22.1,3.9
						c3.4,0.6,7.1,0.5,10.7,0.3c0.7,0,1.4,0,2.1-0.1c8.1-0.1,15.3-2.9,23-5.9c2.5-1,5.1-2,7.7-2.9c7.7-2.7,16-5.6,24.2-7.7
						c6.5-1.7,13.8-3.1,22.3-4.2c4.5-0.6,9.1-0.7,13.5-0.8c2-0.1,3.9-0.1,5.9-0.2c5.9-0.3,12-0.6,18-0.7c3.1-0.1,6.2-0.1,9.4-0.1
						c3.1,0,6.2,0,9.2-0.1c0.2,0,0.3,0,0.6-0.1l0.2-0.1l0.7-0.1c0.9-0.1,1.7-0.2,2.5-0.2c2.3-0.2,4.6-0.4,6.9-0.8l0.4,2.3
						c-2.3,0.4-4.7,0.6-7,0.8c-0.8,0.1-1.6,0.1-2.4,0.2l-0.6,0.1c-0.4,0.1-0.7,0.2-1.2,0.2c-3.1,0-6.2,0.1-9.2,0.1
						c-3.1,0-6.2,0-9.3,0.1c-6,0.1-12.1,0.4-18,0.7c-2,0.1-4,0.1-6,0.2c-4.4,0.1-8.9,0.2-13.2,0.8c-8.4,1.1-15.6,2.5-22.1,4.2
						c-8.1,2.1-16.3,4.9-24,7.7c-2.6,0.9-5.1,1.9-7.6,2.8c-7.5,2.9-15.3,5.9-23.8,6c-0.7,0-1.4,0-2.1,0.1c-3.7,0.1-7.5,0.2-11.1-0.4
						c-7.4-1.1-14.9-2.5-22.2-3.9c-4.7-0.9-9.6-1.8-14.4-2.6c-6.1-1.1-12.8-1.3-20.4-0.6c-11.1,0.9-21.6,4.5-31.4,8.1
						c-2.6,0.9-5.2,1.9-7.8,2.9c-7.4,2.8-15,5.7-22.9,7.3c-1.3,0.2-2.5,0.5-3.8,0.8C63,428.9,58,430,53,430
						C52.7,430.1,52.4,430.1,52.1,430.1z"/>
				</g>
			</g>
		</g>
	</g>
	<g>
		<g>
			<g>
				<defs>
					<rect id="SVGID_3_" x="-50.1" y="-118.3" width="387.1" height="602.6"/>
				</defs>
				<clipPath id="SVGID_4_">
					<use xlink:href="#SVGID_3_"  style="overflow:visible;"/>
				</clipPath>
				<g class="st1">
					<path d="M60.7,408.3c-3.6,0-7.2-1-10.6-2.9c-7.8-4.3-13.7-11.2-18.4-21.8c-5.4-12-9.2-22.1-12.1-31.6
						c-2.2-7.2-4.1-17.9-4.5-23.3c-0.4-4.7-0.1-9.2,0.9-14.2c3-14.3,11.1-26.4,24.9-36.9c10.9-8.4,22.9-16.1,35.6-23
						c7.8-4.2,15.8-8.2,23.8-12c8.9-4.2,17-6.9,24.9-8.3c1.2-0.2,2.4-0.5,3.6-0.9c1.5-0.4,3-0.8,4.6-1c10.5-1.6,21.2-1.6,31.9-0.1
						c8.7,1.3,17.6,2.6,26.4,3.4c9.9,0.8,18.1-2.9,24.5-10.8c2.9-3.7,4.1-8.5,4.1-15.8c-0.1-4.9-1.4-9.5-2.8-14.3
						c-0.6-2.2-1.3-4.6-1.8-6.9c-1.2-5.3-2-10.8-2.4-16.3c-0.8-10.2,0.5-20.3,1.7-30.2c0.7-5.6,1.5-11.4,1.8-17.1
						c0.3-4.8,0.2-9.7,0-14.5l-0.1-2.1c-0.1-4.7-0.4-8.3-0.8-11.6c-0.6-4.1-1.4-8.3-2.6-12.8c-0.7-3.1-1.7-6.2-2.6-9.2
						c-0.5-1.5-0.9-3.1-1.3-4.6c-0.4-1.6-0.9-3.2-1.4-4.8c-0.9-3.2-1.9-6.4-2.5-9.7c-0.2-1-0.4-2-0.6-3.1c-1-4.5-2-9.2-0.4-14.1
						c1.7-5.3,7-8.1,12.3-6.7c4.8,1.3,9.5,3.7,14.2,7.2l3.2,2.4c7.5,5.5,15.2,11.3,22.5,17.1c8.6,6.8,17.1,13.8,25.4,20.7l4.6,3.8
						l3.3,2.9c1.3,0.9,2.6,1.9,3.8,2.8c4.6,3.4,9.3,6.9,14.2,10c8.8,5.6,17.4,9,26.3,10.3c9.2,1.3,17.5-1.3,25.4-8
						c6.9-5.8,12.6-13.2,18-20.3l0.4-0.5c6.1-8.1,11.8-15.7,15.5-24.8c5.1-12.8,5.1-24.8,0.1-36.7c-4.4-10.3-10.3-19.8-17-30.2
						l-0.6-1c-6.4-10-13.1-20.3-16.2-32.4c-1.5-5.6-2.9-11.7-2.4-17.9c0.5-8.2,4.5-15.5,11.9-21.9c4.3-3.6,9-7,13.5-10.2
						c2.8-2,5.8-4.1,8.6-6.3c4.5-3.4,9.1-7.2,12-12.4c3.9-6.9,5.2-15.2,4-24.5c-1.4-10.1-4.9-19.9-8.4-29.4l-0.3-0.7
						c-7-19.5-18.8-35.5-34.9-47.6c-6.4-4.8-13.1-9.3-19.8-13.1c-11.1-6.4-22-12.4-34.2-15.7c-12.3-3.2-25.1-4-38.1-2.4
						c-8.5,1-17.2,2.7-25.7,4.4c-3.6,0.7-7.3,1.4-11,2.1c-1.2,0.2-2.3,0.4-3.5,0.6c-6.9,1.2-14,2.3-21.1,2.3
						c-7.7,0-13.7-1.5-18.7-4.6c-5.7-3.5-10.7-7.7-14.8-12.4c-2.6-3-5.7-6.4-9.1-9.3c-6.7-5.6-14.8-7.1-23.9-8.3
						c-0.9-0.1-1.9-0.3-2.8-0.4c-7.5-1-15.2-2.1-22.6-5.1c-5.5-2.3-10.1-5.7-13.8-10c-3.6-4.3-6-9.9-7.1-16.8
						c-0.8-5-1.5-10.1-2.2-15.1s-1.4-10.1-2.2-15.1c-0.8-5.1-1.8-10.3-3.2-16.1c-0.4-1.7-0.8-3.4-1.2-5.1
						c-1.5-6.7-3.1-13.7-5.3-20.3c-2.9-8.8-6.3-17.3-9.7-25.2c-1.7-4-3.5-8.1-5.3-12.1c-5.2-11.6-10.5-23.7-13.9-36.3
						c-0.5-1.8-1-3.6-1.5-5.3c-1-3.4-2-6.9-2.7-10.5l2.3-0.4c0.6,3.5,1.7,7,2.6,10.3c0.5,1.8,1,3.6,1.5,5.4
						c3.3,12.5,8.6,24.4,13.8,36c1.8,4,3.6,8.1,5.3,12.1c3.3,7.9,6.8,16.5,9.7,25.4c2.2,6.7,3.8,13.7,5.4,20.5
						c0.4,1.7,0.8,3.4,1.2,5.1c1.4,5.8,2.5,11.2,3.2,16.3c0.8,5,1.5,10.2,2.2,15.1c0.7,5,1.4,10.1,2.2,15.1c1,6.4,3.2,11.7,6.5,15.6
						c3.5,4.1,7.9,7.2,13,9.4c7.1,2.9,14.7,3.9,22,4.9c0.9,0.1,1.9,0.3,2.8,0.4c9.1,1.3,17.9,2.9,25.1,8.9c3.5,2.9,6.6,6.5,9.3,9.5
						c3.9,4.6,8.7,8.6,14.2,12c4.7,2.9,10.2,4.2,17.5,4.2c6.9,0,14-1.2,20.8-2.3c1.2-0.2,2.3-0.4,3.4-0.6c3.6-0.7,7.3-1.4,10.9-2.1
						c8.5-1.7,17.2-3.4,25.8-4.4c13.3-1.6,26.4-0.8,38.9,2.4c12.5,3.3,23.5,9.4,34.7,15.9c6.8,3.9,13.5,8.4,20,13.3
						c16.5,12.4,28.5,28.7,35.7,48.6l0.3,0.7c3.5,9.6,7.1,19.5,8.5,29.9c1.4,9.8-0.1,18.5-4.2,25.9c-3.1,5.5-7.9,9.5-12.6,13
						c-2.8,2.2-5.8,4.3-8.6,6.3c-4.5,3.2-9.1,6.5-13.3,10.1c-6.9,5.9-10.7,12.8-11.1,20.3c-0.4,5.9,1,11.7,2.4,17.1
						c3.1,11.8,9.6,22,15.9,31.8l0.6,1c6.8,10.5,12.7,20.1,17.2,30.6c5.2,12.4,5.2,25.3-0.1,38.5c-3.8,9.4-9.9,17.5-15.8,25.3
						l-0.4,0.5C373.7,88.5,368,96,360.9,102c-8.4,7.2-17.3,10-27.2,8.6c-9.2-1.4-18.1-4.9-27.2-10.7c-5-3.1-9.8-6.6-14.4-10.1
						c-1.3-1-2.6-1.9-3.9-2.9l-0.1-0.1l-3.3-2.9l-4.6-3.8c-8.2-6.8-16.8-13.9-25.4-20.6c-7.4-5.9-15-11.6-22.5-17.1l-3.2-2.4
						c-4.4-3.3-8.9-5.6-13.4-6.8c-4.1-1.1-8.2,1.1-9.5,5.1c-1.4,4.3-0.5,8.5,0.5,12.9c0.2,1,0.5,2.1,0.6,3.1
						c0.6,3.2,1.6,6.4,2.5,9.5c0.5,1.6,1,3.2,1.4,4.8c0.4,1.5,0.9,3,1.3,4.6c0.9,3,1.8,6.2,2.6,9.3c1.2,4.5,2,8.8,2.6,13
						c0.4,3.4,0.7,7.1,0.8,11.8l0.1,2.1c0.2,4.8,0.4,9.8,0,14.7c-0.3,5.8-1.1,11.6-1.8,17.2c-1.2,9.7-2.5,19.7-1.7,29.7
						c0.4,5.4,1.2,10.7,2.4,15.9c0.5,2.3,1.2,4.6,1.8,6.8c1.4,4.8,2.8,9.7,2.8,15c0,4.9-0.5,11.9-4.6,17.2
						c-6.8,8.4-15.9,12.5-26.5,11.6c-8.9-0.8-17.9-2.1-26.5-3.4c-10.5-1.5-21.1-1.5-31.3,0.1c-1.4,0.2-2.8,0.6-4.3,1
						c-1.2,0.3-2.5,0.7-3.8,0.9c-7.7,1.3-15.6,4-24.3,8.1c-7.9,3.8-15.9,7.8-23.6,12C64.5,263,52.6,270.7,41.9,279
						c-13.4,10.2-21.2,21.8-24.1,35.5c-0.9,4.8-1.2,9.1-0.9,13.6c0.4,5.2,2.3,15.9,4.5,22.9c2.9,9.5,6.7,19.4,12.1,31.4
						c4.5,10.1,10,16.7,17.4,20.8c3.5,2,7.4,2.9,11,2.6c6.6-0.7,13.3-1.4,20-2.8c3.5-0.7,6.9-1.9,10.3-3.1c1.7-0.6,3.5-1.2,5.2-1.7
						c1.4-0.4,2.7-0.8,4-1.1c3.9-1.1,8-2.3,12-3.3c5.4-1.2,10.7-2.3,15.7-3.2c8.1-1.6,16.2-1.4,23.8-1c5.8,0.3,11.7,0.8,17.4,1.3
						c6.4,0.5,13,1.1,19.4,1.4c5.8,0.3,12.2,0.1,19.4-0.6c5.2-0.5,10.6-1.3,15.7-2.1c2.6-0.4,5.3-0.8,7.9-1.2
						c2.5-0.3,5.1-0.7,7.6-1.1c4.2-0.6,8.5-1.3,12.8-1.7c5.4-0.5,10.9-0.9,16.2-1.2c2.8-0.2,5.5-0.4,8.3-0.6
						c1.5-0.1,3.1-0.2,4.6-0.3c4.3-0.3,8.7-0.6,13.1-0.8c2.6-0.1,5.3-0.1,7.9-0.2c2.6,0,5.2,0,7.8-0.1c2.8-0.1,5.6-0.4,8.4-0.6
						c1.4-0.1,2.8-0.2,4.2-0.3l12.2-0.9l2.1-0.3c3.2-0.5,6.5-1,9.8-1.7l0.4,2.3c-3.3,0.6-6.6,1.1-9.8,1.7l-2.2,0.4l-12.3,0.9
						c-1.4,0.1-2.8,0.2-4.2,0.3c-2.8,0.2-5.6,0.4-8.5,0.6c-2.6,0.1-5.3,0.1-7.9,0.2c-2.6,0-5.2,0-7.8,0.1c-4.3,0.1-8.7,0.5-13,0.8
						c-1.5,0.1-3.1,0.2-4.6,0.3c-2.8,0.2-5.5,0.4-8.3,0.6c-5.3,0.3-10.8,0.7-16.1,1.2c-4.2,0.4-8.5,1.1-12.7,1.7
						c-2.6,0.4-5.1,0.8-7.7,1.1c-2.6,0.4-5.3,0.8-7.9,1.2c-5.2,0.8-10.6,1.6-15.8,2.1c-7.4,0.7-13.8,0.9-19.8,0.6
						c-6.5-0.3-13.1-0.9-19.5-1.4c-5.7-0.5-11.5-1-17.3-1.3c-7.4-0.4-15.4-0.5-23.2,1c-4.9,0.9-10.2,2-15.6,3.2
						c-3.9,1-8,2.1-11.9,3.2c-1.3,0.4-2.7,0.8-4,1.1c-1.7,0.5-3.4,1.1-5.1,1.7c-3.4,1.2-7,2.4-10.6,3.1c-6.8,1.4-13.6,2.1-20.2,2.8
						C61.9,408.3,61.3,408.3,60.7,408.3z"/>
				</g>
			</g>
		</g>
	</g>
	<g>
		<g>
			<g>
				<defs>
					<rect id="SVGID_5_" x="-50.1" y="-118.3" width="387.1" height="602.6"/>
				</defs>
				<clipPath id="SVGID_6_">
					<use xlink:href="#SVGID_5_"  style="overflow:visible;"/>
				</clipPath>
				<g class="st2">
					<path d="M80.3,379c-0.9,0-1.8,0-2.6-0.1c-7.9-0.5-14.3-4.5-18.9-8c-8.1-6.2-13.2-14.6-17.4-22.8c-4-7.5-5.2-16.1-6.2-23.7v-0.1
						c-0.9-17.7,9.3-29.7,18.4-38.1c9.5-8.8,20.7-16.5,35.2-24.3c6.9-3.7,15.3-7.8,24.4-9.9c1.6-0.4,3.2-0.8,4.8-1.3
						c2.4-0.7,4.8-1.4,7.2-1.7c12.9-2.1,25.7-1.6,39.1,1.5c10.4,2.4,21,4,29.2,5.2c4.7,0.6,9.3,0.5,13.3-0.3
						c8.2-1.6,15.9-5.4,23-11.3c5.9-4.9,10.3-11.4,12.9-19.4c1.8-5.4,2.5-11.2,2-17.1c-0.5-6.9-2.7-13.4-4.8-19.7
						c-0.4-1.1-0.8-2.2-1.1-3.3c-2.8-8.5-4.6-17-5.3-25.5c-0.9-10.8,0-21.6,1.6-34.3l0.3-2.2c0.9-7.6,1.8-15.4,4.6-22.7
						c0.8-2.3,2.2-4.3,3.6-6.2c0.3-0.5,0.6-0.9,1-1.4c0.7-0.9,1.9-1.3,2.8-1.6l0.4-0.1c6.9-2.4,13.2,0.3,18.9,3.5
						c5.7,3.1,11.3,6.8,16.6,10.3l2,1.3c2.9,1.9,5.8,3.7,8.3,5.5c6.4,4.3,13.7,7.8,20.7,11.1c1.1,0.5,2.3,1.1,3.4,1.6
						c7.8,3.8,16.5,6.1,27.3,7.1c3.2,0.4,6.9,0.6,10.4-0.1c3.3-0.6,6.9-1.9,11.1-4c8.8-4.4,15.2-11.7,21.5-19.4
						c2.2-2.6,4.3-5.4,6.4-8.1c2.4-3.1,4.8-6.3,7.4-9.4c9.1-10.9,14.8-21.9,17.4-33.4c2.9-13,2.3-25.7-1.9-37.8
						c-3.8-11.4-10.2-22.1-15.9-31.6c-0.7-1.2-1.5-2.4-2.2-3.6c-2.4-3.9-4.8-7.9-7.1-11.9c-3.1-5.6-4.1-11.8-5-17.8l-0.1-0.8
						c-0.7-3.7,0-7.3,2.1-11.4c3-5.6,7.5-10.2,14.4-14.4c7.8-4.8,16.6-7.8,26-9.1c4.4-0.7,8.4-0.4,12.2,1
						c6.8,2.4,13.1,6.8,19.1,13.2l-1.7,1.6c-5.7-6.2-11.7-10.3-18.1-12.6c-3.4-1.2-7.1-1.5-11.1-0.8c-9.1,1.2-17.6,4.1-25.2,8.7
						c-6.5,3.9-10.8,8.2-13.6,13.5c-1.9,3.6-2.5,6.8-1.9,10l0.1,0.8c1,6.1,1.9,11.9,4.7,17c2.3,4,4.7,8,7.1,11.8
						c0.7,1.2,1.5,2.4,2.2,3.6c5.7,9.6,12.2,20.4,16.1,32c4.3,12.5,4.9,25.6,1.9,39c-2.7,11.9-8.5,23.1-17.8,34.4
						c-2.5,3-5,6.2-7.4,9.3c-2.1,2.7-4.2,5.5-6.4,8.2c-6.2,7.6-13,15.4-22.3,20c-4.4,2.2-8.2,3.6-11.7,4.2c-3.7,0.8-7.7,0.5-11,0.1
						c-11.1-1-20-3.4-28.1-7.3c-1.1-0.5-2.2-1.1-3.4-1.6c-7.1-3.4-14.5-6.8-21.1-11.3c-2.5-1.8-5.3-3.6-8.3-5.5l-2.1-1.4
						c-5.3-3.5-10.8-7.1-16.5-10.2c-4.9-2.8-10.7-5.5-17.1-3.3l-0.4,0.1c-0.6,0.2-1.4,0.5-1.6,0.8c-0.3,0.5-0.6,0.9-1,1.4
						c-1.3,1.9-2.5,3.7-3.3,5.7c-2.7,7.1-3.6,14.8-4.5,22.2L237,125c-1.6,12.6-2.4,23.2-1.6,33.9c0.7,8.2,2.4,16.6,5.1,24.9
						c0.4,1.1,0.7,2.2,1.1,3.3c2.2,6.4,4.4,13.1,4.9,20.3c0.5,6.2-0.2,12.3-2.2,18.1c-2.8,8.3-7.4,15.2-13.7,20.4
						c-7.4,6.1-15.5,10.1-24,11.7c-4.2,0.9-9.1,1-14.1,0.3c-8.2-1.2-19-2.8-29.4-5.2c-13.1-3-25.6-3.5-38.3-1.5
						c-2.3,0.3-4.6,1-7,1.7c-1.6,0.5-3.2,0.9-4.9,1.3c-8.9,2.1-17,6.1-23.8,9.7c-14.4,7.7-25.4,15.3-34.8,23.9
						C41.5,299.8,36,311,36.7,324c1,7.4,2.2,15.7,6,22.9c4.1,8,9,16.1,16.8,22c4.4,3.3,10.4,7.1,17.7,7.6c3.8,0.2,7.8-0.1,11.3-0.4
						c4.1-0.4,8.6-0.9,13.7-1.7c1.7-0.3,3.4-0.7,5.1-1.1c2.3-0.6,4.8-1.1,7.2-1.4l2.9-0.3c9.5-1.1,19.3-2.2,29.2-1.6
						c9.8,0.6,19.8,0.9,29.5,1.2h0.3c7.6,0.2,15.4,0.1,23,0c3.2,0,6.4-0.2,9.5-0.3c3.9-0.2,7.9-0.3,11.9-0.3
						c13.5,0,27.2,0.1,40.4,0.2h0.3c2.5,0,5,0.1,7.5,0.1c6.2,0.1,12.7,0.2,19.1,0.1c6.5-0.1,13.4-0.5,21.7-1.3
						c5.4-0.5,10.8-1.1,16-1.8c2.6-0.3,5.2-0.6,7.7-0.9l0.4-0.1c13.2-2.5,24.8-5.8,35.4-10.1l0.9,2.1c-10.7,4.4-22.5,7.7-35.8,10.3
						l-0.5,0.1c-2.7,0.3-5.2,0.6-7.8,0.9c-5.3,0.6-10.7,1.3-16.1,1.8c-8.3,0.8-15.3,1.2-21.9,1.3c-6.4,0.1-12.9,0-19.1-0.1
						c-2.5,0-5-0.1-7.5-0.1h-0.3c-13.2-0.1-26.9-0.2-40.4-0.2c-3.9,0-7.9,0.2-11.8,0.3c-3.1,0.1-6.3,0.2-9.5,0.3
						c-7.6,0.1-15.4,0.2-23.1,0h-0.3c-9.7-0.3-19.7-0.6-29.5-1.2c-9.7-0.6-19.4,0.5-28.8,1.6l-2.9,0.3c-2.3,0.3-4.7,0.8-7,1.4
						c-1.7,0.4-3.5,0.8-5.3,1.1c-5.2,0.8-9.7,1.4-13.9,1.7C86.5,378.8,83.4,379,80.3,379z"/>
				</g>
			</g>
		</g>
	</g>
	<g>
		<g>
			<g>
				<defs>
					<rect id="SVGID_7_" x="-50.1" y="-118.3" width="387.1" height="602.6"/>
				</defs>
				<clipPath id="SVGID_8_">
					<use xlink:href="#SVGID_7_"  style="overflow:visible;"/>
				</clipPath>
				<g class="st3">
					<path d="M286.8,362.5c-1.5,0-3,0-4.4-0.1c-12.4-0.9-22.8-1.8-33.3-3.2c-19-2.5-38.6-2-57-1.2c-6.5,0.3-13.3,0.2-19.8,0.1
						c-5.4-0.1-10.9-0.3-16.2-0.6c-9.5-0.5-19.3-0.9-29-0.3c-4.9,0.4-9.9,0.6-14.7,0.7c-2.9,0.1-5.9,0.2-8.8,0.4
						c-5.1,0.3-11.9,0.5-18.5-1c-8.8-2.1-16.2-7-22.8-14.9c-5.7-6.7-7.5-15.2-8.3-21.1c-0.4-6.7,1.7-13.3,6.6-20.9
						c6.9-10.7,16.8-17.8,26.4-24.2c7.6-5.1,15.8-8.9,24.2-11.4c5.4-1.6,11.1-2.3,16.6-3c1.6-0.2,3.1-0.4,4.7-0.6
						c10.6-1.5,20.9,0.8,30.9,3c1.4,0.3,2.9,0.7,4.3,1c11.6,2.6,22.1,4.7,32.8,4.9c7.1,0.2,14-1.3,20.7-4.5
						c11.7-5.4,21.1-13.2,27.8-23.1c7-10.3,10.6-21.8,10.6-34.2c0.1-5.8-0.9-11.9-3.1-19.2c-1-3.3-1.8-6.8-2.6-10.2
						c-0.3-1.3-0.6-2.5-0.9-3.8c-0.3-1.3-0.5-2.5-0.8-3.7c-0.7-3-1.4-6.2-1.8-9.3c-1.5-10.8-0.6-20,2.7-28.1
						c1.3-3.2,3.6-6.4,6.7-9.5c4.1-4,9.7-3.6,13.5-3c7.8,1.3,14.9,4.6,21.9,7.8l1.4,0.6c1.8,0.8,3.5,1.5,5.2,2.3
						c8.4,3.7,17.2,7.6,26.3,9.9c8.7,2.2,20.1,4.7,31.7,4.1c9.3-0.6,18-4.2,25.9-10.7c5.6-4.6,11.1-10.3,17.2-17.9
						c2.2-2.7,4.4-5.4,6.6-8c2.9-3.4,5.9-7,8.7-10.5c7.9-10.1,12.9-20.2,15.3-30.8c1-4.6,2.2-9.9,2.5-15c0.6-8.6,0.6-15.5,0.1-21.8
						c-0.5-6.5-2-12.9-3.5-18.3c-1.5-5.7-3.5-11.8-6.1-18.6c-0.8-2.1-1.6-4.3-2.5-6.3c-2.7-6.8-5.6-13.9-5.8-21.9
						c-0.2-5.4,3.2-12.8,8.6-15.1c7.6-3.2,15.2-2.9,22,1l-1.1,2c-6.2-3.5-12.9-3.8-20-0.8c-4.3,1.8-7.4,8.3-7.2,12.9
						c0.2,7.5,2.9,14.1,5.7,21.1c0.8,2.1,1.7,4.2,2.5,6.4c2.6,6.9,4.6,13,6.1,18.8c1.4,5.5,3,12,3.5,18.7c0.5,6.4,0.5,13.5-0.1,22.2
						c-0.3,5.3-1.5,10.7-2.5,15.4c-2.5,10.9-7.7,21.2-15.7,31.7c-2.8,3.6-5.8,7.2-8.7,10.6c-2.2,2.6-4.4,5.3-6.6,7.9
						c-6.3,7.8-11.8,13.6-17.6,18.3c-8.3,6.9-17.4,10.7-27.3,11.3c-11.9,0.7-23.5-1.9-32.4-4.1c-9.3-2.4-18.1-6.2-26.6-10
						c-1.7-0.8-3.4-1.5-5.2-2.3l-1.5-0.6c-6.9-3.1-13.9-6.4-21.4-7.6c-5.3-0.8-9-0.1-11.5,2.4c-2.9,2.9-4.9,5.8-6.1,8.7
						c-3.2,7.7-4,16.5-2.5,26.9c0.4,3,1.1,6.1,1.8,9.1c0.3,1.2,0.6,2.5,0.8,3.7c0.3,1.2,0.6,2.5,0.9,3.8c0.8,3.5,1.5,6.8,2.5,10
						c2.2,7.6,3.2,13.9,3.2,19.9c0,12.9-3.7,24.8-11,35.5c-7,10.2-16.7,18.3-28.8,23.9c-7,3.3-14.3,4.9-21.7,4.7
						c-10.9-0.2-21.5-2.3-33.2-4.9c-1.4-0.3-2.9-0.6-4.3-1c-9.8-2.2-19.9-4.5-30-3c-1.6,0.2-3.2,0.4-4.7,0.6
						c-5.4,0.7-11,1.4-16.2,2.9c-8.2,2.4-16.2,6.2-23.6,11.2c-9.4,6.3-19.1,13.2-25.8,23.6c-4.6,7.2-6.5,13.3-6.2,19.4
						c1.2,8.9,3.6,15,7.7,19.8c6.3,7.5,13.3,12.1,21.6,14.1c6.3,1.5,12.9,1.3,17.9,1c3-0.2,5.9-0.3,8.9-0.4
						c4.8-0.2,9.8-0.4,14.6-0.7c9.8-0.6,19.7-0.2,29.3,0.3c5.3,0.3,10.8,0.5,16.1,0.6c6.5,0.1,13.2,0.2,19.6-0.1
						c18.5-0.8,38.2-1.3,57.4,1.2c10.4,1.4,20.8,2.3,33.1,3.2c3.6,0.2,7.2,0.1,10.7,0c2.1-0.1,4.4-0.2,6.6-0.2
						c8.2-0.1,16.5-1.5,24.5-2.9l1.5-0.3L351,350l0.6,2.2l-25.4,7.2l-1.6,0.3c-8.1,1.4-16.4,2.8-24.9,2.9c-2.2,0-4.4,0.1-6.5,0.2
						C291.3,362.4,289.1,362.5,286.8,362.5z"/>
				</g>
			</g>
		</g>
	</g>
	<g>
		<g>
			<g>
				<defs>
					<rect id="SVGID_9_" x="-50.1" y="-118.3" width="387.1" height="602.6"/>
				</defs>
				<clipPath id="SVGID_10_">
					<use xlink:href="#SVGID_9_"  style="overflow:visible;"/>
				</clipPath>
				<g class="st4">
					<path d="M293.4,350.4c-3,0-5.9-0.1-8.7-0.3c-9.2-0.5-18.2-2.6-27-4.6c-1.3-0.3-2.6-0.6-3.8-0.9c-8-1.9-16.8-3.5-27.5-5.3
						c-9.2-1.5-18.6-0.8-27.8-0.1c-3.6,0.3-7.4,0.6-11.1,0.7c-2.1,0.1-4.2,0.2-6.2,0.3c-5.2,0.3-10.5,0.6-15.8,0.4
						c-15.3-0.7-31.8-1.6-49-2.9c-8.9-0.7-19.2-2.3-27.6-9.4c-4-3.4-6.1-7-6.6-11.3l-0.1-0.5c-1.2-5.2,0.8-9.8,2.9-13.6
						c2.9-5.1,6.4-9,10.5-12l1-0.7c5-3.7,10.1-7.5,16.3-9.4c2.4-0.7,4.9-1.3,7.3-1.9c0.9-0.2,1.8-0.4,2.7-0.6
						c9.2-2.2,19-2.4,29.9-0.7c4.9,0.8,9.8,2,14.6,3.1c2.6,0.6,5.2,1.2,7.8,1.8l1.7,0.3c9.4,2,19.2,4,28.9,3.6
						c5.4-0.2,10.9-1.7,18-5.1c13.9-6.6,24.3-17.5,31.7-26.2c7.5-8.8,13.1-19.3,16.6-31c2.3-7.7,3.2-15.6,2.9-23.5
						c-0.2-3.6-0.6-7.3-0.9-10.9c-0.3-3.6-0.7-7.3-0.9-11c-0.1-0.9-0.1-1.9-0.2-2.8c-0.4-5.2-0.9-10.5,1.2-15.8
						c3.1-7.8,7.6-10.9,16.1-11c2.3-0.1,5.7-0.2,8.4-0.1h0.3c1,0.3,2.2,0.5,3.3,0.7c0.8,0.2,1.6,0.3,2.3,0.5
						c14.8,3.5,30.1,7.2,45.6,8.9c8.5,1,19.6,1.6,30.4-2.1c8.2-2.9,15.1-6.9,21-12.3l1.5,1.7c-6.1,5.5-13.2,9.7-21.8,12.7
						c-11.3,3.9-22.7,3.3-31.4,2.3c-15.6-1.7-31-5.4-45.8-8.9c-0.7-0.2-1.4-0.3-2.2-0.4c-1.2-0.2-2.4-0.4-3.4-0.7
						c-1.9-0.1-4.5,0-8.1,0.1c-7.6,0.1-11.2,2.6-14,9.6c-1.8,4.7-1.5,9.6-1,14.8c0.1,0.9,0.2,1.9,0.2,2.8c0.2,3.6,0.6,7.3,0.9,10.9
						c0.3,3.6,0.7,7.3,0.9,11c0.4,8.1-0.6,16.3-2.9,24.3c-3.6,12-9.3,22.7-17,31.8c-7.6,8.9-18.1,20-32.5,26.8
						c-7.4,3.5-13.2,5.1-18.9,5.3c-10,0.4-19.9-1.7-29.4-3.7l-1.7-0.3c-2.6-0.6-5.3-1.2-7.8-1.8c-4.7-1.1-9.6-2.3-14.4-3.1
						c-10.6-1.6-20.2-1.4-29.1,0.7c-0.9,0.2-1.8,0.4-2.7,0.6c-2.4,0.6-4.8,1.1-7.2,1.8c-5.8,1.8-10.8,5.5-15.6,9.1l-1,0.8
						c-3.9,2.8-7.1,6.5-9.9,11.2c-1.9,3.4-3.7,7.5-2.7,12l0.1,0.7c0.4,3.7,2.3,6.8,5.8,9.8c7.9,6.7,17.7,8.2,26.2,8.8
						c17.2,1.3,33.7,2.2,49,2.9c5.2,0.2,10.4-0.1,15.5-0.4c2.1-0.1,4.2-0.2,6.3-0.3c3.7-0.1,7.4-0.4,11-0.7
						c9.3-0.7,18.9-1.4,28.3,0.1c10.8,1.8,19.6,3.4,27.7,5.3c1.3,0.3,2.6,0.6,3.8,0.9c8.6,2,17.6,4.1,26.6,4.6
						c6.2,0.4,13.3,0.6,20.2-0.7c3.5-0.7,6.9-1.3,10.4-2c3.4-0.7,6.9-1.3,10.3-2l5.8-2.1c3-1.3,6-2.6,9-3.9c3-1.3,6.1-2.6,9.1-4
						c2.9-1.3,5.8-2.7,8.5-4.1c4.2-2,8.6-4.2,13-6l0.9,2.1c-4.3,1.8-8.7,4-12.9,6c-2.8,1.4-5.7,2.8-8.6,4.1c-3.1,1.4-6.1,2.7-9.1,4
						s-6,2.6-9.1,3.9l-6.2,2.2c-3.4,0.6-6.9,1.3-10.4,2s-7,1.4-10.4,2C301.5,350.1,297.3,350.4,293.4,350.4z"/>
				</g>
			</g>
		</g>
	</g>
	<g>
		<g>
			<g>
				<defs>
					<rect id="SVGID_11_" x="-50.1" y="-118.3" width="387.1" height="602.6"/>
				</defs>
				<clipPath id="SVGID_12_">
					<use xlink:href="#SVGID_11_"  style="overflow:visible;"/>
				</clipPath>
				<g class="st5">
					<path d="M290.3,327.1c-0.1,0-0.1,0-0.2,0c-13.1-0.4-18.1-4.2-25.6-10c-6.1-4.8-9-9.7-9.2-16c-0.2-5.3,1.2-10.7,4-14.6
						c2.7-4.2,5.4-8.6,8.1-13c3.7-5.9,7.5-12,11.3-17.9c6.2-9.5,11.1-20.4,15.3-33.2c0.9-3.1,1.7-6.3,2.3-9.4
						c0.5-2.4,1.1-4.9,1.7-7.3c1.6-5.7,3.4-11.7,6.3-17.1l0.1-0.1c3.3-5,7.6-8.1,12.8-9.2c6.8-1.4,13.8-1.8,21.5-1.5
						c4.2,0.1,8.4,0.4,12.5,0.7c7.8,0.5,15.9,1.1,24,0.6c8.6-0.6,15.6-2,22-4.6l0.9,2.1c-6.7,2.7-13.9,4.2-22.8,4.8
						c-8.2,0.5-16.3,0-24.3-0.6c-4.1-0.3-8.3-0.6-12.5-0.7c-7.5-0.3-14.4,0.2-20.9,1.5c-4.6,1-8.4,3.7-11.3,8.2
						c-2.8,5.2-4.6,11.1-6.1,16.6c-0.6,2.4-1.2,4.8-1.7,7.2c-0.7,3.2-1.4,6.4-2.4,9.6c-4.2,13-9.3,24.1-15.5,33.8
						c-3.8,5.8-7.6,11.9-11.2,17.9c-2.7,4.4-5.5,8.8-8.2,13c-2.5,3.6-3.8,8.4-3.6,13.2c0.3,5.6,2.8,9.8,8.4,14.2
						c7.1,5.5,11.8,9.2,24.2,9.6c0.1,0,0.1,0,0.2,0c7.7,0,27.5-10.9,43.5-19.7c10.5-5.8,19.6-10.8,24.8-12.6
						c13.3-4.7,15.4-5.1,23.7-6.2l0.3,2.3c-7.8,1-9.7,1.3-23.3,6c-5,1.7-14.4,6.9-24.4,12.5C317.9,316.4,298.6,327.1,290.3,327.1z"
						/>
				</g>
			</g>
		</g>
	</g>
</g>
</svg>
