<?xml version="1.0" encoding="utf-8"?>
<!-- Generator: Adobe Illustrator 23.0.4, SVG Export Plug-In . SVG Version: 6.00 Build 0)  -->
<svg version="1.1" id="Layer_1" xmlns="http://www.w3.org/2000/svg" xmlns:xlink="http://www.w3.org/1999/xlink" x="0px" y="0px"
	 viewBox="0 0 502.4 579.5" style="enable-background:new 0 0 502.4 579.5;" xml:space="preserve">
<style type="text/css">
	.st0{clip-path:url(#SVGID_2_);}
	.st1{clip-path:url(#SVGID_4_);}
	.st2{clip-path:url(#SVGID_6_);}
	.st3{clip-path:url(#SVGID_8_);}
	.st4{clip-path:url(#SVGID_10_);}
	.st5{clip-path:url(#SVGID_12_);}
	.st6{clip-path:url(#SVGID_14_);}
	.st7{clip-path:url(#SVGID_16_);}
	.st8{clip-path:url(#SVGID_18_);}
	.st9{clip-path:url(#SVGID_20_);}
	.st10{clip-path:url(#SVGID_22_);}
	.st11{clip-path:url(#SVGID_24_);}
	.st12{clip-path:url(#SVGID_26_);}
	.st13{clip-path:url(#SVGID_28_);}
	.st14{clip-path:url(#SVGID_30_);}
	.st15{clip-path:url(#SVGID_32_);}
</style>
<title>bg-shape-1</title>
<g>
	<g>
		<defs>
			<rect id="SVGID_1_" x="-12.5" y="-29.7" width="514.9" height="688.1"/>
		</defs>
		<clipPath id="SVGID_2_">
			<use xlink:href="#SVGID_1_"  style="overflow:visible;"/>
		</clipPath>
		<g class="st0">
			<path d="M162.5,255.6c-0.8,0-1.6-0.1-2.4-0.2c-1-0.1-2-0.3-2.9-0.4s-1.7-0.3-2.5-0.4h-0.1l-0.6-0.2l-2.8-1.3
				c-2.8-1.2-5.6-2.5-8.3-4c-7.1-3.9-12.1-8-16-13.1c-3.7-4.7-5.2-10.7-4.2-16.6c0.6-3.7,3.2-7.2,4.6-9c4.4-5.4,10.5-8.8,18.6-10.2
				c7.6-1.4,17.6,2.4,22.9,14.2c3.9,9,5.7,18.8,5.3,28.5c-0.1,4.4-1.5,7.9-4,10C167.9,254.7,165.2,255.6,162.5,255.6z M154.9,252.6
				c0.9,0.1,1.7,0.2,2.6,0.4s1.9,0.3,2.8,0.4c3.6,0.5,6.5-0.2,8.5-1.9s3.2-4.6,3.2-8.5c0.4-9.5-1.4-18.9-5.1-27.6
				c-3.3-7.5-11.2-14.8-20.7-13c-7.6,1.4-13.3,4.5-17.4,9.5c-1.3,1.6-3.6,4.8-4.2,8c-0.9,5.3,0.5,10.8,3.8,15
				c3.7,4.9,8.5,8.7,15.4,12.5c2.6,1.4,5.4,2.7,8.1,3.9l2.7,1.2L154.9,252.6z"/>
		</g>
	</g>
</g>
<g>
	<g>
		<defs>
			<rect id="SVGID_3_" x="-12.5" y="-29.7" width="514.9" height="688.1"/>
		</defs>
		<clipPath id="SVGID_4_">
			<use xlink:href="#SVGID_3_"  style="overflow:visible;"/>
		</clipPath>
		<g class="st1">
			<path d="M149.7,233.2c-1.4-0.1-2.7-0.8-3.7-1.8l0,0c-0.4-0.4-0.8-0.7-1.2-1.1c-1.1-0.9-2.1-1.9-2.8-3.2c-1.6-2.5-0.8-5.7,1.6-7.3
				c0.3-0.2,0.7-0.4,1.1-0.5c1.5-0.7,3.2-0.7,4.7-0.1c1.8,0.9,3.1,2.4,3.7,4.3c1.1,3.1,0.7,7.6-1.7,9.2
				C151,233.1,150.3,233.3,149.7,233.2z M147.4,230c0.9,0.8,2.1,1.6,3,1.1c1.4-0.9,1.8-4.3,0.9-6.8c-0.4-1.4-1.4-2.5-2.6-3.1
				c-1-0.4-2.2-0.4-3.1,0.1c-1,0.3-1.7,1.1-2.1,2c-0.3,1-0.2,2.1,0.4,3c0.6,1,1.4,1.9,2.3,2.6C146.6,229.2,147,229.6,147.4,230z"/>
		</g>
	</g>
</g>
<g>
	<g>
		<defs>
			<rect id="SVGID_5_" x="-12.5" y="-29.7" width="514.9" height="688.1"/>
		</defs>
		<clipPath id="SVGID_6_">
			<use xlink:href="#SVGID_5_"  style="overflow:visible;"/>
		</clipPath>
		<g class="st2">
			<path d="M231.9,387.4c-3.3,0-6.6-0.1-9.9-0.2c-2.5-0.2-4.9-0.6-7.3-1.3c-1-0.3-2.1-0.5-3.2-0.7h-0.4l-0.2-0.1
				c-1.4-0.8-2.8-1.6-4.2-2.4l-4.3-2.4c-7-4.2-12.3-10.6-16.6-20c-4.9-10.4-7.7-21.6-10.5-32.5l-0.1-0.4l-1-4.2
				c-2.1-8.7-4.4-17.7-8.4-25.9c-4.3-9.1-10.9-16.9-19-22.8c-3-2.3-6.1-4.5-9.2-6.8c-6.6-4.9-13.5-9.9-20-15.2
				c-4.4-3.7-8.3-8-11.6-12.8c-4.8-6.5-6.6-14.6-5.1-22.5c1-5,4.2-9.7,6.7-12.8c7.8-9.6,18-17,29.6-21.4c5.3-2,10.8-3.4,16.5-4
				c7.7-0.7,14.3,2,20.9,8.4c7,6.8,10.4,15.7,13.6,24.4c3.7,10.1,7.2,19.2,12.6,27.5c3.5,5.6,8.7,9.9,14.9,12.2
				c12.8,4.8,26.6,4.9,43.4,0.3c12.9-3.6,24.8-10.6,38.6-22.8c1.4-1.2,2.8-2.4,4.2-3.7c4.8-4.2,9.8-8.5,15-12.3
				c7.1-5.1,15.5-6.8,25.8-5.1c9.1,1.6,17.4,5.6,25.5,9.5c3.4,1.7,6.9,3.3,10.2,4.9c6.8,3.2,13.7,6.5,20.4,10.1
				c9.9,5.4,19.2,11.8,27.9,19.1c6.3,5.2,12.9,10.3,19.3,15.2l3.1,2.4c7.6,5.7,16.8,7.9,25.5,9.6c5.3,1,10.6,0.1,16.2-0.9l0.8-0.1
				c7.1-1.2,14.3-1.9,21.4-2.2c8.8-0.4,17.2,4.1,21.7,11.7c4.8,8,4,14-2.8,20.7c-5.6,5.7-12.5,9-19.3,12.1l-1.2,0.6
				c-5.2,2.4-10.5,4.9-15.5,7.3c-8.6,4.1-17.6,8.4-26.6,12.2c-11.9,4.9-24,9.1-36.4,12.5c-9.4,2.7-19,5-28.3,7.3
				c-6.7,1.6-13.5,3.3-20.3,5.1c-4.1,1.1-8.2,2.3-12.2,3.4c-10.9,3.1-22.2,6.3-33.6,8.3c-9.5,1.8-18.9,3.1-27.9,4.1
				s-17.7,1.7-26.3,2.5c-9.9,0.9-20.2,1.8-30.3,2.9C246.7,386.9,239.3,387.3,231.9,387.4z M211.7,383.1h0.1c1.1,0.2,2.3,0.5,3.4,0.8
				c2.2,0.6,4.5,1,6.9,1.2c10.6,0.5,21.3,0.2,31.9-1c10.1-1.1,20.4-2,30.3-2.9c8.6-0.8,17.5-1.6,26.3-2.5s18.2-2.3,27.7-4.1
				c11.3-2,22.5-5.2,33.4-8.3c4-1.1,8.1-2.3,12.2-3.4c6.8-1.8,13.7-3.5,20.4-5.1c9.3-2.3,18.9-4.6,28.2-7.3
				c12.3-3.5,24.4-7.6,36.2-12.5c9-3.7,18-8,26.6-12.1c5.1-2.4,10.3-4.9,15.6-7.3l1.2-0.6c6.9-3.2,13.3-6.3,18.7-11.7
				c6.2-6.1,6.8-11,2.5-18.3c-4.1-7-11.8-11.1-19.9-10.7c-7.1,0.3-14.2,1-21.2,2.2l-0.8,0.1c-5.5,1-11.3,2-16.9,0.9
				c-9-1.8-18.4-4-26.3-10l-3.1-2.4c-6.4-4.9-13.1-10-19.4-15.2c-8.5-7.2-17.7-13.5-27.5-18.9c-6.6-3.6-13.6-6.9-20.3-10.1
				c-3.4-1.6-6.9-3.2-10.3-4.9c-7.9-3.8-16.1-7.7-24.9-9.3c-9.6-1.6-17.6-0.1-24.2,4.7c-5.2,3.7-10.1,8-14.9,12.2l-4.2,3.7
				c-14,12.4-26.2,19.5-39.4,23.2c-17.2,4.8-31.4,4.7-44.6-0.3c-6.6-2.5-12.2-7-15.9-13c-5.5-8.5-9.1-17.6-12.8-27.9
				c-3.2-8.4-6.5-17.2-13.2-23.6c-6.1-5.9-12.3-8.4-19.3-7.8c-5.5,0.6-10.8,1.9-15.9,3.8c-11.3,4.3-21.2,11.5-28.8,20.8
				c-2.4,2.9-5.4,7.4-6.3,12c-1.4,7.3,0.3,14.9,4.7,20.9c3.2,4.6,6.9,8.8,11.2,12.4c6.4,5.3,13.3,10.3,19.9,15.2
				c3.1,2.3,6.1,4.5,9.2,6.8c8.4,6.1,15.1,14.2,19.6,23.5c4.1,8.4,6.4,17.5,8.5,26.3l1,4.2l0.1,0.4c2.7,10.8,5.5,22,10.3,32.2
				c4.2,9,9.2,15.1,15.8,19.1c1.4,0.8,2.8,1.6,4.2,2.4S210.3,382.4,211.7,383.1L211.7,383.1z"/>
		</g>
	</g>
</g>
<g>
	<g>
		<defs>
			<rect id="SVGID_7_" x="-12.5" y="-29.7" width="514.9" height="688.1"/>
		</defs>
		<clipPath id="SVGID_8_">
			<use xlink:href="#SVGID_7_"  style="overflow:visible;"/>
		</clipPath>
		<g class="st3">
			<path d="M237.2,381.4c-5.1,0-10.1-0.4-15.1-1.3c-1.5-0.3-3.1-0.5-4.8-0.7l-0.6,0.1l-0.3-0.2c-0.8-0.4-1.6-0.8-2.4-1.1
				c-2.2-0.9-4.3-2-6.3-3.2c-8.3-5.1-14.6-12.7-18.2-21.8c-4.7-11.4-7.3-23.2-9.8-37.4c-1.4-9.1-3.4-18.1-6-27
				c-2.8-9.1-9.2-16.4-20.3-22.8l-1.9-1.1c-9-5.2-18.3-10.5-26.1-17.7c-6-5.5-11.6-11.2-12.9-20.2c-1-6.7,0-11.7,3.1-16.2
				c9.4-13.9,22.4-20.9,38.7-20.9h0.4c5.8,0,10.2,3.4,13.7,6.7c5.1,4.8,8.7,10.9,10.6,17.6c2.8,9.6,5.6,18.2,8.5,26.2
				c1.8,5.2,4.6,11.8,10,16.3c2.3,1.7,4.8,3,7.5,3.9c12.9,4.1,26.8,4.5,42.6,1.4c9.5-1.9,17.3-3.9,24.7-7.3
				c10.6-4.9,20.6-11.5,31.7-20.9c3.6-3.2,7.4-6.2,11.3-9c8.4-6,18.7-8.6,29-7.5c6.4,0.8,12.7,2.6,18.5,5.4c2.4,1,4.7,2,7.1,3.1
				c5.1,2.2,10.3,4.4,15.3,6.8c12.7,6.2,21.7,11.9,29.4,18.4c6,5.2,12,10.5,17.8,15.7s11.8,10.5,17.8,15.7
				c4.5,3.9,9.5,7.5,14.2,11.1c2,1.5,3.9,2.9,5.8,4.4l0.2,0.1c3.3,2.5,7,5.3,6.8,10.6c-0.1,4.8-3.4,8.2-5.8,10.7
				c-8.6,9.1-19.5,16.2-33.5,21.5c-19.2,7.5-38.6,12.9-53.3,16.7c-5.1,1.3-10.3,2.8-15.4,4.2c-8.9,2.5-18.1,5.1-27.4,7.1
				c-10.5,2.4-21.9,4.2-36.7,6c-19,2.4-37.9,4.2-55.5,5.8C245,381.1,240.9,381.4,237.2,381.4z M217.5,377.4c1.7,0.2,3.4,0.4,5,0.7
				c7.7,1.4,15.9,1.6,26.8,0.7c17.6-1.6,36.5-3.4,55.5-5.8c14.8-1.8,26-3.6,36.5-6c9.2-2,18.4-4.6,27.3-7.1c5-1.4,10.3-2.9,15.4-4.2
				c14.7-3.8,33.9-9.2,53.1-16.7c13.6-5.2,24.3-12.1,32.7-21c2.8-2.9,5.1-5.6,5.2-9.3c0.1-4.3-2.9-6.6-6.1-9l-0.1-0.1
				c-1.9-1.5-3.9-2.9-5.8-4.4c-4.8-3.6-9.7-7.2-14.3-11.2c-6-5.2-12-10.5-17.8-15.7S419,257.7,413,252.6c-7.5-6.4-16.5-12-29-18.2
				c-5-2.4-10.2-4.6-15.3-6.8l-7.1-3.1c-5.7-2.7-11.7-4.5-17.9-5.2c-9.8-1.1-19.6,1.5-27.6,7.1c-3.9,2.8-7.6,5.7-11.1,8.8
				c-11,9.3-21.5,16.3-32.1,21.1c-7.6,3.5-15.5,5.5-25.1,7.5c-16.1,3.2-30.4,2.8-43.6-1.4c-2.9-1-5.7-2.4-8.1-4.3
				c-5.8-4.8-8.7-11.7-10.6-17.2c-2.9-8.1-5.7-16.7-8.5-26.4c-1.7-6.4-5.2-12.2-10-16.7c-3.2-3-7.2-6.1-12.3-6.1h-0.4
				c-15.8,0-27.9,6.6-37,20.1c-2.8,4.2-3.6,8.6-2.7,14.8c1.2,8.3,6.5,13.7,12.3,19c7.7,7,16.9,12.3,25.8,17.5l1.9,1.1
				c11.6,6.7,18.3,14.3,21.3,24c2.6,8.9,4.6,18,6,27.2c2.4,14.1,5,25.8,9.6,37c3.4,8.6,9.5,15.9,17.4,20.8c2,1.2,4,2.2,6.1,3.1
				l2.1,1h0.2L217.5,377.4l-0.2,1L217.5,377.4z"/>
		</g>
	</g>
</g>
<g>
	<g>
		<defs>
			<rect id="SVGID_9_" x="-12.5" y="-29.7" width="514.9" height="688.1"/>
		</defs>
		<clipPath id="SVGID_10_">
			<use xlink:href="#SVGID_9_"  style="overflow:visible;"/>
		</clipPath>
		<g class="st4">
			<path d="M243.9,376.7c-3.5,0-7-0.1-10.4-0.2c-2-0.1-4-0.1-5.9-0.2l0,0c-1.4-0.1-2.9-0.3-4.2-0.7c-0.6-0.2-1.3-0.4-1.9-0.5
				l-0.2-0.1l-0.4-0.2c-0.9-0.4-1.9-0.8-2.8-1.1c-2.3-0.9-4.6-1.9-6.8-3.2c-8.6-5.3-14.8-13-18.7-23.6c-6.9-18.5-7.5-37.8-7.2-55.8
				c0.1-2.6,0.7-5.1,1.7-7.5c2.3-5.9,6.9-9.1,14.1-9.9c2.4-0.2,4.8-0.5,7.2-0.7c7.2-0.7,14.6-1.4,21.8-2.5
				c10.7-1.7,20.1-3.5,28.7-5.6c10.1-2.4,20.3-7.1,31.3-14.4c7.6-5,14.6-10.4,20.5-15c10.6-8.3,21.5-12,33.2-11.2
				c5.7,0.3,11.4,1.6,16.6,3.9c1.9,0.9,4,1.6,6,2.4c2.3,0.9,4.7,1.8,7,2.8l2.5,1.2c6,2.7,11.9,5.7,17.7,9.1
				c7.3,4.4,14.3,9.3,20.8,14.8c5.9,5.3,11.5,10.9,16.7,16.9c5.7,6.3,11.2,13,16.5,19.5c2.7,3.1,4.4,7,5.5,12.3
				c1.4,7.5-2.5,12.9-6.5,17.2c-7.8,8.3-17.5,12.8-27,16.5c-18.6,7.3-37.8,12.6-55.8,17.5c-8.6,2.4-17.6,4.8-26.5,6.7
				c-11.1,2.3-21.1,4-30.5,5.2c-17.3,2.2-35.8,4.5-54.2,6.1C249.8,376.6,246.8,376.7,243.9,376.7z M221.9,373.2
				c0.6,0.1,1.3,0.3,1.9,0.5c1.2,0.4,2.5,0.6,3.7,0.7c2,0,4,0.1,6,0.2c6.3,0.3,12.6,0.3,18.9-0.1c18.4-1.6,36.9-3.9,54.1-6.1
				c9.3-1.2,19.3-2.9,30.3-5.2c8.9-1.9,17.8-4.3,26.4-6.7c18-4.9,37.1-10.2,55.6-17.5c9.2-3.6,18.8-8,26.2-16
				c3.8-4.1,7.2-8.8,6-15.4c-1-4.9-2.6-8.6-5.1-11.4c-5.3-6.5-10.8-13.2-16.5-19.5c-5.2-5.9-10.7-11.5-16.6-16.7
				c-6.5-5.4-13.3-10.3-20.5-14.6c-5.7-3.3-11.5-6.3-17.5-9l-2.5-1.2c-2.2-1-4.6-1.9-6.8-2.8c-2-0.8-4.1-1.5-6.1-2.4
				c-5.1-2.2-10.5-3.5-16-3.7c-11.2-0.7-21.6,2.8-31.8,10.8c-5.9,4.6-13,10-20.7,15c-11.2,7.4-21.6,12.2-31.9,14.6
				c-8.6,2.1-18.1,3.9-28.9,5.6c-7.3,1.1-14.7,1.8-21.9,2.5l-7.2,0.7c-6.5,0.8-10.4,3.5-12.5,8.7c-0.9,2.2-1.4,4.5-1.5,6.9
				c-0.4,17.8,0.2,36.8,7,55c3.8,10.1,9.6,17.5,17.9,22.6c2.1,1.2,4.2,2.2,6.5,3c1,0.4,2,0.8,2.9,1.2L221.9,373.2z"/>
		</g>
	</g>
</g>
<g>
	<g>
		<defs>
			<rect id="SVGID_11_" x="-12.5" y="-29.7" width="514.9" height="688.1"/>
		</defs>
		<clipPath id="SVGID_12_">
			<use xlink:href="#SVGID_11_"  style="overflow:visible;"/>
		</clipPath>
		<g class="st5">
			<path d="M246.2,366c-6.4,0.1-12.7-0.7-18.9-2.5l-0.4-0.1l-0.3-0.4c-1-0.6-2.1-1.2-3.1-1.7c-2.6-1.3-5.2-2.9-7.5-4.6
				c-2.9-2.3-7-5.9-9.4-10.3c-2.7-5-4-10.9-4.7-14.9c-0.9-5-1.8-12.5,0.3-19.5c3-9.9,9.2-17.2,17.9-21.1c9.3-4.3,19.3-7.2,28.9-10
				c2.2-0.7,4.5-1.3,6.7-2c9.4-2.8,21.7-6.9,33-13.7c2.4-1.5,4.9-2.9,7.2-4.3c4.4-2.5,8.9-5.2,13.1-8.2c6.6-4.7,13.9-8.3,21.6-10.7
				c5.7-1.9,12-2.4,19.8-1.5l1.5,0.1c1,0.1,2.1,0.2,3.1,0.5c8.8,2,17.7,5.7,28,11.6c14.2,7.9,26.3,19.1,35,32.8
				c4.5,7,6.6,15.2,6,23.5c-0.1,2.1-1.3,4.2-2.3,6c-4.4,7.5-10.9,13.1-19.7,17.2c-14.8,7-30.9,11.8-44.8,15.8l-4.9,1.4
				c-5.4,1.7-10.9,3.1-16.5,4.2c-16.7,3.2-31.5,5.8-45.2,7.9c-11,1.7-22.8,3-36,4.1C251.7,365.9,248.9,366,246.2,366z M228.2,361.7
				c7.5,2.1,15.8,2.8,26.3,2c13.1-1.1,24.9-2.4,35.8-4.1c13.8-2.1,28.5-4.7,45.2-7.9c5.4-1,11-2.6,16.3-4.2c1.6-0.5,3.3-1,4.9-1.4
				c13.8-3.9,29.7-8.6,44.4-15.6c8.5-3.9,14.7-9.3,18.9-16.4c1.1-1.5,1.8-3.3,2.1-5.1c0.6-7.8-1.4-15.7-5.6-22.3
				c-8.6-13.4-20.4-24.5-34.3-32.2c-10.2-5.8-18.9-9.4-27.5-11.4c-0.9-0.2-1.8-0.4-2.8-0.4c-0.5,0-1-0.1-1.5-0.2
				c-7.5-0.8-13.6-0.3-19,1.5c-7.5,2.4-14.6,5.9-21,10.5c-4.3,3-8.8,5.7-13.2,8.3c-2.4,1.4-4.8,2.8-7.2,4.3
				c-11.5,7-23.9,11.1-33.5,13.9c-2.2,0.7-4.5,1.3-6.7,2c-9.5,2.8-19.4,5.7-28.6,9.9c-8.1,3.7-13.9,10.6-16.8,19.9
				c-1.6,5.1-1.6,10.8-0.3,18.5c0.7,3.9,1.9,9.6,4.5,14.3c2.2,4.1,6.1,7.5,8.8,9.7c2.3,1.7,4.7,3.2,7.2,4.5c1.1,0.6,2.3,1.2,3.4,1.9
				L228.2,361.7L228.2,361.7z"/>
		</g>
	</g>
</g>
<g>
	<g>
		<defs>
			<rect id="SVGID_13_" x="-12.5" y="-29.7" width="514.9" height="688.1"/>
		</defs>
		<clipPath id="SVGID_14_">
			<use xlink:href="#SVGID_13_"  style="overflow:visible;"/>
		</clipPath>
		<g class="st6">
			<path d="M253.1,354.9c-5.3,0.1-10.5-0.6-15.6-1.9h-0.2l-5-2.5c-4.7-2.2-8.8-5.7-11.6-10.1c-4-6.7-5.4-17.7-0.4-25.8
				c4.7-7.6,11.7-13.6,20-16.9l4.9-1.9c7-2.8,14.2-5.6,21.4-8.1c12.3-4.4,24.1-10,35.2-16.8l1-0.6c8.7-5.3,17.7-10.7,27.4-14
				c8-2.8,16.5-3.4,24.8-1.8c17.3,3.4,31.8,12.7,43,27.5c4.7,6.3,6.9,14.1,6.2,21.9c-0.5,5.5-4.1,9.8-7.2,12.9
				c-6.4,6.7-14.6,10.5-21.7,13.3c-15,5.9-30.6,10.5-46.4,13.8c-25.2,5.2-46.3,9.4-68.5,10.7C258.1,354.7,255.7,354.9,253.1,354.9z
				 M237.7,351h0.1c8,2.2,16.1,2,22.3,1.6c22.1-1.3,43.1-5.5,68.3-10.7c15.7-3.3,31.1-7.8,46-13.6c6.9-2.7,14.9-6.4,21-12.9
				c2.9-2.9,6.2-6.8,6.6-11.7c0.7-7.3-1.4-14.6-5.8-20.5c-11-14.4-25-23.4-41.8-26.7c-7.9-1.5-16.1-0.9-23.8,1.8
				c-9.5,3.2-18.4,8.6-27,13.8l-1,0.6c-11.2,6.9-23.2,12.6-35.6,17c-7.1,2.5-14.3,5.4-21.3,8.1l-4.9,1.9c-7.9,3.2-14.6,8.8-19,16.1
				c-4.6,7.4-3.3,17.5,0.4,23.7c2.6,4.1,6.4,7.3,10.8,9.3L237.7,351z"/>
		</g>
	</g>
</g>
<g>
	<g>
		<defs>
			<rect id="SVGID_15_" x="-12.5" y="-29.7" width="514.9" height="688.1"/>
		</defs>
		<clipPath id="SVGID_16_">
			<use xlink:href="#SVGID_15_"  style="overflow:visible;"/>
		</clipPath>
		<g class="st7">
			<path d="M260.2,345.6c-4.5,0-9-0.4-13.4-1.4l-0.5-0.2c-2.1-1.1-4.2-2.2-6.3-3.4c-5.8-3.4-8.5-9.2-7.8-16.7
				c0.4-4.3,3.4-7.8,6.6-11c6.4-6.5,14.6-10.1,22.3-13.2l1.6-0.6c12-4.8,24.4-9.7,35.9-16.4c8.4-4.9,17-9.3,25.8-13.7
				c8.6-4.3,18.2-6,27.7-5.1c7.2,0.6,13.6,3.9,18.3,6.6c6.3,3.5,11.6,8.4,15.7,14.3c4.4,6.7,5.4,13.4,3.1,19.9
				c-1.9,5.6-6.3,9.4-10.6,12.9s-9,5.2-13.8,7.1L364,325c-11.5,4.6-23.5,8.2-35.7,10.5l-5.8,1.2c-18.5,3.7-37.5,7.5-56.7,8.8
				C263.8,345.5,262,345.6,260.2,345.6z M247.3,342.2c6,1.3,12.2,1.7,18.4,1.2c19-1.3,38.1-5,56.4-8.7l5.8-1.2
				c12.1-2.4,23.9-5.9,35.3-10.5l0.8-0.3c4.8-1.9,9.3-3.7,13.2-6.8s8.2-6.8,10-11.9c2.1-5.9,1.1-12-2.9-18.1
				c-3.9-5.7-9.1-10.3-15.1-13.7c-6.8-4-12.1-6-17.5-6.4c-9.2-0.9-18.4,0.8-26.7,4.9c-8.8,4.4-17.3,8.8-25.6,13.7
				c-11.6,6.8-24,11.7-36.1,16.5l-1.6,0.6c-7.6,3-15.5,6.5-21.7,12.8c-2.9,2.9-5.7,6.1-6,9.8c-0.6,6.7,1.7,11.7,6.8,14.7
				c2.1,1.2,4.2,2.3,6.2,3.3L247.3,342.2z"/>
		</g>
	</g>
</g>
<g>
	<g>
		<defs>
			<rect id="SVGID_17_" x="-12.5" y="-29.7" width="514.9" height="688.1"/>
		</defs>
		<clipPath id="SVGID_18_">
			<use xlink:href="#SVGID_17_"  style="overflow:visible;"/>
		</clipPath>
		<g class="st8">
			<path d="M222,396.7c-3.3,0-6.5-0.1-9.7-0.3c-4.6-0.4-9-1.9-12.9-4.3c-7-4-12.7-9.8-16.6-16.8c-3.2-5.9-5.8-12.2-7.8-18.6
				c-2.1-6.4-4.2-13-6.1-19.4c-1.5-4.9-3.1-9.9-4.7-14.9c-4.1-12.3-9.3-22-15.9-29.9c-4.5-5.1-9.5-9.8-14.9-14.1
				c-3.5-3-7.3-5.8-10.9-8.6c-6.8-5.1-13.7-10.5-19.7-16.8c-5.6-5.9-12-12.6-14.6-21.7c-1.5-5.3-1.9-10.8-1.3-16.3
				c0.3-1.8,1-3.5,1.9-5l0.4-0.7c3.8-7.5,9.3-14.1,16.1-19.2c1.3-1,2.7-2.1,4-3.2c3.9-3.3,8.1-6.4,12.5-9.1
				c9.8-5.7,21.4-11.9,34.7-13.3c11.3-1.2,20.6,2.9,29.3,12.9c5.2,6,8.1,13.2,10.9,20.2l0.8,1.9c3.3,8.4,7.2,16.6,11.7,24.4
				c3.1,5.4,7.5,9.9,12.9,12.9c5.6,3.1,11.9,4.1,16.7,4.7c8.6,1.2,17.5-0.3,26.4-4.4c11.4-5.3,20.3-11.7,27.4-19.6
				s13.9-15.3,22-21.2c3.3-2.3,7.5-3.5,11.1-4.5c6.5-1.7,12-1.5,16.8,0.4c6,2.3,11.7,5.1,17.6,7.9c10.1,4.9,20.3,10.1,30.2,15.1l6,3
				c11.3,5.7,22.2,12.2,32.5,19.5l2.8,2c6.3,4.6,12.8,8.8,19.5,12.7c5.4,2.9,11.3,4.8,17.3,5.5c7.8,1.2,15.2,0.1,23.3-1.5
				c8.8-1.7,19.2-3.4,29.8-2.7l-0.1,2c-10.3-0.6-20.6,1-29.2,2.7c-8.4,1.6-16,2.8-24,1.5c-6.3-0.9-12.3-2.8-17.9-5.8
				c-6.8-3.9-13.3-8.2-19.7-12.8l-2.8-2c-10.3-7.2-21.1-13.7-32.3-19.3l-6-3c-9.9-5-20.1-10.1-30.2-15c-5.8-2.9-11.5-5.6-17.4-7.9
				c-4.5-1.8-9.6-1.9-15.6-0.4c-3.5,0.9-7.5,2-10.5,4.1c-8,5.8-14.8,13.2-21.7,21c-7.2,8.1-16.4,14.6-28,20
				c-9.2,4.3-18.5,5.8-27.5,4.6c-5-0.6-11.5-1.7-17.4-4.9c-5.7-3.3-10.4-8-13.7-13.7c-4.6-7.9-8.6-16.1-11.9-24.6l-0.8-1.9
				c-2.8-6.8-5.6-13.9-10.6-19.7c-8.2-9.5-16.9-13.4-27.5-12.3c-13,1.4-24.3,7.5-33.9,13.1c-4.3,2.7-8.4,5.6-12.2,8.9
				c-1.3,1.1-2.7,2.2-4,3.2c-6.5,4.9-11.8,11.3-15.5,18.5l-0.4,0.8c-0.8,1.3-1.4,2.7-1.7,4.2c-0.5,5.2-0.1,10.5,1.3,15.5
				c2.5,8.6,8.7,15.1,14.2,20.9c5.9,6.2,12.8,11.5,19.4,16.6c3.6,2.8,7.4,5.6,11,8.6c5.4,4.3,10.4,9.1,15,14.3
				c6.8,8,12.1,18,16.3,30.5c1.6,5,3.2,10,4.7,14.9c2,6.4,4,12.9,6.1,19.3c2,6.3,4.5,12.4,7.6,18.3c3.8,6.7,9.3,12.2,15.9,16
				c3.6,2.3,7.7,3.7,12,4.1c7,0.5,14.1,0.4,21.2-0.1c4.9-0.3,9.8-0.9,14.6-1.4c4.1-0.4,8.4-0.9,12.6-1.2c17.4-1.3,35.2-2.3,52.3-3.4
				l1.8-0.1c15.6-0.9,31-3.6,45.9-8.1c8.2-2.5,16.9-4.9,26.7-7.3c10.6-2.6,21.4-4.9,31.8-7.2c5.2-1.1,10.4-2,15.4-2.9
				c2.4-0.4,4.9-0.9,7.3-1.3c9.9-1.8,20.4-3.9,30.6-7.8c6.5-2.5,13-5,19.3-7.6c7.3-2.9,14.9-6,22.4-8.8c15.8-5.9,32-10.5,48.5-13.9
				l0.4,2c-16.4,3.4-32.5,8-48.2,13.9c-7.5,2.8-15.1,5.8-22.4,8.7c-6.3,2.4-12.8,5-19.3,7.5c-10.4,4-21,6-31,7.8
				c-2.5,0.5-4.9,0.9-7.3,1.3c-5,0.9-10.2,1.8-15.3,2.9c-10.4,2.3-21.2,4.6-31.8,7.2c-9.7,2.4-18.4,4.8-26.5,7.3
				c-15.1,4.6-30.6,7.4-46.3,8.2l-1.8,0.1c-17.2,1-34.9,2.1-52.3,3.4c-4.2,0.3-8.4,0.8-12.5,1.2c-4.8,0.5-9.8,1-14.7,1.4
				C229.7,396.6,225.8,396.7,222,396.7z"/>
		</g>
	</g>
</g>
<g>
	<g>
		<defs>
			<rect id="SVGID_19_" x="-12.5" y="-29.7" width="514.9" height="688.1"/>
		</defs>
		<clipPath id="SVGID_20_">
			<use xlink:href="#SVGID_19_"  style="overflow:visible;"/>
		</clipPath>
		<g class="st9">
			<path d="M195.2,568.4c-4,0-8.1-0.3-12.1-1c-3.1-0.6-6.2-1.1-9.3-1.7c-4.8-0.9-9.8-1.8-14.7-2.7l-2.6-0.5
				c-4.6-0.7-9.1-1.8-13.5-3.2c-7.9-2.7-16-5.9-21.6-13.2l-4.1-6c-3.7-8.7-4.5-18.2-4.8-26.3c-0.2-6.4-0.1-12.9,0-19.1
				c0-1.6,0.1-3.1,0.1-4.7c0.1-7.2,0.2-14.5,0.4-21.7c0.1-7.4,0.2-14.8,0.4-22.2V446c0.3-14.5,0.6-29.5,0.6-44.4
				c0-12.9-1.8-24.1-5.4-34.3c-4.4-12-11.5-22.9-20.7-31.8c-2.3-2.2-4.6-4.5-6.9-6.7c-9.1-8.9-18.5-18.1-27.4-27.4
				c-10.8-11.1-20.6-23.1-29.5-35.8c-6.5-9.3-10.7-17.6-13.2-26.1c-3-10-4-20.4-2.8-30.8c0.2-1.1,0.3-2.2,0.4-3.2
				c0.1-2.4,0.6-4.9,1.3-7.2c5.5-16.3,14-28.9,25.9-38.6c7.9-6.5,16.2-12.4,24.9-17.9c17.3-10.9,31.6-26,41.7-43.8
				c3.6-6.4,7.7-13.1,14-18.6c3.2-2.8,7.2-4.6,11.4-5.1c6.3-1,12.6-0.9,18.9,0.4c8.4,1.9,17,3.6,25.4,5.3c4.7,0.9,9.6,1.7,14.2,2.6
				c2.6,0.4,5.2,0.9,7.7,1.4c1.8,0.3,3.5,0.6,5.2,1s3.4,0.7,5.2,1c2.2,0.3,4.4,0.6,6.5,0.9c2.9,0.4,5.9,0.8,8.8,1.3
				c4.9,0.9,10.1,1.6,15.2,1c9.6-1,16.5-5.6,20.3-13.4c2.9-6.1,4.7-12.7,5.5-19.5c0.4-3.7,1-7.3,1.7-11l0.1-0.6
				c0.2-1.3,0.4-2.7,0.6-4.1c0.5-3.3,1.1-6.8,1.9-10.1c1.3-5.8,4.2-11.2,8.4-15.5c5.1-5.4,11.7-6,17.5-6.2
				c6.6-0.2,13.2,1.4,20.3,4.8c10.9,5.2,21,12,29.8,20.2c6.9,6.5,13.3,13.4,18.7,19.3c8.6,9.5,19,20.5,30.4,30.2
				c5.6,4.8,13.3,10.7,22.8,13.7l2.7,0.9c5.5,1.9,11,3.5,16.7,4.6c5.4,0.8,11,1.2,16.4,1.6c3,0.2,6.1,0.4,9.1,0.7
				c5.7,0.5,11.2,1.1,17,1.8l1,0.1c9.2,1.1,18.2,3.5,27,5.8c4.3,1.1,8.7,2.3,13.1,3.3l-0.4,2c-4.4-1-8.9-2.2-13.2-3.3
				c-8.7-2.2-17.6-4.6-26.7-5.7l-1-0.1c-5.8-0.7-11.2-1.3-16.9-1.8c-3-0.3-6.1-0.5-9.1-0.7c-5.5-0.4-11.1-0.8-16.6-1.6
				c-5.8-1.1-11.5-2.7-17-4.6l-2.7-0.9c-9.8-3.1-17.7-9.2-23.4-14.1c-11.5-9.8-21.9-20.8-30.6-30.4c-5.3-5.9-11.7-12.7-18.5-19.1
				c-8.7-8-18.6-14.7-29.4-19.8c-6.8-3.3-13.1-4.8-19.3-4.6c-5.4,0.2-11.5,0.8-16.1,5.6c-3.9,4-6.6,9.1-7.9,14.5
				c-0.8,3.2-1.3,6.7-1.8,9.9c-0.2,1.4-0.4,2.7-0.7,4.1l-0.1,0.6c-0.7,3.7-1.3,7.2-1.7,10.9c-0.7,7-2.6,13.8-5.6,20.1
				c-4.2,8.5-11.5,13.4-21.9,14.6c-5.4,0.6-10.8-0.1-15.8-1c-2.9-0.5-5.9-0.9-8.7-1.3c-2.2-0.3-4.4-0.6-6.6-0.9
				c-1.8-0.3-3.5-0.7-5.2-1s-3.4-0.7-5.2-1c-2.6-0.5-5.1-0.9-7.7-1.4c-4.7-0.8-9.5-1.6-14.3-2.6c-8.4-1.7-17-3.4-25.4-5.3
				c-6-1.3-12.1-1.4-18.1-0.4c-3.9,0.5-7.5,2.1-10.4,4.7c-6.1,5.3-10,11.8-13.6,18c-10.2,18.1-24.7,33.5-42.3,44.6
				c-8.6,5.4-16.8,11.3-24.7,17.7c-12,9.2-20.2,21.6-25.6,37.5c-0.7,2.2-1.1,4.5-1.2,6.7c-0.1,1.1-0.2,2.2-0.4,3.3
				c-1.1,10.1-0.2,20.3,2.8,30c2.5,8.3,6.6,16.4,13,25.5c8.8,12.6,18.6,24.5,29.3,35.6c9,9.3,18.3,18.5,27.4,27.3l6.9,6.8
				c9.3,9.1,16.5,20.2,21,32.5c3.7,10.4,5.6,21.8,5.6,34.9c0,14.8-0.3,29.9-0.6,44.4v0.2c-0.1,7.4-0.2,14.8-0.4,22.2
				s-0.2,14.5-0.4,21.7c0,1.6,0,3.1-0.1,4.7c-0.1,6.3-0.2,12.8,0,19.1c0.3,7.9,1,17,4.6,25.5l3.9,5.7c5.2,6.8,12.7,9.8,20.6,12.5
				c4.3,1.4,8.7,2.4,13.2,3.1c0.9,0.2,1.8,0.3,2.6,0.5c4.9,1,9.8,1.9,14.6,2.7c3.1,0.5,6.2,1.1,9.3,1.7c7.6,1.4,16.3,1,22.3,0.4
				c1.6-0.1,3.1-0.3,4.6-0.7c8-2.2,13.7-8,18.6-14c2.5-3.1,4.9-6.4,7.1-9.8c1.4-2.1,2.9-4.2,4.4-6.3c2.8-3.9,5.9-7.6,9.3-11
				c6.1-5.7,14.3-6.1,20-1.1c4.6,4,9.1,8.2,13.5,12.5c8.1,8.2,16.8,16.7,27.5,22.8c4.5,2.7,9,5.1,14.2,5.7
				c9.1,1.2,18.2-1.2,25.5-6.7c7.6-5.7,14.2-13,20.5-20.1l0.7-0.8c1.9-2.2,3.8-4.3,5.7-6.5c5.1-6.1,10.5-12,16.3-17.5
				c10.2-9.6,23.1-17.8,39.4-25c8.6-3.8,17.7-6.2,26.4-8.6c2.9-0.8,5.9-1.6,8.8-2.4c12.3-3.5,26.4-8.1,38.9-16.1l1.1,1.7
				c-12.8,8.1-27.1,12.8-39.5,16.3c-2.9,0.8-5.9,1.7-8.8,2.4c-8.7,2.3-17.7,4.8-26.2,8.5c-16.1,7.1-28.8,15.2-38.8,24.6
				c-5.7,5.5-11.1,11.3-16.1,17.4c-1.9,2.2-3.8,4.4-5.7,6.5l-0.7,0.8c-6.4,7.1-13,14.5-20.8,20.3c-7.7,5.8-17.4,8.4-26.9,7.1
				c-5.6-0.6-10.3-3.2-15-5.9c-10.9-6.3-19.7-14.9-27.9-23.2c-4.3-4.3-8.8-8.5-13.4-12.4c-4.9-4.3-12-3.9-17.3,1.1
				c-3.3,3.3-6.4,6.9-9.1,10.7c-1.5,2-2.9,4.2-4.3,6.2c-2.2,3.4-4.6,6.7-7.2,9.9c-5.1,6.2-11.1,12.3-19.6,14.6
				c-1.6,0.4-3.3,0.6-5,0.7C202.9,568.2,199.2,568.4,195.2,568.4z"/>
		</g>
	</g>
</g>
<g>
	<g>
		<defs>
			<rect id="SVGID_21_" x="-12.5" y="-29.7" width="514.9" height="688.1"/>
		</defs>
		<clipPath id="SVGID_22_">
			<use xlink:href="#SVGID_21_"  style="overflow:visible;"/>
		</clipPath>
		<g class="st10">
			<path d="M206.2,579.5c-1.9,0-3.7-0.1-5.6-0.3c-4.1-0.5-8.2-1.2-12.3-2.1c-1.6-0.3-3.2-0.7-4.8-1c-4.8-0.9-9.7-1.9-14.4-2.9
				c-3.2-0.7-6.4-1.3-9.6-2l-3.6-0.7c-6.2-1.2-12.6-2.4-18.9-3.2c-6.9-0.8-13.5-3.2-19.4-6.8c-5.7-3.4-9.6-9.1-10.6-15.7l-0.8-5.7
				c0-3.5-0.1-7-0.2-10.4c-0.1-6.8-0.3-13.7-0.1-20.6c0.1-8.8,0.4-17.7,0.8-26.3c0.2-5.2,0.4-10.5,0.5-15.7
				c0.1-6.8,0.3-13.7,0.4-20.5s0.2-13.7,0.4-20.5c0.1-3.1,0.2-6.3,0.3-9.4c0.2-6.8,0.5-13.8,0.2-20.7c-0.6-13-3.2-23.9-8.2-33.3
				c-5.6-10.6-13.3-20.3-25-31.5c-6.4-6.1-12.6-12.7-18.6-19l-5.6-5.9c-10.4-10.8-20.1-22.4-28.9-34.5C12.7,257.7,6.9,245,4.4,232
				c-1.7-8.4-2-17-0.8-25.5c2.6-19.2,11.8-35.3,28.2-49.3c6.5-5.4,13.2-10.4,20.3-15l1.3-0.9c10-6.9,20.2-14.1,28.4-23.4
				c6.7-7.7,11.4-16.6,15.7-25.2c2.7-5.6,5.8-11,9.3-16.2c2.3-3.5,5.4-6.4,9-8.6c4.1-2.4,8.9-3.4,13.6-3c4.8,0.3,9.6,0.9,14.4,1.9
				c5.2,1.2,10.6,2.6,15.7,4c5.4,1.4,10.9,2.9,16.4,4.1c8.1,1.8,16.3,3.1,23.2,4.2s13.9,1.7,20.6,2.4c8.6,1.1,17.2-1.3,24-6.7
				c2.9-2.2,5.1-5.6,6.5-10.3s2.6-9.1,3.5-13.7c0.7-4,1.2-8.1,1.6-12.1c0.1-1.1,0.2-2.2,0.4-3.3c1-8.4,2-17.1,7.5-24.8
				c3.7-5.5,9.7-9.2,16.3-10.1c8.2-1.2,16.6-0.3,24.3,2.7c8.5,3,17,7.6,26.7,14.4c12.8,8.8,23.8,20.1,34.4,31.1
				c1.2,1.2,2.4,2.5,3.7,3.8c8.2,8.4,18.1,18.2,29.9,26.3c4.3,3,9.3,5,14.2,7.1l2.3,0.9c4.1,1.7,8.5,3,12.9,3.8
				c7,1.3,14.2,2.1,21,2.8c4.3,0.4,8.6,0.7,12.8,1c4.9,0.3,10,0.7,15.1,1.2c4.1,0.4,8.2,1.1,12.2,1.6s8.3,1.2,12.5,1.7l3.4,0.4
				c6.1,0.8,12.4,1.6,18.5,1.3l0.1,2c-6.3,0.3-12.7-0.5-18.8-1.3l-3.3-0.4c-4.2-0.4-8.5-1.1-12.5-1.7s-8.1-1.2-12.1-1.6
				c-5-0.5-10.1-0.9-15-1.2c-4.2-0.3-8.6-0.6-12.9-1c-6.8-0.7-14.1-1.5-21.2-2.8c-4.6-0.8-9-2.2-13.3-3.9l-2.3-1
				c-4.9-2-10-4.2-14.5-7.3c-11.9-8.2-21.9-18-30.1-26.5l-3.6-3.7c-11-11-21.9-22.2-34.6-31C319.7,12.5,311.4,8,303,5
				c-7.4-2.8-15.5-3.7-23.3-2.6c-6.1,0.9-11.5,4.2-14.9,9.3c-5.2,7.2-6.1,15.3-7.1,23.8c-0.1,1.1-0.2,2.2-0.4,3.2
				c-0.5,4-0.9,8.2-1.6,12.2c-0.9,4.7-2.2,9.2-3.5,13.9c-1.6,5.1-4,8.9-7.3,11.3c-7.2,5.7-16.3,8.2-25.4,7.1
				c-6.8-0.7-13.8-1.4-20.7-2.4s-15.2-2.4-23.4-4.2c-5.5-1.3-11.1-2.7-16.5-4.1c-5.1-1.3-10.4-2.7-15.7-4c-4.6-1-9.3-1.6-14.1-1.9
				c-4.3-0.4-8.6,0.6-12.4,2.8c-3.4,2-6.2,4.7-8.4,8c-3.4,5.1-6.4,10.5-9.1,16c-4.3,8.6-9.1,17.8-15.9,25.6
				c-8.3,9.5-18.7,16.7-28.8,23.7l-1.3,0.9c-7,4.6-13.7,9.5-20.1,14.8c-16,13.7-25,29.4-27.6,48.1c-1.1,8.3-0.9,16.7,0.8,24.9
				c2.4,12.7,8.1,25.1,17.4,38c8.8,12.1,18.4,23.5,28.7,34.3c1.9,2,3.7,3.9,5.6,5.9c6,6.3,12.1,12.9,18.5,19
				c11.9,11.4,19.7,21.2,25.4,32c5.1,9.6,7.9,20.8,8.4,34.1c0.3,6.9,0,14-0.2,20.8c-0.1,3.1-0.2,6.2-0.3,9.4
				c-0.1,6.9-0.3,13.7-0.4,20.5s-0.2,13.7-0.4,20.5c-0.1,5.3-0.3,10.5-0.5,15.8c-0.3,8.6-0.6,17.5-0.8,26.2
				c-0.1,6.8,0,13.8,0.1,20.5c0.1,3.5,0.1,6.9,0.2,10.4l0.8,5.4c0.9,6,4.5,11.2,9.7,14.3c5.6,3.6,12,5.8,18.6,6.7
				c6.4,0.8,12.8,2,19,3.2l3.6,0.7c3.2,0.6,6.4,1.3,9.6,2c4.7,1,9.6,2,14.4,2.9c1.6,0.3,3.2,0.6,4.8,1c4,0.8,8.1,1.7,12.1,2.1
				c10.5,1.1,18.5-0.8,25.3-6l2.9-2.7l2.7-2.8c4.6-4.7,9.3-9.6,13.8-14.6c3.4-3.9,7.6-7,12.2-9.1c5.2-2.3,10.9-1.5,17.2,2.5
				c4.6,2.8,9.4,6,15,10l0.9,0.7c7.7,5.5,15.7,11.1,24.5,15c9.7,4.4,20.2,4.1,31.3-0.8c6.9-3,12.2-8.3,17.4-13.5
				c0.7-0.7,1.5-1.5,2.2-2.2c4-4,8-8.2,11.9-12.3s7.9-8.4,11.9-12.4c4.6-4.3,9.5-8.3,14.6-12s10.5-7.3,16.7-11.1
				c15-9.1,31.1-16.5,47.8-21.8c13.1-4.2,30-10.3,45.4-20.8c1-0.7,2-1.3,3-2c0.7-0.5,1.4-1,2.2-1.5l1.1,1.7l-2.2,1.5
				c-1,0.7-2,1.4-3.1,2c-15.6,10.6-32.7,16.8-45.9,21c-16.6,5.3-32.5,12.5-47.4,21.6c-6.1,3.8-11.5,7.4-16.5,11.1
				c-5,3.6-9.8,7.6-14.4,11.9c-4,4-8,8.2-11.9,12.3s-7.9,8.4-11.9,12.4l-2.2,2.2c-5.3,5.3-10.8,10.8-18,13.9
				c-11.6,5.2-22.7,5.4-32.9,0.8c-8.9-4-17-9.7-24.8-15.2l-0.9-0.7c-5.6-4-10.4-7.2-14.9-10c-5.8-3.6-10.8-4.3-15.4-2.3
				c-4.4,2-8.4,5-11.6,8.6c-4.5,5-9.3,9.9-13.9,14.7l-2.8,2.9l-3,2.8C221.5,577.3,214.5,579.5,206.2,579.5z"/>
		</g>
	</g>
</g>
<g>
	<g>
		<defs>
			<rect id="SVGID_23_" x="-12.5" y="-29.7" width="514.9" height="688.1"/>
		</defs>
		<clipPath id="SVGID_24_">
			<use xlink:href="#SVGID_23_"  style="overflow:visible;"/>
		</clipPath>
		<g class="st11">
			<path d="M179.7,546.7c-7.2,0.1-14.4-1-21.3-3.2c-10.6-3.5-18.4-9.2-23.4-17c-3.1-4.9-5.1-11.1-6.1-19.1
				c-1.3-10.5-1.3-21.4-1.3-31.8c0-2.7,0-5.3,0-8c-0.1-11.4-0.2-23.2-0.5-34.8s-0.4-23.5-1.2-35.3c-1.2-17.9-4.1-30.9-9.5-42.5
				c-5.1-11-12.3-21-21.2-29.3l-7.7-7.1c-14.1-12.9-28.6-26.3-41.2-41.3l-0.6-0.7c-6.6-8-13.4-16.3-18.5-25.9
				c-6.7-12.4-9.7-26.6-8.4-40.6c0.6-8,3.3-15.7,8.6-25c6.8-12,17.1-20.3,26.3-26.9c4.5-3.3,9.2-6.5,13.8-9.6
				c6-4.1,12.2-8.3,18-12.7c8-6,14.7-13.8,21.1-21.4c4.8-5.6,10-10.9,15.4-15.9c4.9-4.6,11.3-7.1,20.1-8c8.3-0.7,16.6-0.4,24.7,0.9
				c9.7,1.4,19.8,2.8,29.8,5.3c2,0.5,4,0.9,6,1.3c2.4,0.5,4.9,0.9,7.3,1.6c4.8,1.3,9.6,2.8,14.3,4.2c5.8,1.7,11.9,3.5,17.8,5.1
				c7.8,2.1,14.8-0.1,21.2-6.6c4.1-4.2,7.1-9.3,8.6-15c0.6-2.4,1.4-4.7,2.1-7c1-3.3,2.1-6.8,2.9-10.2c0.6-2.6,1.1-5.3,1.6-8
				c0.6-3.4,1.2-6.9,2.1-10.3c1.4-5.5,4.1-10.6,7.8-14.9c4.1-4.6,9.3-5,15.2-5.1h0.3c6.1,0,11.1,3,15.9,6l1.6,1
				c9.3,5.6,16.6,13.2,23.1,20.7c3.3,3.8,6.5,7.6,9.6,11.4c3.8,4.5,7.8,9.2,11.8,13.8c8.6,9.9,18.1,19,28.5,27.1
				c5.3,4.3,11.3,7.5,17.8,9.5c1.5,0.5,3.1,0.9,4.6,1.4c3.5,1.1,7,2.2,10.6,3c3.8,0.7,7.7,1.1,11.5,1.6c1.3,0.1,2.7,0.3,4,0.4
				c2.5,0.3,5,0.6,7.5,0.9c3.9,0.4,7.9,0.9,11.8,1.4c3.6,0.4,7.2,1.2,10.7,2.2c4.5,1.4,9,3.3,13.3,5l2.4,1c2.5,1,4.9,2,7.3,3
				c3.1,1.3,6.2,2.6,9.4,3.8c4.4,1.7,8.9,3,13.5,4.1l-0.5,1.9c-4.7-1.1-9.3-2.4-13.7-4.1c-3.2-1.2-6.4-2.5-9.4-3.8
				c-2.4-1-4.8-2-7.3-3l-2.5-1c-4.3-1.8-8.8-3.6-13.2-5c-3.4-1-6.9-1.7-10.4-2.2c-3.9-0.6-7.9-1-11.8-1.4c-2.5-0.3-5-0.6-7.5-0.9
				l-4-0.4c-3.9-0.4-7.9-0.8-11.7-1.6c-3.7-0.8-7.3-1.9-10.8-3c-1.5-0.5-3.1-1-4.6-1.4c-6.7-2.1-13-5.5-18.4-9.9
				c-10.4-8.2-20.1-17.4-28.7-27.4c-4-4.6-8-9.2-11.8-13.8c-3.1-3.7-6.4-7.6-9.6-11.3c-6.4-7.4-13.6-14.9-22.6-20.3l-1.6-1
				c-4.6-2.8-9.3-5.7-14.9-5.7h-0.2c-5.6,0.1-10.2,0.5-13.8,4.5c-3.6,4-6.1,8.9-7.4,14.1c-0.9,3.3-1.5,6.8-2.1,10.1
				c-0.5,2.6-1,5.4-1.6,8.1c-0.8,3.5-1.9,7-2.9,10.4c-0.7,2.3-1.4,4.6-2.1,7c-1.6,6-4.8,11.4-9.1,15.8c-6.9,7-14.7,9.4-23.2,7.2
				c-6-1.6-12-3.4-17.9-5.1c-4.7-1.4-9.5-2.8-14.2-4.2c-2.4-0.6-4.8-1.1-7.2-1.6c-2-0.4-4.1-0.8-6.1-1.3c-9.9-2.5-19.9-3.9-29.6-5.3
				c-8-1.3-16.2-1.6-24.3-0.9c-8.3,0.8-14.3,3.2-18.9,7.4c-5.3,5-10.4,10.2-15.2,15.7c-6.5,7.6-13.3,15.5-21.4,21.6
				c-5.9,4.5-12.1,8.7-18.1,12.8c-4.5,3.1-9.2,6.3-13.7,9.5c-9,6.4-19.1,14.6-25.7,26.3c-5.2,9.1-7.8,16.5-8.4,24.2
				c-1.2,13.7,1.6,27.5,8.2,39.5c5,9.3,11.8,17.6,18.3,25.5l0.6,0.7c12.5,14.9,27,28.3,41,41.1c2.6,2.4,5.2,4.8,7.7,7.1
				c9.1,8.5,16.4,18.6,21.6,29.9c5.5,11.8,8.5,25.1,9.7,43.2c0.8,11.9,1,23.8,1.2,35.4s0.4,23.4,0.5,34.8c0,2.7,0,5.3,0,8
				c0,10.4,0,21.2,1.3,31.6c0.9,7.7,2.8,13.7,5.8,18.3c4.8,7.5,12.1,12.8,22.4,16.2c9.1,2.9,19,3.8,30.3,2.6
				c9.9-1,18.9-6.3,24.6-14.4c4-5.7,7.5-11.6,10.7-17.8l0.5-0.9c1-1.9,2.1-4,3-5.9c3.9-7.7,7.9-15.6,14.5-21.6
				c3.2-2.7,6.6-5.1,10.3-7.1l1.6-0.9c1.7-0.9,3.6-1.3,5.5-0.9c8.9,1.2,14.8,4.4,18.5,10c3.8,5.5,7.2,11.2,10.3,17.1
				c4.8,10.1,11.1,19.4,18.6,27.7c4.8,5.1,9.6,8.5,14.7,10.2c7.7,2.7,15.3,1.3,22.6-4.1c6.9-5,12.2-11.6,17-18
				c1.4-1.9,2.8-3.7,4.1-5.6c6-8.1,12.2-16.4,19.2-23.9c8.7-9.1,19.3-16.2,31.1-20.7c11.4-4.5,23.5-5.9,34.2-7.1c2-0.2,4-0.4,6-0.6
				c6-0.4,11.9-1.3,17.7-2.6c13.9-3.3,26.9-9.6,38.2-18.3c8.5-6.6,17-12.9,26.4-17.3l0.9,1.8c-9.2,4.4-17.3,10.3-26,17.1
				c-11.5,8.9-24.8,15.3-39,18.7c-5.9,1.3-11.9,2.2-18,2.6c-2,0.2-4,0.4-5.9,0.6c-10.5,1.2-22.5,2.5-33.6,6.9
				c-11.5,4.4-21.9,11.3-30.4,20.3c-7,7.4-13.1,15.7-19.1,23.7c-1.4,1.9-2.8,3.7-4.2,5.6c-4.9,6.5-10.4,13.2-17.4,18.4
				c-7.8,5.7-16.2,7.2-24.4,4.3c-5.4-1.9-10.5-5.4-15.5-10.8c-7.7-8.4-14.1-17.9-19-28.1c-3-5.8-6.4-11.5-10.1-16.9
				c-3.5-5.1-8.9-8-17.2-9.2c-1.4-0.3-2.9,0-4.1,0.7l-1.6,1c-3.6,1.9-6.9,4.2-10,6.8c-6.3,5.8-10.2,13.6-14,21.1c-1,2-2,4-3.1,6
				l-0.5,0.9c-3.2,6.2-6.9,12.2-10.9,18c-6.1,8.6-15.5,14.1-26,15.2C186.3,546.6,183,546.7,179.7,546.7z"/>
		</g>
	</g>
</g>
<g>
	<g>
		<defs>
			<rect id="SVGID_25_" x="-12.5" y="-29.7" width="514.9" height="688.1"/>
		</defs>
		<clipPath id="SVGID_26_">
			<use xlink:href="#SVGID_25_"  style="overflow:visible;"/>
		</clipPath>
		<g class="st12">
			<path d="M175.7,527.7c-1.1,0-2.1,0-3.2-0.1c-10-0.7-18.2-5.6-24.4-14.5c-3.8-5.8-6-12.6-6.3-19.6c-0.3-5.7-0.6-11.5-0.8-17.1
				s-0.5-11.4-0.8-17.1c-0.6-11.7-1.2-23.8-2.3-35.9c-1.4-17.1-3-30.9-5-43.3c-2.6-16.5-7.5-30.4-15.1-42.3
				c-4.2-6.6-9.2-12.6-15-17.8c-3.3-3-6.7-6-10-8.9c-4.6-4-9.3-8.2-13.9-12.5c-14.8-14.2-27-26.1-37.3-40.9
				c-8.4-11.9-12.8-23.6-13.6-36c-0.4-5.8-0.1-11.7,1.1-17.4c1-3.8,2.5-7.5,4.4-10.9c0.6-1.2,1.2-2.4,1.7-3.5
				c4.5-9.4,12-16,19.4-21.9c6.1-4.9,12.5-9.1,19.1-13.4c14.3-9.4,24.6-17.5,33.4-26c6.6-6.6,13.7-12.8,21.1-18.5
				c6-4.3,13-6.8,20.3-7.2c7.2-0.5,14.6-0.6,22.6-0.4c3.4,0.2,6.8,0.7,10.1,1.5l2.1,0.5c5.2,0.9,9.5,1.8,13.4,2.8
				c9.5,2.5,18.8,6.4,29.3,12.5c5.6,3.3,10.5,5.8,15.1,8c5.5,2.6,11.3,5.3,17.4,2.9c4-1.7,8.5-3.8,11.8-7
				c6.9-6.6,12.1-14.8,15.2-23.8c1.9-5.7,4-11.6,6.3-17.8l0.2-0.4c2-5.4,4.2-10.9,7.6-15.8c4.7-7,12.7-8.1,17.9-5.6
				c4.9,2.2,9.4,5.1,13.3,8.8c9.4,9.2,18,18.7,24.5,26c9.4,10.5,20.7,22.8,33.3,33.4c4.9,4.1,11.6,9.1,19.6,11.9
				c1.3,0.4,2.6,0.9,3.9,1.4c3.5,1.4,7.1,2.5,10.8,3.5c3.9,0.9,8,1.5,11.9,2.1c2.5,0.4,5,0.8,7.5,1.2c2.8,0.5,5.5,1,8.2,1.5
				c0.8,0.1,1.7,0.3,2.5,0.4c2,0.2,3.9,0.6,5.8,1.2c3.9,1.4,7.8,2.8,11.6,4.3c2.7,1,5.4,2,8.1,3l3.2,1.2c3.6,1.4,7.3,2.8,10.9,4
				l1.9,0.7c4.9,1.9,9.9,3.5,15,4.8l-0.5,1.9c-5.1-1.3-10.2-3-15.2-4.8L492,166c-3.7-1.2-7.4-2.7-11-4.1l-3.2-1.2
				c-2.7-1-5.4-2-8.1-3c-3.8-1.4-7.7-2.9-11.5-4.2c-1.8-0.5-3.6-0.9-5.5-1.1c-0.9-0.1-1.7-0.2-2.6-0.4c-2.7-0.5-5.4-1-8.2-1.5
				c-2.5-0.4-5-0.8-7.5-1.2c-4-0.6-8.1-1.2-12.1-2.2c-3.7-1-7.4-2.2-11-3.5c-1.3-0.5-2.6-0.9-3.9-1.4c-8.3-2.9-15.2-8.1-20.2-12.3
				c-12.7-10.7-24.1-23-33.5-33.6c-6.4-7.2-15-16.7-24.4-25.8c-3.7-3.5-8-6.3-12.7-8.4c-4.5-2.1-11.4-0.9-15.4,4.9
				c-3.3,4.7-5.3,10.1-7.3,15.4l-0.1,0.4c-2.3,6.2-4.4,12-6.3,17.8c-3.2,9.3-8.5,17.8-15.7,24.6c-3.5,3.4-8.2,5.7-12.4,7.4
				c-7,2.8-13.4-0.2-19-2.9c-4.7-2.2-9.6-4.7-15.3-8c-10.4-6-19.5-9.9-28.8-12.3c-3.9-1-8.1-1.9-13.3-2.8c-0.7-0.1-1.5-0.3-2.2-0.4
				c-3.2-0.8-6.5-1.3-9.8-1.4c-7.9-0.2-15.2-0.1-22.4,0.4c-7,0.4-13.7,2.7-19.3,6.7c-7.4,5.6-14.4,11.7-20.9,18.3
				c-8.9,8.6-19.3,16.7-33.7,26.2c-6.5,4.3-12.8,8.6-18.9,13.4c-7.2,5.7-14.6,12.1-18.8,21.1c-0.6,1.2-1.2,2.4-1.8,3.6
				c-1.8,3.3-3.3,6.8-4.2,10.5c-1.2,5.5-1.5,11.2-1.1,16.8c0.7,12,5.1,23.4,13.2,35c10.2,14.6,22.3,26.5,37.1,40.6
				c4.5,4.2,9.2,8.4,13.8,12.5c3.3,2.9,6.7,5.9,10,8.9c5.9,5.3,11,11.4,15.3,18.2c7.8,12.2,12.8,26.3,15.4,43.1
				c2,12.5,3.6,26.3,5,43.5c1.1,12.1,1.7,24.2,2.3,35.9c0.3,5.7,0.6,11.5,0.8,17.1s0.5,11.4,0.8,17.1c0.2,6.6,2.3,13,5.9,18.6
				c5.8,8.4,13.5,13,22.9,13.7c13.2,0.9,23.8-3.9,31.5-14.3c3.1-4.3,6-8.8,8.6-13.5c1.3-2.2,2.6-4.5,4-6.7c1-1.6,1.9-3.2,2.9-4.8
				c2.9-5.1,6.1-10,9.5-14.8c5.1-6.9,11.9-12.3,19.8-15.7c4.3-1.9,9-3.5,14.2-3c2.8,0.4,5.6,0.9,8.4,1.6c0.9,0.2,1.7,0.4,2.6,0.6
				c3.5,0.8,6.4,2.7,9,4.7c8.7,6.6,13.5,16,18.2,25c3.9,7.9,8.7,16.9,15.8,24c2.3,2.4,5.1,4.1,8.2,5.2c5.3,1.6,10.8,0.3,16.3-4
				c6.3-5,11.2-11.5,15.9-17.7c1.6-2.2,3.3-4.4,5-6.5l0.9-1.1c6.6-8.3,13.5-17,22.5-23.5c14-10.1,27.5-15.6,41.4-16.7
				c9.8-0.9,19.8-1.4,30.7-1.6c11-0.2,21.9-2.4,32.1-6.6c7.2-3.1,13.7-7.7,20-12.2c2.8-2,5.7-4.1,8.6-6l1.1,1.7
				c-2.9,1.9-5.8,4-8.6,5.9c-6.4,4.6-13,9.3-20.4,12.4c-10.4,4.3-21.6,6.6-32.9,6.8c-10.8,0.2-20.8,0.7-30.5,1.6
				c-13.5,1.1-26.8,6.4-40.4,16.3c-8.8,6.3-15.6,14.9-22.1,23.1l-0.9,1.1c-1.7,2.1-3.4,4.3-5,6.5c-4.8,6.4-9.7,12.9-16.2,18.1
				c-6,4.7-12.1,6.2-18.1,4.4c-3.4-1.1-6.5-3.1-9-5.7c-7.2-7.3-12.1-16.5-16.1-24.5c-4.6-8.9-9.3-18-17.6-24.3
				c-2.4-1.8-5.1-3.6-8.2-4.3l-2.6-0.6c-2.7-0.7-5.4-1.2-8.2-1.6c-4.7-0.5-9.1,1.1-13.2,2.8c-7.6,3.2-14.1,8.4-19,15.1
				c-3.4,4.7-6.5,9.6-9.4,14.7c-1,1.6-1.9,3.2-2.9,4.8c-1.4,2.2-2.7,4.5-4,6.7c-2.6,4.7-5.5,9.3-8.7,13.7
				C198.2,522.6,188.1,527.7,175.7,527.7z"/>
		</g>
	</g>
</g>
<g>
	<g>
		<defs>
			<rect id="SVGID_27_" x="-12.5" y="-29.7" width="514.9" height="688.1"/>
		</defs>
		<clipPath id="SVGID_28_">
			<use xlink:href="#SVGID_27_"  style="overflow:visible;"/>
		</clipPath>
		<g class="st13">
			<path d="M177.5,497.7c-4.6,0-7.9-2.2-10.5-4.5c-4.5-3.8-6-9.5-7.1-15s-2.1-11.2-3-16.7c-0.3-1.8-0.6-3.6-0.9-5.4
				c-0.4-2.7-0.8-5.3-1.2-8c-0.9-5.6-1.7-11.4-2.7-17.1c-0.5-2.8-0.9-5.7-1.4-8.5c-1.9-11.6-3.8-23.5-6-35.2l-0.9-4.5
				c-2.3-12.1-4.7-24.7-9.7-36.3c-6.6-15.5-16.9-29.2-29.8-40c-8.8-7.3-17.5-14.9-25.8-22.5c-9.7-9-20.8-20-29.6-33.5
				c-7.1-10.9-10.7-23.7-10.1-36.7c0.3-7.9,3.4-14.7,6.7-20.8c5.7-10.5,14.4-17.5,23.6-24.3c6-4.4,12.3-8.8,18.4-12.9
				c5.6-3.9,11.4-7.9,17-12c4.6-3.3,9-7,13.2-10.6c2-1.7,4-3.3,6-5c8.3-6.6,17-10.9,25.9-12.6c7.4-1.4,15.1-1.4,22.6-1.4
				c4.9,0.1,9.7,0.7,14.4,1.8c12,2.8,23.1,8.3,32.5,16.1c3.7,3.1,7.2,6.5,10.6,9.8c2.4,2.3,4.8,4.7,7.3,7l1.7,1.5
				c2.5,2.4,5.2,4.8,8.1,6.3c5,2.9,11.2,2.8,16.2-0.1c9.4-5,15.7-12.7,22.3-20.9l0.4-0.4c3.2-4,6.4-8.3,9.4-12.4
				c2.5-3.5,5.2-7,7.9-10.5c2.9-3.7,6-7.4,9.7-10c6.2-4.3,13.3-4.2,20.2,0.1c10.2,6.3,18.9,14.4,25.4,20.7l3.6,3.5
				c8.4,8.3,17.1,16.9,26.9,23.8c4.9,3.3,10.1,6.2,15.5,8.6c6.1,3,12.8,4.6,19.3,6.1c3.1,0.7,6.3,1.5,9.4,2.4
				c9.1,2.7,18.3,5.8,27.2,8.7c2.3,0.8,4.7,1.6,7,2.4s4.6,1.6,7,2.4c4.1,1.3,8.5,2.6,13.1,3.9c8.7,2.5,17.6,4,26.6,4.5l-0.1,2
				c-9.1-0.5-18.2-2-27-4.5c-4.6-1.2-9-2.6-13.1-3.9c-2.3-0.8-4.7-1.6-7-2.4s-4.6-1.6-7-2.4c-8.9-3-18-6-27.1-8.7
				c-3-0.9-6.2-1.6-9.3-2.4c-6.6-1.6-13.4-3.2-19.7-6.3c-5.5-2.5-10.7-5.4-15.7-8.8c-9.9-7-18.6-15.6-27.1-24l-3.6-3.5
				c-6.4-6.3-15-14.3-25-20.5c-6.2-3.9-12.5-4-18-0.1c-3.5,2.4-6.5,6-9.3,9.6s-5.3,7-7.8,10.4c-3,4.1-6.2,8.5-9.5,12.5l-0.4,0.4
				c-6.5,8-13.2,16.2-23,21.4c-5.6,3.2-12.4,3.3-18,0.1c-3.2-1.6-5.9-4.2-8.5-6.6l-1.7-1.5c-2.5-2.3-5-4.7-7.4-7.1
				c-3.4-3.3-6.8-6.7-10.5-9.7c-9.2-7.6-20-13-31.7-15.7c-4.6-1.1-9.3-1.7-14-1.8c-7.4,0-15,0-22.2,1.4c-8.6,1.6-17,5.8-25.1,12.2
				c-2,1.6-4,3.3-6,5c-4.3,3.6-8.7,7.3-13.4,10.7c-5.6,4.1-11.5,8.1-17.1,12c-6,4.2-12.3,8.5-18.3,12.9c-9,6.7-17.5,13.5-23,23.7
				c-3.2,5.9-6.2,12.4-6.5,20c-0.6,12.5,2.8,24.9,9.7,35.4c8.7,13.4,19.7,24.2,29.2,33.1c8.3,7.6,17,15.2,25.8,22.5
				c13.2,11,23.6,25,30.4,40.8c5,11.8,7.5,24.5,9.8,36.7c0.3,1.5,0.6,3,0.9,4.5c2.2,11.7,4.1,23.7,6,35.3c0.5,2.8,0.9,5.6,1.4,8.5
				c1,5.7,1.8,11.5,2.7,17.1c0.4,2.7,0.8,5.3,1.2,8c0.3,1.8,0.6,3.6,0.9,5.4c0.9,5.5,1.7,11.1,2.9,16.6c1.1,5.3,2.5,10.4,6.5,13.8
				s7.5,4.6,11.8,3.8c6.9-1.3,11.4-5.7,15.2-10.3c5.5-6.5,10.6-13.4,16.4-21.1c7.5-10.1,17.8-18.2,31.5-24.7
				c1.6-0.7,3.2-1.3,4.9-1.8c8-2,16.6-3.6,25.9-1.9c6.6,1.1,12.9,3.2,18.9,6.1c8.3,4.2,15,10.9,20.7,16.8c4.3,4.5,9.2,8.4,14.7,11.5
				c0.5,0.3,1.1,0.5,1.7,0.5c6.4,0.2,12.3-2,17.9-6.8c13.7-11.5,26.1-21.7,40.8-29.2c11.5-6,24.1-9.5,37.1-10.5
				c11-0.9,22.3-0.8,33.3-0.7c13.6,0.2,27-3.6,41-11.7c4.5-2.6,9-5.4,13.3-8.2c3.1-2,6.2-4,9.4-5.9l1,1.7c-3.1,1.9-6.3,3.9-9.3,5.9
				c-4.3,2.8-8.8,5.6-13.4,8.2c-14.3,8.2-28.1,12.1-42,11.9c-10.9-0.1-22.2-0.2-33.1,0.7c-12.6,1-24.9,4.4-36.2,10.3
				c-14.5,7.5-26.9,17.5-40.4,29c-5.9,5.1-12.2,7.4-19.2,7.2l0,0c-0.9,0-1.9-0.3-2.7-0.7c-5.6-3.2-10.7-7.2-15.1-11.9
				c-5.5-5.8-12.1-12.3-20.1-16.4c-5.8-2.8-12-4.8-18.3-5.9c-8.9-1.6-17.3,0-25.1,1.9c-1.6,0.4-3.1,0.9-4.5,1.6
				c-13.4,6.4-23.4,14.3-30.7,24.1c-5.7,7.7-10.9,14.6-16.4,21.1c-3.9,4.6-8.9,9.5-16.4,10.9C179.5,497.6,178.5,497.7,177.5,497.7z"
				/>
		</g>
	</g>
</g>
<g>
	<g>
		<defs>
			<rect id="SVGID_29_" x="-12.5" y="-29.7" width="514.9" height="688.1"/>
		</defs>
		<clipPath id="SVGID_30_">
			<use xlink:href="#SVGID_29_"  style="overflow:visible;"/>
		</clipPath>
		<g class="st14">
			<path d="M193.8,436.7c-6.2,0-10.8-3.6-14.2-6.9c-7.8-7.6-11.5-17.6-14.7-26.5c-4-10.6-6.9-21.7-9.6-32.5
				c-0.9-3.5-1.8-7.2-2.8-10.8c-4.5-16.7-9.9-29.7-17-40.9c-5-7.8-11.4-14.8-20.9-22.8c-2.8-2.3-5.7-4.6-8.4-6.9
				c-5.5-4.4-11.1-9-16.4-13.8c-10.7-9.8-18.7-18.5-25-27.6c-7.3-10.2-10.4-21.9-9.4-35.8c0.4-5.3,3-9.8,5.6-14.1l0.4-0.7
				c5.4-9.2,13.5-15.9,20.8-21.2c6.8-5,13.9-9.9,20.8-14.6l5.8-4c2-1.4,4.1-2.8,6.1-4.3c5.6-4,11.4-8,17.4-11.7
				c12.2-7.7,26.5-11.3,40.9-10.4c10.5,0.7,20.6,4.8,28.7,11.5c7.7,6.2,14.2,14.6,20.4,26.3c0.6,1.1,1.2,2.3,1.8,3.4
				c3.4,6.6,6.9,13.4,12.1,18.7c4.4,4.4,11.6,9,21.4,6c5.8-1.8,11-5.1,15-9.5s7.9-9,11.6-13.4s7.7-9.1,11.7-13.5
				c4.5-5.2,9.6-10,15-14.2c8.2-6.2,17.5-7.9,26.2-4.5c5.7,2.3,11.1,5.4,16,9.1c4.7,3.4,9.4,7,13.9,10.5c4.9,3.8,9.9,7.7,15,11.4
				c5.2,3.5,10.7,6.6,16.5,9.2c5.2,2.5,10.6,4.6,15.9,6.7l2.8,1.1c2.4,0.9,4.7,1.8,7.1,2.7c3.7,1.4,7.5,2.8,11.2,4.4
				c3,1.2,5.9,2.6,8.8,3.9c2.4,1.1,4.8,2.2,7.2,3.3c4,1.8,7.8,3.2,11.7,4.5c11.8,3.8,24.3,5.3,39.5,4.8c8.7-0.3,17.4-0.1,26.1,0.5
				l-0.1,2c-8.6-0.6-17.3-0.8-25.9-0.5c-15.3,0.6-28.4-1-40.3-4.9c-3.9-1.3-7.8-2.8-11.9-4.5c-2.5-1-4.9-2.2-7.3-3.3
				c-2.8-1.3-5.8-2.7-8.7-3.9c-3.7-1.5-7.5-3-11.2-4.4c-2.4-0.9-4.8-1.8-7.1-2.7l-2.8-1.1c-5.3-2.1-10.8-4.2-16-6.7
				c-5.8-2.7-11.4-5.8-16.8-9.4c-5.1-3.7-10.2-7.6-15.1-11.4c-4.5-3.5-9.1-7.1-13.8-10.5c-4.8-3.6-10-6.6-15.6-8.9
				c-8.1-3.1-16.5-1.6-24.2,4.3c-5.4,4.2-10.3,8.9-14.8,14c-4,4.4-7.9,9-11.6,13.4s-7.7,9.1-11.7,13.5c-4.3,4.7-9.8,8.2-15.9,10.1
				c-8.4,2.6-16.7,0.2-23.4-6.5c-5.5-5.6-9-12.5-12.5-19.2c-0.6-1.1-1.2-2.3-1.8-3.4c-6-11.5-12.3-19.6-19.9-25.7
				c-7.8-6.5-17.4-10.4-27.5-11.1c-14-0.9-27.9,2.7-39.7,10.1c-5.9,3.7-11.7,7.7-17.3,11.7c-2,1.4-4.1,2.9-6.1,4.3l-5.8,4
				c-6.9,4.7-14,9.5-20.8,14.5c-7.1,5.2-15,11.7-20.2,20.6l-0.4,0.7c-2.6,4.4-5,8.5-5.3,13.2c-0.9,13.4,2,24.6,9,34.4
				c6.3,8.9,14.2,17.6,24.8,27.2c5.2,4.8,10.9,9.3,16.3,13.7c2.8,2.2,5.7,4.5,8.5,6.9c9.7,8.1,16.3,15.3,21.3,23.2
				c7.3,11.4,12.8,24.6,17.3,41.5c1,3.6,1.9,7.3,2.8,10.8c2.8,10.7,5.6,21.8,9.6,32.3c3.2,8.7,6.8,18.5,14.3,25.7
				c5.2,5.1,9.7,7,15,6.1c3.7-0.5,7.3-1.3,10.8-2.5c3.8-1.3,7.5-2.6,11.2-4c8.8-3.2,17.8-6.5,27.2-8.6c18.3-4.4,37.4-4.2,55.6,0.6
				c7.6,2,15.5,3.4,23.1,4.8c8.4,1.5,17.1,0.7,25.1-2.2c6.2-2.2,12.4-4.8,18.4-7.2c5.1-2,10.4-4.2,15.7-6.2
				c19.6-7.3,41.7-11,67.6-11.4c17-0.3,33.6-4.7,48.5-12.7l3-1.6c8.8-4.7,18-9.5,28-12l0.5,1.9c-9.8,2.4-18.8,7.2-27.5,11.8
				l-3.1,1.6c-15.2,8.2-32.2,12.6-49.4,12.9c-25.7,0.3-47.6,4-67,11.2c-5.2,2-10.5,4.1-15.6,6.1c-6,2.4-12.2,4.9-18.4,7.2
				c-8.3,3.1-17.4,3.9-26.1,2.3c-7.7-1.4-15.6-2.8-23.3-4.8c-17.9-4.7-36.6-4.9-54.6-0.6c-9.2,2.2-18.2,5.4-26.9,8.6
				c-3.7,1.3-7.5,2.7-11.3,4c-3.6,1.1-7.3,2-11.1,2.6C195.5,436.6,194.6,436.7,193.8,436.7z"/>
		</g>
	</g>
</g>
<g>
	<g>
		<defs>
			<rect id="SVGID_31_" x="-12.5" y="-29.7" width="514.9" height="688.1"/>
		</defs>
		<clipPath id="SVGID_32_">
			<use xlink:href="#SVGID_31_"  style="overflow:visible;"/>
		</clipPath>
		<g class="st15">
			<path d="M215.9,403.9c-2.8,0-5.5-0.2-8.3-0.5c-8.6-1.2-16.1-5.7-23.5-14.2c-5.9-6.9-9.1-15.3-11.9-23.4c-2.1-6.2-4.1-12.6-6-18.8
				c-1.7-5.4-3.4-10.9-5.2-16.3c-3.9-12.1-10-23.4-17.9-33.3c-4.2-5.3-9.6-9.8-14.8-14.2l-0.7-0.6c-3.4-2.9-6.9-5.6-10.3-8.3
				c-4.5-3.5-9.1-7.1-13.4-10.9c-10.1-9-19.5-18.3-23.7-31.3c-1.9-5.9-2.4-12.1-1.3-18.2c0.5-2.6,1.9-5,3.3-7.3
				c0.5-0.8,0.9-1.6,1.4-2.4c4.6-8.3,11.6-14.1,18.5-19.4c6.3-4.8,13.1-9.8,20.4-14.3c10.7-6.6,20.4-10.9,29.8-13
				c7.6-1.8,14-1.9,19.7-0.2c5.9,1.8,11.2,5,15.6,9.3c7.4,6.9,11.4,16.1,15.3,25l0.2,0.4c3,6.9,6.5,13.9,9.8,20.6l0.9,1.9
				c2.8,5.3,6.8,9.8,11.7,13.2c1.9,1.4,4.1,2.4,6.4,3c4.8,1.4,9.8,2.4,14.8,2.9c6.4,0.4,13.2-1.4,20.8-5.5
				c8.5-4.7,16.1-10.9,22.4-18.3c1.1-1.3,2.2-2.6,3.3-3.8c5.7-6.6,11.6-13.5,18.7-19c6.4-4.9,13.7-7,22.4-6.5
				c6.5,0.4,12,3.5,17.3,6.4l2.7,1.5c3.5,1.9,7,3.9,10.4,5.8c5.5,3.1,11.1,6.3,16.8,9.3c7.6,4,15.5,7.8,24.2,11.8
				c8.6,3.9,16.7,8.9,24.5,13.8l2.2,1.4c2,1.2,4,2.5,6,3.8c4.1,2.7,8.3,5.3,12.7,7.6c5.2,2.5,10.7,4.4,16.4,5.5
				c8.4,1.7,16.8,0.3,24.8-1c2.3-0.4,4.6-0.7,7-1c7-0.9,16.3-1.9,25.5-1.1l-0.2,2c-9.1-0.8-18.2,0.2-25.1,1.1
				c-2.3,0.3-4.6,0.7-6.9,1c-8.2,1.3-16.8,2.7-25.5,0.9c-5.9-1.1-11.6-3-17-5.6c-4.4-2.3-8.7-4.9-12.8-7.7c-1.9-1.2-3.9-2.5-5.9-3.8
				l-2.2-1.4c-7.8-4.8-15.8-9.8-24.2-13.6c-8.8-4-16.7-7.8-24.4-11.8c-5.7-3-11.4-6.2-16.9-9.3c-3.4-1.9-6.9-3.9-10.4-5.8
				c-0.9-0.5-1.8-1-2.7-1.5c-5.1-2.8-10.4-5.7-16.5-6.1c-8.1-0.5-15,1.5-21,6.1c-7,5.4-12.8,12.2-18.4,18.7
				c-1.1,1.3-2.2,2.6-3.3,3.9c-6.5,7.6-14.3,13.9-23,18.7c-7.9,4.3-15,6.2-21.9,5.7c-5.1-0.5-10.2-1.5-15.2-2.9
				c-2.5-0.7-4.9-1.8-7-3.4c-5.2-3.6-9.4-8.4-12.3-14l-0.9-1.9c-3.4-6.7-6.9-13.7-9.9-20.7l-0.1-0.3c-4-9.1-7.8-17.7-14.8-24.3
				c-4.2-4.1-9.2-7.1-14.8-8.9c-5.3-1.6-11.5-1.5-18.7,0.2c-9.2,2.1-18.7,6.3-29.2,12.8c-7.2,4.4-14,9.4-20.2,14.1
				c-6.7,5.1-13.6,10.8-17.9,18.8c-0.4,0.8-0.9,1.6-1.4,2.4c-1.4,2-2.4,4.3-3.1,6.7c-1,5.8-0.6,11.7,1.3,17.2
				c4,12.6,13.2,21.6,23.1,30.5c4.3,3.8,8.9,7.4,13.3,10.8c3.4,2.7,7,5.5,10.4,8.3l0.7,0.6c5.2,4.5,10.6,9.1,15,14.5
				c8.1,10.1,14.3,21.6,18.3,33.9c1.8,5.4,3.5,11,5.2,16.4c1.9,6.2,3.9,12.5,6,18.7c2.8,8.2,5.8,16.2,11.5,22.8
				c7.1,8.1,14.2,12.5,22.3,13.6c8.3,1.1,16.9,0.1,25.2-0.8l1.9-0.2c3.4-0.4,6.8-0.9,10.2-1.3c10-1.3,20.4-2.6,30.6-2.9
				c7.4-0.2,14.8-0.4,22.2-0.6s14.6-0.5,21.9-0.6c11-0.2,22-1.8,32.6-4.8c4.1-1.2,8.3-2.4,12.4-3.6c7.6-2.3,15.4-4.6,23.2-6.6
				c17.8-4.4,35.8-7.8,53.9-10.2l1.2-0.2c10-1.3,20.2-2.7,29.9-6.2c9.2-3.4,18.6-7,27.6-10.5c2.7-1.1,5.5-2.1,8.2-3.2l0.7,1.9
				l-8.1,3.3c-9,3.5-18.4,7.1-27.6,10.5c-9.8,3.6-20.2,5-30.3,6.3l-1.2,0.2c-18.1,2.4-36,5.8-53.7,10.2c-7.7,2-15.5,4.3-23.1,6.5
				c-4,1.2-8.2,2.5-12.4,3.6c-10.8,3-21.9,4.6-33.1,4.8c-7.3,0.2-14.6,0.4-21.9,0.6c-7.4,0.2-14.8,0.5-22.2,0.6
				c-10.2,0.3-20.5,1.6-30.5,2.9c-3.4,0.4-6.8,0.9-10.2,1.3l-1.9,0.2C227.5,403.4,221.7,403.8,215.9,403.9z"/>
		</g>
	</g>
</g>
</svg>
