<?xml version="1.0" encoding="utf-8"?>
<!-- Generator: Adobe Illustrator 23.0.4, SVG Export Plug-In . SVG Version: 6.00 Build 0)  -->
<svg version="1.1" id="Layer_1" xmlns="http://www.w3.org/2000/svg" xmlns:xlink="http://www.w3.org/1999/xlink" x="0px" y="0px"
	 viewBox="0 0 425 390" style="enable-background:new 0 0 425 390;" xml:space="preserve">
<style type="text/css">
	.st0{clip-path:url(#SVGID_2_);}
	.st1{clip-path:url(#SVGID_4_);}
	.st2{clip-path:url(#SVGID_6_);}
	.st3{clip-path:url(#SVGID_8_);}
	.st4{clip-path:url(#SVGID_10_);}
	.st5{clip-path:url(#SVGID_12_);}
	.st6{clip-path:url(#SVGID_14_);}
	.st7{clip-path:url(#SVGID_16_);}
	.st8{clip-path:url(#SVGID_18_);}
	.st9{clip-path:url(#SVGID_20_);}
	.st10{clip-path:url(#SVGID_22_);}
	.st11{clip-path:url(#SVGID_24_);}
</style>
<g>
	<g>
		<g>
			<g>
				<defs>
					<rect id="SVGID_1_" x="-27.7" y="-51.9" width="452.7" height="501.8"/>
				</defs>
				<clipPath id="SVGID_2_">
					<use xlink:href="#SVGID_1_"  style="overflow:visible;"/>
				</clipPath>
				<g class="st0">
					<path d="M431.9,369.3c-4.4-4.8-8.4-10.1-11.8-14.7c-1.9-2.5-3.6-5.2-5.3-7.7s-3.4-5.1-5.2-7.6c-7.7-10.3-18.5-16.7-33.1-19.6
						c-6.6-1.3-13.4-0.8-19.8-0.3c-9.9,0.9-19.1,3-29,5.2l-0.5,0.1c-6.1,1.4-13.3,3.2-20.3,5.5c-13.2,4.3-23.4,10.7-31.2,19.4
						c-3.5,3.9-7.5,8-12.2,11.1c-1.9,1.3-4.5,2.7-7.1,3.1c-4.1,0.6-8.6,0-13.7-1.6c-5.2-1.8-10.6-3.6-15.9-5.5
						c-6.1-2.2-12.9-4-20.2-5.2c-3.3-0.6-6.8-0.8-10.2-1c-1-0.1-2-0.1-3-0.2c-0.8-0.1-1.6,0-2.4,0c-0.6,0-1.2,0.1-1.9,0.1
						c-1.7,0-3.5,0.1-5.2,0.1c-3.1,0.1-6.2,0.2-9.3,0c-8.8-0.4-16.4-2.1-23.4-5c-7.6-3.3-15.8-4.6-24.4-4c-4.7,0.3-9.4,0.8-14,1.3
						c-3.5,0.3-7,0.7-10.5,1c-4.9,0.5-9,0.7-12.8,0.8c-2.7,0.1-5.7,0-9.1-0.2l-1.6-0.1c-3.8-0.2-7.8-0.3-11.6-1
						c-5.3-1-10.7-2.4-15.9-3.8c-4.8-1.4-10.3-3.3-15.2-7c-4.1-3.1-5.9-6.3-5.8-10.3c0.1-4.8,1.7-9.4,4.6-13.6
						c8.9-12.8,19.5-27.5,32.7-39.7c5-4.7,10.2-8.2,15.8-10.7c4.3-1.9,8.7-3.6,13-5.3c3.6-1.4,7.3-2.8,10.9-4.4
						c7-3,15.1-6.8,22.1-12.4c3.6-2.9,7-5.9,10.4-8.9c1.7-1.5,3.4-3,5.1-4.5c7.1-6.3,15.8-11.4,26.6-15.7
						c8.2-3.2,14.7-6.4,20.3-10.1c5.7-3.7,11.7-8,18.9-13.6c6.6-5.1,14.5-8.5,23.5-10.2c6.6-1.3,13.2-2.1,19.7-2.9
						c1.9-0.2,3.7-0.5,5.6-0.7c12.9-1.8,22.5-4.6,30.9-9.2c6.6-3.6,12.9-7.9,18.9-12c1.1-0.7,2.1-1.5,3.2-2.2c3.9-2.6,9.1-6,15-8.3
						c7.9-3.1,16.4-4.5,24.6-5.9c1.1-0.2,2.3-0.4,3.4-0.6c6.8-1.1,14-2.6,20.8-6.2c4.2-2.3,7.5-5.7,10.1-10.5
						c3.2-6.1,4.8-12.9,4.8-21.5V89c0-1.2-0.1-2.5-0.2-3.7c-0.1-2.6-0.3-5.2-0.1-7.8c0.3-5.4,0.9-10.5,1.4-16l0.1-0.5
						c0.1-1.9,0.6-3.8,1.3-5.5c2.2-5.5,6-10.1,11.1-13.8c4-2.8,8.5-4.9,12.8-6.9c1.3-0.6,2.6-1.2,3.9-1.8l1.2-0.6
						c4.8-2.3,9.7-4.7,13.7-8.1c5-4.3,9.4-7.8,13.5-10.8c4.8-3.5,9.8-5.2,15.2-5.4c8.2-0.2,15.4,2.5,21.1,7.9c3,2.7,5.8,5.7,8.6,8.5
						c1.5,1.6,3.1,3.2,4.6,4.8c4.2,4.2,9.3,8.9,15.3,12.2c7.9,4.2,15.3,7,22.6,8.5c7.4,1.6,14,2.1,20.2,1.5
						c16.7-1.8,30.1-8.7,41.2-21.2c6.4-7.3,12-15.3,17.4-23.1c1.4-2,2.8-4,4.2-6l1.9,1.3c-1.4,2-2.8,4-4.2,6
						c-5.4,7.8-11.1,15.9-17.6,23.3c-11.3,12.8-25.6,20.2-42.6,22c-6.5,0.7-13.3,0.2-21-1.5c-7.5-1.6-15.1-4.4-23.2-8.7
						c-6.3-3.4-11.6-8.3-15.9-12.6c-1.6-1.6-3.2-3.2-4.7-4.8c-2.7-2.8-5.6-5.8-8.5-8.5c-5.3-5-11.9-7.5-19.5-7.3
						c-5,0.2-9.6,1.8-14,5c-4,3-8.4,6.5-13.3,10.7c-4.3,3.6-9.3,6.1-14.2,8.4l-1.3,0.6c-1.3,0.6-2.6,1.2-4,1.9
						c-4.2,1.9-8.6,4-12.4,6.7c-4.8,3.4-8.2,7.7-10.3,12.8c-0.6,1.5-1,3.1-1.1,4.8l-0.1,0.6c-0.6,5.4-1.2,10.5-1.4,15.8
						c-0.1,2.5,0,5.1,0.1,7.6c0.1,1.3,0.1,2.6,0.2,3.8v4.1c0,9-1.6,16.1-5,22.5c-2.8,5.2-6.5,9-11.1,11.5
						c-7.1,3.7-14.5,5.3-21.5,6.4c-1.1,0.2-2.3,0.4-3.4,0.6c-8.1,1.3-16.4,2.7-24.2,5.8c-5.7,2.3-10.8,5.5-14.6,8.1
						c-1.1,0.7-2.1,1.5-3.2,2.2c-6.1,4.2-12.4,8.5-19.1,12.2c-8.7,4.7-18.5,7.6-31.7,9.4c-1.9,0.2-3.7,0.5-5.6,0.7
						c-6.4,0.8-13,1.6-19.5,2.9c-8.6,1.6-16.2,4.9-22.5,9.8c-7.3,5.5-13.4,9.9-19.1,13.6c-5.8,3.8-12.3,7.1-20.7,10.3
						c-10.5,4.2-19,9.2-26,15.3c-1.7,1.5-3.4,3-5.1,4.5c-3.4,3-6.8,6.1-10.5,9c-7.3,5.8-15.5,9.7-22.7,12.8c-3.6,1.6-7.4,3-11,4.4
						c-4.3,1.7-8.7,3.4-12.9,5.3c-5.4,2.4-10.4,5.8-15.2,10.3c-13,12-23.5,26.6-32.3,39.3c-2.7,3.9-4.1,8.1-4.2,12.4
						c-0.1,3.2,1.4,5.8,4.9,8.5c4.5,3.5,9.8,5.3,14.3,6.6c5.2,1.4,10.5,2.8,15.8,3.8c3.7,0.7,7.6,0.9,11.3,1l1.6,0.1
						c3.4,0.2,6.3,0.3,8.9,0.2c3.7-0.1,7.8-0.3,12.6-0.8c3.5-0.3,7.1-0.7,10.5-1c4.6-0.5,9.4-0.9,14.1-1.3c9-0.6,17.5,0.8,25.4,4.2
						c6.7,2.8,14.1,4.4,22.6,4.8c3,0.2,6.1,0.1,9.1,0c1.7-0.1,3.5-0.1,5.3-0.1c0.6,0,1.2,0,1.8-0.1c0.9,0,1.8-0.1,2.7,0
						c1,0.1,2,0.1,3,0.2c3.4,0.2,7,0.4,10.5,1c7.5,1.3,14.4,3.1,20.6,5.4c5.3,1.9,10.7,3.7,15.9,5.5c4.8,1.6,8.9,2.1,12.7,1.5
						c2.1-0.3,4.4-1.6,6.1-2.7c4.5-3,8.3-6.9,11.8-10.7c8.1-9,18.6-15.6,32.2-20c7.1-2.3,14.3-4.1,20.5-5.5l0.5-0.1
						c9.5-2.1,19.3-4.3,29.3-5.2c6.6-0.6,13.6-1,20.4,0.3c15.1,3,26.4,9.7,34.5,20.4c1.9,2.5,3.6,5.2,5.3,7.7s3.4,5.1,5.2,7.6
						c3.4,4.5,7.3,9.8,11.6,14.5L431.9,369.3z"/>
				</g>
			</g>
		</g>
	</g>
	<g>
		<g>
			<g>
				<defs>
					<rect id="SVGID_3_" x="-27.7" y="-51.9" width="452.7" height="501.8"/>
				</defs>
				<clipPath id="SVGID_4_">
					<use xlink:href="#SVGID_3_"  style="overflow:visible;"/>
				</clipPath>
				<g class="st1">
					<path d="M432.9,353.1c-1.4-2-2.7-4.1-4-6.1c-1.6-2.5-3.2-5.1-5-7.4c-5.8-7.8-12.9-13.9-21.1-18.2c-8-4.1-16.5-6.8-25.1-8.1
						c-1.7-0.2-3.4-0.3-5.2-0.3c-0.6,0-1.2,0-1.8-0.1c-0.8,0-1.6-0.1-2.4-0.1c-2.9-0.1-5.9-0.2-8.7,0.1c-7.7,0.9-15.5,2-23,3.3
						c-7.7,1.4-16.1,3.2-25.7,5.3c-5.1,1.1-9.8,2.4-14.2,3.9c-8.7,3-16.9,7.4-24.4,13.1c-0.8,0.6-1.5,1.2-2.3,1.8
						c-3.1,2.4-6.3,4.9-9.6,7c-4.5,2.9-9.4,4.1-14.5,3.6c-8.4-0.8-16.4-2.7-22.4-4.2c-4.5-1.1-8.9-2.3-13.3-3.4l-0.6-0.2
						c-2.7-0.7-5.3-1.4-8-2.2c-2.6-0.7-5.3-1.4-7.9-2.1c-7.3-2-13.1-4.3-18.2-7.4c-3.7-2.3-7.7-4.5-11.9-6.4
						c-2.4-1.1-4.9-2.1-7.2-2.1c-4.6-0.1-8.9,0.3-12.9,1.1c-7.2,1.4-14.5,3.1-21.6,4.6c-5.7,1.3-11.6,2.6-17.4,3.8
						c-8.8,1.9-17.6,1.8-24.2,1.4c-5.5-0.3-11.2-1.4-16.9-3.2c-6.4-2-10.9-5.2-14-9.8c-1.4-2.1-2-3.9-1.9-5.4
						c0.2-4.4,0.6-9.1,2.9-13.5c3.2-6.1,7.2-12.3,12.4-19.1c6.9-9,15.2-15.8,24.6-20.2c5.6-2.6,11.4-5,17.1-7.3
						c2-0.8,3.9-1.6,5.9-2.4c10.6-4.4,19.5-9.3,27.1-15c2.3-1.7,4.6-3.6,6.9-5.3c2.9-2.3,5.8-4.6,8.8-6.8c4.9-3.6,10.2-6.7,15.9-9.2
						c8.6-3.8,16.1-7.4,22.8-10.9c6.1-3.1,11.8-7.4,17.2-11.4c2.1-1.6,4.3-3.2,6.5-4.8c6.9-4.9,14.7-8.1,23.3-9.6
						c5.7-1,11.5-1.5,17.1-2c2.6-0.2,5.1-0.5,7.6-0.8c8.8-0.9,16.4-2.4,23.4-4.7c7.3-2.4,14.7-6,22.9-11
						c14.3-8.8,29.7-14.6,47.2-17.8c8.1-1.5,16-3.1,23.4-5.8c7.7-2.9,13-7,16.1-12.4c3-5.2,5-11.4,6-17.9c0.9-5.9,1.7-11.9,2.4-17.7
						c0.6-4.6,1.2-9.3,1.8-14c0.5-3.7,2.3-7.2,5.2-10.2c5.1-5.3,11.9-7.5,20.3-6.5c6.3,0.7,12,0.7,17.3-0.1c2.7-0.4,5.8-1.1,8.3-3.1
						c2.9-2.2,5.7-4.5,8.4-6.8c1.4-1.1,2.8-2.3,4.2-3.4c0.6-0.5,1.5-1,2.5-1.4c4.9-2.1,10-0.8,14.5,0.3l0.8,0.2c4,1,8,2.4,11.9,3.8
						c2.2,0.8,4.5,1.6,6.8,2.4c5.5,1.8,11.1,3.3,16.4,4.8c3.6,1,8.3,2.2,13.2,3.1c2.1,0.4,4.3,0.6,6.4,0.8c1.4,0.1,2.9,0.3,4.4,0.5
						c4,0.5,8.4,0.5,13.8-0.1c13.4-1.3,25.3-6.1,35.3-14.2c6.4-5.1,11.3-11.7,15.8-18c2.1-3.1,4.2-6.2,6.3-9.3
						c3.4-4.9,6.8-10.1,10.4-15l1.9,1.3c-3.5,4.9-7,10-10.3,15c-2.1,3.1-4.2,6.2-6.4,9.3c-4.6,6.5-9.6,13.2-16.2,18.4
						c-10.4,8.4-22.7,13.3-36.5,14.6c-5.6,0.6-10.2,0.6-14.4,0.1c-1.4-0.2-2.9-0.3-4.3-0.5c-2.2-0.2-4.4-0.4-6.6-0.8
						c-5-0.9-9.8-2.1-13.4-3.1c-5.4-1.5-11-3-16.6-4.8c-2.3-0.7-4.6-1.6-6.8-2.4c-3.8-1.4-7.8-2.8-11.7-3.8l-0.8-0.2
						c-4.3-1.1-8.8-2.3-13-0.4c-0.8,0.3-1.5,0.7-1.9,1c-1.4,1.1-2.8,2.3-4.2,3.4c-2.7,2.3-5.6,4.6-8.5,6.8c-2.8,2.3-6.3,3.1-9.3,3.5
						c-5.5,0.8-11.4,0.9-17.9,0.1c-7.6-0.8-13.8,1.1-18.3,5.9c-2.6,2.7-4.1,5.8-4.6,9c-0.7,4.6-1.2,9.4-1.8,13.9
						c-0.7,5.8-1.5,11.9-2.4,17.8c-0.9,6.7-3.1,13.2-6.2,18.7c-3.4,5.9-9.1,10.3-17.3,13.4c-7.6,2.8-15.6,4.4-23.8,6
						c-17.2,3.1-32.4,8.8-46.4,17.4c-8.3,5.1-15.9,8.8-23.3,11.2c-7.1,2.3-14.9,3.9-23.8,4.8c-2.5,0.3-5.1,0.5-7.7,0.8
						c-5.6,0.5-11.3,1.1-17,2c-8.2,1.4-15.7,4.5-22.3,9.2c-2.2,1.5-4.4,3.2-6.5,4.7c-5.5,4.1-11.3,8.4-17.6,11.6
						c-6.8,3.5-14.3,7.1-23,10.9c-5.6,2.5-10.7,5.4-15.5,9c-3,2.2-5.9,4.5-8.8,6.7c-2.3,1.8-4.6,3.6-6.9,5.4
						c-7.7,5.8-16.8,10.8-27.6,15.2c-2,0.8-3.9,1.6-5.9,2.4c-5.6,2.3-11.4,4.7-17,7.3c-9.1,4.3-17.1,10.9-23.8,19.6
						c-5.1,6.6-9.1,12.8-12.2,18.7c-2.1,3.9-2.5,8.3-2.7,12.5c-0.1,1,0.5,2.4,1.5,4c2.8,4.1,6.9,7,12.8,8.8c5.5,1.7,11,2.8,16.3,3
						c6.5,0.3,15.1,0.5,23.6-1.4c5.8-1.2,11.7-2.5,17.3-3.8c7.1-1.6,14.4-3.2,21.7-4.6c4.1-0.9,8.6-1.2,13.4-1.1
						c2.7,0,5.5,1.1,8.2,2.3c4.3,2,8.4,4.2,12.1,6.6c4.9,3,10.5,5.2,17.6,7.2c2.6,0.7,5.3,1.4,8,2.2c2.6,0.7,5.3,1.4,7.9,2.1
						l0.6,0.2c4.4,1.1,8.8,2.3,13.3,3.4c5.9,1.5,13.8,3.4,22,4.2c4.6,0.5,9-0.6,13.1-3.2c3.2-2.1,6.4-4.5,9.4-6.9
						c0.8-0.6,1.5-1.2,2.3-1.8c7.7-5.8,16.1-10.4,25-13.5c4.4-1.5,9.3-2.9,14.4-3.9c9.6-2.1,18.1-3.9,25.8-5.3
						c7.6-1.3,15.4-2.4,23.2-3.3c3-0.3,6.1-0.2,9-0.1c0.8,0,1.6,0.1,2.4,0.1c0.6,0,1.2,0,1.8,0.1c1.8,0.1,3.6,0.1,5.4,0.3
						c8.9,1.3,17.6,4.1,25.9,8.3c8.6,4.4,15.9,10.8,21.9,18.8c1.8,2.4,3.5,5,5.1,7.5c1.3,2,2.6,4,3.9,6L432.9,353.1z"/>
				</g>
			</g>
		</g>
	</g>
	<g>
		<g>
			<g>
				<defs>
					<rect id="SVGID_5_" x="-27.7" y="-51.9" width="452.7" height="501.8"/>
				</defs>
				<clipPath id="SVGID_6_">
					<use xlink:href="#SVGID_5_"  style="overflow:visible;"/>
				</clipPath>
				<g class="st2">
					<path d="M457.2,366.9c-4.2-6.1-6.9-12.8-9.5-19.4l-0.2-0.4c-3.1-7.9-8.6-14.2-16.8-19.5c-6.7-4.4-14.4-8.3-24.2-12.3
						c-6.8-2.8-14.1-4.9-21.5-6.2c-5.5-1-11.4-1.5-17.7-1.4c-6.1,0-12.3,0.4-18.5,1.2c-1.5,0.2-3.1,0.4-4.6,0.6
						c-4.2,0.6-8.6,1.1-12.8,1.9c-2.7,0.5-5.4,0.9-8,1.4c-8,1.4-16.2,2.8-24.3,4.4c-4.8,1-11.1,2.5-16.9,5.5
						c-7.6,3.9-15.3,8.1-22.8,12.1c-7.9,4.3-15.5,5.9-23.1,4.8c-6.3-0.8-12.5-2.1-18.2-3.7c-7.5-2.2-13.4-4.7-18.7-7.9
						c-5.1-3.1-9.2-7.3-13.1-11.4c-0.9-0.9-1.8-1.8-2.7-2.7c-3.8-3.9-8.1-7.7-13.9-9.5l-0.5-0.2c-1.6-0.5-3.2-1.1-4.6-1
						c-6,0.2-11.8,1.3-17.3,3.3c-3.8,1.4-7.6,2.9-11.3,4.4c-7.4,3-15.1,6.1-23,8.2c-9.5,2.6-18.4,3.5-27.2,2.8
						c-1.3-0.1-2.5-0.4-3.7-0.6c-0.9-0.2-1.7-0.4-2.6-0.5c-5.6-0.7-10-3.5-13.4-8.7c-1.3-2-1.9-4.4-1.7-6.8c0.5-5.2,2.1-10.2,5-15.3
						c5.8-9.7,14.2-17.2,25.2-22.6c7.4-3.5,15.1-6.6,22.4-9.4c12-4.5,24-11.4,36.5-20.9c7.8-5.9,16.9-11.2,26.8-15.6
						c13.1-5.8,24.1-12.1,33.5-19.2c3.7-2.9,7.7-5.5,11.9-7.8c9.9-5.4,20.7-6.9,33.8-7.4l2.9-0.1c4.6-0.2,9.5-0.5,14.2-1
						c9.3-1.2,19-3.5,28.8-6.8c13.1-4.4,27-9.7,42.5-16.4c9.9-4.2,19.3-7.3,28.8-9.8c6-1.5,12-3.2,17.9-5.1
						c6.2-1.9,10.7-5.5,13.4-10.7c2.7-5.1,4.3-10.8,5.8-16.3l0.4-1.4c0.5-1.6,0.9-3.2,1.3-4.9c0.9-3.5,1.9-7.2,3.3-10.6
						c4.4-10.9,12.4-15.6,24.3-14.3c1.8,0.2,3.7,0.4,5.5,0.7c6,0.8,12.2,1.6,18.4,1.2c5.7-0.4,12.2-1.6,16.7-7.2
						c2.8-3.5,5.9-6.8,8.8-9.8c3.6-3.7,8.3-6,14.2-7c4.5-0.8,9-0.5,13.3-0.2c1,0.1,2,0.1,3,0.2c5,0.2,10.1,1,14.6,1.6
						c8,1.1,14.7,1.5,21.3,1.1c10.1-0.6,18.8-2.4,26.5-5.6c6-2.6,13.7-6.2,19.7-12.1c7.6-7.4,13.4-16.2,18.5-24.7
						c3.2-5.2,6.7-10.5,10.7-16.3l1.9,1.3c-4,5.8-7.5,11-10.7,16.1c-5.2,8.6-11.1,17.5-18.9,25.1c-6.3,6.1-14.2,9.9-20.5,12.5
						c-8,3.3-16.9,5.2-27.3,5.8c-6.7,0.4-13.6,0-21.7-1.1c-4.5-0.7-9.5-1.4-14.4-1.6c-1-0.1-2-0.1-3-0.2c-4.2-0.3-8.5-0.6-12.7,0.2
						c-5.5,1-9.7,3-13,6.4c-2.9,3-5.9,6.2-8.6,9.6c-5,6.2-12.1,7.6-18.3,8c-6.4,0.4-12.7-0.4-18.8-1.2c-1.8-0.2-3.7-0.5-5.5-0.7
						c-10.9-1.2-17.8,2.9-21.9,12.9c-1.3,3.3-2.3,6.9-3.2,10.4c-0.4,1.6-0.9,3.3-1.4,4.9l-0.4,1.4c-1.6,5.6-3.2,11.5-6,16.8
						c-3,5.8-8,9.8-14.8,11.9c-6,1.9-12.1,3.6-18.1,5.1c-9.3,2.4-18.6,5.5-28.4,9.6c-15.6,6.7-29.5,12-42.7,16.4
						c-9.9,3.4-19.7,5.7-29.2,6.9c-4.8,0.6-9.6,0.8-14.3,1.1l-2.9,0.1c-12.8,0.6-23.3,2-32.8,7.2c-4.1,2.2-8,4.8-11.6,7.6
						c-9.6,7.2-20.7,13.5-33.9,19.4c-9.8,4.4-18.7,9.6-26.4,15.4c-12.7,9.7-24.9,16.6-37.1,21.3c-7.2,2.8-14.9,5.8-22.2,9.4
						c-10.6,5.1-18.7,12.4-24.2,21.7c-2.7,4.8-4.3,9.4-4.7,14.3c-0.2,1.9,0.3,3.8,1.3,5.4c3,4.6,6.9,7.1,11.8,7.7
						c1,0.1,1.9,0.3,2.8,0.5c1.2,0.2,2.3,0.5,3.4,0.6c8.5,0.7,17.2-0.2,26.4-2.8c7.8-2.1,15.4-5.2,22.8-8.1c3.7-1.5,7.5-3,11.4-4.4
						c5.7-2.1,11.7-3.3,18-3.5c1.9-0.1,3.7,0.5,5.5,1.1l0.4,0.1c6.3,1.9,10.8,6,14.9,10.1c0.9,0.9,1.8,1.8,2.7,2.7
						c3.9,4,7.8,8,12.7,11c5.1,3.1,10.9,5.5,18.1,7.7c5.6,1.6,11.6,2.8,17.8,3.7c7.2,1,14.2-0.5,21.7-4.6c7.5-4,15.2-8.2,22.8-12.1
						c6-3.1,12.5-4.7,17.5-5.7c8.1-1.6,16.4-3,24.4-4.4c2.7-0.5,5.4-0.9,8-1.4c4.3-0.7,8.7-1.3,12.9-1.9c1.5-0.2,3.1-0.4,4.6-0.6
						c6.2-0.8,12.5-1.2,18.8-1.2c6.4-0.1,12.5,0.4,18.1,1.4c7.6,1.3,14.9,3.5,21.9,6.4c10,4.1,17.8,8.1,24.6,12.5
						c8.6,5.5,14.4,12.2,17.6,20.5l0.2,0.4c2.6,6.4,5.3,13.1,9.3,18.9L457.2,366.9z"/>
				</g>
			</g>
		</g>
	</g>
	<g>
		<g>
			<g>
				<defs>
					<rect id="SVGID_7_" x="-27.7" y="-51.9" width="452.7" height="501.8"/>
				</defs>
				<clipPath id="SVGID_8_">
					<use xlink:href="#SVGID_7_"  style="overflow:visible;"/>
				</clipPath>
				<g class="st3">
					<path d="M477.7,361.5c-1.6-5.9-0.2-11.6,1.1-17.1c0.1-0.6,0.3-1.2,0.4-1.7c0.2-1.1,0.5-2.1,0.8-3.2c0.7-2.6,1.4-5,1-7.6
						c-0.4-2.8-1.1-5.6-3.2-7.8c-2.6-2.5-5.8-4.4-10.4-6.1c-4.4-1.7-9.2-2.5-13.8-3.3c-1.2-0.2-2.3-0.4-3.4-0.6
						c-2.4-0.4-4.9-0.7-7.4-1.1c-2.4-0.3-4.8-0.6-7.2-1c-2.9-0.4-6-1.1-8.9-1.8c-1.9-0.5-3.7-1-5.5-1.5s-3.6-1-5.5-1.4
						c-4.5-1.2-9.3-2.3-14.3-3.3l-2.1-0.5c-4.1-0.9-8.4-1.9-12.6-2.4c-5.3-0.7-10.7-0.9-15.7-1c-6.4-0.1-12.9-0.2-19.4,0.3
						c-9.4,0.8-19.5,1.8-32.7,3.4c-5,0.6-10.1,1.4-15.1,2.2c-1.5,0.2-3,0.5-4.5,0.7c-12.4,1.9-24.6,5.4-37.1,10.6
						c-4.9,2-9.9,3.7-15,5.1c-4.2,1.1-8.6,1.3-14,0.6c-3.9-0.5-8-1-11.7-2.7c-6-2.6-11.2-6.7-15.4-12c-3.4-4.4-6.6-9-9.6-13.2
						c-8.7-12.4-21.5-20.1-39-23.7c-0.4,0-0.8-0.1-1.1-0.3c-2-0.7-3.5-2.2-4.1-4.2c-0.7-2.1-0.3-4.4,0.9-6.2
						c0.2-0.3,0.6-0.9,1.2-1.5c0.2-0.2,0.3-0.4,0.4-0.5c5.8-8.1,13.6-12.6,21.9-17.3c2.2-1.3,4.5-2.6,6.8-4c4.5-2.7,9-5.5,13.5-8.1
						c9.7-5.8,19.7-11.7,29.2-18.2c7.6-5.2,15.9-8.2,24.6-8.8c3.3-0.2,6.7-0.4,10-0.5c4.1-0.2,8.3-0.4,12.4-0.7
						c6.2-0.4,12.6-1.1,18.7-1.7c1.6-0.2,3.1-0.3,4.7-0.5c2.4-0.3,4.8-0.6,7.2-0.9c3.1-0.4,6.2-0.9,9.4-1.2
						c3.7-0.4,7.4-0.6,11.1-0.9c2.9-0.2,5.9-0.4,8.8-0.6c9.2-0.8,17.4-4.1,24.5-9.7c2-1.6,4.1-3.1,6.1-4.6c1.6-1.2,3.3-2.4,4.9-3.6
						c4.8-3.7,10.3-5.6,15.7-7.2c6.4-1.9,12.9-1.9,19.2-1.8h1.7c4.3,0,9.4-0.2,14.1-1.3c3.3-0.9,5.5-2.2,6.8-4.2
						c1.9-2.9,3.2-6.2,3.7-9.8c0.4-2.7,0.7-5.4,1-8c0.6-5.1,1.1-10.4,2.5-15.5c2-7.7,9.4-14.2,17.2-15.1c3.3-0.4,6.6-0.4,10.1-0.1
						c2.9,0.3,5.8,0.7,8.5,1.1c2,0.3,4,0.6,6,0.9c2.5,0.3,4.9,0.6,7.3,0.9c2.5,0.3,5.1,0.6,7.6,0.9c3.7,0.5,7.3,0.2,10.4-0.1
						c6.6-0.7,10.8-3.8,12.8-9.4c0.3-0.7,0.5-1.5,0.8-2.3c0.7-2.1,1.5-4.4,2.3-6.5c3.6-7.9,10-12.4,19-13.5
						c4.2-0.5,8.4-0.8,12.6-1.2c5.5-0.5,11.2-1,16.7-1.7c13.5-1.7,25.3-5.1,36.2-10.5c9.6-4.7,17.6-11.8,24.5-21.7
						c2.7-3.9,5.1-8.1,7.5-12.2c1.3-2.3,2.7-4.7,4.1-7l2,1.2c-1.4,2.3-2.7,4.7-4.1,7c-2.4,4.1-4.8,8.4-7.6,12.4
						c-7.1,10.3-15.4,17.6-25.3,22.5c-11.1,5.5-23.2,9-37,10.7c-5.6,0.7-11.3,1.2-16.8,1.7c-4.1,0.4-8.3,0.7-12.5,1.2
						c-8.2,1-14,5.1-17.2,12.1c-0.9,2-1.6,4.2-2.3,6.3c-0.3,0.8-0.5,1.6-0.8,2.3c-2.3,6.4-7.3,10.1-14.8,10.9c-3.2,0.4-7,0.6-11,0.1
						c-2.5-0.4-5-0.6-7.5-0.9c-2.4-0.3-4.9-0.5-7.4-0.9c-2-0.3-4.1-0.6-6.1-0.9c-2.7-0.4-5.6-0.8-8.4-1.1c-3.4-0.3-6.6-0.3-9.6,0.1
						c-6.8,0.8-13.5,6.7-15.2,13.5c-1.4,5-1.9,10.1-2.5,15.1c-0.3,2.7-0.6,5.4-1,8.1c-0.6,3.8-2,7.4-4.1,10.6
						c-1.6,2.5-4.2,4.1-8.2,5.2c-5,1.2-10.3,1.3-14.7,1.3h-1.7c-6.1,0-12.5,0-18.5,1.8c-5.1,1.5-10.5,3.3-14.9,6.8
						c-1.6,1.3-3.3,2.5-5,3.7c-2,1.4-4.1,2.9-6,4.5c-7.4,6-16.1,9.4-25.7,10.2c-2.9,0.3-6,0.5-8.9,0.6c-3.6,0.2-7.4,0.5-11,0.9
						c-3.1,0.3-6.3,0.7-9.3,1.2c-2.4,0.3-4.8,0.7-7.3,0.9c-1.6,0.2-3.1,0.3-4.7,0.5c-6.1,0.6-12.5,1.3-18.7,1.7
						c-4.1,0.3-8.4,0.5-12.5,0.7c-3.3,0.1-6.6,0.3-9.9,0.5c-8.3,0.6-16.2,3.4-23.4,8.4c-9.6,6.5-19.6,12.5-29.3,18.3
						c-4.4,2.6-9,5.4-13.4,8.1c-2.3,1.4-4.6,2.7-6.9,4c-8,4.6-15.6,8.9-21.2,16.7c-0.2,0.2-0.3,0.4-0.5,0.6c-0.3,0.4-0.9,1-1,1.3
						c-0.9,1.3-1.1,2.9-0.7,4.3c0.4,1.3,1.4,2.3,2.7,2.7c0.2,0.1,0.4,0.1,0.5,0.1h0.2c18.2,3.7,31.4,11.7,40.5,24.7
						c3,4.3,6.2,8.8,9.6,13.2c4,5.1,8.9,8.9,14.5,11.3c3.5,1.5,7.2,2,11.1,2.5c5.1,0.7,9.2,0.5,13.1-0.6c5-1.4,10-3.1,14.8-5.1
						c12.7-5.3,25.1-8.8,37.7-10.8c1.5-0.2,3-0.5,4.5-0.7c5-0.8,10.1-1.6,15.2-2.2c13.2-1.6,23.3-2.6,32.7-3.4
						c6.6-0.5,13.2-0.4,19.6-0.3c5.1,0.1,10.5,0.3,15.9,1c4.3,0.5,8.7,1.5,12.9,2.5l2,0.5c5,1,9.8,2.1,14.3,3.3
						c1.9,0.5,3.7,1,5.5,1.5s3.6,1,5.5,1.4c2.8,0.7,5.8,1.4,8.7,1.8c2.4,0.4,4.8,0.7,7.2,1c2.5,0.3,5,0.7,7.5,1.1
						c1.2,0.2,2.3,0.4,3.4,0.6c4.7,0.8,9.6,1.7,14.2,3.4c4.8,1.8,8.4,3.9,11.2,6.6c2.6,2.6,3.4,6,3.8,9c0.5,3.1-0.3,5.9-1.1,8.6
						c-0.3,1-0.6,2-0.8,3c-0.1,0.6-0.3,1.2-0.4,1.8c-1.3,5.2-2.6,10.7-1.1,16L477.7,361.5z"/>
				</g>
			</g>
		</g>
	</g>
	<g>
		<g>
			<g>
				<defs>
					<rect id="SVGID_9_" x="-27.7" y="-51.9" width="452.7" height="501.8"/>
				</defs>
				<clipPath id="SVGID_10_">
					<use xlink:href="#SVGID_9_"  style="overflow:visible;"/>
				</clipPath>
				<g class="st4">
					<path d="M501.1,353.9l-2.3-0.2c0.4-4.8,1.9-9.3,3.4-13.7c0.3-0.9,0.6-1.8,0.9-2.7c0.2-0.8,0.5-1.6,0.8-2.4
						c0.9-2.7,1.8-5.3,1.5-8.1c-0.3-4.6-1.8-7.6-4.6-9.6c-2-1.3-4.3-2.6-6.5-3.7c-9.1-4-17.6-6.5-26.2-7.4
						c-4.2-0.5-8.4-0.8-12.6-1.1c-4.1-0.3-8.4-0.6-12.5-1c-6.4-0.7-12.9-1.6-19.1-2.6l-0.9-0.1c-3.5-0.5-7.1-1.1-10.6-1.8
						c-1-0.2-2-0.4-3-0.5c-5.7-1-11.6-2-17.5-2.8c-7.8-1.1-16.2-1.7-25-1.7c-1.5,0-3,0-4.5-0.1c-2.4-0.1-5-0.1-7.4,0
						c-5,0.2-10.1,0.6-15,1c-1.7,0.1-3.4,0.3-5,0.4c-2.9,0.2-5.8,0.4-8.7,0.7c-7.1,0.5-14.4,1.1-21.6,1.8c-15.4,1.6-30.3,5.3-44.1,9
						c-8,2.2-17.5,4.1-27.4,1.6c-5.1-1.3-9.3-3.7-12.7-7.2c-3.8-4.1-7.2-8.4-10.2-13c-4.4-6.6-9.3-14.5-12.4-23.4
						c-1.4-3.8-1.3-8.2,0.2-12.6c1.3-4,4-7.6,8.7-11.2c1.8-1.3,3.5-2.7,5.3-4c5.8-4.5,11.9-9.1,18.2-13.1c8.7-5.4,17.2-8.5,26-9.5
						c4.2-0.5,8.6-0.8,12.7-1c3.1-0.2,6.3-0.4,9.5-0.7c3.9-0.4,7.9-0.8,11.8-1.2c6.5-0.7,13.1-1.4,19.7-1.9
						c3.8-0.3,7.7-0.3,11.4-0.2c2.9,0,5.7,0,8.5,0.1c2.6,0.1,5.2,0.1,7.8,0c10.2-0.5,19.3-4,27.2-10.4c2-1.6,3.9-3.1,5.9-4.7
						c1.9-1.5,3.8-3.1,5.8-4.6c7.6-6,16.8-8.5,28.1-7.7c2,0.1,4,0.3,5.9,0.5c2.6,0.2,5.3,0.5,7.9,0.6c2.7,0.1,5.7,0,9.2-0.2
						c4-0.3,7.6-1.6,10.5-3.9c3.5-2.7,5.8-6.8,7.2-12.4c0.9-3.8,1.5-7.7,2.1-11.5c0.3-1.9,0.6-3.8,0.9-5.8c0.3-1.6,0.6-3.2,0.9-4.8
						l0.2-0.8c1.3-5.5,4.9-9.5,11-12.2c3.9-1.8,8-1.6,12.3-1.3c6.3,0.4,12.7,1.5,18.3,2.4c3,0.5,6,1.2,8.9,1.8
						c2.9,0.6,5.8,1.3,8.7,1.8c4.3,0.6,9.1,1.2,13.9,0.8c8.4-0.6,13.7-4.2,16.3-10.9c1.5-4.2,2.6-7.5,3.2-10.5
						c1.7-7.4,6.6-13.1,14.4-16.5c4.7-2.1,9.7-3.6,14.5-5.1c1.4-0.4,2.9-0.9,4.3-1.3c3.3-1.1,6.7-2,10-3c5.4-1.5,11-3.1,16.3-5.3
						c5.4-2.3,11.2-5,16.5-8.7c6.5-4.5,12.2-10.5,18.1-19.1c2.2-3.2,4.2-6.5,6.1-9.8c1.4-2.4,2.9-4.8,4.4-7.2l1.9,1.2
						c-1.5,2.3-2.9,4.8-4.3,7.1c-1.9,3.3-4,6.7-6.2,9.9c-6.1,8.8-12,15.1-18.7,19.7c-5.5,3.8-11.4,6.5-16.9,8.9
						c-5.4,2.3-11.1,3.9-16.5,5.4c-3.3,0.9-6.7,1.9-9.9,2.9c-1.4,0.5-2.9,0.9-4.3,1.3c-4.8,1.5-9.7,3-14.3,5
						c-7.1,3.1-11.5,8.1-13,14.9c-0.7,3.1-1.8,6.6-3.3,10.8c-2.9,7.5-9.1,11.7-18.3,12.3c-5.1,0.4-10-0.1-14.5-0.8
						c-3-0.5-6-1.2-8.9-1.8c-2.9-0.6-5.8-1.3-8.7-1.8c-5.6-0.9-11.9-2-18.1-2.4c-4.1-0.3-7.7-0.4-11.2,1.1
						c-5.4,2.4-8.5,5.9-9.6,10.6l-0.2,0.8c-0.3,1.6-0.7,3.1-0.9,4.7c-0.3,1.9-0.6,3.8-0.9,5.7c-0.6,3.8-1.2,7.8-2.1,11.7
						c-1.5,6.1-4.1,10.6-8,13.6c-3.3,2.6-7.2,4-11.7,4.3c-3.5,0.2-6.6,0.3-9.4,0.2c-2.7-0.1-5.4-0.4-8-0.6c-1.9-0.2-3.9-0.4-5.9-0.5
						c-10.7-0.8-19.4,1.6-26.5,7.3c-1.9,1.5-3.8,3.1-5.7,4.6c-1.9,1.6-3.9,3.1-5.9,4.7c-8.3,6.8-17.9,10.4-28.6,10.9
						c-2.7,0.1-5.4,0.1-8,0c-2.8-0.1-5.6-0.1-8.5-0.1c-3.7,0-7.5-0.1-11.2,0.2c-6.6,0.5-13.2,1.2-19.7,1.9
						c-3.9,0.4-7.9,0.8-11.8,1.2c-3.2,0.3-6.4,0.5-9.6,0.7c-4.1,0.2-8.4,0.5-12.6,1c-8.4,0.9-16.6,3.9-25,9.1
						c-6.3,3.9-12.3,8.5-18.1,12.9c-1.7,1.3-3.5,2.7-5.3,4c-4.2,3.3-6.8,6.5-7.9,10.1c-1.3,3.9-1.4,7.7-0.2,11.1
						c3,8.7,7.9,16.4,12.2,22.8c2.9,4.4,6.3,8.7,10,12.7c3,3.2,6.9,5.4,11.5,6.6c9.3,2.3,18.1,0.6,26.2-1.6
						c13.9-3.7,28.9-7.4,44.5-9c7.2-0.8,14.6-1.3,21.7-1.9c2.9-0.2,5.8-0.4,8.6-0.7c1.7-0.1,3.4-0.3,5-0.4c4.9-0.4,10.1-0.8,15.1-1
						c2.5-0.1,5.1-0.1,7.6,0c1.5,0,3,0.1,4.5,0.1c9,0,17.5,0.6,25.4,1.7c5.9,0.8,11.8,1.8,17.5,2.8c1,0.2,2,0.4,3.1,0.6
						c3.5,0.6,7,1.3,10.5,1.7l0.9,0.1c6.5,1,12.7,1.9,19,2.6c4.2,0.4,8.4,0.7,12.5,1s8.4,0.6,12.6,1.1c8.8,0.9,17.6,3.4,26.9,7.6
						c2.4,1.1,4.8,2.5,6.9,3.9c4.5,3.1,5.4,7.9,5.6,11.3c0.3,3.3-0.7,6.2-1.7,9.1c-0.3,0.8-0.5,1.6-0.8,2.4
						c-0.3,0.9-0.6,1.8-0.9,2.7C502.9,345.2,501.5,349.4,501.1,353.9z"/>
				</g>
			</g>
		</g>
	</g>
	<g>
		<g>
			<g>
				<defs>
					<rect id="SVGID_11_" x="-27.7" y="-51.9" width="452.7" height="501.8"/>
				</defs>
				<clipPath id="SVGID_12_">
					<use xlink:href="#SVGID_11_"  style="overflow:visible;"/>
				</clipPath>
				<g class="st5">
					<path d="M530.1,337.9l-2.2-0.5c1.8-7.4,5.4-13.8,9-19.6c3.7-5.9,6.5-11.4,8.6-16.8c0.4-1.1,0.3-2.2-0.4-3.1
						c-0.7-0.8-1.7-1.2-2.9-1l-2,0.4c-3.4,0.6-7,1.3-10.4,2.3c-7.8,2.3-16.1,3-26.1,2.1c-3.2-0.2-6.4-0.7-9.4-1.2
						c-2.2-0.3-4.5-0.7-6.7-0.9c-6.6-0.7-13.3-1.4-19.8-2c-3.5-0.3-6.9-0.7-10.3-1c-1.3-0.1-2.5-0.2-3.9-0.2c-0.7,0-1.3,0-2-0.1
						c-1.7-0.1-3.4-0.1-5.1-0.1c-3.4,0-7-0.1-10.4-0.5c-6.3-0.7-12.6-1.5-18.7-2.3c-4.6-0.6-9.4-1.2-14.2-1.8
						c-5.6-0.7-11.4-1.4-17-2c-3-0.3-6-0.7-8.9-1H377c-0.5-0.1-0.9-0.1-1.3-0.1c-4.9-0.2-9.8-0.4-14.8-0.5c-1,0-2.1-0.1-3.1-0.1
						c-3.1-0.1-6.3-0.2-9.4-0.1c-3.1,0.1-6.3,0.2-9.3,0.4c-2.1,0.1-4.2,0.2-6.3,0.3c-2.9,0.1-5.8,0.2-8.6,0.3
						c-4.9,0.2-10,0.3-15,0.8c-13.4,1.1-26.5,3.2-39.2,5.3c-8.1,1.4-16.9,2.4-25.5,0.9c-2.8-0.6-6.1-1.4-9.1-3.1
						c-4.5-2.8-8.1-6.7-11.1-12c-2.2-3.8-4.7-9-4.5-15c0.1-4.4,0.6-9.5,3.7-14.4c2.4-3.9,5.8-6.7,9.1-9.4c0.8-0.7,1.7-1.4,2.5-2.1
						c6.8-5.8,15.5-9.8,26.5-12c5.3-1.1,10.8-1.7,16.1-2.3c2.7-0.3,5.4-0.6,8.1-1l1.7-0.2c8.6-1.1,17.5-2.3,26.4-2.1h0.1
						c5.3,0.1,10.7,0.2,16.1,0.2c3.7,0,7.5,0,11.2-0.2c9.6-0.6,18.8-4.2,28-11.1c1.3-1,2.6-2,3.9-2.9c3.1-2.3,6.3-4.8,9.5-7
						c5-3.4,10.4-5.5,16.1-6.3c6-0.9,11.9-0.4,17.7,0.1l1.1,0.1c7.9,0.6,14.4,0.1,20.3-1.5c4-1.1,7.2-2.8,9.6-5.1
						c3.9-3.8,6.8-8.4,8.7-13.7c0.7-1.8,1.3-3.7,2-5.5c1.2-3.4,2.4-6.8,3.8-10.2c2.6-6.5,7.5-10.9,14-12.9c3.8-1.1,7.5-0.9,11.2-0.5
						c3.5,0.3,7.1,0.9,10.6,1.5l2.1,0.4c2.6,0.4,5.2,0.9,7.8,1.4c3.3,0.6,6.7,1.3,10.1,1.8c6.7,1,12.2,1.2,17.3,0.4
						c7.9-1.2,13.2-4.4,16.6-10c2.8-4.7,4.7-9.8,6.3-14.1c1.7-4.7,3.8-9.6,7.6-13.1c5.8-5.3,11.2-8.7,17-10.5
						c8.9-2.8,17.7-5.9,26.7-9.2c6.6-2.3,12.8-5.7,18.5-10.1c7.6-5.9,13.8-13.3,19.8-20.6l0.5-0.6c1.5-1.7,2.8-3.6,4-5.4
						c0.7-1,1.5-2.1,2.2-3.1l1.8,1.4c-0.7,1-1.5,2-2.2,3c-1.3,1.8-2.6,3.7-4.2,5.5l-0.5,0.6c-6.1,7.3-12.4,14.9-20.2,20.9
						c-5.9,4.6-12.3,8.1-19.1,10.5c-9,3.3-17.8,6.4-26.7,9.2c-5.5,1.8-10.6,5-16.2,10c-3.2,3-5.1,7-7,12.1
						c-1.6,4.4-3.6,9.6-6.5,14.5c-3.8,6.2-9.6,9.8-18.2,11.1c-5.3,0.8-11,0.7-17.9-0.4c-3.4-0.5-6.9-1.2-10.2-1.8
						c-2.5-0.5-5.1-1-7.7-1.4l-2.1-0.4c-3.4-0.6-6.9-1.2-10.4-1.4c-3.6-0.3-7-0.5-10.4,0.5c-6,1.7-10.2,5.6-12.5,11.5
						c-1.4,3.4-2.6,6.8-3.7,10.1c-0.6,1.8-1.3,3.7-2,5.5c-2,5.6-5.1,10.5-9.3,14.5c-2.7,2.6-6.3,4.5-10.6,5.7
						c-6.2,1.6-12.9,2.1-21.1,1.5l-1.1-0.1c-5.6-0.5-11.5-0.9-17.2-0.1c-5.4,0.8-10.5,2.7-15.1,5.9c-3.1,2.2-6.3,4.6-9.4,6.9
						c-1.3,1-2.6,2-3.9,3c-9.6,7.1-19.1,10.9-29.2,11.5c-3.8,0.2-7.7,0.2-11.4,0.2c-5.5,0-10.9-0.1-16.2-0.2h-0.2
						c-8.7-0.2-17.6,1-26.1,2.1l-1.7,0.2c-2.7,0.4-5.4,0.7-8.1,1c-5.3,0.6-10.7,1.2-15.9,2.3c-10.6,2.1-18.9,5.9-25.5,11.4
						c-0.8,0.7-1.7,1.4-2.5,2.1c-3.3,2.7-6.4,5.2-8.6,8.8c-2.8,4.4-3.2,9.2-3.3,13.2c-0.1,5.4,2.2,10.2,4.2,13.8
						c2.8,5,6.2,8.7,10.3,11.2c2.7,1.6,5.7,2.3,8.3,2.9c7.8,1.4,15.5,0.6,24.7-0.9c12.8-2.1,25.9-4.2,39.4-5.3
						c5.1-0.4,10.2-0.6,15.1-0.8c2.8-0.1,5.7-0.2,8.5-0.3c2.1-0.1,4.2-0.2,6.2-0.3c3.1-0.2,6.3-0.3,9.4-0.4c3.2-0.1,6.4,0,9.5,0.1
						c1,0,2.1,0.1,3.1,0.1c5,0.1,10,0.3,14.8,0.5c0.6,0,1.1,0.1,1.6,0.2h0.2c2.9,0.3,5.9,0.7,8.9,1c5.6,0.6,11.3,1.3,17,2
						c4.7,0.6,9.5,1.2,14.2,1.8c6.1,0.8,12.4,1.6,18.7,2.3c3.4,0.4,6.8,0.4,10.2,0.5c1.7,0,3.5,0,5.2,0.1c0.7,0,1.3,0.1,2,0.1
						c1.3,0,2.6,0.1,4,0.2c3.4,0.3,6.9,0.7,10.3,1c6.5,0.6,13.2,1.3,19.8,2c2.3,0.3,4.6,0.6,6.8,0.9c3,0.5,6.2,0.9,9.3,1.2
						c9.8,0.8,17.8,0.1,25.3-2.1c3.5-1,7.1-1.7,10.6-2.3l2-0.4c2-0.4,3.9,0.3,5.1,1.8c1.2,1.5,1.5,3.5,0.8,5.4
						c-2.1,5.5-5,11.2-8.8,17.2C535.3,324.6,531.8,330.8,530.1,337.9z"/>
				</g>
			</g>
		</g>
	</g>
	<g>
		<g>
			<g>
				<defs>
					<rect id="SVGID_13_" x="-27.7" y="-51.9" width="452.7" height="501.8"/>
				</defs>
				<clipPath id="SVGID_14_">
					<use xlink:href="#SVGID_13_"  style="overflow:visible;"/>
				</clipPath>
				<g class="st6">
					<path d="M575.9,336c-1.2-0.1-2.4-0.3-3.5-0.6c-0.5-0.1-1-0.2-1.5-0.3c-2.6-0.5-7.1-5.7-6.7-8.5c0.1-0.6,0.2-1.1,0.3-1.7
						c0.4-2.7,0.8-5.4,1.6-8c1.8-6,4-12.1,6-17.9c2.1-5.9,2.4-11.7,0.9-17.8c-1.9-7.7-8.7-10.6-13.9-10.7s-10.5,1.1-15.2,3.5
						l-3.1,1.6c-4.6,2.4-9.4,4.8-14.1,6.9c-8.2,3.7-17.1,7.3-27.1,6.9c-6.8-0.2-13.8-0.4-20.7-0.7c-1.7-0.1-3.3-0.2-4.9-0.4
						c-1.6-0.1-3.2-0.2-4.9-0.3c-3.5-0.1-7.1-0.3-10.6-0.4c-3.6-0.1-7.1-0.3-10.7-0.4c-1.7-0.1-3.4-0.1-5.1-0.2
						c-3.4-0.1-6.9-0.2-10.4-0.4c-4.3-0.3-8.7-0.6-13-1.1c-2.8-0.4-5.6-0.8-8.3-1.2c-2.7-0.4-5.5-0.8-8.2-1.1l-17.1-2.4
						c-6.1-0.9-12.2-1.8-18.4-2.5c-1.5-0.2-3.1-0.3-4.6-0.5c-8.3-0.9-16.9-1.9-25.4-2.1l0,0c-2.1,0-4.2-0.1-6.2-0.3
						c-2-0.1-4.1-0.2-6.1-0.2c-3.6,0.1-7.2,0.2-10.7,0.4c-1.8,0.1-3.6,0.2-5.4,0.2c-2.3,0.1-4.7,0.2-7,0.3c-4.6,0.2-9.4,0.3-14,0.6
						c-8.1,0.6-14.7,0.5-20.7-0.3c-3.5-0.5-6.1-1.4-8.2-2.9c-3.3-2.2-5.1-5-5.4-8.1c-0.3-3.2,1.1-6.6,4.1-9.6
						c4.9-4.9,11.3-8.2,20.6-10.7c7.9-2.2,16.1-3.6,24.4-4.2c6.5-0.5,13.1-0.6,19.5-0.7c1.9,0,3.9,0,5.8,0c2.8,0,5.7,0.1,8.5-0.1
						c11.2-0.9,20.6-3.8,28.6-9c5.5-3.6,11-7.4,16.3-11.1c1.8-1.3,3.6-2.5,5.4-3.8c7.4-5.2,15.9-7.8,25.9-8c2.3,0,4.5,0,6.8-0.1
						c3.3,0,6.8,0,10.2-0.1c5.2-0.2,10.2-1.1,15.4-2.8c10.3-3.3,16.4-11,21.1-18.1c1.4-2.1,2.6-4.3,3.9-6.4c1.7-2.8,3.4-5.8,5.4-8.6
						c4.2-6,10-9.4,17.2-10.1c3-0.3,6.2-0.5,9.5-0.2c3.5,0.3,7,0.8,10.4,1.3c2.7,0.4,5.5,0.8,8.2,1.1c1.5,0.2,3,0.3,4.5,0.3
						c1.5,0.1,3.1,0.2,4.6,0.4c6,0.6,12.2,0.1,18.9-1.6c5.5-1.4,9.8-4,13.2-7.7c4.2-4.4,6.9-9.8,9.8-15.8
						c3.3-7.1,7.8-15.1,16.1-20.2l1-0.6c2-1.2,4-2.5,6.1-3.3c2.6-1.1,5.3-2,7.9-2.9c1.5-0.5,2.9-1,4.4-1.5c1.2-0.4,2.5-0.9,3.7-1.3
						c3.9-1.3,8-2.7,12-4.3c10.5-4.2,19-11,26.8-17.8c0.4-0.3,0.6-0.6,0.8-1.1c0.1-0.1,0.2-0.3,0.3-0.4l1.9,1.3
						c-0.1,0.1-0.2,0.2-0.2,0.4c-0.3,0.5-0.7,1.1-1.3,1.6c-7.9,6.9-16.6,13.9-27.4,18.2c-4,1.6-8.1,3-12.1,4.4
						c-1.2,0.4-2.5,0.8-3.7,1.3c-1.5,0.5-2.9,1-4.4,1.5c-2.5,0.9-5.2,1.8-7.7,2.8c-2,0.8-3.9,2-5.8,3.2l-1.1,0.6
						c-7.8,4.8-12.1,12.4-15.3,19.2c-3,6.2-5.8,11.8-10.2,16.4c-3.7,4-8.4,6.8-14.3,8.3c-7,1.8-13.4,2.3-19.7,1.6
						c-1.5-0.2-3-0.3-4.5-0.3c-1.5-0.1-3.1-0.2-4.6-0.4c-2.8-0.3-5.6-0.7-8.3-1.1c-3.4-0.5-6.9-1-10.3-1.3c-3.1-0.3-6.2-0.1-9.1,0.2
						c-6.5,0.6-11.7,3.7-15.6,9.1c-1.9,2.7-3.6,5.6-5.3,8.4c-1.2,2.1-2.5,4.3-3.9,6.5c-4.9,7.4-11.4,15.5-22.3,19.1
						c-5.4,1.8-10.6,2.8-16,3c-3.4,0.1-6.9,0.1-10.2,0.1c-2.2,0-4.5,0-6.8,0.1c-9.6,0.2-17.6,2.7-24.7,7.6c-1.8,1.3-3.6,2.5-5.4,3.8
						c-5.3,3.7-10.8,7.5-16.3,11.2c-8.4,5.4-18.1,8.5-29.7,9.4c-2.9,0.2-5.8,0.1-8.6,0.1c-1.9,0-3.8,0-5.7,0
						c-6.3,0.1-12.9,0.2-19.3,0.7c-8.1,0.6-16.2,2-24,4.2c-9,2.4-15,5.5-19.6,10.1c-2.4,2.4-3.7,5.2-3.4,7.7
						c0.2,2.4,1.7,4.6,4.5,6.4c1.9,1.3,4.1,2.1,7.2,2.5c5.9,0.8,12.3,0.9,20.3,0.3c4.7-0.3,9.5-0.5,14.1-0.6c2.3-0.1,4.7-0.2,7-0.3
						c1.8-0.1,3.6-0.1,5.4-0.2c3.5-0.2,7.2-0.3,10.8-0.4c2.1,0,4.2,0.1,6.2,0.3c2,0.1,4.1,0.2,6.1,0.2c8.6,0.2,17.3,1.1,25.6,2.1
						c1.5,0.2,3.1,0.3,4.6,0.5c6.2,0.7,12.4,1.6,18.4,2.5l17.2,2.4c2.7,0.3,5.5,0.8,8.3,1.2c2.7,0.4,5.5,0.8,8.2,1.1
						c4.2,0.5,8.6,0.8,12.8,1.1c3.4,0.2,7,0.3,10.4,0.4c1.7,0.1,3.4,0.1,5.2,0.2c3.6,0.2,7.1,0.3,10.6,0.4c3.6,0.1,7.1,0.3,10.7,0.4
						c1.7,0.1,3.3,0.2,4.9,0.4c1.6,0.1,3.2,0.2,4.9,0.3c6.9,0.3,13.9,0.5,20.7,0.7c9.5,0.4,18.1-3.1,26.1-6.7
						c4.7-2.1,9.5-4.5,14-6.9l3.1-1.6c5.1-2.5,10.7-3.8,16.3-3.7c6.5,0.2,14,4.1,16.1,12.5c1.7,6.5,1.4,12.8-0.9,19.2
						c-2.1,5.8-4.2,11.8-6,17.7c-0.7,2.5-1.1,5.1-1.5,7.7c-0.1,0.6-0.2,1.2-0.3,1.7c-0.2,1.2,3.2,5.6,4.9,5.9
						c0.5,0.1,1.1,0.2,1.6,0.3c1.1,0.2,2.2,0.5,3.2,0.5L575.9,336z"/>
				</g>
			</g>
		</g>
	</g>
	<g>
		<g>
			<g>
				<defs>
					<rect id="SVGID_15_" x="-27.7" y="-51.9" width="452.7" height="501.8"/>
				</defs>
				<clipPath id="SVGID_16_">
					<use xlink:href="#SVGID_15_"  style="overflow:visible;"/>
				</clipPath>
				<g class="st7">
					<path d="M594.6,329c-6.7-2.4-10.6-6.4-11.7-12.1c-0.5-2.8-0.7-5.8-0.5-8.5c0.2-4.4,0.9-9,1.4-12.8c0.9-6.1,0.5-12.2-1-18.6
						c-2.2-9.1-9.4-15-19.5-16.3c-5.4-0.7-11,0.2-16.9,2.6c-4,1.6-8,3.7-11.8,5.6c-3.1,1.6-6.3,3.2-9.6,4.7
						c-4.6,2.1-9.8,4.1-16.3,6.2c-6.3,2-12.9,1.8-19.2,1.7c-0.9,0-1.9,0-2.8-0.1c-2.7-0.1-5.4-0.3-8.1-0.6c-1.6-0.2-3.1-0.3-4.7-0.4
						c-1.2,0-2.5-0.1-3.7-0.2s-2.5-0.2-3.7-0.2l-14-0.3c-3.7-0.2-7.1-0.4-10.7-0.5c-5-0.1-10.1-0.2-15.1-0.5c-3.2-0.2-6.4-0.6-9.6-1
						c-1-0.1-1.9-0.2-2.9-0.4l-3.3-0.4c-5-0.6-10.1-1.3-15.1-2.2c-4.7-0.8-9.5-2.1-14.1-3.2l-2.6-0.7c-6.1-1.5-11.1-3.2-15.4-6.6
						c-4.9-4-5.6-7.8-2.5-12.8c1-1.5,2.3-3,3.6-4.2l3-2.6c6.5-5.6,13.1-11.4,19.9-16.9c2.6-2.1,5.6-3.7,8.4-5.2l0.6-0.3
						c7.9-4.1,16.6-4.9,24.1-5c7.4-0.2,16.1-0.7,24.4-3c5.8-1.6,10.8-4.2,15.1-7.7c5.2-4.2,9.3-9.4,12.7-14l1.1-1.6
						c3.8-5.2,7.7-10.6,13.4-14.4c2.9-2,6-3.3,9.5-4.2c4.4-1.1,8.8-0.9,13.1-0.7c0.9,0,1.8,0.1,2.6,0.1c5.8,0.2,11.3,0.8,15.5,1.3
						c5,0.5,10.2,0.5,16.3-0.2c13.9-1.5,23.9-7.5,30.5-18.3c1.2-1.9,2.4-3.7,3.6-5.6c2.1-3.1,4.2-6.4,6.1-9.7
						c3.1-5.4,8.1-8.9,12.9-12.2c4.5-3,9.7-4.6,14.7-6.1l1.9-0.6c8.9-2.6,19.2-5.9,28.3-11.1c1.3-0.7,2.6-1.6,4-2.5
						c0.6-0.4,1.2-0.8,1.9-1.2l1.3,1.9c-0.6,0.4-1.2,0.8-1.8,1.2c-1.3,0.9-2.7,1.8-4.1,2.6c-9.3,5.3-19.7,8.6-28.7,11.3l-1.9,0.6
						c-4.9,1.5-9.9,3-14.1,5.8c-4.8,3.3-9.4,6.4-12.2,11.4c-1.9,3.3-4.1,6.6-6.1,9.8c-1.2,1.9-2.4,3.7-3.6,5.6
						c-6.9,11.2-17.8,17.7-32.2,19.3c-6.3,0.7-11.7,0.8-16.8,0.2c-4.2-0.5-9.6-1.1-15.3-1.3c-0.9,0-1.8-0.1-2.7-0.1
						c-4.1-0.2-8.4-0.4-12.4,0.6c-3.2,0.8-6.1,2-8.7,3.8c-5.4,3.6-9.2,8.8-12.9,13.9l-1.2,1.6c-3.5,4.7-7.8,10-13.1,14.4
						c-4.5,3.7-9.8,6.4-15.9,8.1c-8.6,2.4-17.4,2.9-25,3c-7.2,0.2-15.6,0.9-23.1,4.8l-0.6,0.3c-2.8,1.5-5.6,3-8,5
						c-6.8,5.5-13.4,11.3-19.9,16.9l-3,2.6c-1.2,1-2.3,2.3-3.2,3.7c-2.6,4.1-2.1,6.5,2,9.8c4,3.2,8.7,4.8,14.5,6.2l2.6,0.7
						c4.5,1.2,9.2,2.4,13.9,3.2c5,0.9,9.9,1.5,15,2.2l3.3,0.4c1,0.1,1.9,0.2,2.9,0.4c3.1,0.4,6.3,0.8,9.4,1c5,0.3,10.1,0.4,15,0.5
						c3.6,0.1,7.1,0.3,10.8,0.5h0.5l13.4,0.3c1.3,0.1,2.5,0.1,3.8,0.2c1.2,0.1,2.5,0.1,3.7,0.2c1.6,0.1,3.2,0.3,4.8,0.4
						c2.6,0.3,5.3,0.5,7.9,0.6c0.9,0,1.8,0,2.8,0.1c6.2,0.1,12.5,0.3,18.5-1.6c6.4-2.1,11.5-4.1,16.1-6.1c3.2-1.4,6.4-3.1,9.5-4.6
						c3.9-2,7.9-4,11.9-5.7c6.2-2.6,12.3-3.5,18.1-2.8c11,1.4,19,8.2,21.5,18.1c1.6,6.7,1.9,13,1,19.4c-0.5,3.7-1.2,8.3-1.4,12.6
						c-0.2,2.5,0,5.3,0.5,7.9c1,4.8,4.3,8.2,10.3,10.3L594.6,329z"/>
				</g>
			</g>
		</g>
	</g>
	<g>
		<g>
			<g>
				<defs>
					<rect id="SVGID_17_" x="-27.7" y="-51.9" width="452.7" height="501.8"/>
				</defs>
				<clipPath id="SVGID_18_">
					<use xlink:href="#SVGID_17_"  style="overflow:visible;"/>
				</clipPath>
				<g class="st8">
					<path d="M596.3,315.8c-2.1-2.9-3.2-5.7-3.4-8.6c-0.3-4.7-0.7-10.9-0.6-17c0.1-6.1-0.6-12.1-2.1-18c-1.1-4.3-2.9-7.9-5.4-10.5
						c-6.4-6.6-14.2-9.8-23.3-9.6c-7.3,0.2-14.2,1.7-20.4,4.6c-4,1.8-8.1,3.8-12,5.7c-3.9,1.9-8,3.9-12.1,5.8
						c-5.1,2.4-10,3.9-15.1,4.7c-6.8,1.1-13.7,0.8-20.4,0.5c-4.5-0.2-9.1-0.6-13.5-1c-2.7-0.2-5.4-0.5-8.1-0.6
						c-1.3-0.1-2.7-0.2-4-0.2c-1.4-0.1-2.7-0.2-4.1-0.3c-1.8-0.1-3.5-0.2-5.1-0.2c-1.4,0-2.8,0-4.2,0c-3.2,0-6.6,0-9.9-0.4
						c-2-0.2-4-0.4-6-0.6c-6.9-0.7-13.9-1.4-20.9-3.1c-5-1.3-10.2-2.8-14.8-6.2c-5-3.6-6.2-8.5-3.4-14c1.8-3.7,4.1-6.5,6.9-8.4
						c1.1-0.8,2.3-1.7,3.3-2.6c0.4-0.3,0.8-0.6,1.2-1c4.2-3.4,9.4-5.5,16.8-6.7c3-0.5,6.1-0.8,9.1-1.1c1.8-0.2,3.6-0.4,5.4-0.6
						c8.6-1.1,18.3-2.4,26.5-7.2c0.8-0.5,1.7-0.9,2.5-1.4c2.1-1.1,4.3-2.3,6-3.9c4.4-4.1,9-8.9,14-14.6c4.8-5.3,9.7-9.8,15.1-13.6
						c0.7-0.5,1.4-0.8,2.2-1.1c0.4-0.2,0.7-0.3,1.1-0.5c6.5-3.1,13.5-3,20.2-2.8h1.7c5.1,0.1,10.3,0.3,15.2,0.5
						c6.7,0.3,13.5-0.4,20.2-2c8.6-2.1,15.5-5.7,21-10.8c5.8-5.5,10.2-11.8,14.2-17.9c6.7-10.2,16.5-16.9,30-20.7
						c7.6-2.1,15.2-4.3,22.8-6.6c1.1-0.3,2.1-0.8,3.1-1.3c0.4-0.2,0.7-0.4,1.1-0.5l1,2.1c-0.4,0.2-0.7,0.3-1.1,0.5
						c-1.1,0.5-2.3,1.1-3.5,1.4c-7.5,2.3-15.2,4.5-22.8,6.6c-12.9,3.6-22.3,10-28.6,19.7c-4.1,6.2-8.6,12.7-14.6,18.3
						c-5.8,5.4-13,9.2-22,11.4c-6.9,1.6-13.9,2.3-20.7,2c-5.1-0.2-10.2-0.4-15.3-0.5h-1.7c-6.4-0.1-13.1-0.2-19.1,2.6
						c-0.4,0.2-0.8,0.4-1.2,0.5c-0.7,0.3-1.3,0.6-1.8,0.9c-5.2,3.7-10,8-14.7,13.2c-5.1,5.8-9.7,10.6-14.2,14.8
						c-1.9,1.8-4.2,3-6.5,4.2c-0.8,0.4-1.7,0.9-2.5,1.4c-8.6,5.1-18.5,6.4-27.3,7.5c-1.8,0.2-3.6,0.4-5.4,0.6c-3,0.3-6,0.6-8.9,1.1
						c-7,1.2-11.9,3.1-15.8,6.3c-0.4,0.3-0.8,0.6-1.2,1c-1.1,0.9-2.3,1.9-3.5,2.7c-2.5,1.7-4.5,4.1-6.1,7.5
						c-2.2,4.5-1.3,8.2,2.7,11.2c4.2,3.1,9.2,4.6,14,5.8c6.8,1.7,13.4,2.4,20.5,3.1c2,0.2,4,0.4,6,0.6c3.2,0.3,6.5,0.4,9.6,0.4
						c1.4,0,2.8,0,4.3,0l0,0c1.7,0,3.4,0.1,5.2,0.2c1.4,0.1,2.7,0.2,4.1,0.3c1.3,0.1,2.7,0.2,4.1,0.2c2.7,0.2,5.4,0.4,8.1,0.6
						c4.4,0.4,9,0.8,13.4,1c6.6,0.3,13.4,0.6,20-0.5c4.9-0.8,9.6-2.2,14.5-4.5c4-1.8,8.1-3.8,12-5.7c3.9-1.9,8-3.9,12.1-5.8
						c6.6-3,13.7-4.6,21.3-4.8c9.7-0.2,18.2,3.3,25.1,10.3c2.8,2.9,4.8,6.8,6,11.5c1.5,6.1,2.2,12.3,2.1,18.6
						c-0.1,6,0.3,12.1,0.6,16.8c0.2,2.5,1.1,4.8,3,7.4L596.3,315.8z"/>
				</g>
			</g>
		</g>
	</g>
	<g>
		<g>
			<g>
				<defs>
					<rect id="SVGID_19_" x="-27.7" y="-51.9" width="452.7" height="501.8"/>
				</defs>
				<clipPath id="SVGID_20_">
					<use xlink:href="#SVGID_19_"  style="overflow:visible;"/>
				</clipPath>
				<g class="st9">
					<path d="M623.9,322.2c-0.7-0.4-1.5-0.8-2.2-1.2c-1.8-1-3.7-2-5.5-3.1c-6.8-4.1-11.2-10.4-12.5-18.1c-0.8-4.4-1.1-8.8-1.4-13.1
						c-0.1-1.9-0.3-3.8-0.5-5.8c-0.7-7.7-1.8-15.8-6.1-23.2c-2.5-4.4-6.1-8-10.8-10.6c-8-4.5-15.8-6.5-23.8-6.3
						c-7.1,0.2-13.1,1.3-18.4,3.2c-4,1.5-8,3.4-11.8,5.2c-1.9,0.9-3.7,1.8-5.6,2.6c-1.2,0.6-2.5,1.1-3.7,1.7
						c-2.4,1.1-4.9,2.3-7.4,3.4c-9.9,4.2-20.8,5.4-32.3,3.6c-6-0.9-11.8-2.1-17.3-3.6c-3.1-0.9-7.1-2.2-10.6-4.7
						c-1.8-1.3-4-3.4-2.8-7c0.3-1.2,1.2-2.5,2.3-3.5c1.4-1.3,2.9-2.6,4.3-3.9c1.1-1,2.3-1.9,3.4-2.9c1.5-1.3,2.9-2.7,4.4-4
						c3.7-3.4,7.6-7,11.3-10.5c1.8-1.8,3.6-3.6,5.3-5.4c4.4-4.6,9-9.3,14.2-13.2c6.8-5,14.4-7.6,23.4-8c3-0.1,6.1-0.2,9.1-0.2
						c3.7-0.1,7.5-0.1,11.3-0.4c12-0.7,20.9-2.6,28.7-6.2c6.7-3,14.2-6.9,19.9-13.5c3.6-4.3,7.6-8.8,13-14.7c5.4-6,11.5-10.3,18-13
						c5.8-2.3,12.2-4.1,20.6-6c1-0.2,2.1-0.6,3.1-0.9c0.5-0.2,1.1-0.4,1.6-0.5l0.7,2.2c-0.5,0.2-1.1,0.3-1.6,0.5
						c-1.1,0.4-2.2,0.7-3.3,1c-8.3,1.8-14.6,3.6-20.3,5.9c-6.2,2.5-12,6.7-17.2,12.4c-5.4,5.9-9.4,10.4-13,14.7
						c-6,6.9-13.8,11-20.7,14.1c-8.1,3.7-17.2,5.7-29.5,6.4c-3.8,0.2-7.7,0.3-11.4,0.4c-3,0.1-6,0.1-9,0.2
						c-8.5,0.4-15.8,2.9-22.2,7.6c-5.1,3.8-9.6,8.5-13.9,13c-1.7,1.8-3.5,3.6-5.3,5.4c-3.7,3.6-7.6,7.2-11.3,10.6
						c-1.5,1.3-2.9,2.7-4.4,4c-1.1,1-2.3,2-3.4,3c-1.4,1.2-2.9,2.5-4.3,3.8c-0.8,0.8-1.5,1.7-1.7,2.5c-0.5,1.5-0.3,2.8,2,4.5
						c3.2,2.2,6.9,3.5,9.8,4.3c5.4,1.5,11.2,2.7,17.1,3.6c11.3,1.8,21.4,0.6,31.1-3.4c2.4-1.1,4.9-2.2,7.3-3.3
						c1.2-0.6,2.5-1.2,3.7-1.7c1.9-0.8,3.7-1.7,5.6-2.6c3.9-1.8,7.9-3.7,12-5.2c5.6-2,11.8-3.1,19.2-3.4c8.4-0.3,16.6,1.9,25,6.5
						c5,2.8,8.9,6.6,11.6,11.4c4.4,7.8,5.6,16.6,6.3,24.2c0.2,1.9,0.3,3.9,0.5,5.8c0.3,4.3,0.7,8.7,1.4,12.9
						c1.2,7,5.2,12.7,11.5,16.5c1.8,1.1,3.5,2,5.4,3c0.7,0.4,1.5,0.8,2.2,1.2L623.9,322.2z"/>
				</g>
			</g>
		</g>
	</g>
	<g>
		<g>
			<g>
				<defs>
					<rect id="SVGID_21_" x="-27.7" y="-51.9" width="452.7" height="501.8"/>
				</defs>
				<clipPath id="SVGID_22_">
					<use xlink:href="#SVGID_21_"  style="overflow:visible;"/>
				</clipPath>
				<g class="st10">
					<path d="M624.9,314.6c-2.9-1.3-5-3.4-6.9-5.5c-6.3-7-7.8-15.7-8.4-22.5c-0.1-1.3-0.2-2.6-0.3-3.9c-0.6-7.3-1.3-14.9-3.1-22.1
						c-2.3-9.5-7-16.2-14.3-20.5c-4.5-2.6-9.5-4.9-15.8-7c-6.9-2.3-13.1-3.3-19-3c-7.9,0.4-15.8,2.3-23.4,5.7
						c-3.7,1.6-7.4,3.2-11,4.7s-7.3,3.1-10.9,4.7c-5.6,2.4-11.6,3-18.5,1.8c-3.3-0.6-8.3-4.1-8.1-7.4c0.1-3.3,0.4-6.6,2.2-9.5
						c3.8-6.1,8.8-11.4,15.3-16.3c6.2-4.5,13.3-7.1,21.9-7.7c3.4-0.3,6.9-0.5,10.3-0.7c3.4-0.2,6.8-0.4,10.2-0.7
						c7.1-0.7,13.9-2.3,20.2-4.8c4-1.6,7.9-3.6,11.7-5.5c0.9-0.5,1.8-0.9,2.7-1.4c8.9-4.6,16.1-9.7,21.9-15.7
						c0.7-0.7,1.5-1.5,2.2-2.2c4.5-4.6,9.2-9.4,14.7-13.2c2.1-1.6,4.3-2.9,6.7-3.9c5.3-2.2,11.6-4.5,18.6-5.6l0.4,2.3
						c-6.7,1-12.9,3.3-18,5.4c-2.2,0.9-4.3,2.2-6.2,3.7c-5.4,3.7-10,8.4-14.4,12.9c-0.7,0.8-1.5,1.5-2.2,2.2
						c-6,6.1-13.3,11.4-22.5,16.1c-0.9,0.5-1.8,0.9-2.7,1.4c-3.8,1.9-7.8,3.9-11.9,5.6c-6.4,2.6-13.4,4.2-20.8,5
						c-3.4,0.3-6.9,0.5-10.3,0.7c-3.4,0.2-6.8,0.4-10.2,0.7c-8.1,0.6-14.9,3-20.7,7.3c-6.3,4.7-11.1,9.8-14.7,15.7
						c-1.5,2.5-1.7,5.3-1.8,8.4c-0.1,1.6,3.5,4.5,6.3,5c6.4,1.1,12,0.6,17.1-1.6c3.7-1.6,7.4-3.2,11-4.7s7.3-3.1,10.9-4.7
						c7.9-3.5,16-5.5,24.2-5.9c6.1-0.3,12.6,0.8,19.8,3.2c6.4,2.2,11.6,4.5,16.2,7.2c7.8,4.7,12.8,11.8,15.3,21.9
						c1.9,7.4,2.6,15.1,3.2,22.5c0.1,1.3,0.2,2.6,0.3,3.9c0.6,6.8,2,14.7,7.8,21.1c1.7,1.9,3.6,3.8,6.1,4.9L624.9,314.6z"/>
				</g>
			</g>
		</g>
	</g>
	<g>
		<g>
			<g>
				<defs>
					<rect id="SVGID_23_" x="-27.7" y="-51.9" width="452.7" height="501.8"/>
				</defs>
				<clipPath id="SVGID_24_">
					<use xlink:href="#SVGID_23_"  style="overflow:visible;"/>
				</clipPath>
				<g class="st11">
					<path d="M435,404.3c-0.9-1.3-3.5-5.7-7.2-11.7c-10.7-17.4-30.6-49.7-33.9-52.9c-6.4-6.2-14.2-10.2-23.2-12
						c-4-0.8-8.6-0.9-14.3-0.2c-18.3,2.3-34.2,6.4-48.6,12.7c-7.8,3.4-13.5,7.2-17.9,11.9c-5.5,5.8-9.9,12.2-14.9,19.9
						c-2.6,4.1-6.1,6.8-9.5,9.2c-1.7,1.2-3.9,1.4-5.8,1.4c-6.4-0.1-11.7-3-15.5-5.5c-7.4-4.8-14.3-8.5-21.2-11.2
						c-4.9-2-11.5-4.3-18.6-4.1c-5,0.1-10.4,0.8-16.3,2.3c-4.5,1-8.6,2.9-12.9,4.9c-1,0.5-2,0.9-3,1.4c-6.7,3-13.4,5.4-20.9,3.5
						l-0.3-0.1c-1.5-0.4-3-0.8-4.4-1.5c-2.2-1.2-4.3-2.5-6.4-3.7c-3-1.8-6.1-3.6-9.2-5.2c-6.4-3.4-12.6-5.2-18.8-5.4
						c-2.4-0.1-4.8-0.1-7.2-0.2c-2.3-0.1-4.6-0.1-6.8-0.2c-1.5,0-3,0-4.5,0c-4.5,0-9.2-0.1-13.7-0.5c-8.1-0.7-16.2-1.9-23-3
						c-3.5-0.6-7.1-1.2-10.5-1.8s-7-1.2-10.5-1.8c-3.2-0.5-6.6-0.9-9.8-1.2c-2.6-0.3-5.2-0.5-7.8-0.9c-2.5-0.3-5.2-0.7-8.3-1.4
						c-3.9-0.8-7.4-5.1-7.8-8.3c-0.5-4.2,0.5-8.5,2.7-12.5c4-7.2,8.8-13.7,14.2-19.2c1.3-1.3,2.6-2.6,3.9-3.9
						c8.9-8.9,18.1-18.2,26.3-28c5.9-7,11.9-12.7,18.3-17.4c4.1-3,8.8-5.5,14.4-7.7c6.5-2.5,13.2-5,19.8-7.6
						c12-4.9,21.6-11.6,29.2-20.4c4.1-4.7,8.7-9,13.1-13c5.7-5.2,12.9-8,19.9-10.8c0.8-0.3,1.5-0.6,2.3-0.9
						c5.7-2.3,11.5-5.1,17.2-8.2c5.5-2.9,10.4-6.8,15.2-10.6c1.7-1.4,3.5-2.8,5.3-4.1c2.9-2.2,6.1-4.1,9.2-5.6
						c8.3-4,17.1-5.6,26.2-6.9c7.3-1,15.1-2.2,24.8-4c2.9-0.5,6-1.5,9.2-2.7c8.8-3.6,17.1-8.6,24.6-14.9c3.6-2.9,7.3-5.7,11-8.4
						c1.6-1.2,3.3-2.4,4.9-3.6c4.9-3.6,10.6-6.2,18.8-8.5c4.6-1.3,9.3-2.4,13.8-3.5c2.3-0.5,4.6-1.1,6.9-1.7
						c5.1-1.3,9.4-3.3,12.8-6.1c4.4-3.7,7.2-8.9,8.4-15.5c0.8-5,1-10.2,1.1-15.2l0.1-1.9c0-1.6,0-3.3-0.1-5c-0.1-2.4-0.2-4.9,0-7.4
						c0.5-5.8,1.5-11.9,2.3-16.8c0.9-5.1,3.5-10,8-14.4c5.3-5.2,11.3-9.4,18.8-14.2c4.1-2.6,8.4-5.2,12.2-8.2
						c4.2-3.3,8.3-6.7,12.2-10c3-2.5,6.1-5.1,9.2-7.6c3.7-3,8.5-4.9,14.5-5.8c7.1-1.2,14.1,0.3,19.8,1.4c7,1.4,13.6,4.5,20.6,9.9
						c5.3,4.1,9.5,9.4,13.5,14.5c0.7,0.9,1.5,1.9,2.2,2.8c2.6,3.3,5.4,6.7,8.4,9.7c9.2,8.8,19.9,13.5,31.8,14.1
						c6.2,0.3,12.2-0.6,18.1-2.7c9.2-3.3,17.2-8.5,23.5-15.4c6.4-7,12.6-14.8,19.3-24.8c1.9-2.8,3.8-5.6,5.6-8.4
						c4-6.1,8.2-12.5,13.1-18.2l1.7,1.5c-4.8,5.6-9,11.9-13,18c-1.8,2.8-3.7,5.7-5.7,8.5c-6.8,10-13,18-19.5,25
						c-6.6,7.1-14.9,12.5-24.5,16c-6.1,2.2-12.5,3.2-18.9,2.9c-12.4-0.6-23.6-5.5-33.2-14.7c-3.2-3.1-5.9-6.5-8.6-9.9
						c-0.8-0.9-1.5-1.9-2.2-2.8c-3.9-5-7.9-10.1-13.1-14.1c-6.7-5.2-13-8.2-19.6-9.5c-7-1.4-12.8-2.4-19-1.4
						c-5.7,0.9-10.1,2.6-13.5,5.4c-3.1,2.5-6.1,5.1-9.1,7.5c-4,3.3-8.1,6.8-12.3,10.1c-3.9,3.1-8.2,5.8-12.4,8.4
						c-7.3,4.7-13.3,8.8-18.4,13.8c-4.1,4.1-6.6,8.6-7.4,13.2c-0.8,4.8-1.8,10.8-2.3,16.6c-0.2,2.3-0.1,4.8,0,7.1
						c0.1,1.7,0.2,3.4,0.1,5.1l-0.1,1.9c-0.2,5.1-0.3,10.4-1.1,15.5c-1.3,7.2-4.4,12.8-9.2,16.9c-3.7,3-8.3,5.2-13.8,6.5
						c-2.3,0.6-4.6,1.1-6.9,1.7c-4.5,1.1-9.2,2.2-13.7,3.4c-7.9,2.2-13.4,4.7-18,8.1c-1.6,1.2-3.3,2.4-4.9,3.6
						c-3.6,2.7-7.4,5.4-10.9,8.3c-7.7,6.5-16.2,11.6-25.2,15.3c-3.3,1.3-6.6,2.3-9.6,2.9c-9.7,1.8-17.6,3-24.9,4
						c-8.9,1.3-17.5,2.8-25.5,6.7c-3,1.5-6.1,3.3-8.8,5.4c-1.8,1.3-3.6,2.7-5.3,4.1c-4.9,3.8-9.9,7.8-15.6,10.8
						c-5.7,3.2-11.6,6-17.4,8.4c-0.8,0.3-1.5,0.6-2.3,0.9c-6.8,2.7-13.7,5.5-19.2,10.4c-4.3,3.9-8.9,8.2-12.9,12.8
						c-7.8,9.1-17.6,15.9-30,21c-6.6,2.6-13.3,5.2-19.8,7.6c-5.3,2.1-9.9,4.6-13.8,7.5c-6.3,4.6-12.1,10.2-17.9,17
						C43,286.7,33.7,296,24.8,305c-1.3,1.3-2.6,2.6-3.9,3.9c-5.3,5.4-9.9,11.7-13.8,18.7c-2.1,3.6-2.9,7.4-2.5,11.1
						c0.2,2.1,2.9,5.7,6,6.3c3.1,0.7,5.6,1.1,8.1,1.4c2.6,0.4,5.2,0.6,7.8,0.9c3.3,0.3,6.6,0.7,9.9,1.2c3.5,0.6,7.1,1.2,10.5,1.8
						s7,1.2,10.5,1.8c6.8,1.1,14.8,2.3,22.8,3c4.5,0.4,9.1,0.4,13.5,0.4c1.5,0,3,0,4.6,0c2.3,0,4.5,0.1,6.8,0.2
						c2.4,0.1,4.8,0.2,7.2,0.2c6.6,0.2,13.1,2,19.8,5.6c3.2,1.7,6.3,3.5,9.3,5.3c2.1,1.2,4.2,2.5,6.3,3.6c1.1,0.6,2.5,1,3.8,1.3
						l0.3,0.1c6.7,1.8,13-0.6,19.3-3.3c1-0.4,2-0.9,3-1.4c4.2-2,8.6-4,13.3-5.1c6.1-1.5,11.6-2.2,16.8-2.3
						c7.5-0.1,14.3,2.2,19.4,4.3c7,2.8,14.1,6.5,21.6,11.4c3.6,2.3,8.5,5,14.3,5.1c1.5,0,3.2-0.1,4.4-1c3.2-2.3,6.5-4.8,8.9-8.6
						c5.1-7.9,9.6-14.3,15.1-20.3c4.7-4.9,10.6-8.9,18.7-12.5c14.6-6.4,30.7-10.6,49.2-12.9c6-0.7,10.8-0.7,15.1,0.2
						c9.5,1.9,17.7,6.1,24.4,12.6c3.2,3.1,19.4,29.2,34.2,53.4c3.7,6,6.4,10.4,7.2,11.6L435,404.3z"/>
				</g>
			</g>
		</g>
	</g>
</g>
</svg>
