<svg viewBox="62 1 55 58" class="color-fill"><path d="m117 29.98h-0.04003c-0.53758-0.54363-6.943-6.8817-13.728-6.8817-3.4555 0-6.8085 1.6442-9.3428 3.3308l8.4886-8.9527 3.1689 3.3424 1.0014-1.0567-7.3413-7.7414-1.0014 1.0567 3.1691 3.3424-8.4884 8.9513c1.5998-2.6717 3.1597-6.208 3.1597-9.8531 0-7.1538-6.012-13.909-6.5271-14.475v-0.042349s-0.0063324 0.0066746-0.019223 0.021405c-0.012665-0.01473-0.019223-0.021405-0.019223-0.021405v0.042349c-0.51496 0.56665-6.5269 7.3216-6.5269 14.475 0 3.645 1.5596 7.1814 3.1597 9.8531l-8.4884-8.9513 3.1689-3.3424-1.0014-1.0567-7.3411 7.7414 1.0012 1.0567 3.1691-3.3424 8.4884 8.9511c-2.5341-1.685-5.8871-3.3292-9.3426-3.3292-6.7832 0-13.19 6.3381-13.728 6.8817h-0.039804s0.0063324 0.0064445 0.02058 0.021175c-0.014248 0.013119-0.02058 0.019563-0.02058 0.019563h0.039804c0.53758 0.54386 6.9446 6.8833 13.728 6.8833 3.4555 0 6.8085-1.6459 9.3426-3.3308l-8.4884 8.9511-3.1691-3.3426-1.0012 1.0567 7.3411 7.7416 1.0014-1.0567-3.1689-3.3424 8.4884-8.9511c-1.6001 2.6717-3.1597 6.2076-3.1597 9.8531 0 7.1538 6.012 13.908 6.5269 14.475v0.042579s0.0065586-0.0064444 0.019223-0.021174c0.012891 0.01473 0.019223 0.021174 0.019223 0.021174v-0.042579c0.51519-0.56642 6.5271-7.3211 6.5271-14.475 0-3.6455-1.5598-7.1814-3.1597-9.8531l8.4884 8.9511-3.1691 3.3424 1.0014 1.0567 7.3413-7.7416-1.0014-1.0567-3.1689 3.3426-8.4886-8.9511c2.5343 1.685 5.8873 3.3308 9.3428 3.3308 6.7845 0 13.19-6.3395 13.728-6.8833h0.04003s-0.006332-0.0064445-0.020807-0.019563c0.014475-0.01473 0.020807-0.021175 0.020807-0.021175m-41.232 4.8223c-4.2235 0-8.4373-2.937-10.686-4.8011 2.2491-1.8657 6.4629-4.8027 10.686-4.8027 4.2233 0 6.7861 2.937 9.037 4.8027-2.2509 1.864-4.8138 4.8011-9.037 4.8011m18.285 9.6807c0 4.4542-2.7836 8.8972-4.553 11.269-1.7676-2.3722-4.553-6.8152-4.553-11.269 0-4.4561 2.7854-7.1586 4.553-9.5308 1.7695 2.3722 4.553 5.0747 4.553 9.5308m-6.6855-16.73c1.1776-1.2422 3.0875-1.2422 4.2651 0 1.1774 1.2406 1.1774 3.2547 0 4.4968-1.1776 1.2406-3.0875 1.2406-4.2651 0-1.1774-1.2422-1.1774-3.2563 0-4.4968m2.1324-2.7041c-1.7676-2.372-4.553-5.0747-4.553-9.5306 0-4.4545 2.7854-8.8958 4.553-11.269 1.7695 2.3736 4.553 6.815 4.553 11.269 0 4.4559-2.7836 7.1586-4.553 9.5306m13.733 9.7536c-4.2251 0-6.7879-2.937-9.037-4.8011 2.2491-1.8657 4.812-4.8027 9.037-4.8027 4.2233 0 8.4373 2.937 10.686 4.8027-2.2507 1.864-6.4631 4.8011-10.686 4.8011"></path></svg>