<svg width="72px" height="26px" viewBox="0 0 72 26" version="1.1" xmlns="http://www.w3.org/2000/svg" xmlns:xlink="http://www.w3.org/1999/xlink"><g id="google-m" stroke="none" stroke-width="1" fill="none" fill-rule="evenodd"><g id="icon"><rect id="Rectangle" stroke="#000000" fill="#000000" x="0" y="0" width="72" height="26" rx="4"></rect><path d="M35.0503747,13.0608138 L35.0503747,16.8216656 L33.8571429,16.8216656 L33.8571429,7.53595125 L37.0228342,7.53595125 C37.8271776,7.53595125 38.5090244,7.80425946 39.0715481,8.34005925 C39.6434108,8.87585904 39.9285714,9.52879981 39.9285714,10.2979742 C39.9285714,11.0850237 39.6434108,11.7422291 39.0715481,12.2691367 C38.5182729,12.7967702 37.8348847,13.0600879 37.0228342,13.0600879 L35.0503747,13.0600879 L35.0503747,13.0608138 Z M35.0503747,8.67732729 L35.0503747,11.919347 L37.0484034,11.919347 C37.5241548,11.919347 37.9177581,11.7592876 38.2293041,11.4393502 C38.5492824,11.1199573 38.7089543,10.7388635 38.7089543,10.2979742 C38.7089543,9.86606786 38.5492824,9.48960158 38.2293041,9.16939202 C37.9177581,8.84101617 37.5241548,8.6766014 37.0484034,8.6766014 L35.0503747,8.6766014 L35.0503747,8.67732729 Z" id="Fill-1" fill="#FFFFFF" fill-rule="nonzero"></path><path d="M42.5703036,10.1359513 C43.4101017,10.1359513 44.0720877,10.368335 44.557987,10.8339986 C45.0439725,11.2996622 45.2857143,11.9376644 45.2857143,12.748722 L45.2857143,16.6171535 L44.199688,16.6171535 L44.199688,15.7464092 L44.1503389,15.7464092 C43.6813495,16.4632766 43.0561165,16.8216656 42.2745538,16.8216656 C41.6081678,16.8216656 41.0491939,16.6171535 40.6016869,16.2074126 C40.1527131,15.7969547 39.9285714,15.2853161 39.9285714,14.6695396 C39.9285714,14.0208728 40.1645328,13.5046637 40.6379222,13.1205539 C41.1112254,12.7364442 41.7430152,12.5438516 42.5326878,12.5438516 C43.2073561,12.5438516 43.7631379,12.6720973 44.1989116,12.9278717 L44.1989116,12.6586543 C44.1989116,12.249003 44.0425818,11.9012788 43.7300084,11.6152129 C43.4167449,11.3287886 43.0518028,11.1862934 42.6315586,11.1862934 C41.9974394,11.1862934 41.4960106,11.4635765 41.1259784,12.0192182 L40.1254504,11.3655326 C40.6776949,10.5456922 41.4916106,10.1359513 42.5703036,10.1359513 M41.1008724,14.6955294 C41.1008724,15.0034624 41.2262296,15.2592369 41.4776341,15.4645555 C41.7290387,15.6689778 42.0224591,15.7716819 42.3601383,15.7716819 C42.8379278,15.7716819 43.2625719,15.587872 43.6370906,15.2209693 C44.0116954,14.8533495 44.1989116,14.4229065 44.1989116,13.9281164 C43.8450989,13.6371215 43.3510899,13.4923858 42.7177471,13.4923858 C42.2569537,13.4923858 41.8719959,13.6079951 41.5639089,13.8384968 C41.2557356,14.0690881 41.1008724,14.3539889 41.1008724,14.6955294" id="Fill-3" fill="#FFFFFF" fill-rule="nonzero"></path><polygon id="Fill-5" fill="#FFFFFF" points="51.663663 10.5165094 47.6856449 19.7931218 46.4553431 19.7931218 47.9324658 16.5474429 45.3155845 10.5165094 46.6116207 10.5165094 48.5027072 15.1418984 48.5282404 15.1418984 50.3675362 10.5165094"></polygon><path d="M30.2857143,12.3764344 C30.2857143,11.9865027 30.2547551,11.6103188 30.1961095,11.250237 L25.2857143,11.250237 L25.2857143,13.3827615 L28.0981369,13.3827615 C27.9774844,14.0779718 27.6124312,14.6694138 27.0583499,15.065372 L27.0583499,16.450237 L28.7368695,16.450237 C29.7196031,15.4861894 30.2857143,14.0611165 30.2857143,12.3764344" id="Fill-8" fill="#4285F4"></path><path d="M25.3588176,17.5645227 C26.7833074,17.5645227 27.9824719,17.0759082 28.8571429,16.2332755 L27.1556814,14.8547883 C26.6821666,15.1879984 26.0721833,15.3826757 25.3588176,15.3826757 C23.9822083,15.3826757 22.8137089,14.4134137 22.395696,13.1073798 L20.6428571,13.1073798 L20.6428571,14.5271082 C21.511431,16.3278491 23.2968178,17.5645227 25.3588176,17.5645227" id="Fill-10" fill="#34A853"></path><path d="M22.4285714,13.2080288 C22.3296333,12.8833199 22.2753501,12.5367564 22.2753501,12.1788541 C22.2753501,11.8213176 22.3296333,11.4747541 22.4285714,11.1496794 L22.4285714,9.76452268 L20.8059695,9.76452268 C20.4736303,10.4905686 20.2857143,11.3103422 20.2857143,12.1788541 C20.2857143,13.0474575 20.4736303,13.8679626 20.8059695,14.5930941 L22.4285714,13.2080288 Z" id="Fill-12" fill="#FABB05"></path><path d="M25.3121309,8.96562396 C26.0782677,8.96562396 26.7651763,9.23650909 27.3067892,9.76781871 L27.3067892,9.76863738 L28.7907484,8.24183854 C27.8894735,7.37860822 26.7145657,6.84848111 25.3121309,6.84848111 C23.2809059,6.84848111 21.5221655,8.04790735 20.6665549,9.79538024 L22.3932331,11.1732741 C22.8050073,9.90580822 23.9560672,8.96562396 25.3121309,8.96562396" id="Fill-14" fill="#E94235"></path></g></g></svg>