<?xml version="1.0" encoding="UTF-8"?>
<svg width="98px" height="36px" viewBox="0 0 98 36" version="1.1" xmlns="http://www.w3.org/2000/svg" xmlns:xlink="http://www.w3.org/1999/xlink">
    <!-- Generator: Sketch 52.6 (67491) - http://www.bohemiancoding.com/sketch -->
    <title>google-d</title>
    <desc>Created with Sketch.</desc>
    <g id="google-d" stroke="none" stroke-width="1" fill="none" fill-rule="evenodd">
        <g id="icon">
            <rect id="Rectangle" stroke="#000000" fill="#000000" x="0" y="0" width="98" height="36" rx="4"></rect>
            <path d="M47.7074545,18.0842037 L47.7074545,23.2915369 L46.0833333,23.2915369 L46.0833333,10.434394 L50.392191,10.434394 C51.4869918,10.434394 52.415061,10.8058977 53.1807182,11.5477743 C53.9590869,12.289651 54.3472222,13.1937228 54.3472222,14.2587335 C54.3472222,15.3484944 53.9590869,16.2584711 53.1807182,16.9880354 C52.4276493,17.7186049 51.497482,18.0831986 50.392191,18.0831986 L47.7074545,18.0831986 L47.7074545,18.0842037 Z M47.7074545,12.0147609 L47.7074545,16.5037112 L50.4269936,16.5037112 C51.074544,16.5037112 51.6102818,16.2820905 52.0343305,15.8391003 C52.4698566,15.396864 52.6871878,14.8691956 52.6871878,14.2587335 C52.6871878,13.6607093 52.4698566,13.1394483 52.0343305,12.6960813 C51.6102818,12.241407 51.074544,12.0137558 50.4269936,12.0137558 L47.7074545,12.0137558 L47.7074545,12.0147609 Z" id="Fill-1" fill="#FFFFFF" fill-rule="nonzero"></path>
            <path d="M57.9429132,14.034394 C59.0859718,14.034394 59.9870083,14.3561561 60.6483712,15.0009211 C61.3098515,15.6456861 61.6388889,16.5290737 61.6388889,17.6520767 L61.6388889,23.0083664 L60.1606864,23.0083664 L60.1606864,21.8027204 L60.0935168,21.8027204 C59.4551702,22.795306 58.6041586,23.2915369 57.5403649,23.2915369 C56.6333395,23.2915369 55.8725139,23.0083664 55.2634071,22.4410328 C54.652304,21.8727065 54.3472222,21.1642839 54.3472222,20.3116703 C54.3472222,19.4135161 54.6683918,18.6987651 55.3127275,18.1669208 C55.9569456,17.6350765 56.8168818,17.3684099 57.8917139,17.3684099 C58.8100125,17.3684099 59.5664933,17.5459808 60.1596296,17.90013 L60.1596296,17.5273675 C60.1596296,16.960158 59.9468474,16.4786937 59.5214004,16.0826025 C59.0950138,15.6860149 58.5982871,15.4887139 58.0262881,15.4887139 C57.1631813,15.4887139 56.4806812,15.8726444 55.9770261,16.6419945 L54.6151963,15.7368913 C55.3668624,14.6017277 56.4746923,14.034394 57.9429132,14.034394 M55.9428541,20.3476561 C55.9428541,20.7740248 56.1134791,21.1281741 56.4556687,21.4124614 C56.7978582,21.6955077 57.197236,21.8377135 57.6568549,21.8377135 C58.3071795,21.8377135 58.8851673,21.5832074 59.3949288,21.0751882 C59.9048077,20.5661763 60.1596296,19.9701782 60.1596296,19.2850843 C59.6780513,18.8821682 59.0056501,18.6817649 58.1436002,18.6817649 C57.5164092,18.6817649 56.9924389,18.8418394 56.5730982,19.1609956 C56.1536401,19.4802758 55.9428541,19.8747539 55.9428541,20.3476561" id="Fill-3" fill="#FFFFFF" fill-rule="nonzero"></path>
            <polygon id="Fill-5" fill="#FFFFFF" points="70.3199857 14.5613207 64.9054611 27.405861 63.2308836 27.405861 65.2414118 22.9118441 61.6795456 14.5613207 63.4435949 14.5613207 66.0175737 20.9657055 66.0523273 20.9657055 68.5558132 14.5613207"></polygon>
            <path d="M41.2222222,17.1366015 C41.2222222,16.596696 41.1800833,16.0758261 41.1002602,15.5772512 L34.4166667,15.5772512 L34.4166667,18.5299774 L38.2446863,18.5299774 C38.0804649,19.4925763 37.5835869,20.311496 36.8294207,20.8597458 L36.8294207,22.7772512 L39.1140724,22.7772512 C40.4516821,21.4424161 41.2222222,19.4692382 41.2222222,17.1366015" id="Fill-8" fill="#4285F4"></path>
            <path d="M34.5161684,24.3201084 C36.4550573,24.3201084 38.0872534,23.6435652 39.2777778,22.4768429 L36.9618997,20.5681684 C36.3173934,21.0295363 35.4871384,21.2990894 34.5161684,21.2990894 C32.6424503,21.2990894 31.0519927,19.9570344 30.4830306,18.1486798 L28.0972222,18.1486798 L28.0972222,20.1144575 C29.2794477,22.607791 31.7095576,24.3201084 34.5161684,24.3201084" id="Fill-10" fill="#34A853"></path>
            <path d="M30.5277778,18.2880399 C30.393112,17.8384429 30.3192266,17.3585857 30.3192266,16.8630288 C30.3192266,16.3679783 30.393112,15.8881211 30.5277778,15.4380176 L30.5277778,13.5201083 L28.3192362,13.5201083 C27.8668857,14.5254027 27.6111111,15.6604738 27.6111111,16.8630288 C27.6111111,18.0657103 27.8668857,19.2017943 28.3192362,20.2058227 L30.5277778,18.2880399 Z" id="Fill-12" fill="#FABB05"></path>
            <path d="M34.4526227,12.4139409 C35.4954199,12.4139409 36.4303788,12.7890126 37.1675741,13.5246721 L37.1675741,13.5258056 L39.1874076,11.4117764 C37.9606723,10.2165345 36.3614922,9.4825123 34.4526227,9.4825123 C31.6878997,9.4825123 29.2940586,11.1432563 28.1294775,13.5628342 L30.4796784,15.4706872 C31.0401488,13.7157345 32.6068693,12.4139409 34.4526227,12.4139409" id="Fill-14" fill="#E94235"></path>
        </g>
    </g>
</svg>