<svg width="56px" height="56px" viewBox="0 0 56 56" version="1.1" xmlns="http://www.w3.org/2000/svg" xmlns:xlink="http://www.w3.org/1999/xlink"><g id="instagram" stroke="none" stroke-width="1" fill="none" fill-rule="evenodd"><rect id="Rectangle" fill="#000000" fill-rule="nonzero" x="0" y="0" width="56" height="56"></rect><path d="M35.9104421,28.4935151 C35.9104421,24.4038748 32.5958111,21.0766706 28.4937469,21.0766706 C24.4041889,21.0766706 21.0770517,24.4038748 21.0770517,28.4935151 C21.0770517,32.595662 24.4041889,35.9108229 28.4937469,35.9108229 C32.5958111,35.9108229 35.9104421,32.595662 35.9104421,28.4935151 M35.77102,20.0733677 C35.1105025,20.0733677 34.5773638,20.6065171 34.5773638,21.2665848 C34.5773638,21.9275788 35.1105025,22.4607282 35.77102,22.4607282 C36.4315376,22.4607282 36.9646763,21.9275788 36.9646763,21.2665848 C36.9646763,20.6065171 36.4315376,20.0733677 35.77102,20.0733677 M22.4360689,18.3590446 L34.5643943,18.3590446 C36.812748,18.3590446 38.641446,20.1873162 38.641446,22.4357152 L38.641446,34.5642849 C38.641446,36.8122206 36.812748,38.6409554 34.5643943,38.6409554 L22.4360689,38.6409554 C20.1877152,38.6409554 18.3590172,36.8122206 18.3590172,34.5642849 L18.3590172,22.4357152 C18.3590172,20.1873162 20.1877152,18.3590446 22.4360689,18.3590446 M34.5643943,17 L22.4360689,17 C19.4512335,17 17,19.4378499 17,22.4357152 L17,34.5642849 C17,37.5487171 19.4512335,40 22.4360689,40 L34.5643943,40 C37.561736,40 40,37.5487171 40,34.5642849 L40,22.4357152 C40,19.4378499 37.561736,17 34.5643943,17 M22.6259793,28.4935151 C22.6259793,25.2547831 25.2550801,22.6131228 28.4937469,22.6131228 C31.7449199,22.6131228 34.3740207,25.2547831 34.3740207,28.4935151 C34.3740207,31.7447537 31.7449199,34.3739074 28.4937469,34.3739074 C25.2550801,34.3739074 22.6259793,31.7447537 22.6259793,28.4935151" id="icon" fill="#FFFFFF" fill-rule="nonzero"></path></g></svg>