<?xml version="1.0" encoding="utf-8"?>
<!-- Generator: Adobe Illustrator 23.0.4, SVG Export Plug-In . SVG Version: 6.00 Build 0)  -->
<svg version="1.1" id="Layer_1" xmlns="http://www.w3.org/2000/svg" xmlns:xlink="http://www.w3.org/1999/xlink" x="0px" y="0px"
	 viewBox="0 0 234 50" style="enable-background:new 0 0 234 50;" xml:space="preserve">
<style type="text/css">
	.st0{filter:url(#Adobe_OpacityMaskFilter);}
	.st1{fill:#FFFFFF;}
	.st2{mask:url(#mask-4_1_);}
</style>
<path d="M47.8,25.1L47.8,25.1c-0.5-0.5-6.1-5.9-12-5.9c-3,0-5.9,1.4-8.1,2.9l7.4-7.7l2.8,2.9l0.9-0.9l-6.4-6.6l-0.9,0.9l2.8,2.9
	l-7.4,7.7c1.4-2.3,2.7-5.3,2.7-8.5c0-6.1-5.2-11.9-5.7-12.4v0c0,0,0,0,0,0c0,0,0,0,0,0v0c-0.4,0.5-5.7,6.3-5.7,12.4
	c0,3.1,1.4,6.2,2.7,8.5l-7.4-7.7l2.8-2.9l-0.9-0.9l-6.4,6.6l0.9,0.9l2.8-2.9l7.4,7.7c-2.2-1.4-5.1-2.9-8.1-2.9
	c-5.9,0-11.5,5.4-11.9,5.9h0c0,0,0,0,0,0c0,0,0,0,0,0h0C0.5,25.6,6.1,31,12,31c3,0,5.9-1.4,8.1-2.9l-7.4,7.7L10,33l-0.9,0.9l6.4,6.6
	l0.9-0.9l-2.8-2.9l7.4-7.7c-1.4,2.3-2.7,5.3-2.7,8.5c0,6.1,5.2,11.9,5.7,12.4v0c0,0,0,0,0,0c0,0,0,0,0,0v0c0.4-0.5,5.7-6.3,5.7-12.4
	c0-3.1-1.4-6.2-2.7-8.5l7.4,7.7l-2.8,2.9l0.9,0.9l6.4-6.6L37.9,33l-2.8,2.9l-7.4-7.7c2.2,1.4,5.1,2.9,8.1,2.9
	C41.7,31,47.3,25.6,47.8,25.1L47.8,25.1C47.8,25.1,47.8,25.1,47.8,25.1C47.8,25.1,47.8,25.1,47.8,25.1z M12,29.2
	c-3.7,0-7.3-2.5-9.3-4.1c2-1.6,5.6-4.1,9.3-4.1s5.9,2.5,7.9,4.1C17.9,26.7,15.6,29.2,12,29.2z M27.9,37.5c0,3.8-2.4,7.6-4,9.7
	c-1.5-2-4-5.9-4-9.7c0-3.8,2.4-6.1,4-8.2C25.4,31.4,27.9,33.7,27.9,37.5z M22,23.2c1-1.1,2.7-1.1,3.7,0c1,1.1,1,2.8,0,3.9
	c-1,1.1-2.7,1.1-3.7,0C21,26,21,24.2,22,23.2z M23.9,20.8c-1.5-2-4-4.4-4-8.2c0-3.8,2.4-7.6,4-9.7c1.5,2,4,5.9,4,9.7
	C27.9,16.5,25.4,18.8,23.9,20.8z M35.8,29.2c-3.7,0-5.9-2.5-7.9-4.1c2-1.6,4.2-4.1,7.9-4.1c3.7,0,7.3,2.5,9.3,4.1
	C43.2,26.7,39.5,29.2,35.8,29.2z"/>
<polygon id="Fill-4" points="58,18 58,20.4 63.2,20.4 63.2,33 65.9,33 65.9,20.4 71,20.4 71,18 "/>
<polygon id="Fill-6" points="80,18 80,33 91,33 91,30.6 82.9,30.6 82.9,26.6 90,26.6 90,24.2 82.9,24.2 82.9,20.4 91,20.4 91,18 "/>
<path id="Fill-8" d="M113.3,23.3c0-3.3-2.3-5.3-6.1-5.3H102v15h2.7v-4.5h2.4c0.2,0,0.4,0,0.6,0l3.1,4.5h3.2l-3.6-5.1
	C112.3,27,113.3,25.4,113.3,23.3L113.3,23.3z M104.7,20.4h2.4c2.1,0,3.4,1.1,3.4,2.9c0,1.7-1.4,2.8-3.5,2.8h-2.3V20.4z"/>
<path id="Fill-10" d="M128.5,18L122,33h2.9l1.3-3h6.7l1.3,3h2.9l-6.5-15H128.5z M129.5,21.9l2.4,5.7h-4.8L129.5,21.9z"/>
<path id="Fill-12" d="M150.3,23.5c-2.2-0.6-2.9-1.1-2.9-2.1c0-1.1,0.9-1.8,2.5-1.8c1.4,0,2.4,0.3,3.5,1.1l0.2,0.2l1.3-2.1l-0.2-0.2
	c-1.2-1-2.8-1.5-4.8-1.5c-3.1,0-5.2,1.8-5.2,4.4c0,2.9,2.3,3.9,4.6,4.5c2.6,0.7,3.1,1.4,3.1,2.5c0,1.3-1,2-2.6,2
	c-1.5,0-3-0.5-4.1-1.5l-0.2-0.2l-1.4,2.3l0.2,0.2c1.5,1.1,3.3,1.7,5.6,1.7c3.1,0,5.2-1.9,5.2-4.7C155,25.2,152.7,24.1,150.3,23.5"/>
<path id="Fill-14" d="M170.6,18L164,33h2.9l1.3-3h6.7l1.3,3h2.9l-6.5-15H170.6z M171.5,21.9l2.4,5.7h-4.8L171.5,21.9z"/>
<polygon id="Fill-16" points="187,17 187,32.8 189.8,32.8 189.8,22.1 199.3,33 201,33 201,17.1 198.2,17.1 198.2,27.9 188.8,17 "/>
<path id="Fill-18" d="M216.6,18L210,33h2.9l1.3-3h6.7l1.3,3h2.9l-6.5-15H216.6z M217.5,21.9l2.4,5.7h-4.8L217.5,21.9z"/>
<polygon id="Fill-20" points="226.5,17.8 225,17.8 225,17 229,17 229,17.8 227.5,17.8 227.5,21 226.5,21 "/>
<g id="Clip-23">
</g>
<defs>
	<filter id="Adobe_OpacityMaskFilter" filterUnits="userSpaceOnUse" x="229.1" y="17.1" width="4.8" height="3.7">
		<feColorMatrix  type="matrix" values="1 0 0 0 0  0 1 0 0 0  0 0 1 0 0  0 0 0 1 0"/>
	</filter>
</defs>
<mask maskUnits="userSpaceOnUse" x="229.1" y="17.1" width="4.8" height="3.7" id="mask-4_1_">
	<g class="st0">
		<polygon id="path-3_1_" class="st1" points="229.1,17.1 233.9,17.1 233.9,20.8 229.1,20.8 		"/>
	</g>
</mask>
<polygon id="Fill-22" class="st2" points="233,20.8 233,18.6 231.7,20.4 231.3,20.4 230.1,18.6 230.1,20.8 229.1,20.8 229.1,17.1 
	230,17.1 231.5,19.4 233.1,17.1 233.9,17.1 233.9,20.8 "/>
</svg>
