<svg class="color-fill" height="50px" viewBox="0 0 112 50" version="1.1" xmlns="http://www.w3.org/2000/svg" xmlns:xlink="http://www.w3.org/1999/xlink"> <defs> <polygon id="path-1" points="0.0551889535 0.115581395 7.53193314 0.115581395 7.53193314 10.6104651 0.0551889535 10.6104651"></polygon> </defs> <g id="Mobile" stroke="none" stroke-width="1" fill="none" fill-rule="evenodd"> <g id="Home" transform="translate(-136.000000, -107.000000)"> <g id="02_Mobile-Navigation" transform="translate(0.000000, 33.000000)"> <g id="Logo" transform="translate(136.000000, 74.000000)"> <polygon id="Fill-1" fill="currentColor" points="1.15463195e-14 39.498939 1.15463195e-14 41.1511192 3.375 41.1511192 3.375 49.742689 5.1940407 49.742689 5.1940407 41.1511192 8.51177326 41.1511192 8.51177326 39.498939"></polygon> <polygon id="Fill-2" fill="currentColor" points="15.2996076 39.498939 15.2996076 49.742689 22.2528052 49.742689 22.2528052 48.1041715 17.1054215 48.1041715 17.1054215 45.3822238 21.6041134 45.3822238 21.6041134 43.7314971 17.1054215 43.7314971 17.1054215 41.1511192 22.237689 41.1511192 22.237689 39.498939"></polygon> <g id="Group-18" transform="translate(29.505814, 0.013517)"> <path d="M7.69369186,43.1101163 C7.69369186,40.8742151 6.13337209,39.4855523 3.6205814,39.4855523 L0.0951453488,39.4855523 L0.0951453488,49.729157 L1.90226744,49.729157 L1.90226744,46.6777035 L3.49412791,46.6777035 C3.62668605,46.6777035 3.75444767,46.6777035 3.88235465,46.6701453 L5.97072674,49.729157 L8.1509593,49.729157 L5.7330814,46.223343 C6.98206395,45.6349709 7.69369186,44.5124419 7.69369186,43.1101163 L7.69369186,43.1101163 Z M1.90226744,41.1224709 L3.53627907,41.1224709 C4.97319767,41.1224709 5.83104651,41.8657849 5.83104651,43.1101163 C5.83104651,44.2822093 4.90255814,45.0390407 3.46709302,45.0390407 L1.90226744,45.0390407 L1.90226744,41.1224709 Z" id="Fill-3" fill="currentColor"></path> <path d="M18.2104797,39.4854797 L13.8107703,49.7292297 L15.7353343,49.7292297 L16.5944913,47.6466715 L21.1053924,47.6466715 L21.9495785,49.7292297 L23.8876599,49.7292297 L19.516439,39.4854797 L18.2104797,39.4854797 Z M18.8498692,42.157718 L20.4524855,46.0382413 L17.2338808,46.0382413 L18.8498692,42.157718 Z" id="Fill-5" fill="currentColor"></path> <g id="Group-9" transform="translate(28.343023, 39.244186)"> <mask id="mask-2" fill="white"> <use xlink:href="#path-1"></use> </mask> <g id="Clip-8"></g> <path d="M4.31943314,4.35264535 C2.79515988,3.95540698 2.33018895,3.62895349 2.33018895,2.95177326 C2.33018895,2.20090116 2.96667151,1.75409884 4.03498547,1.75409884 C5.00547965,1.75409884 5.66609012,1.96020349 6.38818314,2.49130814 L6.54486919,2.60424419 L7.42045058,1.21238372 L7.29704942,1.11311047 C6.47844477,0.442034884 5.411875,0.115581395 4.03498547,0.115581395 C1.96013081,0.115581395 0.509549419,1.31005814 0.509549419,3.0209593 C0.509549419,4.93781977 2.08498547,5.59988372 3.62582849,5.99421512 C5.37103198,6.42139535 5.71114826,6.91790698 5.71114826,7.63418605 C5.71114826,8.47241279 5.05373547,8.97343023 3.94922965,8.97343023 C2.92917151,8.97343023 1.93454942,8.63171512 1.15053779,8.01354651 L0.994142442,7.89 L0.0551889535,9.3780814 L0.186148256,9.4775 C1.17917151,10.2298256 2.4490843,10.6104942 3.96434593,10.6104942 C6.09777616,10.6104942 7.53193314,9.36921512 7.53193314,7.52139535 C7.53193314,5.47953488 5.98803779,4.79188953 4.31943314,4.35264535" id="Fill-7" fill="currentColor" mask="url(#mask-2)"></path> </g> <path d="M45.4649419,39.4854797 L41.0639244,49.7292297 L42.988343,49.7292297 L43.8459012,47.6466715 L48.3568023,47.6466715 L49.2025872,49.7292297 L51.1390698,49.7292297 L46.769593,39.4854797 L45.4649419,39.4854797 Z M46.1014244,42.157718 L47.7053488,46.0382413 L44.4868895,46.0382413 L46.1014244,42.157718 Z" id="Fill-10" fill="currentColor"></path> <polygon id="Fill-12" fill="currentColor" points="57.1746076 39.3879651 57.1746076 49.7280814 58.9530959 49.7280814 58.9530959 42.7388372 64.9747529 49.8392733 66.0792587 49.8392733 66.0792587 39.4857849 64.288561 39.4857849 64.288561 46.4869477 58.2940843 39.3879651"></polygon> <path d="M76.7819477,39.4854797 L72.3809302,49.7292297 L74.3053488,49.7292297 L75.162907,47.6466715 L79.6738081,47.6466715 L80.519593,49.7292297 L82.4560756,49.7292297 L78.0865988,39.4854797 L76.7819477,39.4854797 Z M77.4184302,42.157718 L79.0223547,46.0382413 L75.8024419,46.0382413 L77.4184302,42.157718 Z" id="Fill-14" fill="currentColor"></path> <path d="M41.7446366,16.6956541 L41.7213808,16.6956541 C41.4085901,16.3848983 37.682718,12.7622238 33.7362064,12.7622238 C31.7261773,12.7622238 29.7757413,13.7020494 28.3019041,14.6661483 L33.2392587,9.54899709 L35.082718,11.4594622 L35.6652762,10.8555378 L31.3949273,6.43068314 L30.8123692,7.03460756 L32.6559738,8.94507267 L27.7183285,14.0613517 C28.6488517,12.5341715 29.5562645,10.5130959 29.5562645,8.42952035 C29.5562645,4.34071221 26.0591715,0.479956395 25.7594622,0.155973837 L25.7594622,0.13184593 C25.7594622,0.13184593 25.7558285,0.135479651 25.7482703,0.143909884 C25.7410029,0.135479651 25.7372238,0.13184593 25.7372238,0.13184593 L25.7372238,0.155973837 C25.4376599,0.479956395 21.9405669,4.34071221 21.9405669,8.42952035 C21.9405669,10.5130959 22.8478343,12.5341715 23.7785029,14.0613517 L18.8408576,8.94507267 L20.6841715,7.03460756 L20.1017587,6.43068314 L15.8314099,10.8555378 L16.413968,11.4594622 L18.2574273,9.54899709 L23.1949273,14.6651308 C21.7209448,13.7020494 19.7703634,12.7622238 17.7604797,12.7622238 C13.8149855,12.7622238 10.0880959,16.3848983 9.77545058,16.6956541 L9.75219477,16.6956541 L9.76425872,16.707718 C9.75582849,16.7152762 9.75219477,16.7189099 9.75219477,16.7189099 L9.77545058,16.7189099 C10.0880959,17.029811 13.8149855,20.6533576 17.7604797,20.6533576 C19.7703634,20.6533576 21.7209448,19.7125145 23.1949273,18.7494331 L18.2574273,23.8655669 L16.413968,21.9552471 L15.8314099,22.5591715 L20.1017587,26.9838808 L20.6841715,26.3799564 L18.8408576,24.4694913 L23.7785029,19.3533576 C22.8478343,20.8803924 21.9405669,22.901468 21.9405669,24.9850436 C21.9405669,29.0738517 25.4376599,32.9348983 25.7372238,33.2585901 L25.7372238,33.2828634 C25.7372238,33.2828634 25.7410029,33.2790843 25.7482703,33.2706541 C25.7558285,33.2790843 25.7594622,33.2828634 25.7594622,33.2828634 L25.7594622,33.2585901 C26.0591715,32.9348983 29.5562645,29.0738517 29.5562645,24.9850436 C29.5562645,22.901468 28.6488517,20.8803924 27.7183285,19.3533576 L32.6559738,24.4694913 L30.8123692,26.3799564 L31.3949273,26.9838808 L35.6652762,22.5591715 L35.082718,21.9552471 L33.2392587,23.8655669 L28.3019041,18.7494331 C29.7757413,19.7125145 31.7261773,20.6533576 33.7362064,20.6533576 C37.682718,20.6533576 41.4085901,17.029811 41.7213808,16.7189099 L41.7446366,16.7189099 C41.7446366,16.7189099 41.7410029,16.7152762 41.7325727,16.707718 L41.7446366,16.6956541 M17.7604797,19.4520494 C15.3037936,19.4520494 12.8527762,17.7732703 11.5444913,16.707718 C12.8527762,15.6412936 15.3037936,13.9626599 17.7604797,13.9626599 C20.2171657,13.9626599 21.7078634,15.6412936 23.0171657,16.707718 C21.7078634,17.7732703 20.2171657,19.4520494 17.7604797,19.4520494 M28.3966715,24.9850436 C28.3966715,27.5311192 26.7774855,30.0706541 25.7482703,31.426468 C24.7200727,30.0706541 23.1000145,27.5311192 23.1000145,24.9850436 C23.1000145,22.4380959 24.7200727,20.8934738 25.7482703,19.5376599 C26.7774855,20.8934738 28.3966715,22.4380959 28.3966715,24.9850436 M24.5078634,15.422689 C25.1928924,14.7126599 26.303939,14.7126599 26.9886773,15.422689 C27.673561,16.1317006 27.673561,17.2828634 26.9886773,17.9928924 C26.303939,18.7020494 25.1928924,18.7020494 24.5078634,17.9928924 C23.8229797,17.2828634 23.8229797,16.1317006 24.5078634,15.422689 M25.7482703,13.8769041 C24.7200727,12.5212355 23.1000145,10.976468 23.1000145,8.42952035 C23.1000145,5.88344477 24.7200727,3.34492733 25.7482703,1.98824128 C26.7774855,3.34492733 28.3966715,5.88344477 28.3966715,8.42952035 C28.3966715,10.976468 26.7774855,12.5212355 25.7482703,13.8769041 M33.7362064,19.4520494 C31.2786483,19.4520494 29.7878052,17.7732703 28.4795203,16.707718 C29.7878052,15.6412936 31.2786483,13.9626599 33.7362064,13.9626599 C36.1928924,13.9626599 38.6440552,15.6412936 39.9523401,16.707718 C38.6430378,17.7732703 36.1928924,19.4520494 33.7362064,19.4520494" id="Fill-16" fill="currentColor"></path> </g> </g> </g> </g> </g> </svg>