<svg viewBox="60 0 245 60" class="color-fill"><g transform="translate(0 0)"><path d="m117 29.98h-0.04003c-0.53758-0.54363-6.943-6.8817-13.728-6.8817-3.4555 0-6.8085 1.6442-9.3428 3.3308l8.4886-8.9527 3.1689 3.3424 1.0014-1.0567-7.3413-7.7414-1.0014 1.0567 3.1691 3.3424-8.4884 8.9513c1.5998-2.6717 3.1597-6.208 3.1597-9.8531 0-7.1538-6.012-13.909-6.5271-14.475v-0.042349s-0.0063324 0.0066746-0.019223 0.021405c-0.012665-0.01473-0.019223-0.021405-0.019223-0.021405v0.042349c-0.51496 0.56665-6.5269 7.3216-6.5269 14.475 0 3.645 1.5596 7.1814 3.1597 9.8531l-8.4884-8.9513 3.1689-3.3424-1.0014-1.0567-7.3411 7.7414 1.0012 1.0567 3.1691-3.3424 8.4884 8.9511c-2.5341-1.685-5.8871-3.3292-9.3426-3.3292-6.7832 0-13.19 6.3381-13.728 6.8817h-0.039804s0.0063324 0.0064445 0.02058 0.021175c-0.014248 0.013119-0.02058 0.019563-0.02058 0.019563h0.039804c0.53758 0.54386 6.9446 6.8833 13.728 6.8833 3.4555 0 6.8085-1.6459 9.3426-3.3308l-8.4884 8.9511-3.1691-3.3426-1.0012 1.0567 7.3411 7.7416 1.0014-1.0567-3.1689-3.3424 8.4884-8.9511c-1.6001 2.6717-3.1597 6.2076-3.1597 9.8531 0 7.1538 6.012 13.908 6.5269 14.475v0.042579s0.0065586-0.0064444 0.019223-0.021174c0.012891 0.01473 0.019223 0.021174 0.019223 0.021174v-0.042579c0.51519-0.56642 6.5271-7.3211 6.5271-14.475 0-3.6455-1.5598-7.1814-3.1597-9.8531l8.4884 8.9511-3.1691 3.3424 1.0014 1.0567 7.3413-7.7416-1.0014-1.0567-3.1689 3.3426-8.4886-8.9511c2.5343 1.685 5.8873 3.3308 9.3428 3.3308 6.7845 0 13.19-6.3395 13.728-6.8833h0.04003s-0.006332-0.0064445-0.020807-0.019563c0.014475-0.01473 0.020807-0.021175 0.020807-0.021175m-41.232 4.8223c-4.2235 0-8.4373-2.937-10.686-4.8011 2.2491-1.8657 6.4629-4.8027 10.686-4.8027 4.2233 0 6.7861 2.937 9.037 4.8027-2.2509 1.864-4.8138 4.8011-9.037 4.8011m18.285 9.6807c0 4.4542-2.7836 8.8972-4.553 11.269-1.7676-2.3722-4.553-6.8152-4.553-11.269 0-4.4561 2.7854-7.1586 4.553-9.5308 1.7695 2.3722 4.553 5.0747 4.553 9.5308m-6.6855-16.73c1.1776-1.2422 3.0875-1.2422 4.2651 0 1.1774 1.2406 1.1774 3.2547 0 4.4968-1.1776 1.2406-3.0875 1.2406-4.2651 0-1.1774-1.2422-1.1774-3.2563 0-4.4968m2.1324-2.7041c-1.7676-2.372-4.553-5.0747-4.553-9.5306 0-4.4545 2.7854-8.8958 4.553-11.269 1.7695 2.3736 4.553 6.815 4.553 11.269 0 4.4559-2.7836 7.1586-4.553 9.5306m13.733 9.7536c-4.2251 0-6.7879-2.937-9.037-4.8011 2.2491-1.8657 4.812-4.8027 9.037-4.8027 4.2233 0 8.4373 2.937 10.686 4.8027-2.2507 1.864-6.4631 4.8011-10.686 4.8011"></path><g transform="translate(130 22)"> <polygon points="-2.2749e-5 0.28173 -2.2749e-5 2.8816 5.2672 2.8816 5.2672 16.402 8.1065 16.402 8.1065 2.8816 13.285 2.8816 13.285 0.28173"></polygon><polygon points="23.878 0.28173 23.878 16.402 34.73 16.402 34.73 13.824 26.696 13.824 26.696 9.5402 33.718 9.5402 33.718 6.9425 26.696 6.9425 26.696 2.8816 34.706 2.8816 34.706 0.28173"></polygon><path d="m58.057 5.986c0-3.5189-2.4351-5.7043-6.3569-5.7043h-5.5022v16.121h2.8205v-4.8021h2.4842c0.20702 0 0.40653 0 0.60627-0.011928l3.2593 4.814h3.4029l-3.7739-5.5173c1.9489-0.92582 3.0598-2.6924 3.0598-4.8991zm-9.0386-3.1282h2.5502c2.2426 0 3.5812 1.1699 3.5812 3.1282 0 1.8445-1.4489 3.0355-3.6893 3.0355h-2.4422v-6.1637z"></path><path d="m74.471 0.28173l-6.8665 16.121h3.0036l1.3409-3.2773h7.0403l1.3174 3.2773h3.0245l-6.8219-16.121h-2.0383zm0.99825 4.2054l2.5008 6.1068h-5.0231l2.5222-6.1068z"></path><path d="m97.026 6.7517c-2.3787-0.62509-3.1044-1.1389-3.1044-2.2044 0-1.1816 0.99347-1.8849 2.6605-1.8849 1.5147 0 2.5457 0.32436 3.6727 1.1603l0.24456 0.17778 1.3666-2.1905-0.19246-0.15644c-1.2776-1.0559-2.9426-1.5697-5.0913-1.5697-3.2384 0-5.5022 1.8801-5.5022 4.5724 0 3.0167 2.4588 4.0586 4.8634 4.6789 2.7242 0.67234 3.255 1.4541 3.255 2.5811 0 1.319-1.0262 2.1074-2.75 2.1074-1.5922 0-3.1444-0.53769-4.3679-1.5108l-0.2441-0.19406-1.4655 2.3418 0.20452 0.15622c1.5497 1.1839 3.5316 1.7831 5.8964 1.7831 3.3298 0 5.5679-1.9535 5.5679-4.8615 0-3.2133-2.4094-4.2951-5.0137-4.9867"></path><path d="m117.01 0.28173l-6.8687 16.121h3.0034l1.3386-3.2773h7.0403l1.3199 3.2773h3.0223l-6.8198-16.121h-2.0358zm0.99324 4.2054l2.5033 6.1068h-5.0231l2.5197-6.1068z"></path><path d="m165.88 0.28173l-6.8687 16.121h3.0034l1.3388-3.2773h7.04l1.3199 3.2773h3.0223l-6.8196-16.121h-2.0361zm0.99324 4.2054l2.5033 6.1068h-5.0253l2.522-6.1068z"></path><polygon points="135.28 0.12829 135.28 16.401 138.06 16.401 138.06 5.4015 147.46 16.576 149.18 16.576 149.18 0.28221 146.39 0.28221 146.39 11.3 137.03 0.12829"></polygon></g></svg>
