<svg width="23px" height="23px" viewBox="0 0 23 23" version="1.1" xmlns="http://www.w3.org/2000/svg" xmlns:xlink="http://www.w3.org/1999/xlink"><g id="m-bag" stroke="none" stroke-width="1" fill="none" fill-rule="evenodd"><path d="M5.15677788,7.76315789 C5.13257955,7.76315789 5.10841313,7.76491457 5.08446917,7.76841407 C4.8112297,7.80834907 4.62209906,8.06222714 4.66203406,8.33546661 L6.36972637,20.0196771 C6.40562218,20.26528 6.61625801,20.4473684 6.86447019,20.4473684 L17.1355298,20.4473684 C17.383742,20.4473684 17.5943778,20.26528 17.6302736,20.0196771 L19.3379659,8.33546661 C19.3414654,8.31152265 19.3432221,8.28735623 19.3432221,8.26315789 C19.3432221,7.98701552 19.1193645,7.76315789 18.8432221,7.76315789 L5.15677788,7.76315789 Z" id="Rectangle" stroke="#000000"></path><path d="M8.08251953,7.76660156 C8.76627604,4.25782963 10.0996094,2.50344367 12.0825195,2.50344367 C14.0654297,2.50344367 15.398763,4.25782963 16.0825195,7.76660156 L8.08251953,7.76660156 Z" id="Path-6" stroke="#000000"></path></g></svg>