<?xml version="1.0" encoding="utf-8"?>
<!-- Generator: Adobe Illustrator 23.0.4, SVG Export Plug-In . SVG Version: 6.00 Build 0)  -->
<svg version="1.1" id="Layer_1" xmlns="http://www.w3.org/2000/svg" xmlns:xlink="http://www.w3.org/1999/xlink" x="0px" y="0px"
	 viewBox="0 0 29 23" style="enable-background:new 0 0 29 23;" xml:space="preserve">
<g>
	<path d="M27.4,0.3H1.6C1,0.3,0.5,0.9,0.5,1.5S1,2.7,1.6,2.7h25.8c0.6,0,1.1-0.5,1.1-1.2S28,0.3,27.4,0.3z"/>
	<path d="M27.4,10.3H1.6c-0.6,0-1.1,0.5-1.1,1.2s0.5,1.2,1.1,1.2h25.8c0.6,0,1.1-0.5,1.1-1.2S28,10.3,27.4,10.3z"/>
	<path d="M27.4,20.3H1.6c-0.6,0-1.1,0.5-1.1,1.2s0.5,1.2,1.1,1.2h25.8c0.6,0,1.1-0.5,1.1-1.2S28,20.3,27.4,20.3z"/>
</g>
</svg>
