<?xml version="1.0" encoding="UTF-8"?>
<svg width="98px" height="36px" viewBox="0 0 98 36" version="1.1" xmlns="http://www.w3.org/2000/svg" xmlns:xlink="http://www.w3.org/1999/xlink">
    <!-- Generator: Sketch 52.6 (67491) - http://www.bohemiancoding.com/sketch -->
    <title>paypal-d</title>
    <desc>Created with Sketch.</desc>
    <g id="paypal-d" stroke="none" stroke-width="1" fill="none" fill-rule="evenodd">
        <g id="icon">
            <rect id="Rectangle" stroke="#FFC200" fill="#FFC200" x="0" y="0" width="98" height="36" rx="4"></rect>
            <path d="M68.6381396,12.96 L64.7717439,12.96 C64.5443089,12.96 64.3168738,13.2025263 64.2031564,13.4450526 L62.6111111,24.1162105 C62.6111111,24.3587367 62.7248287,24.48 62.9522637,24.48 L64.999179,24.48 C65.226614,24.48 65.3403316,24.3587367 65.3403316,24.1162105 L65.7952017,21.0846315 C65.7952017,20.8421052 66.0226367,20.5995789 66.3637892,20.5995789 L67.6146818,20.5995789 C70.2301849,20.5995789 71.7085125,19.2656842 72.049665,16.5978947 C72.2771001,15.5065263 72.049665,14.536421 71.5947949,13.9301053 C70.9124898,13.3237895 69.8890322,12.96 68.6381396,12.96 M69.0930097,16.9616842 C68.8655746,18.4168421 67.8421169,18.4168421 66.8186593,18.4168421 L66.1363541,18.4168421 L66.5912242,15.6277895 C66.5912242,15.5065263 66.7049418,15.3852631 66.9323769,15.3852631 L67.1598119,15.3852631 C67.8421169,15.3852631 68.524422,15.3852631 68.8655746,15.8703158 C69.0930097,15.9915789 69.0930097,16.3553684 69.0930097,16.9616842" id="Shape" fill="#139AD6" fill-rule="nonzero"></path>
            <path d="M79.838659,17.4981818 L77.9710729,17.4981818 C77.8543488,17.4981818 77.6209005,17.6072727 77.6209005,17.7163636 L77.5041764,18.2618182 L77.3874523,18.0436363 C76.9205557,17.4981818 76.1034868,17.28 75.1696938,17.28 C73.0686594,17.28 71.2010735,18.8072727 70.850901,20.88 C70.6174528,21.970909 70.9676251,22.9527272 71.5512458,23.6072727 C72.1348664,24.2618181 72.9519353,24.48 74.0024525,24.48 C75.7533145,24.48 76.6871075,23.4981818 76.6871075,23.4981818 L76.5703834,24.0436363 C76.5703834,24.2618181 76.6871075,24.370909 76.9205557,24.370909 L78.6714177,24.370909 C78.9048659,24.370909 79.1383141,24.1527273 79.2550384,23.9345453 L80.3055556,17.8254545 C80.1888313,17.7163636 80.0721072,17.4981818 79.838659,17.4981818 M77.1540039,20.9890909 C76.9205557,21.970909 76.1034868,22.7345454 74.9362455,22.7345454 C74.352625,22.7345454 73.8857284,22.5163636 73.6522801,22.2981818 C73.4188319,21.970909 73.3021078,21.5345454 73.3021078,20.9890909 C73.4188319,20.0072727 74.352625,19.2436363 75.4031421,19.2436363 C75.9867627,19.2436363 76.3369352,19.4618182 76.6871075,19.68 C77.1540039,20.0072727 77.2707282,20.5527272 77.1540039,20.9890909" id="Shape" fill="#139AD6" fill-rule="nonzero"></path>
            <path d="M63.6691462,17.28 L61.6325236,17.28 C61.392921,17.28 61.2731197,17.3958621 61.1533183,17.5117241 L58.5176893,21.4510345 L57.3196761,17.7434483 C57.1998748,17.5117241 57.0800735,17.3958621 56.7206695,17.3958621 L54.8038484,17.3958621 C54.5642458,17.3958621 54.4444444,17.6275862 54.4444444,17.8593103 L56.6008682,24.0000001 L54.5642458,26.7806896 C54.4444444,27.0124139 54.5642458,27.36 54.8038484,27.36 L56.7206695,27.36 C56.9602722,27.36 57.0800735,27.244138 57.1998748,27.1282759 L63.7889475,17.9751724 C64.1483515,17.6275862 63.9087488,17.28 63.6691462,17.28" id="Path" fill="#263B80"></path>
            <path d="M81.8935185,13.2489054 L80.3055556,24.1177066 C80.3055556,24.3592354 80.4189815,24.48 80.6458333,24.48 L82.2337962,24.48 C82.4606481,24.48 82.6875,24.238471 82.8009259,23.9969421 L84.3888889,13.3696698 C84.3888889,13.1281409 84.275463,13.0073765 84.048611,13.0073765 L82.2337962,13.0073765 C82.1203703,12.886612 82.0069444,13.0073765 81.8935185,13.2489054" id="Path" fill="#139AD6"></path>
            <path d="M27.6731273,9.97859154 C26.9000287,9.08619718 25.4642742,8.64 23.4763065,8.64 L17.9541738,8.64 C17.6228459,8.64 17.2915179,8.97464789 17.1810753,9.30929578 L14.9722222,23.9222535 C14.9722222,24.2569014 15.1931075,24.48 15.4139928,24.48 L18.8377151,24.48 L19.7212563,19.0140845 L19.7212563,19.2371831 C19.8316989,18.9025352 20.1630269,18.5678873 20.4943548,18.5678873 L22.1509946,18.5678873 C25.3538316,18.5678873 27.7835699,17.2292958 28.5566684,13.548169 C28.5566684,13.4366197 28.5566684,13.3250704 28.5566684,13.2135211 C28.4462259,13.2135211 28.4462259,13.2135211 28.5566684,13.2135211 C28.6671111,11.7633803 28.4462259,10.8709859 27.6731273,9.97859154" id="Path" fill="#263B80"></path>
            <path d="M28.6694231,12.96 C28.6694231,13.0810084 28.6694231,13.2020168 28.6694231,13.3230252 C27.9216778,17.4373109 25.5716213,18.7684034 22.4738196,18.7684034 L20.8715083,18.7684034 C20.5510461,18.7684034 20.2305838,19.1314286 20.1237631,19.4944538 L19.0555556,26.8759664 C19.0555556,27.1179832 19.1623763,27.36 19.4828386,27.36 L22.2601781,27.36 C22.5806403,27.36 22.9011026,27.1179832 22.9011026,26.754958 L22.9011026,26.6339497 L23.4352063,22.8826891 L23.4352063,22.6406723 C23.4352063,22.2776471 23.7556686,22.0356303 24.0761308,22.0356303 L24.5034138,22.0356303 C27.1739326,22.0356303 29.3103476,20.8255463 29.8444513,17.1952941 C30.0580928,15.7431933 29.9512721,14.4121009 29.3103476,13.565042 C29.2035268,13.3230252 28.9898853,13.0810084 28.6694231,12.96" id="Path" fill="#139AD6"></path>
            <path d="M42.7770284,12.96 L38.9106328,12.96 C38.6831978,12.96 38.4557628,13.2025263 38.3420452,13.4450526 L36.75,24.1162105 C36.75,24.3587368 36.8637175,24.48 37.0911526,24.48 L38.9106328,24.48 C39.1380679,24.48 39.3655029,24.2374737 39.4792204,23.9949474 L39.9340905,21.0846316 C39.9340905,20.8421053 40.1615255,20.599579 40.5026781,20.599579 L41.7535707,20.599579 C44.3690736,20.599579 45.8474014,19.2656842 46.1885539,16.5978947 C46.4159889,15.5065263 46.1885539,14.5364211 45.7336838,13.9301053 C45.0513787,13.3237895 44.1416386,12.96 42.7770284,12.96 M43.2318985,16.9616842 C43.0044634,18.4168421 41.9810058,18.4168421 40.9575481,18.4168421 L40.3889605,18.4168421 L40.8438306,15.6277895 C40.8438306,15.5065263 40.9575481,15.3852632 41.1849832,15.3852632 L41.4124182,15.3852632 C42.0947233,15.3852632 42.7770284,15.3852632 43.118181,15.8703158 C43.2318985,15.991579 43.345616,16.3553684 43.2318985,16.9616842" id="Shape" fill="#263B80" fill-rule="nonzero"></path>
            <path d="M53.9775479,16.1018182 L52.1099618,16.1018182 C51.9932377,16.1018182 51.7597895,16.2327273 51.7597895,16.3636364 L51.6430654,17.0181818 L51.5263412,16.7563636 C51.0594446,16.1018182 50.2423757,15.84 49.3085827,15.84 C47.2075484,15.84 45.3399623,17.6727273 44.9897899,20.16 C44.7563417,21.4690909 45.1065141,22.6472727 45.6901347,23.4327273 C46.2737553,24.2181818 47.0908243,24.48 48.1413414,24.48 C49.8922033,24.48 50.8259965,23.3018182 50.8259965,23.3018182 L50.7092723,23.9563636 C50.7092723,24.2181818 50.8259965,24.3490909 51.0594446,24.3490909 L52.8103067,24.3490909 C53.0437548,24.3490909 53.2772031,24.0872727 53.3939273,23.8254545 L54.4444444,16.4945455 C54.3277203,16.3636364 54.094272,16.1018182 53.9775479,16.1018182 M51.2928929,20.2909091 C51.0594446,21.4690909 50.2423757,22.3854545 49.0751345,22.3854545 C48.4915138,22.3854545 48.0246173,22.1236364 47.791169,21.8618182 C47.5577208,21.4690909 47.4409966,20.9454545 47.4409966,20.2909091 C47.5577208,19.1127273 48.4915138,18.1963636 49.542031,18.1963636 C50.1256516,18.1963636 50.475824,18.4581818 50.8259965,18.72 C51.1761688,19.1127273 51.2928929,19.7672727 51.2928929,20.2909091" id="Shape" fill="#263B80" fill-rule="nonzero"></path>
            <path d="M27.5246914,13.32 C27.4070645,13.32 27.2894376,13.2 27.1718107,13.2 C27.0541839,13.2 26.936557,13.2 26.8189301,13.08 C26.3484225,12.96 25.877915,12.96 25.2897806,12.96 L20.702332,12.96 C20.5847051,12.96 20.4670782,12.96 20.3494513,13.08 C20.1141975,13.2 19.9965706,13.44 19.9965706,13.68 L19.0555556,19.92 L19.0555556,20.16 C19.1731825,19.8 19.5260631,19.44 19.8789438,19.44 L21.6433471,19.44 C25.0545268,19.44 27.6423183,18 28.4657065,14.04 C28.4657065,13.92 28.4657065,13.8 28.5833333,13.68 C28.3480796,13.56 28.2304527,13.44 27.9951989,13.44 C27.6423183,13.32 27.6423183,13.32 27.5246914,13.32" id="Path" fill="#232C65"></path>
        </g>
    </g>
</svg>