<svg width="72px" height="26px" viewBox="0 0 72 26" version="1.1" xmlns="http://www.w3.org/2000/svg" xmlns:xlink="http://www.w3.org/1999/xlink"><g id="paypal-m" stroke="none" stroke-width="1" fill="none" fill-rule="evenodd"><g id="icon"><rect id="Rectangle" stroke="#FFC200" fill="#FFC200" x="0" y="0" width="72" height="26" rx="4"></rect><path d="M50.4280209,9.36 L47.5874037,9.36 C47.4203086,9.36 47.2532134,9.5351579 47.1696659,9.71031579 L46,17.4172631 C46,17.592421 46.0835476,17.68 46.2506427,17.68 L47.7544988,17.68 C47.921594,17.68 48.0051416,17.592421 48.0051416,17.4172631 L48.3393318,15.2277894 C48.3393318,15.0526315 48.506427,14.8774736 48.7570696,14.8774736 L49.6760928,14.8774736 C51.5976868,14.8774736 52.6838051,13.9141052 52.9344478,11.9873684 C53.1015429,11.1991579 52.9344478,10.4985263 52.6002575,10.0606316 C52.0989721,9.62273685 51.3470441,9.36 50.4280209,9.36 M50.7622112,12.2501052 C50.595116,13.3010526 49.8431879,13.3010526 49.0912599,13.3010526 L48.5899745,13.3010526 L48.9241647,11.2867368 C48.9241647,11.1991579 49.0077124,11.1115789 49.1748075,11.1115789 L49.3419026,11.1115789 C49.8431879,11.1115789 50.3444733,11.1115789 50.595116,11.4618947 C50.7622112,11.5494737 50.7622112,11.8122105 50.7622112,12.2501052" id="Shape" fill="#139AD6" fill-rule="nonzero"></path><path d="M58.6569739,12.6375758 L57.2848699,12.6375758 C57.1991134,12.6375758 57.0276004,12.7163636 57.0276004,12.7951515 L56.9418439,13.1890909 L56.8560874,13.0315151 C56.5130613,12.6375758 55.9127658,12.48 55.2267138,12.48 C53.6830967,12.48 52.3109928,13.5830303 52.0537232,15.08 C51.8822102,15.8678788 52.1394797,16.5769697 52.5682622,17.049697 C52.9970447,17.5224242 53.5973402,17.68 54.3691488,17.68 C55.6554963,17.68 56.3415484,16.970909 56.3415484,16.970909 L56.2557919,17.3648484 C56.2557919,17.5224242 56.3415484,17.6012121 56.5130613,17.6012121 L57.7994089,17.6012121 C57.9709219,17.6012121 58.1424349,17.4436363 58.2281915,17.2860605 L59,12.8739394 C58.9142434,12.7951515 58.8284869,12.6375758 58.6569739,12.6375758 M56.6845743,15.1587879 C56.5130613,15.8678788 55.9127658,16.4193939 55.0552008,16.4193939 C54.6264183,16.4193939 54.2833923,16.2618182 54.1118793,16.1042424 C53.9403663,15.8678788 53.8546098,15.5527272 53.8546098,15.1587879 C53.9403663,14.4496969 54.6264183,13.8981818 55.3982269,13.8981818 C55.8270093,13.8981818 56.0842789,14.0557576 56.3415484,14.2133333 C56.6845743,14.4496969 56.7703309,14.8436363 56.6845743,15.1587879" id="Shape" fill="#139AD6" fill-rule="nonzero"></path><path d="M46.7773319,12.48 L45.2810378,12.48 C45.1050032,12.48 45.0169859,12.5636782 44.9289686,12.6473563 L42.9925881,15.4924138 L42.1124151,12.8147126 C42.0243978,12.6473563 41.9363805,12.5636782 41.6723286,12.5636782 L40.2640519,12.5636782 C40.0880173,12.5636782 40,12.7310345 40,12.8983908 L41.5843113,17.3333334 L40.0880173,19.3416092 C40,19.5089656 40.0880173,19.76 40.2640519,19.76 L41.6723286,19.76 C41.8483632,19.76 41.9363805,19.6763219 42.0243978,19.5926437 L46.8653492,12.982069 C47.1294011,12.7310345 46.9533665,12.48 46.7773319,12.48" id="Path" fill="#263B80"></path><path d="M60.1666667,9.5686539 L59,17.4183436 C59,17.5927811 59.0833333,17.68 59.25,17.68 L60.4166666,17.68 C60.5833333,17.68 60.75,17.5055624 60.8333333,17.3311249 L62,9.65587267 C62,9.48143512 61.9166667,9.39421635 61.7499999,9.39421635 L60.4166666,9.39421635 C60.3333333,9.30699757 60.25,9.39421635 60.1666667,9.5686539" id="Path" fill="#139AD6"></path><path d="M20.3312772,7.20676056 C19.7632864,6.56225352 18.7084464,6.24 17.2478986,6.24 L13.1908216,6.24 C12.947397,6.24 12.7039724,6.48169014 12.6228308,6.72338029 L11,17.2771831 C11,17.5188732 11.1622831,17.68 11.3245662,17.68 L13.8399539,17.68 L14.4890863,13.7323944 L14.4890863,13.8935211 C14.5702278,13.651831 14.8136524,13.4101408 15.057077,13.4101408 L16.2742002,13.4101408 C18.6273048,13.4101408 20.4124187,12.4433803 20.9804095,9.78478873 C20.9804095,9.70422535 20.9804095,9.62366197 20.9804095,9.54309859 C20.899268,9.54309859 20.899268,9.54309859 20.9804095,9.54309859 C21.061551,8.49577465 20.899268,7.85126761 20.3312772,7.20676056" id="Path" fill="#263B80"></path><path d="M21.0632496,9.36 C21.0632496,9.44739496 21.0632496,9.53478992 21.0632496,9.62218488 C20.5138857,12.5936135 18.7873136,13.554958 16.5113776,13.554958 L15.3341694,13.554958 C15.0987277,13.554958 14.8632861,13.8171429 14.7848055,14.0793277 L14,19.4104202 C14,19.5852101 14.0784806,19.76 14.3139222,19.76 L16.3544165,19.76 C16.5898582,19.76 16.8252998,19.5852101 16.8252998,19.3230253 L16.8252998,19.2356303 L17.2177026,16.5263866 L17.2177026,16.3515967 C17.2177026,16.0894118 17.4531443,15.9146219 17.6885859,15.9146219 L18.0025081,15.9146219 C19.9645219,15.9146219 21.5341329,15.0406723 21.9265356,12.4188235 C22.0834968,11.370084 22.0050162,10.4087395 21.5341329,9.79697479 C21.4556523,9.62218488 21.2986913,9.44739496 21.0632496,9.36" id="Path" fill="#139AD6"></path><path d="M31.4280209,9.36 L28.5874037,9.36 C28.4203086,9.36 28.2532135,9.53515789 28.1696659,9.71031579 L27,17.4172632 C27,17.5924211 27.0835476,17.68 27.2506427,17.68 L28.5874037,17.68 C28.7544988,17.68 28.921594,17.5048421 29.0051415,17.3296842 L29.3393318,15.2277895 C29.3393318,15.0526316 29.5064269,14.8774737 29.7570696,14.8774737 L30.6760928,14.8774737 C32.5976868,14.8774737 33.6838051,13.9141053 33.9344478,11.9873684 C34.1015429,11.1991579 33.9344478,10.4985263 33.6002575,10.0606316 C33.0989721,9.62273684 32.4305916,9.36 31.4280209,9.36 M31.7622111,12.2501053 C31.595116,13.3010526 30.8431879,13.3010526 30.0912598,13.3010526 L29.673522,13.3010526 L30.0077123,11.2867368 C30.0077123,11.1991579 30.0912598,11.1115789 30.258355,11.1115789 L30.4254501,11.1115789 C30.9267355,11.1115789 31.4280209,11.1115789 31.6786636,11.4618947 C31.7622111,11.5494737 31.8457587,11.8122105 31.7622111,12.2501053" id="Shape" fill="#263B80" fill-rule="nonzero"></path><path d="M39.6569739,11.6290909 L38.2848699,11.6290909 C38.1991134,11.6290909 38.0276004,11.7236364 38.0276004,11.8181818 L37.9418439,12.2909091 L37.8560874,12.1018182 C37.5130614,11.6290909 36.9127658,11.44 36.2267138,11.44 C34.6830968,11.44 33.3109927,12.7636364 33.0537232,14.56 C32.8822102,15.5054545 33.1394797,16.3563636 33.5682622,16.9236364 C33.9970447,17.4909091 34.5973403,17.68 35.3691488,17.68 C36.6554963,17.68 37.3415484,16.8290909 37.3415484,16.8290909 L37.2557919,17.3018182 C37.2557919,17.4909091 37.3415484,17.5854545 37.5130614,17.5854545 L38.799409,17.5854545 C38.9709219,17.5854545 39.1424349,17.3963636 39.2281915,17.2072727 L40,11.9127273 C39.9142435,11.8181818 39.7427305,11.6290909 39.6569739,11.6290909 M37.6845744,14.6545455 C37.5130614,15.5054545 36.9127658,16.1672727 36.0552008,16.1672727 C35.6264183,16.1672727 35.2833923,15.9781818 35.1118793,15.7890909 C34.9403663,15.5054545 34.8546098,15.1272727 34.8546098,14.6545455 C34.9403663,13.8036364 35.6264183,13.1418182 36.3982268,13.1418182 C36.8270093,13.1418182 37.0842789,13.3309091 37.3415484,13.52 C37.5988179,13.8036364 37.6845744,14.2763636 37.6845744,14.6545455" id="Shape" fill="#263B80" fill-rule="nonzero"></path><path d="M20.2222223,9.62 C20.1358025,9.62 20.0493827,9.53333333 19.962963,9.53333333 C19.8765432,9.53333333 19.7901235,9.53333333 19.7037037,9.44666667 C19.3580247,9.36 19.0123457,9.36 18.5802469,9.36 L15.2098766,9.36 C15.1234568,9.36 15.037037,9.36 14.9506173,9.44666667 C14.7777778,9.53333333 14.691358,9.70666667 14.691358,9.88 L14,14.3866667 L14,14.56 C14.0864198,14.3 14.345679,14.04 14.6049383,14.04 L15.9012346,14.04 C18.4074074,14.04 20.308642,13 20.9135803,10.14 C20.9135803,10.0533333 20.9135803,9.96666667 21,9.88 C20.8271605,9.79333333 20.7407408,9.70666667 20.5679013,9.70666667 C20.308642,9.62 20.308642,9.62 20.2222223,9.62" id="Path" fill="#232C65"></path></g></g></svg>