<?xml version="1.0" standalone="no"?>
<!DOCTYPE svg PUBLIC "-//W3C//DTD SVG 20010904//EN"
 "http://www.w3.org/TR/2001/REC-SVG-20010904/DTD/svg10.dtd">
<svg version="1.0" xmlns="http://www.w3.org/2000/svg"
 width="264.000000pt" height="264.000000pt" viewBox="0 0 264.000000 264.000000"
 preserveAspectRatio="xMidYMid meet">
<metadata>
Created by potrace 1.11, written by Peter Selinger 2001-2013
</metadata>
<g transform="translate(0.000000,264.000000) scale(0.100000,-0.100000)"
fill="#000000" stroke="none">
<path d="M1278 2584 c-133 -173 -221 -354 -244 -504 -7 -46 -7 -165 0 -204 16
-84 49 -183 85 -251 45 -86 59 -98 -177 150 -52 55 -108 114 -125 132 l-30 32
69 71 c38 39 70 74 72 78 1 5 -8 18 -21 30 l-23 22 -130 -137 c-71 -75 -146
-154 -167 -175 -38 -38 -38 -38 -20 -63 10 -13 21 -25 25 -25 4 0 39 33 78 73
l70 72 71 -75 c39 -41 103 -109 143 -150 39 -42 89 -95 111 -119 l40 -43 -61
36 c-34 20 -104 50 -155 67 -168 56 -316 41 -499 -51 -87 -44 -193 -117 -265
-182 l-50 -46 20 -22 c25 -28 180 -150 191 -150 4 0 15 -6 23 -14 28 -25 154
-84 230 -106 160 -49 343 -19 515 82 64 38 78 54 -238 -277 l-76 -80 -70 73
c-38 39 -73 72 -77 72 -4 0 -16 -11 -25 -24 -20 -27 -39 -2 186 -240 l130
-137 24 27 25 26 -54 55 c-103 106 -96 90 -56 132 142 149 213 225 266 281
l61 65 -39 -85 c-119 -257 -110 -478 32 -740 34 -63 114 -180 155 -228 l28
-32 27 32 c88 107 178 258 220 373 77 210 64 400 -43 616 l-31 64 51 -55 c29
-30 87 -91 129 -135 42 -44 101 -106 130 -137 l53 -57 -69 -71 c-37 -39 -69
-75 -71 -79 -1 -4 8 -17 21 -29 l24 -22 68 72 c38 40 113 119 167 176 l99 103
-23 27 -23 28 -72 -76 -73 -75 -76 80 c-42 44 -106 112 -143 150 -37 39 -84
90 -106 115 -36 40 -37 42 -10 24 98 -66 258 -116 374 -117 179 -1 399 102
585 276 l41 37 -50 47 c-105 97 -261 192 -385 235 -171 59 -362 33 -544 -74
l-50 -30 39 44 c22 23 71 77 111 118 39 41 103 109 143 150 l71 75 70 -73 c59
-60 74 -71 89 -62 10 5 21 16 24 23 6 16 -4 27 -197 231 l-130 137 -24 -27
-25 -26 54 -55 c103 -106 95 -91 61 -126 -16 -18 -75 -79 -130 -137 -55 -58
-123 -130 -152 -160 l-51 -55 25 51 c128 261 131 469 10 721 -37 76 -129 219
-182 282 l-29 34 -45 -59z m95 -166 c101 -154 155 -305 155 -437 0 -125 -34
-211 -138 -349 -34 -45 -63 -82 -65 -82 -8 0 -130 171 -150 210 -90 177 -66
372 73 610 49 84 71 112 82 105 5 -3 24 -29 43 -57z m-582 -892 c72 -16 171
-76 264 -160 l50 -46 -50 -46 c-74 -67 -160 -124 -224 -147 -106 -39 -249 -22
-385 44 -78 39 -235 145 -225 152 2 2 22 17 44 34 182 139 375 201 526 169z
m1279 -6 c93 -25 262 -115 339 -180 29 -25 31 -21 -94 -104 -192 -125 -364
-162 -505 -106 -61 24 -146 81 -215 144 l-50 45 36 33 c182 168 316 214 489
168z m-678 -77 c36 -21 68 -80 68 -124 0 -70 -59 -136 -126 -141 -80 -5 -151
74 -141 158 11 100 115 156 199 107z m-2 -435 c111 -147 141 -230 136 -371 -2
-72 -10 -110 -34 -178 -32 -88 -103 -222 -145 -273 l-24 -29 -25 34 c-41 53
-123 217 -149 294 -19 56 -24 92 -24 175 1 123 19 180 93 288 37 56 103 141
108 142 1 0 30 -37 64 -82z"/>
</g>
</svg>
