<svg version="1.1" id="Layer_1" xmlns="http://www.w3.org/2000/svg" xmlns:xlink="http://www.w3.org/1999/xlink" x="0px" y="0px" viewBox="0 0 789.34 365.16" style="enable-background:new 0 0 789.34 365.16;" xml:space="preserve"> <g> <path d="M443.94,147.67c-19.48,0-31.29-12.84-41.66-20.99c10.37-8.16,22.18-21,41.66-21c19.47,0,38.9,12.84,49.27,21 C482.83,134.83,463.41,147.67,443.94,147.67 M380.64,105.03c-8.15-10.37-20.99-22.18-20.99-41.66c0-19.47,12.84-38.89,20.99-49.26 c8.16,10.38,20.99,29.79,20.99,49.26C401.62,82.85,388.79,94.66,380.64,105.03 M370.8,116.85c5.43-5.43,14.23-5.43,19.66,0 c5.43,5.42,5.43,14.23,0,19.66c-5.43,5.42-14.23,5.42-19.66,0C365.38,131.08,365.38,122.28,370.8,116.85 M401.62,189.99 c0,19.47-12.83,38.89-20.99,49.26c-8.15-10.37-20.99-29.79-20.99-49.26c0-19.48,12.84-31.29,20.99-41.66 C388.79,158.7,401.62,170.51,401.62,189.99 M317.33,147.67c-19.47,0-38.9-12.84-49.27-20.99c10.37-8.16,29.8-21,49.27-21 c19.47,0,31.28,12.84,41.66,21C348.61,134.83,336.8,147.67,317.33,147.67 M253.95,126.68 M380.64,253.36 M380.64,0 M507.32,126.68 M507.32,126.68l-0.09-0.09c-2.48-2.38-32.01-30.08-63.28-30.08c-15.93,0-31.39,7.19-43.07,14.56L440,71.93l14.61,14.61l4.62-4.62 l-33.84-33.84l-4.62,4.62l14.61,14.61l-39.13,39.13c7.38-11.68,14.57-27.14,14.57-43.07c0-31.27-27.72-60.8-30.09-63.28L380.64,0 l-0.09,0.09c-2.37,2.48-30.09,32.01-30.09,63.28c0,15.94,7.19,31.39,14.57,43.07l-39.13-39.13L340.5,52.7l-4.62-4.62l-33.84,33.84 l4.62,4.62l14.61-14.61l39.13,39.13c-11.68-7.37-27.14-14.55-43.07-14.55c-31.27,0-60.81,27.71-63.28,30.08l-0.09,0.09l0.09,0.09 c2.48,2.38,32.01,30.09,63.28,30.09c15.93,0,31.39-7.2,43.07-14.56l-39.13,39.13l-14.61-14.61l-4.62,4.62l33.84,33.84l4.62-4.62 l-14.61-14.61l39.13-39.13c-7.38,11.68-14.57,27.14-14.57,43.07c0,31.27,27.72,60.8,30.09,63.28l0.09,0.09l0.09-0.09 c2.37-2.48,30.09-32.01,30.09-63.28c0-15.94-7.19-31.39-14.57-43.07l39.13,39.13l-14.61,14.61l4.62,4.62l33.84-33.84l-4.62-4.62 L440,181.43l-39.13-39.13c11.68,7.37,27.14,14.56,43.07,14.56c31.28,0,60.81-27.71,63.28-30.09L507.32,126.68z"/> <g> <polygon points="0,293.73 0,305.11 23.25,305.11 23.25,364.29 35.78,364.29 35.78,305.11 58.64,305.11 58.64,293.73 		"/> <polygon points="105.4,293.73 105.4,364.29 153.29,364.29 153.29,353 117.83,353 117.83,334.25 148.83,334.25 148.83,322.88 117.83,322.88 117.83,305.11 153.19,305.11 153.19,293.73"/> <path d="M216.36,305h11.26c9.9,0,15.81,5.12,15.81,13.69c0,8.07-6.4,13.29-16.28,13.29h-10.78V305z M256.26,318.7 c0-15.4-10.75-24.97-28.06-24.97h-24.29v70.57h12.45v-21.02h10.97c0.91,0,1.79,0,2.67-0.05l14.39,21.07h15.02l-16.66-24.15 C251.35,336.09,256.26,328.36,256.26,318.7"/> <path d="M333.11,312.14l11.04,26.73h-22.17L333.11,312.14z M328.7,293.73l-30.31,70.57h13.26l5.92-14.35h31.07l5.81,14.35h13.35 l-30.11-70.57H328.7z"/> <path d="M428.26,322.05c-10.5-2.74-13.7-4.99-13.7-9.65c0-5.17,4.38-8.25,11.74-8.25c6.69,0,11.24,1.42,16.21,5.08l1.08,0.78 l6.03-9.59l-0.85-0.68c-5.64-4.62-12.99-6.87-22.47-6.87c-14.29,0-24.29,8.23-24.29,20.01c0,13.21,10.85,17.77,21.47,20.48 c12.02,2.94,14.37,6.36,14.37,11.3c0,5.77-4.53,9.22-12.14,9.22c-7.03,0-13.88-2.35-19.28-6.61l-1.08-0.85l-6.47,10.25l0.9,0.68 c6.84,5.18,15.59,7.8,26.03,7.8c14.7,0,24.58-8.55,24.58-21.28C450.39,329.81,439.75,325.08,428.26,322.05"/> <path d="M520.83,312.14l11.05,26.73h-22.17L520.83,312.14z M516.45,293.73l-30.32,70.57h13.26l5.91-14.35h31.07l5.83,14.35h13.34 l-30.1-70.57H516.45z"/> <polygon points="597.11,293.06 597.11,364.28 609.36,364.28 609.36,316.14 650.85,365.05 658.45,365.05 658.45,293.73 646.12,293.73 646.12,341.96 604.82,293.06"/> <path d="M736.57,312.14l11.05,26.73h-22.18L736.57,312.14z M732.18,293.73l-30.32,70.57h13.26l5.91-14.35h31.07l5.83,14.35h13.34 l-30.1-70.57H732.18z"/> </g> <g> <path d="M784.72,294.96c1.43,0.82,2.56,1.95,3.38,3.38c0.82,1.43,1.23,3.03,1.23,4.77s-0.42,3.35-1.26,4.8 c-0.84,1.45-1.98,2.6-3.42,3.43c-1.44,0.84-3.04,1.26-4.79,1.26s-3.34-0.42-4.77-1.26c-1.43-0.84-2.57-1.98-3.39-3.42 c-0.83-1.44-1.24-3.03-1.24-4.76c0-1.73,0.41-3.31,1.24-4.76c0.83-1.44,1.97-2.58,3.41-3.42c1.44-0.84,3.05-1.26,4.81-1.26 C781.69,293.73,783.29,294.14,784.72,294.96z M783.89,310.06c1.2-0.71,2.15-1.68,2.85-2.9c0.7-1.22,1.04-2.57,1.04-4.05 s-0.34-2.82-1.02-4.02c-0.68-1.2-1.61-2.15-2.81-2.85c-1.19-0.7-2.54-1.04-4.04-1.04c-1.5,0-2.85,0.35-4.06,1.06 c-1.21,0.7-2.16,1.66-2.85,2.87c-0.69,1.21-1.03,2.56-1.03,4.04c0,1.48,0.34,2.82,1.03,4.04c0.69,1.21,1.63,2.17,2.83,2.87 c1.2,0.7,2.54,1.06,4.02,1.06C781.35,311.13,782.69,310.77,783.89,310.06z M784.22,303.56c-0.37,0.55-0.89,0.97-1.56,1.26 l2.35,3.61h-2.3l-2.08-3.21h-0.29h-2.08v3.21h-2.3V297.9h4.38c1.37,0,2.46,0.33,3.25,0.99c0.79,0.66,1.19,1.55,1.19,2.67 C784.76,302.34,784.58,303.01,784.22,303.56z M780.19,303.43c0.75,0,1.33-0.17,1.74-0.49c0.41-0.33,0.61-0.79,0.61-1.38 s-0.21-1.04-0.61-1.36c-0.41-0.32-0.99-0.48-1.74-0.48h-1.98v3.72H780.19z"/> </g> </g> </svg>