<svg version="1.1" id="Layer_1" xmlns="http://www.w3.org/2000/svg" xmlns:xlink="http://www.w3.org/1999/xlink" x="0px" y="0px" viewBox="0 0 811.66 183.11" style="enable-background:new 0 0 811.66 183.11;" xml:space="preserve"> <g> <g> <g> <polygon points="206.53,64.52 206.53,73.24 224.35,73.24 224.35,118.59 233.95,118.59 233.95,73.24 251.47,73.24 251.47,64.52 "/> <polygon points="287.3,64.52 287.3,118.59 324,118.59 324,109.94 296.83,109.94 296.83,95.57 320.58,95.57 320.58,86.86 296.83,86.86 296.83,73.24 323.92,73.24 323.92,64.52"/> <path d="M372.33,73.16h8.63c7.59,0,12.11,3.92,12.11,10.49c0,6.19-4.9,10.18-12.48,10.18h-8.26V73.16z M402.9,83.65 c0-11.8-8.24-19.13-21.5-19.13h-18.61v54.07h9.54v-16.11h8.4c0.7,0,1.37,0,2.05-0.04l11.02,16.15h11.51l-12.76-18.51 C399.14,96.98,402.9,91.06,402.9,83.65"/> <path d="M461.79,78.63l8.46,20.48h-16.99L461.79,78.63z M458.41,64.52l-23.22,54.07h10.16l4.54-10.99h23.81l4.46,10.99h10.23 l-23.07-54.07H458.41z"/> <path d="M534.7,86.22c-8.05-2.1-10.5-3.82-10.5-7.39c0-3.96,3.36-6.32,9-6.32c5.12,0,8.61,1.09,12.42,3.89l0.83,0.6l4.62-7.35 l-0.65-0.52c-4.32-3.54-9.95-5.27-17.22-5.27c-10.95,0-18.61,6.31-18.61,15.34c0,10.12,8.32,13.61,16.45,15.69 c9.21,2.26,11.01,4.88,11.01,8.66c0,4.42-3.47,7.07-9.3,7.07c-5.39,0-10.64-1.8-14.77-5.07l-0.83-0.65l-4.96,7.86l0.69,0.52 c5.24,3.97,11.95,5.98,19.94,5.98c11.26,0,18.83-6.55,18.83-16.31C551.66,92.17,543.51,88.54,534.7,86.22"/> <path d="M605.64,78.63l8.47,20.48h-16.99L605.64,78.63z M602.28,64.52l-23.23,54.07h10.16l4.53-10.99h23.81l4.46,10.99h10.22 l-23.07-54.07H602.28z"/> <polygon points="664.09,64 664.09,118.59 673.48,118.59 673.48,81.69 705.27,119.17 711.1,119.17 711.1,64.52 701.64,64.52 701.64,101.48 670,64"/> <path d="M770.95,78.63l8.47,20.48h-17L770.95,78.63z M767.59,64.52l-23.23,54.07h10.16l4.53-10.99h23.81l4.46,10.99h10.22 l-23.07-54.07H767.59z"/> </g> <g> <path d="M808.2,65.44c1.07,0.61,1.91,1.46,2.53,2.53c0.61,1.07,0.92,2.26,0.92,3.57c0,1.31-0.31,2.5-0.94,3.59 c-0.63,1.09-1.48,1.94-2.56,2.57c-1.08,0.63-2.27,0.94-3.58,0.94s-2.49-0.31-3.57-0.94c-1.07-0.63-1.92-1.48-2.54-2.56 c-0.62-1.08-0.93-2.26-0.93-3.56c0-1.29,0.31-2.48,0.93-3.56c0.62-1.08,1.47-1.93,2.55-2.56c1.08-0.63,2.28-0.94,3.6-0.94 C805.93,64.52,807.13,64.83,808.2,65.44z M807.58,76.73c0.9-0.53,1.61-1.26,2.13-2.17c0.52-0.91,0.78-1.92,0.78-3.03 c0-1.11-0.25-2.11-0.76-3.01c-0.51-0.9-1.21-1.61-2.1-2.13c-0.89-0.52-1.9-0.78-3.02-0.78s-2.13,0.26-3.04,0.79 c-0.91,0.53-1.61,1.24-2.13,2.15c-0.51,0.91-0.77,1.91-0.77,3.02c0,1.11,0.26,2.11,0.77,3.02c0.51,0.91,1.22,1.62,2.12,2.15 c0.9,0.53,1.9,0.79,3.01,0.79C805.68,77.52,806.68,77.26,807.58,76.73z M807.82,71.87c-0.27,0.41-0.66,0.73-1.17,0.94l1.76,2.7 h-1.72l-1.56-2.4h-0.22h-1.56v2.4h-1.72v-7.87h3.28c1.03,0,1.83,0.25,2.43,0.74c0.59,0.49,0.89,1.16,0.89,2 C808.23,70.96,808.1,71.46,807.82,71.87z M804.82,71.77c0.56,0,0.99-0.12,1.3-0.37c0.31-0.25,0.46-0.59,0.46-1.03 c0-0.44-0.15-0.78-0.46-1.02c-0.31-0.24-0.74-0.36-1.3-0.36h-1.48v2.78H804.82z"/> </g> </g> <g> <path d="M137.31,106.73c-14.08,0-22.62-9.28-30.11-15.17c7.49-5.89,16.03-15.17,30.11-15.17c14.07,0,28.11,9.28,35.6,15.17 C165.42,97.45,151.39,106.73,137.31,106.73 M91.56,75.91c-5.89-7.49-15.17-16.03-15.17-30.11c0-14.07,9.28-28.1,15.17-35.6 c5.9,7.5,15.17,21.53,15.17,35.6C106.73,59.88,97.46,68.42,91.56,75.91 M84.46,84.45c3.92-3.92,10.29-3.92,14.21,0 c3.92,3.92,3.92,10.28,0,14.21c-3.92,3.92-10.29,3.92-14.21,0C80.53,94.74,80.53,88.37,84.46,84.45 M106.73,137.31 c0,14.07-9.27,28.11-15.17,35.6c-5.89-7.49-15.17-21.53-15.17-35.6c0-14.08,9.28-22.62,15.17-30.11 C97.46,114.69,106.73,123.23,106.73,137.31 M45.81,106.73c-14.07,0-28.11-9.28-35.6-15.17c7.49-5.89,21.53-15.17,35.6-15.17 s22.61,9.28,30.11,15.17C68.42,97.45,59.88,106.73,45.81,106.73 M0.01,91.56 M91.56,183.11 M91.56,0 M183.12,91.56 M183.12,91.56 l-0.06-0.07c-1.79-1.72-23.13-21.74-45.74-21.74c-11.51,0-22.68,5.2-31.13,10.52l28.28-28.28l10.56,10.56l3.34-3.34L123.9,34.75 l-3.34,3.34l10.56,10.56l-28.28,28.28c5.33-8.44,10.53-19.61,10.53-31.13c0-22.6-20.03-43.94-21.75-45.73L91.56,0L91.5,0.07 C89.78,1.86,69.75,23.2,69.75,45.8c0,11.52,5.2,22.69,10.53,31.13L52,48.65l10.56-10.56l-3.34-3.34L34.76,59.21l3.34,3.34 l10.56-10.56l28.28,28.28c-8.44-5.32-19.61-10.52-31.13-10.52c-22.6,0-43.95,20.02-45.74,21.74l-0.06,0.07l0.06,0.06 c1.79,1.72,23.14,21.75,45.74,21.75c11.51,0,22.68-5.2,31.13-10.52l-28.28,28.28L38.1,120.56l-3.34,3.34l24.46,24.46l3.34-3.34 L52,134.46l28.28-28.28c-5.33,8.44-10.53,19.61-10.53,31.13c0,22.6,20.03,43.94,21.75,45.73l0.06,0.07l0.06-0.07 c1.72-1.79,21.75-23.13,21.75-45.73c0-11.52-5.2-22.69-10.53-31.13l28.28,28.28l-10.56,10.56l3.34,3.34l24.46-24.46l-3.34-3.34 l-10.56,10.56l-28.28-28.28c8.44,5.32,19.61,10.52,31.13,10.52c22.6,0,43.95-20.03,45.74-21.75L183.12,91.56z"/> </g> </g> </svg>