<svg width="56px" height="56px" viewBox="0 0 56 56" version="1.1" xmlns="http://www.w3.org/2000/svg" xmlns:xlink="http://www.w3.org/1999/xlink"><g id="twitter" stroke="none" stroke-width="1" fill="none" fill-rule="evenodd"><rect id="Rectangle" fill="#000000" fill-rule="nonzero" x="0" y="0" width="56" height="56"></rect><path d="M23.1768038,39 C32.9887813,39 38.3541934,30.9214471 38.3541934,23.9162798 C38.3541934,23.6868212 38.3494907,23.458398 38.3391344,23.2310075 C39.3807037,22.4826876 40.2860332,21.5488373 41,20.4857876 C40.0442306,20.9080099 39.0156612,21.1922482 37.9366501,21.3204141 C39.0380212,20.6640821 39.8835489,19.62584 40.2823932,18.3881133 C39.2517429,18.9953484 38.1103318,19.4366929 36.8950798,19.6749351 C35.9216304,18.6444441 34.5358167,18 33.0012822,18 C30.0554531,18 27.6665492,20.3741608 27.6665492,23.3007751 C27.6665492,23.7167951 27.7133492,24.1214474 27.8048709,24.5095598 C23.3713082,24.2878549 19.440068,22.1782944 16.8093632,18.9705425 C16.3512381,19.754005 16.0870764,20.6640821 16.0870764,21.6351413 C16.0870764,23.4744185 17.0288049,25.0981914 18.4608986,26.0480622 C17.5857309,26.0211891 16.7636023,25.7824283 16.0449546,25.3850128 C16.0441694,25.4072556 16.0441694,25.4289409 16.0441694,25.4527133 C16.0441694,28.0201546 17.8829082,30.1638241 20.3238121,30.6496117 C19.8755679,30.7710593 19.4039227,30.8361749 18.9171985,30.8361749 C18.5739951,30.8361749 18.2396316,30.8026043 17.9146291,30.7405686 C18.593755,32.8470283 20.5630138,34.3798443 22.8978378,34.4227397 C21.072099,35.8449607 18.7721168,36.6919902 16.2724528,36.6919902 C15.8424077,36.6919902 15.4175643,36.6676802 15,36.6186042 C17.360824,38.1224816 20.1641713,39 23.1770795,39" id="path3611" fill="#FFFFFF"></path></g></svg>