<svg width="56px" height="56px" viewBox="0 0 56 56" version="1.1" xmlns="http://www.w3.org/2000/svg" xmlns:xlink="http://www.w3.org/1999/xlink"><g id="youtube" stroke="none" stroke-width="1" fill="none" fill-rule="evenodd"><rect id="Rectangle" fill="#000000" fill-rule="nonzero" x="0" y="0" width="56" height="56"></rect><path d="M32.3462154,28.2426881 L26.1250717,31.6223414 L26.1250717,26.4201957 L26.1250717,24.8373723 L28.9430684,26.3830768 L32.3462154,28.2426881 Z M39.7758515,23.6688142 C39.7758515,23.6688142 39.5394271,21.9980052 38.8533418,21.2689166 C37.9812995,20.314365 36.9960464,20.3015338 36.5600253,20.2382942 C33.3432898,20 28.5193231,20 28.5193231,20 L28.4934074,20 C28.4934074,20 23.6821713,20 20.4649811,20.2382942 C20.0044083,20.3015338 19.0323403,20.314365 18.1598434,21.2689166 C17.4737581,21.9980052 17.2377884,23.6688142 17.2377884,23.6688142 C17.2377884,23.6688142 17,25.628784 17,27.5640079 L17,27.8151333 L17,29.4107879 C17,31.3707577 17.2377884,33.3059816 17.2377884,33.3059816 C17.2377884,33.3059816 17.4737581,34.9772488 18.1598434,35.7182521 C19.0323403,36.685635 20.1794532,36.6485161 20.7032242,36.7488746 C22.5355131,36.9372186 28.5193231,37 28.5193231,37 C28.5193231,37 33.3432898,36.9752541 36.5600253,36.7488746 C36.9960464,36.685635 37.9812995,36.685635 38.8533418,35.7182521 C39.5394271,34.9772488 39.7758515,33.3059816 39.7758515,33.3059816 C39.7758515,33.3059816 40,31.3707577 40,29.4107879 L40,27.9159501 L40,27.5640079 C40,25.628784 39.7758515,23.6688142 39.7758515,23.6688142 Z" id="icon" fill="#FFFFFF" fill-rule="nonzero"></path></g></svg>